M48
; DRILL file {KiCad (5.1.5)-3} date 4/17/2020 11:24:12 AM
; FORMAT={-:-/ absolute / inch / decimal}
; #@! TF.CreationDate,2020-04-17T11:24:12-04:00
; #@! TF.GenerationSoftware,Kicad,Pcbnew,(5.1.5)-3
; #@! TF.FileFunction,Plated,1,2,PTH
FMAT,2
INCH
T1C0.0157
T2C0.0315
T3C0.0394
%
G90
G05
T1
X0.109Y-0.8413
X0.1201Y-0.221
X0.1362Y-0.053
X0.16Y-0.326
X0.2046Y-0.053
X0.219Y-0.603
X0.221Y-0.647
X0.228Y-0.568
X0.233Y-0.686
X0.2392Y-0.5344
X0.26Y-0.214
X0.269Y-0.357
X0.3014Y-0.053
X0.335Y-0.465
X0.336Y-0.417
X0.358Y-0.82
X0.364Y-0.7249
X0.371Y-0.469
X0.374Y-0.873
X0.3747Y-0.0503
X0.38Y-0.1552
X0.4084Y-0.8111
X0.428Y-0.456
X0.438Y-0.656
X0.495Y-0.713
X0.52Y-0.514
X0.521Y-0.2949
X0.541Y-0.642
X0.542Y-0.355
X0.608Y-0.814
X0.626Y-0.671
X0.633Y-0.228
X0.637Y-0.268
X0.641Y-0.549
X0.644Y-0.7304
X0.6509Y-0.4729
X0.653Y-0.368
X0.662Y-0.834
X0.669Y-0.176
X0.6912Y-0.5248
X0.6946Y-0.7991
X0.703Y-0.456
X0.707Y-0.615
X0.715Y-0.574
X0.729Y-0.178
X0.731Y-0.486
X0.736Y-0.763
X0.75Y-0.212
X0.755Y-0.371
X0.7755Y-0.7635
X0.776Y-0.184
X0.789Y-0.356
X0.7998Y-0.4811
X0.8504Y-0.3543
X0.869Y-0.652
X0.875Y-0.892
X0.926Y-0.315
X0.9275Y-0.6437
X0.962Y-0.949
X0.9921Y-0.5669
X0.999Y-0.426
X1.001Y-0.486
X1.0543Y-0.2404
X1.08Y-0.881
X1.093Y-0.431
X1.109Y-0.712
X1.113Y-0.359
X1.121Y-0.762
X1.121Y-0.817
X1.1264Y-0.8685
X1.1403Y-0.0564
X1.18Y-0.495
X1.2Y-0.701
X1.2156Y-0.9082
X1.2707Y-0.69
X1.2742Y-0.2714
X1.2756Y-0.6378
X1.3025Y-0.4586
X1.311Y-0.3898
X1.311Y-0.5315
X1.311Y-0.7441
X1.367Y-0.241
T2
X1.2933Y-0.042
X1.372Y-0.042
X1.2942Y-0.9578
X1.3729Y-0.9578
X0.4888Y-0.9583
X0.5676Y-0.9583
X0.49Y-0.042
X0.5687Y-0.042
T3
X0.053Y-0.053
X0.053Y-0.153
X0.878Y-0.052
X0.978Y-0.052
X1.078Y-0.052
T0
M30
