G04 #@! TF.GenerationSoftware,KiCad,Pcbnew,(5.1.5)-3*
G04 #@! TF.CreationDate,2020-04-17T11:23:33-04:00*
G04 #@! TF.ProjectId,STM32_SMD_Quadcopter,53544d33-325f-4534-9d44-5f5175616463,rev?*
G04 #@! TF.SameCoordinates,PX2daf690PY1aab7d8*
G04 #@! TF.FileFunction,Legend,Bot*
G04 #@! TF.FilePolarity,Positive*
%FSLAX46Y46*%
G04 Gerber Fmt 4.6, Leading zero omitted, Abs format (unit mm)*
G04 Created by KiCad (PCBNEW (5.1.5)-3) date 2020-04-17 11:23:33*
%MOMM*%
%LPD*%
G04 APERTURE LIST*
%ADD10C,0.120000*%
%ADD11C,0.050000*%
G04 APERTURE END LIST*
D10*
X17942779Y-3960400D02*
X17617221Y-3960400D01*
X17942779Y-4980400D02*
X17617221Y-4980400D01*
X8968200Y-22311579D02*
X8968200Y-21986021D01*
X7948200Y-22311579D02*
X7948200Y-21986021D01*
X4731936Y-11901000D02*
X5936064Y-11901000D01*
X4731936Y-9181000D02*
X5936064Y-9181000D01*
X11204000Y-12926000D02*
X10554000Y-12926000D01*
X7084000Y-17046000D02*
X7734000Y-17046000D01*
X7084000Y-12926000D02*
X7734000Y-12926000D01*
X7084000Y-17046000D02*
X7084000Y-16396000D01*
X7084000Y-12926000D02*
X7084000Y-13576000D01*
X11204000Y-12926000D02*
X11204000Y-13576000D01*
X11204000Y-17046000D02*
X11204000Y-16396000D01*
X3194000Y-2687000D02*
X4454000Y-2687000D01*
X10014000Y-2687000D02*
X8754000Y-2687000D01*
X3194000Y-6447000D02*
X3194000Y-2687000D01*
X10014000Y-8697000D02*
X10014000Y-2687000D01*
X29131800Y-8468579D02*
X29131800Y-8143021D01*
X30151800Y-8468579D02*
X30151800Y-8143021D01*
X27658600Y-8143021D02*
X27658600Y-8468579D01*
X28678600Y-8143021D02*
X28678600Y-8468579D01*
X15663000Y-16695600D02*
X15663000Y-22995600D01*
X28533000Y-17395600D02*
X28533000Y-22995600D01*
X15663000Y-12985600D02*
X15663000Y-14795600D01*
X28533000Y-12985600D02*
X17273000Y-12985600D01*
X28533000Y-14145600D02*
X28533000Y-12985600D01*
X15773000Y-12985600D02*
X15663000Y-12985600D01*
D11*
X17357757Y-5379107D02*
X17224423Y-5569583D01*
X17129185Y-5379107D02*
X17129185Y-5779107D01*
X17281566Y-5779107D01*
X17319661Y-5760060D01*
X17338709Y-5741012D01*
X17357757Y-5702917D01*
X17357757Y-5645774D01*
X17338709Y-5607679D01*
X17319661Y-5588631D01*
X17281566Y-5569583D01*
X17129185Y-5569583D01*
X17738709Y-5379107D02*
X17510138Y-5379107D01*
X17624423Y-5379107D02*
X17624423Y-5779107D01*
X17586328Y-5721964D01*
X17548233Y-5683869D01*
X17510138Y-5664821D01*
X18081566Y-5645774D02*
X18081566Y-5379107D01*
X17986328Y-5798155D02*
X17891090Y-5512440D01*
X18138709Y-5512440D01*
X9745342Y-22215466D02*
X9726295Y-22234514D01*
X9707247Y-22291657D01*
X9707247Y-22329752D01*
X9726295Y-22386895D01*
X9764390Y-22424990D01*
X9802485Y-22444038D01*
X9878676Y-22463085D01*
X9935819Y-22463085D01*
X10012009Y-22444038D01*
X10050104Y-22424990D01*
X10088200Y-22386895D01*
X10107247Y-22329752D01*
X10107247Y-22291657D01*
X10088200Y-22234514D01*
X10069152Y-22215466D01*
X10107247Y-22082133D02*
X10107247Y-21815466D01*
X9707247Y-21986895D01*
X5169526Y-12560917D02*
X5188574Y-12579964D01*
X5245717Y-12599012D01*
X5283812Y-12599012D01*
X5340955Y-12579964D01*
X5379050Y-12541869D01*
X5398098Y-12503774D01*
X5417145Y-12427583D01*
X5417145Y-12370440D01*
X5398098Y-12294250D01*
X5379050Y-12256155D01*
X5340955Y-12218060D01*
X5283812Y-12199012D01*
X5245717Y-12199012D01*
X5188574Y-12218060D01*
X5169526Y-12237107D01*
X4807621Y-12199012D02*
X4998098Y-12199012D01*
X5017145Y-12389488D01*
X4998098Y-12370440D01*
X4960002Y-12351393D01*
X4864764Y-12351393D01*
X4826669Y-12370440D01*
X4807621Y-12389488D01*
X4788574Y-12427583D01*
X4788574Y-12522821D01*
X4807621Y-12560917D01*
X4826669Y-12579964D01*
X4864764Y-12599012D01*
X4960002Y-12599012D01*
X4998098Y-12579964D01*
X5017145Y-12560917D01*
X5686452Y-16273818D02*
X6010261Y-16273818D01*
X6048357Y-16292865D01*
X6067404Y-16311913D01*
X6086452Y-16350008D01*
X6086452Y-16426199D01*
X6067404Y-16464294D01*
X6048357Y-16483341D01*
X6010261Y-16502389D01*
X5686452Y-16502389D01*
X5686452Y-16654770D02*
X5686452Y-16902389D01*
X5838833Y-16769056D01*
X5838833Y-16826199D01*
X5857880Y-16864294D01*
X5876928Y-16883341D01*
X5915023Y-16902389D01*
X6010261Y-16902389D01*
X6048357Y-16883341D01*
X6067404Y-16864294D01*
X6086452Y-16826199D01*
X6086452Y-16711913D01*
X6067404Y-16673818D01*
X6048357Y-16654770D01*
X10936632Y-4925098D02*
X11260441Y-4925098D01*
X11298537Y-4944145D01*
X11317584Y-4963193D01*
X11336632Y-5001288D01*
X11336632Y-5077479D01*
X11317584Y-5115574D01*
X11298537Y-5134621D01*
X11260441Y-5153669D01*
X10936632Y-5153669D01*
X11336632Y-5553669D02*
X11336632Y-5325098D01*
X11336632Y-5439383D02*
X10936632Y-5439383D01*
X10993775Y-5401288D01*
X11031870Y-5363193D01*
X11050918Y-5325098D01*
X31252752Y-8239133D02*
X31062276Y-8105800D01*
X31252752Y-8010561D02*
X30852752Y-8010561D01*
X30852752Y-8162942D01*
X30871800Y-8201038D01*
X30890847Y-8220085D01*
X30928942Y-8239133D01*
X30986085Y-8239133D01*
X31024180Y-8220085D01*
X31043228Y-8201038D01*
X31062276Y-8162942D01*
X31062276Y-8010561D01*
X30986085Y-8581990D02*
X31252752Y-8581990D01*
X30833704Y-8486752D02*
X31119419Y-8391514D01*
X31119419Y-8639133D01*
X26557647Y-8372466D02*
X26748123Y-8505800D01*
X26557647Y-8601038D02*
X26957647Y-8601038D01*
X26957647Y-8448657D01*
X26938600Y-8410561D01*
X26919552Y-8391514D01*
X26881457Y-8372466D01*
X26824314Y-8372466D01*
X26786219Y-8391514D01*
X26767171Y-8410561D01*
X26748123Y-8448657D01*
X26748123Y-8601038D01*
X26957647Y-8010561D02*
X26957647Y-8201038D01*
X26767171Y-8220085D01*
X26786219Y-8201038D01*
X26805266Y-8162942D01*
X26805266Y-8067704D01*
X26786219Y-8029609D01*
X26767171Y-8010561D01*
X26729076Y-7991514D01*
X26633838Y-7991514D01*
X26595742Y-8010561D01*
X26576695Y-8029609D01*
X26557647Y-8067704D01*
X26557647Y-8162942D01*
X26576695Y-8201038D01*
X26595742Y-8220085D01*
X29721826Y-21811587D02*
X29721826Y-21525873D01*
X29702779Y-21468730D01*
X29664683Y-21430635D01*
X29607540Y-21411587D01*
X29569445Y-21411587D01*
X29874207Y-21811587D02*
X30121826Y-21811587D01*
X29988493Y-21659206D01*
X30045636Y-21659206D01*
X30083731Y-21640159D01*
X30102779Y-21621111D01*
X30121826Y-21583016D01*
X30121826Y-21487778D01*
X30102779Y-21449682D01*
X30083731Y-21430635D01*
X30045636Y-21411587D01*
X29931350Y-21411587D01*
X29893255Y-21430635D01*
X29874207Y-21449682D01*
M02*
