G04 #@! TF.GenerationSoftware,KiCad,Pcbnew,(5.1.5)-3*
G04 #@! TF.CreationDate,2020-04-17T11:23:33-04:00*
G04 #@! TF.ProjectId,STM32_SMD_Quadcopter,53544d33-325f-4534-9d44-5f5175616463,rev?*
G04 #@! TF.SameCoordinates,PX2daf690PY1aab7d8*
G04 #@! TF.FileFunction,Copper,L2,Bot*
G04 #@! TF.FilePolarity,Positive*
%FSLAX46Y46*%
G04 Gerber Fmt 4.6, Leading zero omitted, Abs format (unit mm)*
G04 Created by KiCad (PCBNEW (5.1.5)-3) date 2020-04-17 11:23:33*
%MOMM*%
%LPD*%
G04 APERTURE LIST*
%ADD10C,0.100000*%
%ADD11R,1.700000X1.700000*%
%ADD12O,1.700000X1.700000*%
%ADD13R,0.350000X0.800000*%
%ADD14R,0.800000X0.350000*%
%ADD15R,2.500000X2.500000*%
%ADD16R,1.350000X1.350000*%
%ADD17O,1.350000X1.350000*%
%ADD18R,3.800000X2.000000*%
%ADD19R,1.500000X2.000000*%
%ADD20R,0.700000X1.750000*%
%ADD21R,1.300000X1.500000*%
%ADD22R,0.800000X1.500000*%
%ADD23R,1.450000X1.000000*%
%ADD24R,0.800000X1.400000*%
%ADD25R,1.500000X1.500000*%
%ADD26R,1.000000X1.550000*%
%ADD27C,0.800000*%
%ADD28C,0.600000*%
%ADD29C,1.500000*%
%ADD30C,0.220000*%
%ADD31C,0.500000*%
%ADD32C,0.127000*%
G04 APERTURE END LIST*
G04 #@! TA.AperFunction,SMDPad,CuDef*
D10*
G36*
X18807691Y-3996453D02*
G01*
X18828926Y-3999603D01*
X18849750Y-4004819D01*
X18869962Y-4012051D01*
X18889368Y-4021230D01*
X18907781Y-4032266D01*
X18925024Y-4045054D01*
X18940930Y-4059470D01*
X18955346Y-4075376D01*
X18968134Y-4092619D01*
X18979170Y-4111032D01*
X18988349Y-4130438D01*
X18995581Y-4150650D01*
X19000797Y-4171474D01*
X19003947Y-4192709D01*
X19005000Y-4214150D01*
X19005000Y-4726650D01*
X19003947Y-4748091D01*
X19000797Y-4769326D01*
X18995581Y-4790150D01*
X18988349Y-4810362D01*
X18979170Y-4829768D01*
X18968134Y-4848181D01*
X18955346Y-4865424D01*
X18940930Y-4881330D01*
X18925024Y-4895746D01*
X18907781Y-4908534D01*
X18889368Y-4919570D01*
X18869962Y-4928749D01*
X18849750Y-4935981D01*
X18828926Y-4941197D01*
X18807691Y-4944347D01*
X18786250Y-4945400D01*
X18348750Y-4945400D01*
X18327309Y-4944347D01*
X18306074Y-4941197D01*
X18285250Y-4935981D01*
X18265038Y-4928749D01*
X18245632Y-4919570D01*
X18227219Y-4908534D01*
X18209976Y-4895746D01*
X18194070Y-4881330D01*
X18179654Y-4865424D01*
X18166866Y-4848181D01*
X18155830Y-4829768D01*
X18146651Y-4810362D01*
X18139419Y-4790150D01*
X18134203Y-4769326D01*
X18131053Y-4748091D01*
X18130000Y-4726650D01*
X18130000Y-4214150D01*
X18131053Y-4192709D01*
X18134203Y-4171474D01*
X18139419Y-4150650D01*
X18146651Y-4130438D01*
X18155830Y-4111032D01*
X18166866Y-4092619D01*
X18179654Y-4075376D01*
X18194070Y-4059470D01*
X18209976Y-4045054D01*
X18227219Y-4032266D01*
X18245632Y-4021230D01*
X18265038Y-4012051D01*
X18285250Y-4004819D01*
X18306074Y-3999603D01*
X18327309Y-3996453D01*
X18348750Y-3995400D01*
X18786250Y-3995400D01*
X18807691Y-3996453D01*
G37*
G04 #@! TD.AperFunction*
G04 #@! TA.AperFunction,SMDPad,CuDef*
G36*
X17232691Y-3996453D02*
G01*
X17253926Y-3999603D01*
X17274750Y-4004819D01*
X17294962Y-4012051D01*
X17314368Y-4021230D01*
X17332781Y-4032266D01*
X17350024Y-4045054D01*
X17365930Y-4059470D01*
X17380346Y-4075376D01*
X17393134Y-4092619D01*
X17404170Y-4111032D01*
X17413349Y-4130438D01*
X17420581Y-4150650D01*
X17425797Y-4171474D01*
X17428947Y-4192709D01*
X17430000Y-4214150D01*
X17430000Y-4726650D01*
X17428947Y-4748091D01*
X17425797Y-4769326D01*
X17420581Y-4790150D01*
X17413349Y-4810362D01*
X17404170Y-4829768D01*
X17393134Y-4848181D01*
X17380346Y-4865424D01*
X17365930Y-4881330D01*
X17350024Y-4895746D01*
X17332781Y-4908534D01*
X17314368Y-4919570D01*
X17294962Y-4928749D01*
X17274750Y-4935981D01*
X17253926Y-4941197D01*
X17232691Y-4944347D01*
X17211250Y-4945400D01*
X16773750Y-4945400D01*
X16752309Y-4944347D01*
X16731074Y-4941197D01*
X16710250Y-4935981D01*
X16690038Y-4928749D01*
X16670632Y-4919570D01*
X16652219Y-4908534D01*
X16634976Y-4895746D01*
X16619070Y-4881330D01*
X16604654Y-4865424D01*
X16591866Y-4848181D01*
X16580830Y-4829768D01*
X16571651Y-4810362D01*
X16564419Y-4790150D01*
X16559203Y-4769326D01*
X16556053Y-4748091D01*
X16555000Y-4726650D01*
X16555000Y-4214150D01*
X16556053Y-4192709D01*
X16559203Y-4171474D01*
X16564419Y-4150650D01*
X16571651Y-4130438D01*
X16580830Y-4111032D01*
X16591866Y-4092619D01*
X16604654Y-4075376D01*
X16619070Y-4059470D01*
X16634976Y-4045054D01*
X16652219Y-4032266D01*
X16670632Y-4021230D01*
X16690038Y-4012051D01*
X16710250Y-4004819D01*
X16731074Y-3999603D01*
X16752309Y-3996453D01*
X16773750Y-3995400D01*
X17211250Y-3995400D01*
X17232691Y-3996453D01*
G37*
G04 #@! TD.AperFunction*
D11*
X1346200Y-1346200D03*
D12*
X1346200Y-3886200D03*
G04 #@! TA.AperFunction,SMDPad,CuDef*
D10*
G36*
X8735891Y-22499853D02*
G01*
X8757126Y-22503003D01*
X8777950Y-22508219D01*
X8798162Y-22515451D01*
X8817568Y-22524630D01*
X8835981Y-22535666D01*
X8853224Y-22548454D01*
X8869130Y-22562870D01*
X8883546Y-22578776D01*
X8896334Y-22596019D01*
X8907370Y-22614432D01*
X8916549Y-22633838D01*
X8923781Y-22654050D01*
X8928997Y-22674874D01*
X8932147Y-22696109D01*
X8933200Y-22717550D01*
X8933200Y-23155050D01*
X8932147Y-23176491D01*
X8928997Y-23197726D01*
X8923781Y-23218550D01*
X8916549Y-23238762D01*
X8907370Y-23258168D01*
X8896334Y-23276581D01*
X8883546Y-23293824D01*
X8869130Y-23309730D01*
X8853224Y-23324146D01*
X8835981Y-23336934D01*
X8817568Y-23347970D01*
X8798162Y-23357149D01*
X8777950Y-23364381D01*
X8757126Y-23369597D01*
X8735891Y-23372747D01*
X8714450Y-23373800D01*
X8201950Y-23373800D01*
X8180509Y-23372747D01*
X8159274Y-23369597D01*
X8138450Y-23364381D01*
X8118238Y-23357149D01*
X8098832Y-23347970D01*
X8080419Y-23336934D01*
X8063176Y-23324146D01*
X8047270Y-23309730D01*
X8032854Y-23293824D01*
X8020066Y-23276581D01*
X8009030Y-23258168D01*
X7999851Y-23238762D01*
X7992619Y-23218550D01*
X7987403Y-23197726D01*
X7984253Y-23176491D01*
X7983200Y-23155050D01*
X7983200Y-22717550D01*
X7984253Y-22696109D01*
X7987403Y-22674874D01*
X7992619Y-22654050D01*
X7999851Y-22633838D01*
X8009030Y-22614432D01*
X8020066Y-22596019D01*
X8032854Y-22578776D01*
X8047270Y-22562870D01*
X8063176Y-22548454D01*
X8080419Y-22535666D01*
X8098832Y-22524630D01*
X8118238Y-22515451D01*
X8138450Y-22508219D01*
X8159274Y-22503003D01*
X8180509Y-22499853D01*
X8201950Y-22498800D01*
X8714450Y-22498800D01*
X8735891Y-22499853D01*
G37*
G04 #@! TD.AperFunction*
G04 #@! TA.AperFunction,SMDPad,CuDef*
G36*
X8735891Y-20924853D02*
G01*
X8757126Y-20928003D01*
X8777950Y-20933219D01*
X8798162Y-20940451D01*
X8817568Y-20949630D01*
X8835981Y-20960666D01*
X8853224Y-20973454D01*
X8869130Y-20987870D01*
X8883546Y-21003776D01*
X8896334Y-21021019D01*
X8907370Y-21039432D01*
X8916549Y-21058838D01*
X8923781Y-21079050D01*
X8928997Y-21099874D01*
X8932147Y-21121109D01*
X8933200Y-21142550D01*
X8933200Y-21580050D01*
X8932147Y-21601491D01*
X8928997Y-21622726D01*
X8923781Y-21643550D01*
X8916549Y-21663762D01*
X8907370Y-21683168D01*
X8896334Y-21701581D01*
X8883546Y-21718824D01*
X8869130Y-21734730D01*
X8853224Y-21749146D01*
X8835981Y-21761934D01*
X8817568Y-21772970D01*
X8798162Y-21782149D01*
X8777950Y-21789381D01*
X8757126Y-21794597D01*
X8735891Y-21797747D01*
X8714450Y-21798800D01*
X8201950Y-21798800D01*
X8180509Y-21797747D01*
X8159274Y-21794597D01*
X8138450Y-21789381D01*
X8118238Y-21782149D01*
X8098832Y-21772970D01*
X8080419Y-21761934D01*
X8063176Y-21749146D01*
X8047270Y-21734730D01*
X8032854Y-21718824D01*
X8020066Y-21701581D01*
X8009030Y-21683168D01*
X7999851Y-21663762D01*
X7992619Y-21643550D01*
X7987403Y-21622726D01*
X7984253Y-21601491D01*
X7983200Y-21580050D01*
X7983200Y-21142550D01*
X7984253Y-21121109D01*
X7987403Y-21099874D01*
X7992619Y-21079050D01*
X7999851Y-21058838D01*
X8009030Y-21039432D01*
X8020066Y-21021019D01*
X8032854Y-21003776D01*
X8047270Y-20987870D01*
X8063176Y-20973454D01*
X8080419Y-20960666D01*
X8098832Y-20949630D01*
X8118238Y-20940451D01*
X8138450Y-20933219D01*
X8159274Y-20928003D01*
X8180509Y-20924853D01*
X8201950Y-20923800D01*
X8714450Y-20923800D01*
X8735891Y-20924853D01*
G37*
G04 #@! TD.AperFunction*
G04 #@! TA.AperFunction,SMDPad,CuDef*
G36*
X4333504Y-9217204D02*
G01*
X4357773Y-9220804D01*
X4381571Y-9226765D01*
X4404671Y-9235030D01*
X4426849Y-9245520D01*
X4447893Y-9258133D01*
X4467598Y-9272747D01*
X4485777Y-9289223D01*
X4502253Y-9307402D01*
X4516867Y-9327107D01*
X4529480Y-9348151D01*
X4539970Y-9370329D01*
X4548235Y-9393429D01*
X4554196Y-9417227D01*
X4557796Y-9441496D01*
X4559000Y-9466000D01*
X4559000Y-11616000D01*
X4557796Y-11640504D01*
X4554196Y-11664773D01*
X4548235Y-11688571D01*
X4539970Y-11711671D01*
X4529480Y-11733849D01*
X4516867Y-11754893D01*
X4502253Y-11774598D01*
X4485777Y-11792777D01*
X4467598Y-11809253D01*
X4447893Y-11823867D01*
X4426849Y-11836480D01*
X4404671Y-11846970D01*
X4381571Y-11855235D01*
X4357773Y-11861196D01*
X4333504Y-11864796D01*
X4309000Y-11866000D01*
X3559000Y-11866000D01*
X3534496Y-11864796D01*
X3510227Y-11861196D01*
X3486429Y-11855235D01*
X3463329Y-11846970D01*
X3441151Y-11836480D01*
X3420107Y-11823867D01*
X3400402Y-11809253D01*
X3382223Y-11792777D01*
X3365747Y-11774598D01*
X3351133Y-11754893D01*
X3338520Y-11733849D01*
X3328030Y-11711671D01*
X3319765Y-11688571D01*
X3313804Y-11664773D01*
X3310204Y-11640504D01*
X3309000Y-11616000D01*
X3309000Y-9466000D01*
X3310204Y-9441496D01*
X3313804Y-9417227D01*
X3319765Y-9393429D01*
X3328030Y-9370329D01*
X3338520Y-9348151D01*
X3351133Y-9327107D01*
X3365747Y-9307402D01*
X3382223Y-9289223D01*
X3400402Y-9272747D01*
X3420107Y-9258133D01*
X3441151Y-9245520D01*
X3463329Y-9235030D01*
X3486429Y-9226765D01*
X3510227Y-9220804D01*
X3534496Y-9217204D01*
X3559000Y-9216000D01*
X4309000Y-9216000D01*
X4333504Y-9217204D01*
G37*
G04 #@! TD.AperFunction*
G04 #@! TA.AperFunction,SMDPad,CuDef*
G36*
X7133504Y-9217204D02*
G01*
X7157773Y-9220804D01*
X7181571Y-9226765D01*
X7204671Y-9235030D01*
X7226849Y-9245520D01*
X7247893Y-9258133D01*
X7267598Y-9272747D01*
X7285777Y-9289223D01*
X7302253Y-9307402D01*
X7316867Y-9327107D01*
X7329480Y-9348151D01*
X7339970Y-9370329D01*
X7348235Y-9393429D01*
X7354196Y-9417227D01*
X7357796Y-9441496D01*
X7359000Y-9466000D01*
X7359000Y-11616000D01*
X7357796Y-11640504D01*
X7354196Y-11664773D01*
X7348235Y-11688571D01*
X7339970Y-11711671D01*
X7329480Y-11733849D01*
X7316867Y-11754893D01*
X7302253Y-11774598D01*
X7285777Y-11792777D01*
X7267598Y-11809253D01*
X7247893Y-11823867D01*
X7226849Y-11836480D01*
X7204671Y-11846970D01*
X7181571Y-11855235D01*
X7157773Y-11861196D01*
X7133504Y-11864796D01*
X7109000Y-11866000D01*
X6359000Y-11866000D01*
X6334496Y-11864796D01*
X6310227Y-11861196D01*
X6286429Y-11855235D01*
X6263329Y-11846970D01*
X6241151Y-11836480D01*
X6220107Y-11823867D01*
X6200402Y-11809253D01*
X6182223Y-11792777D01*
X6165747Y-11774598D01*
X6151133Y-11754893D01*
X6138520Y-11733849D01*
X6128030Y-11711671D01*
X6119765Y-11688571D01*
X6113804Y-11664773D01*
X6110204Y-11640504D01*
X6109000Y-11616000D01*
X6109000Y-9466000D01*
X6110204Y-9441496D01*
X6113804Y-9417227D01*
X6119765Y-9393429D01*
X6128030Y-9370329D01*
X6138520Y-9348151D01*
X6151133Y-9327107D01*
X6165747Y-9307402D01*
X6182223Y-9289223D01*
X6200402Y-9272747D01*
X6220107Y-9258133D01*
X6241151Y-9245520D01*
X6263329Y-9235030D01*
X6286429Y-9226765D01*
X6310227Y-9220804D01*
X6334496Y-9217204D01*
X6359000Y-9216000D01*
X7109000Y-9216000D01*
X7133504Y-9217204D01*
G37*
G04 #@! TD.AperFunction*
D13*
X10119000Y-16986000D03*
X9469000Y-16986000D03*
X8819000Y-16986000D03*
X8169000Y-16986000D03*
D14*
X7144000Y-15961000D03*
X7144000Y-15311000D03*
X7144000Y-14661000D03*
X7144000Y-14011000D03*
D13*
X8169000Y-12986000D03*
X8819000Y-12986000D03*
X9469000Y-12986000D03*
X10119000Y-12986000D03*
D14*
X11144000Y-14011000D03*
X11144000Y-14661000D03*
X11144000Y-15311000D03*
X11144000Y-15961000D03*
D15*
X9144000Y-14986000D03*
D16*
X12415889Y-24340102D03*
D17*
X14415889Y-24340102D03*
X32871603Y-24327684D03*
D16*
X34871603Y-24327684D03*
X34848800Y-1066800D03*
D17*
X32848800Y-1066800D03*
X14446000Y-1066800D03*
D16*
X12446000Y-1066800D03*
D18*
X6604000Y-1447000D03*
D19*
X6604000Y-7747000D03*
X4304000Y-7747000D03*
X8904000Y-7747000D03*
D11*
X22301200Y-1320800D03*
D12*
X24841200Y-1320800D03*
X27381200Y-1320800D03*
G04 #@! TA.AperFunction,SMDPad,CuDef*
D10*
G36*
X29919491Y-7081853D02*
G01*
X29940726Y-7085003D01*
X29961550Y-7090219D01*
X29981762Y-7097451D01*
X30001168Y-7106630D01*
X30019581Y-7117666D01*
X30036824Y-7130454D01*
X30052730Y-7144870D01*
X30067146Y-7160776D01*
X30079934Y-7178019D01*
X30090970Y-7196432D01*
X30100149Y-7215838D01*
X30107381Y-7236050D01*
X30112597Y-7256874D01*
X30115747Y-7278109D01*
X30116800Y-7299550D01*
X30116800Y-7737050D01*
X30115747Y-7758491D01*
X30112597Y-7779726D01*
X30107381Y-7800550D01*
X30100149Y-7820762D01*
X30090970Y-7840168D01*
X30079934Y-7858581D01*
X30067146Y-7875824D01*
X30052730Y-7891730D01*
X30036824Y-7906146D01*
X30019581Y-7918934D01*
X30001168Y-7929970D01*
X29981762Y-7939149D01*
X29961550Y-7946381D01*
X29940726Y-7951597D01*
X29919491Y-7954747D01*
X29898050Y-7955800D01*
X29385550Y-7955800D01*
X29364109Y-7954747D01*
X29342874Y-7951597D01*
X29322050Y-7946381D01*
X29301838Y-7939149D01*
X29282432Y-7929970D01*
X29264019Y-7918934D01*
X29246776Y-7906146D01*
X29230870Y-7891730D01*
X29216454Y-7875824D01*
X29203666Y-7858581D01*
X29192630Y-7840168D01*
X29183451Y-7820762D01*
X29176219Y-7800550D01*
X29171003Y-7779726D01*
X29167853Y-7758491D01*
X29166800Y-7737050D01*
X29166800Y-7299550D01*
X29167853Y-7278109D01*
X29171003Y-7256874D01*
X29176219Y-7236050D01*
X29183451Y-7215838D01*
X29192630Y-7196432D01*
X29203666Y-7178019D01*
X29216454Y-7160776D01*
X29230870Y-7144870D01*
X29246776Y-7130454D01*
X29264019Y-7117666D01*
X29282432Y-7106630D01*
X29301838Y-7097451D01*
X29322050Y-7090219D01*
X29342874Y-7085003D01*
X29364109Y-7081853D01*
X29385550Y-7080800D01*
X29898050Y-7080800D01*
X29919491Y-7081853D01*
G37*
G04 #@! TD.AperFunction*
G04 #@! TA.AperFunction,SMDPad,CuDef*
G36*
X29919491Y-8656853D02*
G01*
X29940726Y-8660003D01*
X29961550Y-8665219D01*
X29981762Y-8672451D01*
X30001168Y-8681630D01*
X30019581Y-8692666D01*
X30036824Y-8705454D01*
X30052730Y-8719870D01*
X30067146Y-8735776D01*
X30079934Y-8753019D01*
X30090970Y-8771432D01*
X30100149Y-8790838D01*
X30107381Y-8811050D01*
X30112597Y-8831874D01*
X30115747Y-8853109D01*
X30116800Y-8874550D01*
X30116800Y-9312050D01*
X30115747Y-9333491D01*
X30112597Y-9354726D01*
X30107381Y-9375550D01*
X30100149Y-9395762D01*
X30090970Y-9415168D01*
X30079934Y-9433581D01*
X30067146Y-9450824D01*
X30052730Y-9466730D01*
X30036824Y-9481146D01*
X30019581Y-9493934D01*
X30001168Y-9504970D01*
X29981762Y-9514149D01*
X29961550Y-9521381D01*
X29940726Y-9526597D01*
X29919491Y-9529747D01*
X29898050Y-9530800D01*
X29385550Y-9530800D01*
X29364109Y-9529747D01*
X29342874Y-9526597D01*
X29322050Y-9521381D01*
X29301838Y-9514149D01*
X29282432Y-9504970D01*
X29264019Y-9493934D01*
X29246776Y-9481146D01*
X29230870Y-9466730D01*
X29216454Y-9450824D01*
X29203666Y-9433581D01*
X29192630Y-9415168D01*
X29183451Y-9395762D01*
X29176219Y-9375550D01*
X29171003Y-9354726D01*
X29167853Y-9333491D01*
X29166800Y-9312050D01*
X29166800Y-8874550D01*
X29167853Y-8853109D01*
X29171003Y-8831874D01*
X29176219Y-8811050D01*
X29183451Y-8790838D01*
X29192630Y-8771432D01*
X29203666Y-8753019D01*
X29216454Y-8735776D01*
X29230870Y-8719870D01*
X29246776Y-8705454D01*
X29264019Y-8692666D01*
X29282432Y-8681630D01*
X29301838Y-8672451D01*
X29322050Y-8665219D01*
X29342874Y-8660003D01*
X29364109Y-8656853D01*
X29385550Y-8655800D01*
X29898050Y-8655800D01*
X29919491Y-8656853D01*
G37*
G04 #@! TD.AperFunction*
G04 #@! TA.AperFunction,SMDPad,CuDef*
G36*
X28446291Y-7081853D02*
G01*
X28467526Y-7085003D01*
X28488350Y-7090219D01*
X28508562Y-7097451D01*
X28527968Y-7106630D01*
X28546381Y-7117666D01*
X28563624Y-7130454D01*
X28579530Y-7144870D01*
X28593946Y-7160776D01*
X28606734Y-7178019D01*
X28617770Y-7196432D01*
X28626949Y-7215838D01*
X28634181Y-7236050D01*
X28639397Y-7256874D01*
X28642547Y-7278109D01*
X28643600Y-7299550D01*
X28643600Y-7737050D01*
X28642547Y-7758491D01*
X28639397Y-7779726D01*
X28634181Y-7800550D01*
X28626949Y-7820762D01*
X28617770Y-7840168D01*
X28606734Y-7858581D01*
X28593946Y-7875824D01*
X28579530Y-7891730D01*
X28563624Y-7906146D01*
X28546381Y-7918934D01*
X28527968Y-7929970D01*
X28508562Y-7939149D01*
X28488350Y-7946381D01*
X28467526Y-7951597D01*
X28446291Y-7954747D01*
X28424850Y-7955800D01*
X27912350Y-7955800D01*
X27890909Y-7954747D01*
X27869674Y-7951597D01*
X27848850Y-7946381D01*
X27828638Y-7939149D01*
X27809232Y-7929970D01*
X27790819Y-7918934D01*
X27773576Y-7906146D01*
X27757670Y-7891730D01*
X27743254Y-7875824D01*
X27730466Y-7858581D01*
X27719430Y-7840168D01*
X27710251Y-7820762D01*
X27703019Y-7800550D01*
X27697803Y-7779726D01*
X27694653Y-7758491D01*
X27693600Y-7737050D01*
X27693600Y-7299550D01*
X27694653Y-7278109D01*
X27697803Y-7256874D01*
X27703019Y-7236050D01*
X27710251Y-7215838D01*
X27719430Y-7196432D01*
X27730466Y-7178019D01*
X27743254Y-7160776D01*
X27757670Y-7144870D01*
X27773576Y-7130454D01*
X27790819Y-7117666D01*
X27809232Y-7106630D01*
X27828638Y-7097451D01*
X27848850Y-7090219D01*
X27869674Y-7085003D01*
X27890909Y-7081853D01*
X27912350Y-7080800D01*
X28424850Y-7080800D01*
X28446291Y-7081853D01*
G37*
G04 #@! TD.AperFunction*
G04 #@! TA.AperFunction,SMDPad,CuDef*
G36*
X28446291Y-8656853D02*
G01*
X28467526Y-8660003D01*
X28488350Y-8665219D01*
X28508562Y-8672451D01*
X28527968Y-8681630D01*
X28546381Y-8692666D01*
X28563624Y-8705454D01*
X28579530Y-8719870D01*
X28593946Y-8735776D01*
X28606734Y-8753019D01*
X28617770Y-8771432D01*
X28626949Y-8790838D01*
X28634181Y-8811050D01*
X28639397Y-8831874D01*
X28642547Y-8853109D01*
X28643600Y-8874550D01*
X28643600Y-9312050D01*
X28642547Y-9333491D01*
X28639397Y-9354726D01*
X28634181Y-9375550D01*
X28626949Y-9395762D01*
X28617770Y-9415168D01*
X28606734Y-9433581D01*
X28593946Y-9450824D01*
X28579530Y-9466730D01*
X28563624Y-9481146D01*
X28546381Y-9493934D01*
X28527968Y-9504970D01*
X28508562Y-9514149D01*
X28488350Y-9521381D01*
X28467526Y-9526597D01*
X28446291Y-9529747D01*
X28424850Y-9530800D01*
X27912350Y-9530800D01*
X27890909Y-9529747D01*
X27869674Y-9526597D01*
X27848850Y-9521381D01*
X27828638Y-9514149D01*
X27809232Y-9504970D01*
X27790819Y-9493934D01*
X27773576Y-9481146D01*
X27757670Y-9466730D01*
X27743254Y-9450824D01*
X27730466Y-9433581D01*
X27719430Y-9415168D01*
X27710251Y-9395762D01*
X27703019Y-9375550D01*
X27697803Y-9354726D01*
X27694653Y-9333491D01*
X27693600Y-9312050D01*
X27693600Y-8874550D01*
X27694653Y-8853109D01*
X27697803Y-8831874D01*
X27703019Y-8811050D01*
X27710251Y-8790838D01*
X27719430Y-8771432D01*
X27730466Y-8753019D01*
X27743254Y-8735776D01*
X27757670Y-8719870D01*
X27773576Y-8705454D01*
X27790819Y-8692666D01*
X27809232Y-8681630D01*
X27828638Y-8672451D01*
X27848850Y-8665219D01*
X27869674Y-8660003D01*
X27890909Y-8656853D01*
X27912350Y-8655800D01*
X28424850Y-8655800D01*
X28446291Y-8656853D01*
G37*
G04 #@! TD.AperFunction*
D20*
X26623000Y-24120600D03*
D21*
X27823000Y-23995600D03*
D22*
X28073000Y-16395600D03*
D23*
X27748000Y-14895600D03*
D24*
X16123000Y-15745600D03*
D20*
X25523000Y-24120600D03*
X24423000Y-24120600D03*
X23323000Y-24120600D03*
X22223000Y-24120600D03*
X21123000Y-24120600D03*
X20023000Y-24120600D03*
X18923000Y-24120600D03*
D25*
X16473000Y-23995600D03*
D26*
X16523000Y-13320600D03*
D27*
X9651982Y-3942982D03*
X34721800Y-6121400D03*
X9499600Y-22174200D03*
X8534400Y-10591800D03*
X16586200Y-9347200D03*
X5791200Y-14427200D03*
X5562600Y-15316200D03*
X18161000Y-14579600D03*
X10373363Y-20601017D03*
X17555307Y-13331093D03*
X16357600Y-18551779D03*
X18694400Y-19380200D03*
X23520400Y-8001000D03*
X29972000Y-12573000D03*
X16992500Y-4470400D03*
X15443200Y-20675600D03*
X25425400Y-12344400D03*
X19698157Y-19393357D03*
X23557608Y-16350789D03*
X22072600Y-16560800D03*
X16532624Y-12011424D03*
X17643600Y-20296985D03*
X16179800Y-6806800D03*
X25374600Y-10820400D03*
X9423400Y-11912600D03*
X5918200Y-17424400D03*
X11125200Y-16662400D03*
X9245600Y-18412581D03*
X19177000Y-9423400D03*
X20040600Y-9042400D03*
X5613400Y-16433800D03*
X13741400Y-16306800D03*
X6075805Y-13573383D03*
X22225000Y-22656800D03*
X2768600Y-21369800D03*
X4064000Y-8280400D03*
X30480000Y-17805400D03*
X28168600Y-18084800D03*
X3050540Y-5613400D03*
X28473400Y-19354800D03*
X28270200Y-9118600D03*
X24434800Y-24104600D03*
X18516600Y-4521200D03*
X16281400Y-13944600D03*
X16814800Y-21183600D03*
X13766800Y-9017000D03*
X12573000Y-18110200D03*
X13208000Y-13055600D03*
X15900400Y-17043400D03*
X9093200Y-20828000D03*
X17957800Y-15621000D03*
X19050000Y-5384800D03*
X19710400Y-4673600D03*
X6832600Y-9067564D03*
X16078200Y-5791200D03*
X17856200Y-11582400D03*
X18567400Y-12344400D03*
X10871200Y-11582400D03*
X27432000Y-22377400D03*
X28473400Y-20751800D03*
X21600000Y-9000000D03*
X25200000Y-14400000D03*
X32400000Y-16200000D03*
X33300000Y-9900000D03*
X33300000Y-13500000D03*
X33300000Y-18900000D03*
X33083448Y-11649508D03*
X3459480Y-1346200D03*
X5196840Y-1346200D03*
X7655560Y-1346200D03*
X9517380Y-1277620D03*
X20314920Y-12219940D03*
X32275780Y-17526000D03*
X28610560Y-22059900D03*
X6604000Y-5435600D03*
D28*
X13232150Y-7490733D03*
X26779175Y-6105317D03*
X28964841Y-1432327D03*
X30877249Y-23068975D03*
X32364926Y-6894560D03*
D27*
X8509000Y-11811000D03*
X27762200Y-10947400D03*
D29*
X34848800Y-2692400D02*
X34848800Y-1066800D01*
X34366200Y-3175000D02*
X34848800Y-2692400D01*
X16331052Y-3145390D02*
X17653948Y-3145390D01*
X17906052Y-3145390D02*
X19228948Y-3145390D01*
X16301442Y-3175000D02*
X16331052Y-3145390D01*
X12446000Y-1066800D02*
X12446000Y-1323802D01*
X17876442Y-3175000D02*
X17906052Y-3145390D01*
X12446000Y-1323802D02*
X14297198Y-3175000D01*
X17653948Y-3145390D02*
X17683558Y-3175000D01*
X14297198Y-3175000D02*
X16301442Y-3175000D01*
X17683558Y-3175000D02*
X17876442Y-3175000D01*
X19228948Y-3145390D02*
X19258558Y-3175000D01*
X19258558Y-3175000D02*
X34366200Y-3175000D01*
X900010Y-21763965D02*
X3476147Y-24340102D01*
X900010Y-5534471D02*
X900010Y-21763965D01*
X3476147Y-24340102D02*
X12415889Y-24340102D01*
X1346200Y-3886200D02*
X1346200Y-5088281D01*
X1346200Y-5088281D02*
X900010Y-5534471D01*
X8904000Y-4690964D02*
X9251983Y-4342981D01*
X8904000Y-7747000D02*
X8904000Y-7747000D01*
X9251983Y-4342981D02*
X9651982Y-3942982D01*
D30*
X31749900Y-9093300D02*
X34721800Y-6121400D01*
X29641800Y-9093300D02*
X31749900Y-9093300D01*
D29*
X8904000Y-7747000D02*
X8904000Y-4690964D01*
D30*
X8458200Y-22498800D02*
X8782800Y-22174200D01*
X8933915Y-22174200D02*
X9499600Y-22174200D01*
X8782800Y-22174200D02*
X8933915Y-22174200D01*
X8458200Y-22936300D02*
X8458200Y-22498800D01*
X8534400Y-10591800D02*
X15138400Y-10591800D01*
X15138400Y-10591800D02*
X16510000Y-9220200D01*
X16510000Y-9220200D02*
X16510000Y-9271000D01*
X16510000Y-9271000D02*
X16586200Y-9347200D01*
X6025000Y-14661000D02*
X7144000Y-14661000D01*
X5791200Y-14427200D02*
X6025000Y-14661000D01*
X7138800Y-15316200D02*
X7144000Y-15311000D01*
X5562600Y-15316200D02*
X7138800Y-15316200D01*
X15810998Y-14579600D02*
X15290399Y-15100199D01*
X11460668Y-20601017D02*
X10939048Y-20601017D01*
X15290399Y-16771286D02*
X11460668Y-20601017D01*
X15290399Y-15100199D02*
X15290399Y-16771286D01*
X18161000Y-14579600D02*
X15810998Y-14579600D01*
X10939048Y-20601017D02*
X10373363Y-20601017D01*
X18872602Y-16036777D02*
X16757599Y-18151780D01*
X16757599Y-18151780D02*
X16357600Y-18551779D01*
X18872602Y-14286798D02*
X18872602Y-16036777D01*
X17555307Y-13331093D02*
X17955306Y-13731092D01*
X17955306Y-13731092D02*
X18316896Y-13731092D01*
X18316896Y-13731092D02*
X18872602Y-14286798D01*
X20023000Y-23025600D02*
X18694400Y-21697000D01*
X20023000Y-24120600D02*
X20023000Y-23025600D01*
X18694400Y-21697000D02*
X18694400Y-19380200D01*
X23520400Y-8001000D02*
X28067000Y-12547600D01*
X28067000Y-12547600D02*
X29946600Y-12547600D01*
X29946600Y-12547600D02*
X29972000Y-12573000D01*
X20739100Y-15227300D02*
X20739100Y-13373100D01*
X18084399Y-17882001D02*
X20739100Y-15227300D01*
X18084399Y-19673001D02*
X18084399Y-17882001D01*
X16561201Y-21793601D02*
X17107601Y-21793601D01*
X18253601Y-20647601D02*
X18253601Y-19842203D01*
X15443200Y-20675600D02*
X16561201Y-21793601D01*
X21767800Y-12344400D02*
X25425400Y-12344400D01*
X17107601Y-21793601D02*
X18253601Y-20647601D01*
X20739100Y-13373100D02*
X21767800Y-12344400D01*
X18253601Y-19842203D02*
X18084399Y-19673001D01*
X21123000Y-20818200D02*
X20098156Y-19793356D01*
X20098156Y-19793356D02*
X19698157Y-19393357D01*
X21123000Y-24120600D02*
X21123000Y-20818200D01*
X27447211Y-16910848D02*
X26887152Y-16350789D01*
X24123293Y-16350789D02*
X23557608Y-16350789D01*
X26887152Y-16350789D02*
X24123293Y-16350789D01*
X25523000Y-24120600D02*
X25523000Y-22783162D01*
X25523000Y-22783162D02*
X27447211Y-20858952D01*
X27447211Y-20858952D02*
X27447211Y-16910848D01*
X22472599Y-16960799D02*
X22072600Y-16560800D01*
X27044599Y-16960799D02*
X22472599Y-16960799D01*
X27127200Y-20726400D02*
X27127200Y-17043400D01*
X23323000Y-24120600D02*
X23332440Y-24111160D01*
X27127200Y-17043400D02*
X27044599Y-16960799D01*
X23332440Y-23124160D02*
X23964900Y-22491700D01*
X23332440Y-24111160D02*
X23332440Y-23124160D01*
X23964900Y-22491700D02*
X25361900Y-22491700D01*
X25361900Y-22491700D02*
X27127200Y-20726400D01*
X17098309Y-12011424D02*
X19192613Y-14105728D01*
X17119600Y-19772985D02*
X17643600Y-20296985D01*
X16532624Y-12011424D02*
X17098309Y-12011424D01*
X19192613Y-14105728D02*
X19192613Y-16189587D01*
X19192613Y-16189587D02*
X17119600Y-18262600D01*
X17119600Y-18262600D02*
X17119600Y-19772985D01*
X24974601Y-10420401D02*
X25374600Y-10820400D01*
X16179800Y-6806800D02*
X21361000Y-6806800D01*
X21361000Y-6806800D02*
X24974601Y-10420401D01*
X9423400Y-12940400D02*
X9469000Y-12986000D01*
X9423400Y-11912600D02*
X9423400Y-12940400D01*
X5918200Y-17186800D02*
X7144000Y-15961000D01*
X5918200Y-17424400D02*
X5918200Y-17186800D01*
X9469000Y-16986000D02*
X9469000Y-18189181D01*
X9469000Y-18189181D02*
X9245600Y-18412581D01*
X11690885Y-16662400D02*
X12808552Y-15544733D01*
X12808552Y-14872811D02*
X18257963Y-9423400D01*
X12808552Y-15544733D02*
X12808552Y-14872811D01*
X18257963Y-9423400D02*
X18611315Y-9423400D01*
X18611315Y-9423400D02*
X19177000Y-9423400D01*
X11125200Y-16662400D02*
X11690885Y-16662400D01*
X11917800Y-15311000D02*
X18586399Y-8642401D01*
X18586399Y-8642401D02*
X19640601Y-8642401D01*
X11144000Y-15311000D02*
X11917800Y-15311000D01*
X19640601Y-8642401D02*
X20040600Y-9042400D01*
D29*
X4304000Y-10171000D02*
X3934000Y-10541000D01*
X4304000Y-7747000D02*
X4304000Y-10171000D01*
D31*
X4304000Y-7747000D02*
X4304000Y-7733000D01*
D30*
X7144000Y-13616000D02*
X7144000Y-14011000D01*
X8169000Y-12986000D02*
X7774000Y-12986000D01*
X7774000Y-12986000D02*
X7144000Y-13616000D01*
D29*
X3934000Y-18291000D02*
X3934000Y-20805600D01*
D30*
X5613400Y-16433800D02*
X5213401Y-16833799D01*
X4159199Y-16833799D02*
X3937000Y-16611600D01*
X5213401Y-16833799D02*
X4159199Y-16833799D01*
D29*
X3937000Y-16611600D02*
X3934000Y-18291000D01*
D30*
X4047816Y-13173384D02*
X3937000Y-13284200D01*
X6075805Y-13573383D02*
X5675806Y-13173384D01*
D29*
X3934000Y-10541000D02*
X3937000Y-13284200D01*
D30*
X5675806Y-13173384D02*
X4047816Y-13173384D01*
D29*
X3937000Y-13284200D02*
X3937000Y-16611600D01*
D30*
X4622800Y-19456400D02*
X9437202Y-19456400D01*
X3934000Y-18291000D02*
X3934000Y-18767600D01*
X9437202Y-19456400D02*
X10119000Y-18774602D01*
X3934000Y-18767600D02*
X4622800Y-19456400D01*
X10119000Y-18774602D02*
X10134600Y-18161000D01*
X10134600Y-18161000D02*
X10119000Y-16986000D01*
X10134600Y-18745200D02*
X10134600Y-18161000D01*
X10261600Y-18872200D02*
X10134600Y-18745200D01*
X13741400Y-16306800D02*
X13741400Y-17856200D01*
X12725400Y-18872200D02*
X10261600Y-18872200D01*
X13741400Y-17856200D02*
X12725400Y-18872200D01*
X22223000Y-22658800D02*
X22225000Y-22656800D01*
X22223000Y-24120600D02*
X22223000Y-22658800D01*
D29*
X3934000Y-20805600D02*
X3302000Y-21437600D01*
X3302000Y-21437600D02*
X2836400Y-21437600D01*
X2836400Y-21437600D02*
X2768600Y-21369800D01*
D30*
X6513422Y-14011000D02*
X6075805Y-13573383D01*
X7144000Y-14011000D02*
X6513422Y-14011000D01*
X30480000Y-17805400D02*
X28448000Y-17805400D01*
X28448000Y-17805400D02*
X28168600Y-18084800D01*
D29*
X6604000Y-7747000D02*
X6604000Y-5435600D01*
X6734000Y-8455200D02*
X6734000Y-8455200D01*
D30*
X8819000Y-15311000D02*
X9144000Y-14986000D01*
X8819000Y-16986000D02*
X8819000Y-15311000D01*
X10119000Y-14011000D02*
X9144000Y-14986000D01*
X11144000Y-14011000D02*
X10119000Y-14011000D01*
D29*
X6734000Y-10541000D02*
X6734000Y-9166164D01*
X6734000Y-9166164D02*
X6832600Y-9067564D01*
X6604000Y-7747000D02*
X6832600Y-7975600D01*
X6832600Y-8501879D02*
X6832600Y-9067564D01*
X6832600Y-7975600D02*
X6832600Y-8501879D01*
X6604000Y-5435600D02*
X6604000Y-1447000D01*
D30*
X8819000Y-12121000D02*
X8819000Y-12986000D01*
X8509000Y-11811000D02*
X8819000Y-12121000D01*
X28168600Y-7518300D02*
X29641800Y-7518300D01*
X27693600Y-7518300D02*
X27362201Y-7849699D01*
X27362201Y-10547401D02*
X27762200Y-10947400D01*
X27362201Y-7849699D02*
X27362201Y-10547401D01*
X28168600Y-7518300D02*
X27693600Y-7518300D01*
D32*
G36*
X11451964Y-391800D02*
G01*
X11451964Y-666275D01*
X11393946Y-857534D01*
X11378500Y-1014360D01*
X11378500Y-1271364D01*
X11373335Y-1323802D01*
X11378500Y-1376240D01*
X11378500Y-1376243D01*
X11393946Y-1533069D01*
X11451964Y-1724328D01*
X11451964Y-1741800D01*
X11458094Y-1804041D01*
X11476249Y-1863890D01*
X11505731Y-1919047D01*
X11545407Y-1967393D01*
X11593753Y-2007069D01*
X11648910Y-2036551D01*
X11650327Y-2036981D01*
X11687512Y-2082291D01*
X11728248Y-2115722D01*
X13505278Y-3892753D01*
X13538709Y-3933489D01*
X13701257Y-4066888D01*
X13886707Y-4166013D01*
X14087931Y-4227054D01*
X14244757Y-4242500D01*
X14244759Y-4242500D01*
X14297197Y-4247665D01*
X14349635Y-4242500D01*
X16235964Y-4242500D01*
X16235964Y-4726650D01*
X16246297Y-4831567D01*
X16276901Y-4932452D01*
X16326597Y-5025428D01*
X16393478Y-5106922D01*
X16474972Y-5173803D01*
X16567948Y-5223499D01*
X16668833Y-5254103D01*
X16773750Y-5264436D01*
X17211250Y-5264436D01*
X17316167Y-5254103D01*
X17417052Y-5223499D01*
X17510028Y-5173803D01*
X17591522Y-5106922D01*
X17658403Y-5025428D01*
X17708099Y-4932452D01*
X17738703Y-4831567D01*
X17749036Y-4726650D01*
X17749036Y-4242500D01*
X17824004Y-4242500D01*
X17876442Y-4247665D01*
X17928880Y-4242500D01*
X17928883Y-4242500D01*
X18085709Y-4227054D01*
X18132401Y-4212890D01*
X19002599Y-4212890D01*
X19049291Y-4227054D01*
X19206117Y-4242500D01*
X19258558Y-4247665D01*
X19310999Y-4242500D01*
X34313762Y-4242500D01*
X34366200Y-4247665D01*
X34418638Y-4242500D01*
X34418641Y-4242500D01*
X34575467Y-4227054D01*
X34776691Y-4166013D01*
X34962141Y-4066888D01*
X35124689Y-3933489D01*
X35158125Y-3892747D01*
X35566547Y-3484325D01*
X35607289Y-3450889D01*
X35740688Y-3288341D01*
X35839813Y-3102891D01*
X35900854Y-2901667D01*
X35916300Y-2744841D01*
X35916300Y-2744839D01*
X35921465Y-2692401D01*
X35916300Y-2639963D01*
X35916300Y-1014359D01*
X35900854Y-857533D01*
X35842836Y-666274D01*
X35842836Y-391800D01*
X35840443Y-367500D01*
X36157700Y-367500D01*
X36157701Y-25032500D01*
X35862702Y-25032500D01*
X35865639Y-25002684D01*
X35865639Y-23652684D01*
X35859509Y-23590443D01*
X35841354Y-23530594D01*
X35811872Y-23475437D01*
X35772196Y-23427091D01*
X35723850Y-23387415D01*
X35668693Y-23357933D01*
X35608844Y-23339778D01*
X35546603Y-23333648D01*
X34196603Y-23333648D01*
X34134362Y-23339778D01*
X34074513Y-23357933D01*
X34019356Y-23387415D01*
X33971010Y-23427091D01*
X33931334Y-23475437D01*
X33901852Y-23530594D01*
X33883697Y-23590443D01*
X33877567Y-23652684D01*
X33877567Y-25002684D01*
X33880504Y-25032500D01*
X33570394Y-25032500D01*
X33642528Y-24960366D01*
X33751145Y-24797809D01*
X33825962Y-24617185D01*
X33864103Y-24425437D01*
X33864103Y-24229931D01*
X33825962Y-24038183D01*
X33751145Y-23857559D01*
X33642528Y-23695002D01*
X33504285Y-23556759D01*
X33341728Y-23448142D01*
X33161104Y-23373325D01*
X32969356Y-23335184D01*
X32773850Y-23335184D01*
X32582102Y-23373325D01*
X32401478Y-23448142D01*
X32238921Y-23556759D01*
X32100678Y-23695002D01*
X31992061Y-23857559D01*
X31917244Y-24038183D01*
X31879103Y-24229931D01*
X31879103Y-24425437D01*
X31917244Y-24617185D01*
X31992061Y-24797809D01*
X32100678Y-24960366D01*
X32172812Y-25032500D01*
X27288402Y-25032500D01*
X27292036Y-24995600D01*
X27292036Y-23245600D01*
X27285906Y-23183359D01*
X27267751Y-23123510D01*
X27238269Y-23068353D01*
X27198593Y-23020007D01*
X27150247Y-22980331D01*
X27095090Y-22950849D01*
X27035241Y-22932694D01*
X26973000Y-22926564D01*
X26273000Y-22926564D01*
X26210759Y-22932694D01*
X26150910Y-22950849D01*
X26095753Y-22980331D01*
X26073000Y-22999004D01*
X26050247Y-22980331D01*
X25995090Y-22950849D01*
X25968081Y-22942656D01*
X27734655Y-21176084D01*
X27750961Y-21162702D01*
X27783324Y-21123269D01*
X27804384Y-21097607D01*
X27832786Y-21044470D01*
X27844080Y-21023341D01*
X27868525Y-20942757D01*
X27874711Y-20879949D01*
X27874711Y-20879941D01*
X27876778Y-20858952D01*
X27874711Y-20837963D01*
X27874711Y-18739684D01*
X27959313Y-18774727D01*
X28097932Y-18802300D01*
X28239268Y-18802300D01*
X28377887Y-18774727D01*
X28508464Y-18720641D01*
X28625980Y-18642119D01*
X28725919Y-18542180D01*
X28804441Y-18424664D01*
X28858527Y-18294087D01*
X28870698Y-18232900D01*
X29902716Y-18232900D01*
X29922681Y-18262780D01*
X30022620Y-18362719D01*
X30140136Y-18441241D01*
X30270713Y-18495327D01*
X30409332Y-18522900D01*
X30550668Y-18522900D01*
X30689287Y-18495327D01*
X30819864Y-18441241D01*
X30937380Y-18362719D01*
X31037319Y-18262780D01*
X31115841Y-18145264D01*
X31169927Y-18014687D01*
X31197500Y-17876068D01*
X31197500Y-17734732D01*
X31169927Y-17596113D01*
X31115841Y-17465536D01*
X31037319Y-17348020D01*
X30937380Y-17248081D01*
X30819864Y-17169559D01*
X30689287Y-17115473D01*
X30550668Y-17087900D01*
X30409332Y-17087900D01*
X30270713Y-17115473D01*
X30140136Y-17169559D01*
X30022620Y-17248081D01*
X29922681Y-17348020D01*
X29902716Y-17377900D01*
X28468986Y-17377900D01*
X28447999Y-17375833D01*
X28427012Y-17377900D01*
X28427003Y-17377900D01*
X28364195Y-17384086D01*
X28348141Y-17388956D01*
X28239268Y-17367300D01*
X28097932Y-17367300D01*
X27959313Y-17394873D01*
X27874711Y-17429916D01*
X27874711Y-16931834D01*
X27876778Y-16910847D01*
X27874711Y-16889860D01*
X27874711Y-16889851D01*
X27868525Y-16827043D01*
X27844080Y-16746459D01*
X27804384Y-16672193D01*
X27796347Y-16662400D01*
X27764346Y-16623406D01*
X27764340Y-16623400D01*
X27750961Y-16607098D01*
X27734659Y-16593719D01*
X27204285Y-16063346D01*
X27190902Y-16047039D01*
X27165948Y-16026559D01*
X27150726Y-16014067D01*
X27125807Y-15993616D01*
X27051541Y-15953920D01*
X26970957Y-15929475D01*
X26908149Y-15923289D01*
X26908141Y-15923289D01*
X26887152Y-15921222D01*
X26866163Y-15923289D01*
X24134892Y-15923289D01*
X24114927Y-15893409D01*
X24014988Y-15793470D01*
X23897472Y-15714948D01*
X23766895Y-15660862D01*
X23628276Y-15633289D01*
X23486940Y-15633289D01*
X23348321Y-15660862D01*
X23217744Y-15714948D01*
X23100228Y-15793470D01*
X23000289Y-15893409D01*
X22921767Y-16010925D01*
X22867681Y-16141502D01*
X22840108Y-16280121D01*
X22840108Y-16421457D01*
X22862355Y-16533299D01*
X22790100Y-16533299D01*
X22790100Y-16490132D01*
X22762527Y-16351513D01*
X22708441Y-16220936D01*
X22629919Y-16103420D01*
X22529980Y-16003481D01*
X22412464Y-15924959D01*
X22281887Y-15870873D01*
X22143268Y-15843300D01*
X22001932Y-15843300D01*
X21863313Y-15870873D01*
X21732736Y-15924959D01*
X21615220Y-16003481D01*
X21515281Y-16103420D01*
X21436759Y-16220936D01*
X21382673Y-16351513D01*
X21355100Y-16490132D01*
X21355100Y-16631468D01*
X21382673Y-16770087D01*
X21436759Y-16900664D01*
X21515281Y-17018180D01*
X21615220Y-17118119D01*
X21664627Y-17151132D01*
X19433088Y-17137889D01*
X21026549Y-15544428D01*
X21042850Y-15531050D01*
X21056229Y-15514748D01*
X21056235Y-15514742D01*
X21096272Y-15465956D01*
X21096274Y-15465954D01*
X21135969Y-15391689D01*
X21160414Y-15311105D01*
X21166600Y-15248297D01*
X21166600Y-15248288D01*
X21168667Y-15227301D01*
X21166600Y-15206314D01*
X21166600Y-13550176D01*
X21501100Y-13215676D01*
X21501100Y-14884400D01*
X21502320Y-14896788D01*
X21505934Y-14908700D01*
X21511802Y-14919679D01*
X21519699Y-14929301D01*
X21529321Y-14937198D01*
X21540300Y-14943066D01*
X21552212Y-14946680D01*
X21564600Y-14947900D01*
X24079200Y-14947900D01*
X24091588Y-14946680D01*
X24103500Y-14943066D01*
X24114479Y-14937198D01*
X24124101Y-14929301D01*
X24131998Y-14919679D01*
X24137866Y-14908700D01*
X24141480Y-14896788D01*
X24142700Y-14884400D01*
X24142700Y-13030200D01*
X24141480Y-13017812D01*
X24137866Y-13005900D01*
X24131998Y-12994921D01*
X24124101Y-12985299D01*
X24114479Y-12977402D01*
X24103500Y-12971534D01*
X24091588Y-12967920D01*
X24079200Y-12966700D01*
X21750076Y-12966700D01*
X21944876Y-12771900D01*
X24848116Y-12771900D01*
X24868081Y-12801780D01*
X24968020Y-12901719D01*
X25085536Y-12980241D01*
X25216113Y-13034327D01*
X25354732Y-13061900D01*
X25496068Y-13061900D01*
X25634687Y-13034327D01*
X25765264Y-12980241D01*
X25882780Y-12901719D01*
X25982719Y-12801780D01*
X26061241Y-12684264D01*
X26115327Y-12553687D01*
X26142900Y-12415068D01*
X26142900Y-12273732D01*
X26115327Y-12135113D01*
X26061241Y-12004536D01*
X25982719Y-11887020D01*
X25882780Y-11787081D01*
X25765264Y-11708559D01*
X25634687Y-11654473D01*
X25496068Y-11626900D01*
X25354732Y-11626900D01*
X25216113Y-11654473D01*
X25085536Y-11708559D01*
X24968020Y-11787081D01*
X24868081Y-11887020D01*
X24848116Y-11916900D01*
X21788786Y-11916900D01*
X21767799Y-11914833D01*
X21746812Y-11916900D01*
X21746803Y-11916900D01*
X21683995Y-11923086D01*
X21603411Y-11947531D01*
X21529145Y-11987227D01*
X21464050Y-12040650D01*
X21450667Y-12056957D01*
X20451653Y-13055971D01*
X20435351Y-13069350D01*
X20421972Y-13085652D01*
X20421965Y-13085659D01*
X20381927Y-13134446D01*
X20342231Y-13208712D01*
X20317786Y-13289296D01*
X20309533Y-13373100D01*
X20311601Y-13394099D01*
X20311600Y-15050223D01*
X19620113Y-15741710D01*
X19620113Y-14126714D01*
X19622180Y-14105727D01*
X19620113Y-14084740D01*
X19620113Y-14084731D01*
X19613927Y-14021923D01*
X19589482Y-13941339D01*
X19549786Y-13867073D01*
X19524285Y-13836000D01*
X19509748Y-13818286D01*
X19509742Y-13818280D01*
X19496363Y-13801978D01*
X19480062Y-13788600D01*
X17415442Y-11723981D01*
X17402059Y-11707674D01*
X17382269Y-11691432D01*
X17360962Y-11673946D01*
X17336964Y-11654251D01*
X17262698Y-11614555D01*
X17182114Y-11590110D01*
X17119306Y-11583924D01*
X17119298Y-11583924D01*
X17109247Y-11582934D01*
X17089943Y-11554044D01*
X16990004Y-11454105D01*
X16895188Y-11390751D01*
X18435039Y-9850900D01*
X18599716Y-9850900D01*
X18619681Y-9880780D01*
X18719620Y-9980719D01*
X18837136Y-10059241D01*
X18967713Y-10113327D01*
X19106332Y-10140900D01*
X19247668Y-10140900D01*
X19386287Y-10113327D01*
X19516864Y-10059241D01*
X19634380Y-9980719D01*
X19734319Y-9880780D01*
X19812841Y-9763264D01*
X19826484Y-9730327D01*
X19831313Y-9732327D01*
X19969932Y-9759900D01*
X20111268Y-9759900D01*
X20249887Y-9732327D01*
X20380464Y-9678241D01*
X20497980Y-9599719D01*
X20597919Y-9499780D01*
X20676441Y-9382264D01*
X20730527Y-9251687D01*
X20758100Y-9113068D01*
X20758100Y-8971732D01*
X20730527Y-8833113D01*
X20676441Y-8702536D01*
X20597919Y-8585020D01*
X20497980Y-8485081D01*
X20380464Y-8406559D01*
X20249887Y-8352473D01*
X20111268Y-8324900D01*
X19969932Y-8324900D01*
X19935855Y-8331678D01*
X19879256Y-8285228D01*
X19804990Y-8245532D01*
X19724406Y-8221087D01*
X19661598Y-8214901D01*
X19661590Y-8214901D01*
X19640601Y-8212834D01*
X19619612Y-8214901D01*
X18607385Y-8214901D01*
X18586398Y-8212834D01*
X18565411Y-8214901D01*
X18565402Y-8214901D01*
X18502594Y-8221087D01*
X18422010Y-8245532D01*
X18347744Y-8285228D01*
X18347742Y-8285229D01*
X18347743Y-8285229D01*
X18298957Y-8325266D01*
X18298951Y-8325272D01*
X18282649Y-8338651D01*
X18269270Y-8354953D01*
X17303700Y-9320523D01*
X17303700Y-9276532D01*
X17276127Y-9137913D01*
X17222041Y-9007336D01*
X17143519Y-8889820D01*
X17043580Y-8789881D01*
X16926064Y-8711359D01*
X16795487Y-8657273D01*
X16656868Y-8629700D01*
X16515532Y-8629700D01*
X16376913Y-8657273D01*
X16246336Y-8711359D01*
X16128820Y-8789881D01*
X16028881Y-8889820D01*
X15950359Y-9007336D01*
X15896273Y-9137913D01*
X15873569Y-9252054D01*
X14961324Y-10164300D01*
X9111684Y-10164300D01*
X9091719Y-10134420D01*
X8991780Y-10034481D01*
X8874264Y-9955959D01*
X8743687Y-9901873D01*
X8605068Y-9874300D01*
X8463732Y-9874300D01*
X8325113Y-9901873D01*
X8194536Y-9955959D01*
X8077020Y-10034481D01*
X7977081Y-10134420D01*
X7898559Y-10251936D01*
X7844473Y-10382513D01*
X7816900Y-10521132D01*
X7816900Y-10662468D01*
X7844473Y-10801087D01*
X7898559Y-10931664D01*
X7977081Y-11049180D01*
X8077020Y-11149119D01*
X8142564Y-11192914D01*
X8051620Y-11253681D01*
X7951681Y-11353620D01*
X7873159Y-11471136D01*
X7819073Y-11601713D01*
X7791500Y-11740332D01*
X7791500Y-11881668D01*
X7819073Y-12020287D01*
X7873159Y-12150864D01*
X7951681Y-12268380D01*
X7954186Y-12270885D01*
X7931759Y-12273094D01*
X7871910Y-12291249D01*
X7816753Y-12320731D01*
X7768407Y-12360407D01*
X7728731Y-12408753D01*
X7699249Y-12463910D01*
X7681094Y-12523759D01*
X7676659Y-12568792D01*
X7609611Y-12589131D01*
X7563846Y-12613593D01*
X7535345Y-12628827D01*
X7501256Y-12656804D01*
X7470250Y-12682250D01*
X7456867Y-12698557D01*
X6856557Y-13298867D01*
X6840250Y-13312250D01*
X6826868Y-13328556D01*
X6826865Y-13328559D01*
X6819275Y-13337808D01*
X6786827Y-13377346D01*
X6773374Y-13402515D01*
X6765732Y-13364096D01*
X6711646Y-13233519D01*
X6633124Y-13116003D01*
X6533185Y-13016064D01*
X6415669Y-12937542D01*
X6285092Y-12883456D01*
X6146473Y-12855883D01*
X6005137Y-12855883D01*
X5971060Y-12862661D01*
X5914461Y-12816211D01*
X5840195Y-12776515D01*
X5759611Y-12752070D01*
X5696803Y-12745884D01*
X5696795Y-12745884D01*
X5675806Y-12743817D01*
X5654817Y-12745884D01*
X5003911Y-12745884D01*
X5001984Y-10982688D01*
X5021747Y-10962925D01*
X5062489Y-10929489D01*
X5195888Y-10766941D01*
X5295013Y-10581491D01*
X5356054Y-10380267D01*
X5371500Y-10223441D01*
X5371500Y-10223439D01*
X5376665Y-10171001D01*
X5371500Y-10118562D01*
X5371500Y-8762596D01*
X5373036Y-8747000D01*
X5373036Y-6747000D01*
X5366906Y-6684759D01*
X5348751Y-6624910D01*
X5319269Y-6569753D01*
X5279593Y-6521407D01*
X5231247Y-6481731D01*
X5176090Y-6452249D01*
X5116241Y-6434094D01*
X5054000Y-6427964D01*
X3554000Y-6427964D01*
X3491759Y-6434094D01*
X3431910Y-6452249D01*
X3376753Y-6481731D01*
X3328407Y-6521407D01*
X3288731Y-6569753D01*
X3259249Y-6624910D01*
X3241094Y-6684759D01*
X3234964Y-6747000D01*
X3234964Y-8747000D01*
X3236500Y-8762600D01*
X3236501Y-8998084D01*
X3156631Y-9063631D01*
X3085864Y-9149861D01*
X3033279Y-9248239D01*
X3000898Y-9354987D01*
X2989964Y-9466000D01*
X2989964Y-10042623D01*
X2942988Y-10130509D01*
X2942817Y-10131072D01*
X2942539Y-10131594D01*
X2912126Y-10232247D01*
X2881947Y-10331734D01*
X2881890Y-10332316D01*
X2881718Y-10332884D01*
X2871589Y-10436897D01*
X2861335Y-10541000D01*
X2866558Y-10594028D01*
X2869500Y-13284775D01*
X2869501Y-16610448D01*
X2866595Y-18237599D01*
X2866500Y-18238560D01*
X2866500Y-18290574D01*
X2866409Y-18341533D01*
X2866500Y-18342475D01*
X2866501Y-20306778D01*
X2768600Y-20297135D01*
X2559334Y-20317747D01*
X2358109Y-20378788D01*
X2172660Y-20477912D01*
X2010112Y-20611312D01*
X1967510Y-20663223D01*
X1967510Y-5976643D01*
X2063947Y-5880206D01*
X2104689Y-5846770D01*
X2238088Y-5684222D01*
X2318132Y-5534471D01*
X2337213Y-5498773D01*
X2398254Y-5297548D01*
X2418865Y-5088281D01*
X2413700Y-5035840D01*
X2413700Y-4690964D01*
X7831335Y-4690964D01*
X7836501Y-4743412D01*
X7836500Y-6731401D01*
X7834964Y-6747000D01*
X7834964Y-7710154D01*
X7831335Y-7747000D01*
X7834964Y-7783846D01*
X7834964Y-8747000D01*
X7841094Y-8809241D01*
X7859249Y-8869090D01*
X7888731Y-8924247D01*
X7928407Y-8972593D01*
X7976753Y-9012269D01*
X8031910Y-9041751D01*
X8091759Y-9059906D01*
X8154000Y-9066036D01*
X9654000Y-9066036D01*
X9716241Y-9059906D01*
X9776090Y-9041751D01*
X9831247Y-9012269D01*
X9879593Y-8972593D01*
X9919269Y-8924247D01*
X9948751Y-8869090D01*
X9966906Y-8809241D01*
X9973036Y-8747000D01*
X9973036Y-7783846D01*
X9976665Y-7747000D01*
X9973036Y-7710154D01*
X9973036Y-6747000D01*
X9971966Y-6736132D01*
X15462300Y-6736132D01*
X15462300Y-6877468D01*
X15489873Y-7016087D01*
X15543959Y-7146664D01*
X15622481Y-7264180D01*
X15722420Y-7364119D01*
X15839936Y-7442641D01*
X15970513Y-7496727D01*
X16109132Y-7524300D01*
X16250468Y-7524300D01*
X16389087Y-7496727D01*
X16519664Y-7442641D01*
X16637180Y-7364119D01*
X16737119Y-7264180D01*
X16757084Y-7234300D01*
X21183924Y-7234300D01*
X24664111Y-10714487D01*
X24657100Y-10749732D01*
X24657100Y-10891068D01*
X24684673Y-11029687D01*
X24738759Y-11160264D01*
X24817281Y-11277780D01*
X24917220Y-11377719D01*
X25034736Y-11456241D01*
X25165313Y-11510327D01*
X25303932Y-11537900D01*
X25445268Y-11537900D01*
X25583887Y-11510327D01*
X25714464Y-11456241D01*
X25831980Y-11377719D01*
X25931919Y-11277780D01*
X26010441Y-11160264D01*
X26029375Y-11114551D01*
X27749865Y-12835041D01*
X27763250Y-12851350D01*
X27828345Y-12904773D01*
X27902611Y-12944469D01*
X27983195Y-12968914D01*
X28046003Y-12975100D01*
X28046012Y-12975100D01*
X28066999Y-12977167D01*
X28087986Y-12975100D01*
X29377744Y-12975100D01*
X29414681Y-13030380D01*
X29514620Y-13130319D01*
X29632136Y-13208841D01*
X29762713Y-13262927D01*
X29901332Y-13290500D01*
X30042668Y-13290500D01*
X30181287Y-13262927D01*
X30311864Y-13208841D01*
X30429380Y-13130319D01*
X30529319Y-13030380D01*
X30607841Y-12912864D01*
X30661927Y-12782287D01*
X30689500Y-12643668D01*
X30689500Y-12502332D01*
X30661927Y-12363713D01*
X30607841Y-12233136D01*
X30529319Y-12115620D01*
X30429380Y-12015681D01*
X30311864Y-11937159D01*
X30181287Y-11883073D01*
X30042668Y-11855500D01*
X29901332Y-11855500D01*
X29762713Y-11883073D01*
X29632136Y-11937159D01*
X29514620Y-12015681D01*
X29414681Y-12115620D01*
X29411688Y-12120100D01*
X28244076Y-12120100D01*
X27788876Y-11664900D01*
X27832868Y-11664900D01*
X27971487Y-11637327D01*
X28102064Y-11583241D01*
X28219580Y-11504719D01*
X28319519Y-11404780D01*
X28398041Y-11287264D01*
X28452127Y-11156687D01*
X28479700Y-11018068D01*
X28479700Y-10876732D01*
X28452127Y-10738113D01*
X28398041Y-10607536D01*
X28319519Y-10490020D01*
X28219580Y-10390081D01*
X28102064Y-10311559D01*
X27971487Y-10257473D01*
X27832868Y-10229900D01*
X27789701Y-10229900D01*
X27789701Y-8874550D01*
X28847764Y-8874550D01*
X28847764Y-9312050D01*
X28858097Y-9416967D01*
X28888701Y-9517852D01*
X28938397Y-9610828D01*
X29005278Y-9692322D01*
X29086772Y-9759203D01*
X29179748Y-9808899D01*
X29280633Y-9839503D01*
X29385550Y-9849836D01*
X29898050Y-9849836D01*
X30002967Y-9839503D01*
X30103852Y-9808899D01*
X30196828Y-9759203D01*
X30278322Y-9692322D01*
X30345203Y-9610828D01*
X30393323Y-9520800D01*
X31728911Y-9520800D01*
X31749900Y-9522867D01*
X31770889Y-9520800D01*
X31770897Y-9520800D01*
X31833705Y-9514614D01*
X31914289Y-9490169D01*
X31988555Y-9450473D01*
X32028284Y-9417868D01*
X32037341Y-9410435D01*
X32037343Y-9410433D01*
X32053650Y-9397050D01*
X32067033Y-9380743D01*
X34615887Y-6831889D01*
X34651132Y-6838900D01*
X34792468Y-6838900D01*
X34931087Y-6811327D01*
X35061664Y-6757241D01*
X35179180Y-6678719D01*
X35279119Y-6578780D01*
X35357641Y-6461264D01*
X35411727Y-6330687D01*
X35439300Y-6192068D01*
X35439300Y-6050732D01*
X35411727Y-5912113D01*
X35357641Y-5781536D01*
X35279119Y-5664020D01*
X35179180Y-5564081D01*
X35061664Y-5485559D01*
X34931087Y-5431473D01*
X34792468Y-5403900D01*
X34651132Y-5403900D01*
X34512513Y-5431473D01*
X34381936Y-5485559D01*
X34264420Y-5564081D01*
X34164481Y-5664020D01*
X34085959Y-5781536D01*
X34031873Y-5912113D01*
X34004300Y-6050732D01*
X34004300Y-6192068D01*
X34011311Y-6227313D01*
X31572824Y-8665800D01*
X30393323Y-8665800D01*
X30345203Y-8575772D01*
X30278322Y-8494278D01*
X30196828Y-8427397D01*
X30103852Y-8377701D01*
X30002967Y-8347097D01*
X29898050Y-8336764D01*
X29385550Y-8336764D01*
X29280633Y-8347097D01*
X29179748Y-8377701D01*
X29086772Y-8427397D01*
X29005278Y-8494278D01*
X28938397Y-8575772D01*
X28888701Y-8668748D01*
X28858097Y-8769633D01*
X28847764Y-8874550D01*
X27789701Y-8874550D01*
X27789701Y-8259124D01*
X27807433Y-8264503D01*
X27912350Y-8274836D01*
X28424850Y-8274836D01*
X28529767Y-8264503D01*
X28630652Y-8233899D01*
X28723628Y-8184203D01*
X28805122Y-8117322D01*
X28872003Y-8035828D01*
X28905200Y-7973720D01*
X28938397Y-8035828D01*
X29005278Y-8117322D01*
X29086772Y-8184203D01*
X29179748Y-8233899D01*
X29280633Y-8264503D01*
X29385550Y-8274836D01*
X29898050Y-8274836D01*
X30002967Y-8264503D01*
X30103852Y-8233899D01*
X30196828Y-8184203D01*
X30278322Y-8117322D01*
X30345203Y-8035828D01*
X30394899Y-7942852D01*
X30425503Y-7841967D01*
X30435836Y-7737050D01*
X30435836Y-7299550D01*
X30425503Y-7194633D01*
X30394899Y-7093748D01*
X30345203Y-7000772D01*
X30278322Y-6919278D01*
X30196828Y-6852397D01*
X30103852Y-6802701D01*
X30002967Y-6772097D01*
X29898050Y-6761764D01*
X29385550Y-6761764D01*
X29280633Y-6772097D01*
X29179748Y-6802701D01*
X29086772Y-6852397D01*
X29005278Y-6919278D01*
X28938397Y-7000772D01*
X28905200Y-7062880D01*
X28872003Y-7000772D01*
X28805122Y-6919278D01*
X28723628Y-6852397D01*
X28630652Y-6802701D01*
X28529767Y-6772097D01*
X28424850Y-6761764D01*
X27912350Y-6761764D01*
X27807433Y-6772097D01*
X27706548Y-6802701D01*
X27613572Y-6852397D01*
X27532078Y-6919278D01*
X27465197Y-7000772D01*
X27415501Y-7093748D01*
X27384897Y-7194633D01*
X27381992Y-7224124D01*
X27376467Y-7230857D01*
X27074758Y-7532566D01*
X27058451Y-7545949D01*
X27045069Y-7562255D01*
X27045066Y-7562258D01*
X27021911Y-7590473D01*
X27005028Y-7611045D01*
X26965332Y-7685311D01*
X26940887Y-7765895D01*
X26934701Y-7828703D01*
X26934701Y-7828710D01*
X26932634Y-7849699D01*
X26934701Y-7870688D01*
X26934702Y-10526402D01*
X26932634Y-10547401D01*
X26940887Y-10631205D01*
X26965332Y-10711789D01*
X27005028Y-10786055D01*
X27045066Y-10834842D01*
X27045073Y-10834849D01*
X27051479Y-10842654D01*
X27044700Y-10876732D01*
X27044700Y-10920724D01*
X24230889Y-8106913D01*
X24237900Y-8071668D01*
X24237900Y-7930332D01*
X24210327Y-7791713D01*
X24156241Y-7661136D01*
X24077719Y-7543620D01*
X23977780Y-7443681D01*
X23860264Y-7365159D01*
X23729687Y-7311073D01*
X23591068Y-7283500D01*
X23449732Y-7283500D01*
X23311113Y-7311073D01*
X23180536Y-7365159D01*
X23063020Y-7443681D01*
X22963081Y-7543620D01*
X22884559Y-7661136D01*
X22865625Y-7706849D01*
X21678133Y-6519357D01*
X21664750Y-6503050D01*
X21599655Y-6449627D01*
X21525389Y-6409931D01*
X21444805Y-6385486D01*
X21381997Y-6379300D01*
X21381989Y-6379300D01*
X21361000Y-6377233D01*
X21340011Y-6379300D01*
X16757084Y-6379300D01*
X16737119Y-6349420D01*
X16637180Y-6249481D01*
X16519664Y-6170959D01*
X16389087Y-6116873D01*
X16250468Y-6089300D01*
X16109132Y-6089300D01*
X15970513Y-6116873D01*
X15839936Y-6170959D01*
X15722420Y-6249481D01*
X15622481Y-6349420D01*
X15543959Y-6466936D01*
X15489873Y-6597513D01*
X15462300Y-6736132D01*
X9971966Y-6736132D01*
X9971500Y-6731404D01*
X9971500Y-5133136D01*
X10443899Y-4660737D01*
X10543870Y-4538922D01*
X10642994Y-4353473D01*
X10704035Y-4152249D01*
X10724647Y-3942983D01*
X10704035Y-3733716D01*
X10642994Y-3532491D01*
X10543870Y-3347042D01*
X10410470Y-3184494D01*
X10247922Y-3051094D01*
X10062473Y-2951970D01*
X9861248Y-2890929D01*
X9651981Y-2870317D01*
X9442715Y-2890929D01*
X9241491Y-2951970D01*
X9056042Y-3051094D01*
X8934227Y-3151065D01*
X8186248Y-3899044D01*
X8145512Y-3932475D01*
X8112083Y-3973209D01*
X8012112Y-4095024D01*
X7941541Y-4227054D01*
X7912988Y-4280473D01*
X7908168Y-4296364D01*
X7851947Y-4481698D01*
X7831335Y-4690964D01*
X2413700Y-4690964D01*
X2413700Y-4359852D01*
X2468834Y-4226747D01*
X2513700Y-4001189D01*
X2513700Y-3771211D01*
X2468834Y-3545653D01*
X2380825Y-3333181D01*
X2253056Y-3141962D01*
X2090438Y-2979344D01*
X1899219Y-2851575D01*
X1686747Y-2763566D01*
X1461189Y-2718700D01*
X1231211Y-2718700D01*
X1005653Y-2763566D01*
X793181Y-2851575D01*
X601962Y-2979344D01*
X439344Y-3141962D01*
X367500Y-3249484D01*
X367500Y-367500D01*
X11454357Y-367500D01*
X11451964Y-391800D01*
G37*
X11451964Y-391800D02*
X11451964Y-666275D01*
X11393946Y-857534D01*
X11378500Y-1014360D01*
X11378500Y-1271364D01*
X11373335Y-1323802D01*
X11378500Y-1376240D01*
X11378500Y-1376243D01*
X11393946Y-1533069D01*
X11451964Y-1724328D01*
X11451964Y-1741800D01*
X11458094Y-1804041D01*
X11476249Y-1863890D01*
X11505731Y-1919047D01*
X11545407Y-1967393D01*
X11593753Y-2007069D01*
X11648910Y-2036551D01*
X11650327Y-2036981D01*
X11687512Y-2082291D01*
X11728248Y-2115722D01*
X13505278Y-3892753D01*
X13538709Y-3933489D01*
X13701257Y-4066888D01*
X13886707Y-4166013D01*
X14087931Y-4227054D01*
X14244757Y-4242500D01*
X14244759Y-4242500D01*
X14297197Y-4247665D01*
X14349635Y-4242500D01*
X16235964Y-4242500D01*
X16235964Y-4726650D01*
X16246297Y-4831567D01*
X16276901Y-4932452D01*
X16326597Y-5025428D01*
X16393478Y-5106922D01*
X16474972Y-5173803D01*
X16567948Y-5223499D01*
X16668833Y-5254103D01*
X16773750Y-5264436D01*
X17211250Y-5264436D01*
X17316167Y-5254103D01*
X17417052Y-5223499D01*
X17510028Y-5173803D01*
X17591522Y-5106922D01*
X17658403Y-5025428D01*
X17708099Y-4932452D01*
X17738703Y-4831567D01*
X17749036Y-4726650D01*
X17749036Y-4242500D01*
X17824004Y-4242500D01*
X17876442Y-4247665D01*
X17928880Y-4242500D01*
X17928883Y-4242500D01*
X18085709Y-4227054D01*
X18132401Y-4212890D01*
X19002599Y-4212890D01*
X19049291Y-4227054D01*
X19206117Y-4242500D01*
X19258558Y-4247665D01*
X19310999Y-4242500D01*
X34313762Y-4242500D01*
X34366200Y-4247665D01*
X34418638Y-4242500D01*
X34418641Y-4242500D01*
X34575467Y-4227054D01*
X34776691Y-4166013D01*
X34962141Y-4066888D01*
X35124689Y-3933489D01*
X35158125Y-3892747D01*
X35566547Y-3484325D01*
X35607289Y-3450889D01*
X35740688Y-3288341D01*
X35839813Y-3102891D01*
X35900854Y-2901667D01*
X35916300Y-2744841D01*
X35916300Y-2744839D01*
X35921465Y-2692401D01*
X35916300Y-2639963D01*
X35916300Y-1014359D01*
X35900854Y-857533D01*
X35842836Y-666274D01*
X35842836Y-391800D01*
X35840443Y-367500D01*
X36157700Y-367500D01*
X36157701Y-25032500D01*
X35862702Y-25032500D01*
X35865639Y-25002684D01*
X35865639Y-23652684D01*
X35859509Y-23590443D01*
X35841354Y-23530594D01*
X35811872Y-23475437D01*
X35772196Y-23427091D01*
X35723850Y-23387415D01*
X35668693Y-23357933D01*
X35608844Y-23339778D01*
X35546603Y-23333648D01*
X34196603Y-23333648D01*
X34134362Y-23339778D01*
X34074513Y-23357933D01*
X34019356Y-23387415D01*
X33971010Y-23427091D01*
X33931334Y-23475437D01*
X33901852Y-23530594D01*
X33883697Y-23590443D01*
X33877567Y-23652684D01*
X33877567Y-25002684D01*
X33880504Y-25032500D01*
X33570394Y-25032500D01*
X33642528Y-24960366D01*
X33751145Y-24797809D01*
X33825962Y-24617185D01*
X33864103Y-24425437D01*
X33864103Y-24229931D01*
X33825962Y-24038183D01*
X33751145Y-23857559D01*
X33642528Y-23695002D01*
X33504285Y-23556759D01*
X33341728Y-23448142D01*
X33161104Y-23373325D01*
X32969356Y-23335184D01*
X32773850Y-23335184D01*
X32582102Y-23373325D01*
X32401478Y-23448142D01*
X32238921Y-23556759D01*
X32100678Y-23695002D01*
X31992061Y-23857559D01*
X31917244Y-24038183D01*
X31879103Y-24229931D01*
X31879103Y-24425437D01*
X31917244Y-24617185D01*
X31992061Y-24797809D01*
X32100678Y-24960366D01*
X32172812Y-25032500D01*
X27288402Y-25032500D01*
X27292036Y-24995600D01*
X27292036Y-23245600D01*
X27285906Y-23183359D01*
X27267751Y-23123510D01*
X27238269Y-23068353D01*
X27198593Y-23020007D01*
X27150247Y-22980331D01*
X27095090Y-22950849D01*
X27035241Y-22932694D01*
X26973000Y-22926564D01*
X26273000Y-22926564D01*
X26210759Y-22932694D01*
X26150910Y-22950849D01*
X26095753Y-22980331D01*
X26073000Y-22999004D01*
X26050247Y-22980331D01*
X25995090Y-22950849D01*
X25968081Y-22942656D01*
X27734655Y-21176084D01*
X27750961Y-21162702D01*
X27783324Y-21123269D01*
X27804384Y-21097607D01*
X27832786Y-21044470D01*
X27844080Y-21023341D01*
X27868525Y-20942757D01*
X27874711Y-20879949D01*
X27874711Y-20879941D01*
X27876778Y-20858952D01*
X27874711Y-20837963D01*
X27874711Y-18739684D01*
X27959313Y-18774727D01*
X28097932Y-18802300D01*
X28239268Y-18802300D01*
X28377887Y-18774727D01*
X28508464Y-18720641D01*
X28625980Y-18642119D01*
X28725919Y-18542180D01*
X28804441Y-18424664D01*
X28858527Y-18294087D01*
X28870698Y-18232900D01*
X29902716Y-18232900D01*
X29922681Y-18262780D01*
X30022620Y-18362719D01*
X30140136Y-18441241D01*
X30270713Y-18495327D01*
X30409332Y-18522900D01*
X30550668Y-18522900D01*
X30689287Y-18495327D01*
X30819864Y-18441241D01*
X30937380Y-18362719D01*
X31037319Y-18262780D01*
X31115841Y-18145264D01*
X31169927Y-18014687D01*
X31197500Y-17876068D01*
X31197500Y-17734732D01*
X31169927Y-17596113D01*
X31115841Y-17465536D01*
X31037319Y-17348020D01*
X30937380Y-17248081D01*
X30819864Y-17169559D01*
X30689287Y-17115473D01*
X30550668Y-17087900D01*
X30409332Y-17087900D01*
X30270713Y-17115473D01*
X30140136Y-17169559D01*
X30022620Y-17248081D01*
X29922681Y-17348020D01*
X29902716Y-17377900D01*
X28468986Y-17377900D01*
X28447999Y-17375833D01*
X28427012Y-17377900D01*
X28427003Y-17377900D01*
X28364195Y-17384086D01*
X28348141Y-17388956D01*
X28239268Y-17367300D01*
X28097932Y-17367300D01*
X27959313Y-17394873D01*
X27874711Y-17429916D01*
X27874711Y-16931834D01*
X27876778Y-16910847D01*
X27874711Y-16889860D01*
X27874711Y-16889851D01*
X27868525Y-16827043D01*
X27844080Y-16746459D01*
X27804384Y-16672193D01*
X27796347Y-16662400D01*
X27764346Y-16623406D01*
X27764340Y-16623400D01*
X27750961Y-16607098D01*
X27734659Y-16593719D01*
X27204285Y-16063346D01*
X27190902Y-16047039D01*
X27165948Y-16026559D01*
X27150726Y-16014067D01*
X27125807Y-15993616D01*
X27051541Y-15953920D01*
X26970957Y-15929475D01*
X26908149Y-15923289D01*
X26908141Y-15923289D01*
X26887152Y-15921222D01*
X26866163Y-15923289D01*
X24134892Y-15923289D01*
X24114927Y-15893409D01*
X24014988Y-15793470D01*
X23897472Y-15714948D01*
X23766895Y-15660862D01*
X23628276Y-15633289D01*
X23486940Y-15633289D01*
X23348321Y-15660862D01*
X23217744Y-15714948D01*
X23100228Y-15793470D01*
X23000289Y-15893409D01*
X22921767Y-16010925D01*
X22867681Y-16141502D01*
X22840108Y-16280121D01*
X22840108Y-16421457D01*
X22862355Y-16533299D01*
X22790100Y-16533299D01*
X22790100Y-16490132D01*
X22762527Y-16351513D01*
X22708441Y-16220936D01*
X22629919Y-16103420D01*
X22529980Y-16003481D01*
X22412464Y-15924959D01*
X22281887Y-15870873D01*
X22143268Y-15843300D01*
X22001932Y-15843300D01*
X21863313Y-15870873D01*
X21732736Y-15924959D01*
X21615220Y-16003481D01*
X21515281Y-16103420D01*
X21436759Y-16220936D01*
X21382673Y-16351513D01*
X21355100Y-16490132D01*
X21355100Y-16631468D01*
X21382673Y-16770087D01*
X21436759Y-16900664D01*
X21515281Y-17018180D01*
X21615220Y-17118119D01*
X21664627Y-17151132D01*
X19433088Y-17137889D01*
X21026549Y-15544428D01*
X21042850Y-15531050D01*
X21056229Y-15514748D01*
X21056235Y-15514742D01*
X21096272Y-15465956D01*
X21096274Y-15465954D01*
X21135969Y-15391689D01*
X21160414Y-15311105D01*
X21166600Y-15248297D01*
X21166600Y-15248288D01*
X21168667Y-15227301D01*
X21166600Y-15206314D01*
X21166600Y-13550176D01*
X21501100Y-13215676D01*
X21501100Y-14884400D01*
X21502320Y-14896788D01*
X21505934Y-14908700D01*
X21511802Y-14919679D01*
X21519699Y-14929301D01*
X21529321Y-14937198D01*
X21540300Y-14943066D01*
X21552212Y-14946680D01*
X21564600Y-14947900D01*
X24079200Y-14947900D01*
X24091588Y-14946680D01*
X24103500Y-14943066D01*
X24114479Y-14937198D01*
X24124101Y-14929301D01*
X24131998Y-14919679D01*
X24137866Y-14908700D01*
X24141480Y-14896788D01*
X24142700Y-14884400D01*
X24142700Y-13030200D01*
X24141480Y-13017812D01*
X24137866Y-13005900D01*
X24131998Y-12994921D01*
X24124101Y-12985299D01*
X24114479Y-12977402D01*
X24103500Y-12971534D01*
X24091588Y-12967920D01*
X24079200Y-12966700D01*
X21750076Y-12966700D01*
X21944876Y-12771900D01*
X24848116Y-12771900D01*
X24868081Y-12801780D01*
X24968020Y-12901719D01*
X25085536Y-12980241D01*
X25216113Y-13034327D01*
X25354732Y-13061900D01*
X25496068Y-13061900D01*
X25634687Y-13034327D01*
X25765264Y-12980241D01*
X25882780Y-12901719D01*
X25982719Y-12801780D01*
X26061241Y-12684264D01*
X26115327Y-12553687D01*
X26142900Y-12415068D01*
X26142900Y-12273732D01*
X26115327Y-12135113D01*
X26061241Y-12004536D01*
X25982719Y-11887020D01*
X25882780Y-11787081D01*
X25765264Y-11708559D01*
X25634687Y-11654473D01*
X25496068Y-11626900D01*
X25354732Y-11626900D01*
X25216113Y-11654473D01*
X25085536Y-11708559D01*
X24968020Y-11787081D01*
X24868081Y-11887020D01*
X24848116Y-11916900D01*
X21788786Y-11916900D01*
X21767799Y-11914833D01*
X21746812Y-11916900D01*
X21746803Y-11916900D01*
X21683995Y-11923086D01*
X21603411Y-11947531D01*
X21529145Y-11987227D01*
X21464050Y-12040650D01*
X21450667Y-12056957D01*
X20451653Y-13055971D01*
X20435351Y-13069350D01*
X20421972Y-13085652D01*
X20421965Y-13085659D01*
X20381927Y-13134446D01*
X20342231Y-13208712D01*
X20317786Y-13289296D01*
X20309533Y-13373100D01*
X20311601Y-13394099D01*
X20311600Y-15050223D01*
X19620113Y-15741710D01*
X19620113Y-14126714D01*
X19622180Y-14105727D01*
X19620113Y-14084740D01*
X19620113Y-14084731D01*
X19613927Y-14021923D01*
X19589482Y-13941339D01*
X19549786Y-13867073D01*
X19524285Y-13836000D01*
X19509748Y-13818286D01*
X19509742Y-13818280D01*
X19496363Y-13801978D01*
X19480062Y-13788600D01*
X17415442Y-11723981D01*
X17402059Y-11707674D01*
X17382269Y-11691432D01*
X17360962Y-11673946D01*
X17336964Y-11654251D01*
X17262698Y-11614555D01*
X17182114Y-11590110D01*
X17119306Y-11583924D01*
X17119298Y-11583924D01*
X17109247Y-11582934D01*
X17089943Y-11554044D01*
X16990004Y-11454105D01*
X16895188Y-11390751D01*
X18435039Y-9850900D01*
X18599716Y-9850900D01*
X18619681Y-9880780D01*
X18719620Y-9980719D01*
X18837136Y-10059241D01*
X18967713Y-10113327D01*
X19106332Y-10140900D01*
X19247668Y-10140900D01*
X19386287Y-10113327D01*
X19516864Y-10059241D01*
X19634380Y-9980719D01*
X19734319Y-9880780D01*
X19812841Y-9763264D01*
X19826484Y-9730327D01*
X19831313Y-9732327D01*
X19969932Y-9759900D01*
X20111268Y-9759900D01*
X20249887Y-9732327D01*
X20380464Y-9678241D01*
X20497980Y-9599719D01*
X20597919Y-9499780D01*
X20676441Y-9382264D01*
X20730527Y-9251687D01*
X20758100Y-9113068D01*
X20758100Y-8971732D01*
X20730527Y-8833113D01*
X20676441Y-8702536D01*
X20597919Y-8585020D01*
X20497980Y-8485081D01*
X20380464Y-8406559D01*
X20249887Y-8352473D01*
X20111268Y-8324900D01*
X19969932Y-8324900D01*
X19935855Y-8331678D01*
X19879256Y-8285228D01*
X19804990Y-8245532D01*
X19724406Y-8221087D01*
X19661598Y-8214901D01*
X19661590Y-8214901D01*
X19640601Y-8212834D01*
X19619612Y-8214901D01*
X18607385Y-8214901D01*
X18586398Y-8212834D01*
X18565411Y-8214901D01*
X18565402Y-8214901D01*
X18502594Y-8221087D01*
X18422010Y-8245532D01*
X18347744Y-8285228D01*
X18347742Y-8285229D01*
X18347743Y-8285229D01*
X18298957Y-8325266D01*
X18298951Y-8325272D01*
X18282649Y-8338651D01*
X18269270Y-8354953D01*
X17303700Y-9320523D01*
X17303700Y-9276532D01*
X17276127Y-9137913D01*
X17222041Y-9007336D01*
X17143519Y-8889820D01*
X17043580Y-8789881D01*
X16926064Y-8711359D01*
X16795487Y-8657273D01*
X16656868Y-8629700D01*
X16515532Y-8629700D01*
X16376913Y-8657273D01*
X16246336Y-8711359D01*
X16128820Y-8789881D01*
X16028881Y-8889820D01*
X15950359Y-9007336D01*
X15896273Y-9137913D01*
X15873569Y-9252054D01*
X14961324Y-10164300D01*
X9111684Y-10164300D01*
X9091719Y-10134420D01*
X8991780Y-10034481D01*
X8874264Y-9955959D01*
X8743687Y-9901873D01*
X8605068Y-9874300D01*
X8463732Y-9874300D01*
X8325113Y-9901873D01*
X8194536Y-9955959D01*
X8077020Y-10034481D01*
X7977081Y-10134420D01*
X7898559Y-10251936D01*
X7844473Y-10382513D01*
X7816900Y-10521132D01*
X7816900Y-10662468D01*
X7844473Y-10801087D01*
X7898559Y-10931664D01*
X7977081Y-11049180D01*
X8077020Y-11149119D01*
X8142564Y-11192914D01*
X8051620Y-11253681D01*
X7951681Y-11353620D01*
X7873159Y-11471136D01*
X7819073Y-11601713D01*
X7791500Y-11740332D01*
X7791500Y-11881668D01*
X7819073Y-12020287D01*
X7873159Y-12150864D01*
X7951681Y-12268380D01*
X7954186Y-12270885D01*
X7931759Y-12273094D01*
X7871910Y-12291249D01*
X7816753Y-12320731D01*
X7768407Y-12360407D01*
X7728731Y-12408753D01*
X7699249Y-12463910D01*
X7681094Y-12523759D01*
X7676659Y-12568792D01*
X7609611Y-12589131D01*
X7563846Y-12613593D01*
X7535345Y-12628827D01*
X7501256Y-12656804D01*
X7470250Y-12682250D01*
X7456867Y-12698557D01*
X6856557Y-13298867D01*
X6840250Y-13312250D01*
X6826868Y-13328556D01*
X6826865Y-13328559D01*
X6819275Y-13337808D01*
X6786827Y-13377346D01*
X6773374Y-13402515D01*
X6765732Y-13364096D01*
X6711646Y-13233519D01*
X6633124Y-13116003D01*
X6533185Y-13016064D01*
X6415669Y-12937542D01*
X6285092Y-12883456D01*
X6146473Y-12855883D01*
X6005137Y-12855883D01*
X5971060Y-12862661D01*
X5914461Y-12816211D01*
X5840195Y-12776515D01*
X5759611Y-12752070D01*
X5696803Y-12745884D01*
X5696795Y-12745884D01*
X5675806Y-12743817D01*
X5654817Y-12745884D01*
X5003911Y-12745884D01*
X5001984Y-10982688D01*
X5021747Y-10962925D01*
X5062489Y-10929489D01*
X5195888Y-10766941D01*
X5295013Y-10581491D01*
X5356054Y-10380267D01*
X5371500Y-10223441D01*
X5371500Y-10223439D01*
X5376665Y-10171001D01*
X5371500Y-10118562D01*
X5371500Y-8762596D01*
X5373036Y-8747000D01*
X5373036Y-6747000D01*
X5366906Y-6684759D01*
X5348751Y-6624910D01*
X5319269Y-6569753D01*
X5279593Y-6521407D01*
X5231247Y-6481731D01*
X5176090Y-6452249D01*
X5116241Y-6434094D01*
X5054000Y-6427964D01*
X3554000Y-6427964D01*
X3491759Y-6434094D01*
X3431910Y-6452249D01*
X3376753Y-6481731D01*
X3328407Y-6521407D01*
X3288731Y-6569753D01*
X3259249Y-6624910D01*
X3241094Y-6684759D01*
X3234964Y-6747000D01*
X3234964Y-8747000D01*
X3236500Y-8762600D01*
X3236501Y-8998084D01*
X3156631Y-9063631D01*
X3085864Y-9149861D01*
X3033279Y-9248239D01*
X3000898Y-9354987D01*
X2989964Y-9466000D01*
X2989964Y-10042623D01*
X2942988Y-10130509D01*
X2942817Y-10131072D01*
X2942539Y-10131594D01*
X2912126Y-10232247D01*
X2881947Y-10331734D01*
X2881890Y-10332316D01*
X2881718Y-10332884D01*
X2871589Y-10436897D01*
X2861335Y-10541000D01*
X2866558Y-10594028D01*
X2869500Y-13284775D01*
X2869501Y-16610448D01*
X2866595Y-18237599D01*
X2866500Y-18238560D01*
X2866500Y-18290574D01*
X2866409Y-18341533D01*
X2866500Y-18342475D01*
X2866501Y-20306778D01*
X2768600Y-20297135D01*
X2559334Y-20317747D01*
X2358109Y-20378788D01*
X2172660Y-20477912D01*
X2010112Y-20611312D01*
X1967510Y-20663223D01*
X1967510Y-5976643D01*
X2063947Y-5880206D01*
X2104689Y-5846770D01*
X2238088Y-5684222D01*
X2318132Y-5534471D01*
X2337213Y-5498773D01*
X2398254Y-5297548D01*
X2418865Y-5088281D01*
X2413700Y-5035840D01*
X2413700Y-4690964D01*
X7831335Y-4690964D01*
X7836501Y-4743412D01*
X7836500Y-6731401D01*
X7834964Y-6747000D01*
X7834964Y-7710154D01*
X7831335Y-7747000D01*
X7834964Y-7783846D01*
X7834964Y-8747000D01*
X7841094Y-8809241D01*
X7859249Y-8869090D01*
X7888731Y-8924247D01*
X7928407Y-8972593D01*
X7976753Y-9012269D01*
X8031910Y-9041751D01*
X8091759Y-9059906D01*
X8154000Y-9066036D01*
X9654000Y-9066036D01*
X9716241Y-9059906D01*
X9776090Y-9041751D01*
X9831247Y-9012269D01*
X9879593Y-8972593D01*
X9919269Y-8924247D01*
X9948751Y-8869090D01*
X9966906Y-8809241D01*
X9973036Y-8747000D01*
X9973036Y-7783846D01*
X9976665Y-7747000D01*
X9973036Y-7710154D01*
X9973036Y-6747000D01*
X9971966Y-6736132D01*
X15462300Y-6736132D01*
X15462300Y-6877468D01*
X15489873Y-7016087D01*
X15543959Y-7146664D01*
X15622481Y-7264180D01*
X15722420Y-7364119D01*
X15839936Y-7442641D01*
X15970513Y-7496727D01*
X16109132Y-7524300D01*
X16250468Y-7524300D01*
X16389087Y-7496727D01*
X16519664Y-7442641D01*
X16637180Y-7364119D01*
X16737119Y-7264180D01*
X16757084Y-7234300D01*
X21183924Y-7234300D01*
X24664111Y-10714487D01*
X24657100Y-10749732D01*
X24657100Y-10891068D01*
X24684673Y-11029687D01*
X24738759Y-11160264D01*
X24817281Y-11277780D01*
X24917220Y-11377719D01*
X25034736Y-11456241D01*
X25165313Y-11510327D01*
X25303932Y-11537900D01*
X25445268Y-11537900D01*
X25583887Y-11510327D01*
X25714464Y-11456241D01*
X25831980Y-11377719D01*
X25931919Y-11277780D01*
X26010441Y-11160264D01*
X26029375Y-11114551D01*
X27749865Y-12835041D01*
X27763250Y-12851350D01*
X27828345Y-12904773D01*
X27902611Y-12944469D01*
X27983195Y-12968914D01*
X28046003Y-12975100D01*
X28046012Y-12975100D01*
X28066999Y-12977167D01*
X28087986Y-12975100D01*
X29377744Y-12975100D01*
X29414681Y-13030380D01*
X29514620Y-13130319D01*
X29632136Y-13208841D01*
X29762713Y-13262927D01*
X29901332Y-13290500D01*
X30042668Y-13290500D01*
X30181287Y-13262927D01*
X30311864Y-13208841D01*
X30429380Y-13130319D01*
X30529319Y-13030380D01*
X30607841Y-12912864D01*
X30661927Y-12782287D01*
X30689500Y-12643668D01*
X30689500Y-12502332D01*
X30661927Y-12363713D01*
X30607841Y-12233136D01*
X30529319Y-12115620D01*
X30429380Y-12015681D01*
X30311864Y-11937159D01*
X30181287Y-11883073D01*
X30042668Y-11855500D01*
X29901332Y-11855500D01*
X29762713Y-11883073D01*
X29632136Y-11937159D01*
X29514620Y-12015681D01*
X29414681Y-12115620D01*
X29411688Y-12120100D01*
X28244076Y-12120100D01*
X27788876Y-11664900D01*
X27832868Y-11664900D01*
X27971487Y-11637327D01*
X28102064Y-11583241D01*
X28219580Y-11504719D01*
X28319519Y-11404780D01*
X28398041Y-11287264D01*
X28452127Y-11156687D01*
X28479700Y-11018068D01*
X28479700Y-10876732D01*
X28452127Y-10738113D01*
X28398041Y-10607536D01*
X28319519Y-10490020D01*
X28219580Y-10390081D01*
X28102064Y-10311559D01*
X27971487Y-10257473D01*
X27832868Y-10229900D01*
X27789701Y-10229900D01*
X27789701Y-8874550D01*
X28847764Y-8874550D01*
X28847764Y-9312050D01*
X28858097Y-9416967D01*
X28888701Y-9517852D01*
X28938397Y-9610828D01*
X29005278Y-9692322D01*
X29086772Y-9759203D01*
X29179748Y-9808899D01*
X29280633Y-9839503D01*
X29385550Y-9849836D01*
X29898050Y-9849836D01*
X30002967Y-9839503D01*
X30103852Y-9808899D01*
X30196828Y-9759203D01*
X30278322Y-9692322D01*
X30345203Y-9610828D01*
X30393323Y-9520800D01*
X31728911Y-9520800D01*
X31749900Y-9522867D01*
X31770889Y-9520800D01*
X31770897Y-9520800D01*
X31833705Y-9514614D01*
X31914289Y-9490169D01*
X31988555Y-9450473D01*
X32028284Y-9417868D01*
X32037341Y-9410435D01*
X32037343Y-9410433D01*
X32053650Y-9397050D01*
X32067033Y-9380743D01*
X34615887Y-6831889D01*
X34651132Y-6838900D01*
X34792468Y-6838900D01*
X34931087Y-6811327D01*
X35061664Y-6757241D01*
X35179180Y-6678719D01*
X35279119Y-6578780D01*
X35357641Y-6461264D01*
X35411727Y-6330687D01*
X35439300Y-6192068D01*
X35439300Y-6050732D01*
X35411727Y-5912113D01*
X35357641Y-5781536D01*
X35279119Y-5664020D01*
X35179180Y-5564081D01*
X35061664Y-5485559D01*
X34931087Y-5431473D01*
X34792468Y-5403900D01*
X34651132Y-5403900D01*
X34512513Y-5431473D01*
X34381936Y-5485559D01*
X34264420Y-5564081D01*
X34164481Y-5664020D01*
X34085959Y-5781536D01*
X34031873Y-5912113D01*
X34004300Y-6050732D01*
X34004300Y-6192068D01*
X34011311Y-6227313D01*
X31572824Y-8665800D01*
X30393323Y-8665800D01*
X30345203Y-8575772D01*
X30278322Y-8494278D01*
X30196828Y-8427397D01*
X30103852Y-8377701D01*
X30002967Y-8347097D01*
X29898050Y-8336764D01*
X29385550Y-8336764D01*
X29280633Y-8347097D01*
X29179748Y-8377701D01*
X29086772Y-8427397D01*
X29005278Y-8494278D01*
X28938397Y-8575772D01*
X28888701Y-8668748D01*
X28858097Y-8769633D01*
X28847764Y-8874550D01*
X27789701Y-8874550D01*
X27789701Y-8259124D01*
X27807433Y-8264503D01*
X27912350Y-8274836D01*
X28424850Y-8274836D01*
X28529767Y-8264503D01*
X28630652Y-8233899D01*
X28723628Y-8184203D01*
X28805122Y-8117322D01*
X28872003Y-8035828D01*
X28905200Y-7973720D01*
X28938397Y-8035828D01*
X29005278Y-8117322D01*
X29086772Y-8184203D01*
X29179748Y-8233899D01*
X29280633Y-8264503D01*
X29385550Y-8274836D01*
X29898050Y-8274836D01*
X30002967Y-8264503D01*
X30103852Y-8233899D01*
X30196828Y-8184203D01*
X30278322Y-8117322D01*
X30345203Y-8035828D01*
X30394899Y-7942852D01*
X30425503Y-7841967D01*
X30435836Y-7737050D01*
X30435836Y-7299550D01*
X30425503Y-7194633D01*
X30394899Y-7093748D01*
X30345203Y-7000772D01*
X30278322Y-6919278D01*
X30196828Y-6852397D01*
X30103852Y-6802701D01*
X30002967Y-6772097D01*
X29898050Y-6761764D01*
X29385550Y-6761764D01*
X29280633Y-6772097D01*
X29179748Y-6802701D01*
X29086772Y-6852397D01*
X29005278Y-6919278D01*
X28938397Y-7000772D01*
X28905200Y-7062880D01*
X28872003Y-7000772D01*
X28805122Y-6919278D01*
X28723628Y-6852397D01*
X28630652Y-6802701D01*
X28529767Y-6772097D01*
X28424850Y-6761764D01*
X27912350Y-6761764D01*
X27807433Y-6772097D01*
X27706548Y-6802701D01*
X27613572Y-6852397D01*
X27532078Y-6919278D01*
X27465197Y-7000772D01*
X27415501Y-7093748D01*
X27384897Y-7194633D01*
X27381992Y-7224124D01*
X27376467Y-7230857D01*
X27074758Y-7532566D01*
X27058451Y-7545949D01*
X27045069Y-7562255D01*
X27045066Y-7562258D01*
X27021911Y-7590473D01*
X27005028Y-7611045D01*
X26965332Y-7685311D01*
X26940887Y-7765895D01*
X26934701Y-7828703D01*
X26934701Y-7828710D01*
X26932634Y-7849699D01*
X26934701Y-7870688D01*
X26934702Y-10526402D01*
X26932634Y-10547401D01*
X26940887Y-10631205D01*
X26965332Y-10711789D01*
X27005028Y-10786055D01*
X27045066Y-10834842D01*
X27045073Y-10834849D01*
X27051479Y-10842654D01*
X27044700Y-10876732D01*
X27044700Y-10920724D01*
X24230889Y-8106913D01*
X24237900Y-8071668D01*
X24237900Y-7930332D01*
X24210327Y-7791713D01*
X24156241Y-7661136D01*
X24077719Y-7543620D01*
X23977780Y-7443681D01*
X23860264Y-7365159D01*
X23729687Y-7311073D01*
X23591068Y-7283500D01*
X23449732Y-7283500D01*
X23311113Y-7311073D01*
X23180536Y-7365159D01*
X23063020Y-7443681D01*
X22963081Y-7543620D01*
X22884559Y-7661136D01*
X22865625Y-7706849D01*
X21678133Y-6519357D01*
X21664750Y-6503050D01*
X21599655Y-6449627D01*
X21525389Y-6409931D01*
X21444805Y-6385486D01*
X21381997Y-6379300D01*
X21381989Y-6379300D01*
X21361000Y-6377233D01*
X21340011Y-6379300D01*
X16757084Y-6379300D01*
X16737119Y-6349420D01*
X16637180Y-6249481D01*
X16519664Y-6170959D01*
X16389087Y-6116873D01*
X16250468Y-6089300D01*
X16109132Y-6089300D01*
X15970513Y-6116873D01*
X15839936Y-6170959D01*
X15722420Y-6249481D01*
X15622481Y-6349420D01*
X15543959Y-6466936D01*
X15489873Y-6597513D01*
X15462300Y-6736132D01*
X9971966Y-6736132D01*
X9971500Y-6731404D01*
X9971500Y-5133136D01*
X10443899Y-4660737D01*
X10543870Y-4538922D01*
X10642994Y-4353473D01*
X10704035Y-4152249D01*
X10724647Y-3942983D01*
X10704035Y-3733716D01*
X10642994Y-3532491D01*
X10543870Y-3347042D01*
X10410470Y-3184494D01*
X10247922Y-3051094D01*
X10062473Y-2951970D01*
X9861248Y-2890929D01*
X9651981Y-2870317D01*
X9442715Y-2890929D01*
X9241491Y-2951970D01*
X9056042Y-3051094D01*
X8934227Y-3151065D01*
X8186248Y-3899044D01*
X8145512Y-3932475D01*
X8112083Y-3973209D01*
X8012112Y-4095024D01*
X7941541Y-4227054D01*
X7912988Y-4280473D01*
X7908168Y-4296364D01*
X7851947Y-4481698D01*
X7831335Y-4690964D01*
X2413700Y-4690964D01*
X2413700Y-4359852D01*
X2468834Y-4226747D01*
X2513700Y-4001189D01*
X2513700Y-3771211D01*
X2468834Y-3545653D01*
X2380825Y-3333181D01*
X2253056Y-3141962D01*
X2090438Y-2979344D01*
X1899219Y-2851575D01*
X1686747Y-2763566D01*
X1461189Y-2718700D01*
X1231211Y-2718700D01*
X1005653Y-2763566D01*
X793181Y-2851575D01*
X601962Y-2979344D01*
X439344Y-3141962D01*
X367500Y-3249484D01*
X367500Y-367500D01*
X11454357Y-367500D01*
X11451964Y-391800D01*
G36*
X25095501Y-22937323D02*
G01*
X25050910Y-22950849D01*
X24995753Y-22980331D01*
X24947407Y-23020007D01*
X24907731Y-23068353D01*
X24878249Y-23123510D01*
X24860094Y-23183359D01*
X24853964Y-23245600D01*
X24853964Y-24995600D01*
X24857598Y-25032500D01*
X23988402Y-25032500D01*
X23992036Y-24995600D01*
X23992036Y-23245600D01*
X23985906Y-23183359D01*
X23967751Y-23123510D01*
X23957272Y-23103904D01*
X24141976Y-22919200D01*
X25095501Y-22919200D01*
X25095501Y-22937323D01*
G37*
X25095501Y-22937323D02*
X25050910Y-22950849D01*
X24995753Y-22980331D01*
X24947407Y-23020007D01*
X24907731Y-23068353D01*
X24878249Y-23123510D01*
X24860094Y-23183359D01*
X24853964Y-23245600D01*
X24853964Y-24995600D01*
X24857598Y-25032500D01*
X23988402Y-25032500D01*
X23992036Y-24995600D01*
X23992036Y-23245600D01*
X23985906Y-23183359D01*
X23967751Y-23123510D01*
X23957272Y-23103904D01*
X24141976Y-22919200D01*
X25095501Y-22919200D01*
X25095501Y-22937323D01*
G36*
X17603681Y-15036980D02*
G01*
X17703620Y-15136919D01*
X17821136Y-15215441D01*
X17951713Y-15269527D01*
X18090332Y-15297100D01*
X18231668Y-15297100D01*
X18370287Y-15269527D01*
X18445103Y-15238538D01*
X18445103Y-15859700D01*
X16470163Y-17834640D01*
X16470157Y-17834645D01*
X16463512Y-17841290D01*
X16428268Y-17834279D01*
X16286932Y-17834279D01*
X16148313Y-17861852D01*
X16017736Y-17915938D01*
X15900220Y-17994460D01*
X15800281Y-18094399D01*
X15721759Y-18211915D01*
X15667673Y-18342492D01*
X15640100Y-18481111D01*
X15640100Y-18622447D01*
X15667673Y-18761066D01*
X15721759Y-18891643D01*
X15800281Y-19009159D01*
X15900220Y-19109098D01*
X16017736Y-19187620D01*
X16148313Y-19241706D01*
X16286932Y-19269279D01*
X16428268Y-19269279D01*
X16566887Y-19241706D01*
X16692101Y-19189842D01*
X16692101Y-19751986D01*
X16690033Y-19772985D01*
X16698286Y-19856789D01*
X16722731Y-19937373D01*
X16762427Y-20011639D01*
X16802465Y-20060426D01*
X16802472Y-20060433D01*
X16815851Y-20076735D01*
X16832153Y-20090114D01*
X16933111Y-20191072D01*
X16926100Y-20226317D01*
X16926100Y-20367653D01*
X16953673Y-20506272D01*
X17007759Y-20636849D01*
X17086281Y-20754365D01*
X17186220Y-20854304D01*
X17303736Y-20932826D01*
X17346208Y-20950418D01*
X16930525Y-21366101D01*
X16738278Y-21366101D01*
X16153689Y-20781513D01*
X16160700Y-20746268D01*
X16160700Y-20604932D01*
X16133127Y-20466313D01*
X16079041Y-20335736D01*
X16000519Y-20218220D01*
X15900580Y-20118281D01*
X15783064Y-20039759D01*
X15652487Y-19985673D01*
X15513868Y-19958100D01*
X15372532Y-19958100D01*
X15233913Y-19985673D01*
X15103336Y-20039759D01*
X14985820Y-20118281D01*
X14885881Y-20218220D01*
X14807359Y-20335736D01*
X14753273Y-20466313D01*
X14725700Y-20604932D01*
X14725700Y-20746268D01*
X14753273Y-20884887D01*
X14807359Y-21015464D01*
X14885881Y-21132980D01*
X14985820Y-21232919D01*
X15103336Y-21311441D01*
X15233913Y-21365527D01*
X15372532Y-21393100D01*
X15513868Y-21393100D01*
X15549113Y-21386089D01*
X16244072Y-22081049D01*
X16257451Y-22097351D01*
X16273753Y-22110730D01*
X16273759Y-22110736D01*
X16315921Y-22145337D01*
X16322546Y-22150774D01*
X16396812Y-22190470D01*
X16477396Y-22214915D01*
X16540204Y-22221101D01*
X16540213Y-22221101D01*
X16561200Y-22223168D01*
X16582187Y-22221101D01*
X17086612Y-22221101D01*
X17107601Y-22223168D01*
X17128590Y-22221101D01*
X17128598Y-22221101D01*
X17191406Y-22214915D01*
X17271990Y-22190470D01*
X17346256Y-22150774D01*
X17411351Y-22097351D01*
X17424734Y-22081044D01*
X18266900Y-21238878D01*
X18266900Y-21676011D01*
X18264833Y-21697000D01*
X18266900Y-21717989D01*
X18266900Y-21717996D01*
X18271428Y-21763965D01*
X18273086Y-21780804D01*
X18297531Y-21861388D01*
X18337227Y-21935654D01*
X18377265Y-21984441D01*
X18377268Y-21984444D01*
X18390650Y-22000750D01*
X18406957Y-22014133D01*
X19324455Y-22931632D01*
X19273000Y-22926564D01*
X18573000Y-22926564D01*
X18510759Y-22932694D01*
X18450910Y-22950849D01*
X18395753Y-22980331D01*
X18347407Y-23020007D01*
X18307731Y-23068353D01*
X18278249Y-23123510D01*
X18260094Y-23183359D01*
X18253964Y-23245600D01*
X18253964Y-24995600D01*
X18257598Y-25032500D01*
X15127098Y-25032500D01*
X15186814Y-24972784D01*
X15295431Y-24810227D01*
X15370248Y-24629603D01*
X15408389Y-24437855D01*
X15408389Y-24242349D01*
X15370248Y-24050601D01*
X15295431Y-23869977D01*
X15186814Y-23707420D01*
X15048571Y-23569177D01*
X14886014Y-23460560D01*
X14705390Y-23385743D01*
X14513642Y-23347602D01*
X14318136Y-23347602D01*
X14126388Y-23385743D01*
X13945764Y-23460560D01*
X13783207Y-23569177D01*
X13644964Y-23707420D01*
X13536347Y-23869977D01*
X13461530Y-24050601D01*
X13454431Y-24086291D01*
X13409925Y-23939576D01*
X13409925Y-23665102D01*
X13403795Y-23602861D01*
X13385640Y-23543012D01*
X13356158Y-23487855D01*
X13316482Y-23439509D01*
X13268136Y-23399833D01*
X13212979Y-23370351D01*
X13153130Y-23352196D01*
X13090889Y-23346066D01*
X12816415Y-23346066D01*
X12625156Y-23288048D01*
X12468330Y-23272602D01*
X9238070Y-23272602D01*
X9241903Y-23259967D01*
X9252236Y-23155050D01*
X9252236Y-22848355D01*
X9290313Y-22864127D01*
X9428932Y-22891700D01*
X9570268Y-22891700D01*
X9708887Y-22864127D01*
X9839464Y-22810041D01*
X9956980Y-22731519D01*
X10056919Y-22631580D01*
X10135441Y-22514064D01*
X10189527Y-22383487D01*
X10217100Y-22244868D01*
X10217100Y-22103532D01*
X10189527Y-21964913D01*
X10135441Y-21834336D01*
X10056919Y-21716820D01*
X9956980Y-21616881D01*
X9839464Y-21538359D01*
X9708887Y-21484273D01*
X9570268Y-21456700D01*
X9428932Y-21456700D01*
X9290313Y-21484273D01*
X9159736Y-21538359D01*
X9042220Y-21616881D01*
X8942281Y-21716820D01*
X8922316Y-21746700D01*
X8803789Y-21746700D01*
X8782800Y-21744633D01*
X8761811Y-21746700D01*
X8761803Y-21746700D01*
X8698995Y-21752886D01*
X8618411Y-21777331D01*
X8544145Y-21817027D01*
X8479050Y-21870450D01*
X8465667Y-21886757D01*
X8170753Y-22181671D01*
X8169139Y-22182995D01*
X8097033Y-22190097D01*
X7996148Y-22220701D01*
X7903172Y-22270397D01*
X7821678Y-22337278D01*
X7754797Y-22418772D01*
X7705101Y-22511748D01*
X7674497Y-22612633D01*
X7664164Y-22717550D01*
X7664164Y-23155050D01*
X7674497Y-23259967D01*
X7678330Y-23272602D01*
X3918320Y-23272602D01*
X3150818Y-22505100D01*
X3249562Y-22505100D01*
X3302000Y-22510265D01*
X3354438Y-22505100D01*
X3354441Y-22505100D01*
X3511267Y-22489654D01*
X3712491Y-22428613D01*
X3897941Y-22329488D01*
X4060489Y-22196089D01*
X4093925Y-22155347D01*
X4651747Y-21597525D01*
X4692489Y-21564089D01*
X4825888Y-21401541D01*
X4870265Y-21318517D01*
X4925013Y-21216092D01*
X4941866Y-21160534D01*
X4986054Y-21014867D01*
X5001500Y-20858041D01*
X5001500Y-20858039D01*
X5006665Y-20805600D01*
X5001500Y-20753162D01*
X5001500Y-19883900D01*
X9416213Y-19883900D01*
X9437202Y-19885967D01*
X9458191Y-19883900D01*
X9458199Y-19883900D01*
X9521007Y-19877714D01*
X9601591Y-19853269D01*
X9675857Y-19813573D01*
X9740952Y-19760150D01*
X9754335Y-19743843D01*
X10202256Y-19295923D01*
X10240603Y-19299700D01*
X10240612Y-19299700D01*
X10261599Y-19301767D01*
X10282586Y-19299700D01*
X12157409Y-19299700D01*
X11283592Y-20173517D01*
X10950647Y-20173517D01*
X10930682Y-20143637D01*
X10830743Y-20043698D01*
X10713227Y-19965176D01*
X10582650Y-19911090D01*
X10444031Y-19883517D01*
X10302695Y-19883517D01*
X10164076Y-19911090D01*
X10033499Y-19965176D01*
X9915983Y-20043698D01*
X9816044Y-20143637D01*
X9737522Y-20261153D01*
X9683436Y-20391730D01*
X9655863Y-20530349D01*
X9655863Y-20671685D01*
X9683436Y-20810304D01*
X9737522Y-20940881D01*
X9816044Y-21058397D01*
X9915983Y-21158336D01*
X10033499Y-21236858D01*
X10164076Y-21290944D01*
X10302695Y-21318517D01*
X10444031Y-21318517D01*
X10582650Y-21290944D01*
X10713227Y-21236858D01*
X10830743Y-21158336D01*
X10930682Y-21058397D01*
X10950647Y-21028517D01*
X11439679Y-21028517D01*
X11460668Y-21030584D01*
X11481657Y-21028517D01*
X11481665Y-21028517D01*
X11544473Y-21022331D01*
X11625057Y-20997886D01*
X11699323Y-20958190D01*
X11764418Y-20904767D01*
X11777801Y-20888460D01*
X15577842Y-17088419D01*
X15594149Y-17075036D01*
X15619125Y-17044604D01*
X15647572Y-17009941D01*
X15655744Y-16994652D01*
X15687268Y-16935675D01*
X15711713Y-16855091D01*
X15717899Y-16792283D01*
X15717899Y-16792275D01*
X15719966Y-16771286D01*
X15717899Y-16750297D01*
X15717899Y-15277275D01*
X15988075Y-15007100D01*
X17583716Y-15007100D01*
X17603681Y-15036980D01*
G37*
X17603681Y-15036980D02*
X17703620Y-15136919D01*
X17821136Y-15215441D01*
X17951713Y-15269527D01*
X18090332Y-15297100D01*
X18231668Y-15297100D01*
X18370287Y-15269527D01*
X18445103Y-15238538D01*
X18445103Y-15859700D01*
X16470163Y-17834640D01*
X16470157Y-17834645D01*
X16463512Y-17841290D01*
X16428268Y-17834279D01*
X16286932Y-17834279D01*
X16148313Y-17861852D01*
X16017736Y-17915938D01*
X15900220Y-17994460D01*
X15800281Y-18094399D01*
X15721759Y-18211915D01*
X15667673Y-18342492D01*
X15640100Y-18481111D01*
X15640100Y-18622447D01*
X15667673Y-18761066D01*
X15721759Y-18891643D01*
X15800281Y-19009159D01*
X15900220Y-19109098D01*
X16017736Y-19187620D01*
X16148313Y-19241706D01*
X16286932Y-19269279D01*
X16428268Y-19269279D01*
X16566887Y-19241706D01*
X16692101Y-19189842D01*
X16692101Y-19751986D01*
X16690033Y-19772985D01*
X16698286Y-19856789D01*
X16722731Y-19937373D01*
X16762427Y-20011639D01*
X16802465Y-20060426D01*
X16802472Y-20060433D01*
X16815851Y-20076735D01*
X16832153Y-20090114D01*
X16933111Y-20191072D01*
X16926100Y-20226317D01*
X16926100Y-20367653D01*
X16953673Y-20506272D01*
X17007759Y-20636849D01*
X17086281Y-20754365D01*
X17186220Y-20854304D01*
X17303736Y-20932826D01*
X17346208Y-20950418D01*
X16930525Y-21366101D01*
X16738278Y-21366101D01*
X16153689Y-20781513D01*
X16160700Y-20746268D01*
X16160700Y-20604932D01*
X16133127Y-20466313D01*
X16079041Y-20335736D01*
X16000519Y-20218220D01*
X15900580Y-20118281D01*
X15783064Y-20039759D01*
X15652487Y-19985673D01*
X15513868Y-19958100D01*
X15372532Y-19958100D01*
X15233913Y-19985673D01*
X15103336Y-20039759D01*
X14985820Y-20118281D01*
X14885881Y-20218220D01*
X14807359Y-20335736D01*
X14753273Y-20466313D01*
X14725700Y-20604932D01*
X14725700Y-20746268D01*
X14753273Y-20884887D01*
X14807359Y-21015464D01*
X14885881Y-21132980D01*
X14985820Y-21232919D01*
X15103336Y-21311441D01*
X15233913Y-21365527D01*
X15372532Y-21393100D01*
X15513868Y-21393100D01*
X15549113Y-21386089D01*
X16244072Y-22081049D01*
X16257451Y-22097351D01*
X16273753Y-22110730D01*
X16273759Y-22110736D01*
X16315921Y-22145337D01*
X16322546Y-22150774D01*
X16396812Y-22190470D01*
X16477396Y-22214915D01*
X16540204Y-22221101D01*
X16540213Y-22221101D01*
X16561200Y-22223168D01*
X16582187Y-22221101D01*
X17086612Y-22221101D01*
X17107601Y-22223168D01*
X17128590Y-22221101D01*
X17128598Y-22221101D01*
X17191406Y-22214915D01*
X17271990Y-22190470D01*
X17346256Y-22150774D01*
X17411351Y-22097351D01*
X17424734Y-22081044D01*
X18266900Y-21238878D01*
X18266900Y-21676011D01*
X18264833Y-21697000D01*
X18266900Y-21717989D01*
X18266900Y-21717996D01*
X18271428Y-21763965D01*
X18273086Y-21780804D01*
X18297531Y-21861388D01*
X18337227Y-21935654D01*
X18377265Y-21984441D01*
X18377268Y-21984444D01*
X18390650Y-22000750D01*
X18406957Y-22014133D01*
X19324455Y-22931632D01*
X19273000Y-22926564D01*
X18573000Y-22926564D01*
X18510759Y-22932694D01*
X18450910Y-22950849D01*
X18395753Y-22980331D01*
X18347407Y-23020007D01*
X18307731Y-23068353D01*
X18278249Y-23123510D01*
X18260094Y-23183359D01*
X18253964Y-23245600D01*
X18253964Y-24995600D01*
X18257598Y-25032500D01*
X15127098Y-25032500D01*
X15186814Y-24972784D01*
X15295431Y-24810227D01*
X15370248Y-24629603D01*
X15408389Y-24437855D01*
X15408389Y-24242349D01*
X15370248Y-24050601D01*
X15295431Y-23869977D01*
X15186814Y-23707420D01*
X15048571Y-23569177D01*
X14886014Y-23460560D01*
X14705390Y-23385743D01*
X14513642Y-23347602D01*
X14318136Y-23347602D01*
X14126388Y-23385743D01*
X13945764Y-23460560D01*
X13783207Y-23569177D01*
X13644964Y-23707420D01*
X13536347Y-23869977D01*
X13461530Y-24050601D01*
X13454431Y-24086291D01*
X13409925Y-23939576D01*
X13409925Y-23665102D01*
X13403795Y-23602861D01*
X13385640Y-23543012D01*
X13356158Y-23487855D01*
X13316482Y-23439509D01*
X13268136Y-23399833D01*
X13212979Y-23370351D01*
X13153130Y-23352196D01*
X13090889Y-23346066D01*
X12816415Y-23346066D01*
X12625156Y-23288048D01*
X12468330Y-23272602D01*
X9238070Y-23272602D01*
X9241903Y-23259967D01*
X9252236Y-23155050D01*
X9252236Y-22848355D01*
X9290313Y-22864127D01*
X9428932Y-22891700D01*
X9570268Y-22891700D01*
X9708887Y-22864127D01*
X9839464Y-22810041D01*
X9956980Y-22731519D01*
X10056919Y-22631580D01*
X10135441Y-22514064D01*
X10189527Y-22383487D01*
X10217100Y-22244868D01*
X10217100Y-22103532D01*
X10189527Y-21964913D01*
X10135441Y-21834336D01*
X10056919Y-21716820D01*
X9956980Y-21616881D01*
X9839464Y-21538359D01*
X9708887Y-21484273D01*
X9570268Y-21456700D01*
X9428932Y-21456700D01*
X9290313Y-21484273D01*
X9159736Y-21538359D01*
X9042220Y-21616881D01*
X8942281Y-21716820D01*
X8922316Y-21746700D01*
X8803789Y-21746700D01*
X8782800Y-21744633D01*
X8761811Y-21746700D01*
X8761803Y-21746700D01*
X8698995Y-21752886D01*
X8618411Y-21777331D01*
X8544145Y-21817027D01*
X8479050Y-21870450D01*
X8465667Y-21886757D01*
X8170753Y-22181671D01*
X8169139Y-22182995D01*
X8097033Y-22190097D01*
X7996148Y-22220701D01*
X7903172Y-22270397D01*
X7821678Y-22337278D01*
X7754797Y-22418772D01*
X7705101Y-22511748D01*
X7674497Y-22612633D01*
X7664164Y-22717550D01*
X7664164Y-23155050D01*
X7674497Y-23259967D01*
X7678330Y-23272602D01*
X3918320Y-23272602D01*
X3150818Y-22505100D01*
X3249562Y-22505100D01*
X3302000Y-22510265D01*
X3354438Y-22505100D01*
X3354441Y-22505100D01*
X3511267Y-22489654D01*
X3712491Y-22428613D01*
X3897941Y-22329488D01*
X4060489Y-22196089D01*
X4093925Y-22155347D01*
X4651747Y-21597525D01*
X4692489Y-21564089D01*
X4825888Y-21401541D01*
X4870265Y-21318517D01*
X4925013Y-21216092D01*
X4941866Y-21160534D01*
X4986054Y-21014867D01*
X5001500Y-20858041D01*
X5001500Y-20858039D01*
X5006665Y-20805600D01*
X5001500Y-20753162D01*
X5001500Y-19883900D01*
X9416213Y-19883900D01*
X9437202Y-19885967D01*
X9458191Y-19883900D01*
X9458199Y-19883900D01*
X9521007Y-19877714D01*
X9601591Y-19853269D01*
X9675857Y-19813573D01*
X9740952Y-19760150D01*
X9754335Y-19743843D01*
X10202256Y-19295923D01*
X10240603Y-19299700D01*
X10240612Y-19299700D01*
X10261599Y-19301767D01*
X10282586Y-19299700D01*
X12157409Y-19299700D01*
X11283592Y-20173517D01*
X10950647Y-20173517D01*
X10930682Y-20143637D01*
X10830743Y-20043698D01*
X10713227Y-19965176D01*
X10582650Y-19911090D01*
X10444031Y-19883517D01*
X10302695Y-19883517D01*
X10164076Y-19911090D01*
X10033499Y-19965176D01*
X9915983Y-20043698D01*
X9816044Y-20143637D01*
X9737522Y-20261153D01*
X9683436Y-20391730D01*
X9655863Y-20530349D01*
X9655863Y-20671685D01*
X9683436Y-20810304D01*
X9737522Y-20940881D01*
X9816044Y-21058397D01*
X9915983Y-21158336D01*
X10033499Y-21236858D01*
X10164076Y-21290944D01*
X10302695Y-21318517D01*
X10444031Y-21318517D01*
X10582650Y-21290944D01*
X10713227Y-21236858D01*
X10830743Y-21158336D01*
X10930682Y-21058397D01*
X10950647Y-21028517D01*
X11439679Y-21028517D01*
X11460668Y-21030584D01*
X11481657Y-21028517D01*
X11481665Y-21028517D01*
X11544473Y-21022331D01*
X11625057Y-20997886D01*
X11699323Y-20958190D01*
X11764418Y-20904767D01*
X11777801Y-20888460D01*
X15577842Y-17088419D01*
X15594149Y-17075036D01*
X15619125Y-17044604D01*
X15647572Y-17009941D01*
X15655744Y-16994652D01*
X15687268Y-16935675D01*
X15711713Y-16855091D01*
X15717899Y-16792283D01*
X15717899Y-16792275D01*
X15719966Y-16771286D01*
X15717899Y-16750297D01*
X15717899Y-15277275D01*
X15988075Y-15007100D01*
X17583716Y-15007100D01*
X17603681Y-15036980D01*
G36*
X16376913Y-10037127D02*
G01*
X16515532Y-10064700D01*
X16559523Y-10064700D01*
X11863036Y-14761188D01*
X11863036Y-14486000D01*
X11856906Y-14423759D01*
X11838751Y-14363910D01*
X11809269Y-14308753D01*
X11769593Y-14260407D01*
X11721247Y-14220731D01*
X11666090Y-14191249D01*
X11606241Y-14173094D01*
X11544000Y-14166964D01*
X10744000Y-14166964D01*
X10681759Y-14173094D01*
X10621910Y-14191249D01*
X10566753Y-14220731D01*
X10518407Y-14260407D01*
X10478731Y-14308753D01*
X10449249Y-14363910D01*
X10431094Y-14423759D01*
X10424964Y-14486000D01*
X10424964Y-14836000D01*
X10431094Y-14898241D01*
X10449249Y-14958090D01*
X10464167Y-14986000D01*
X10449249Y-15013910D01*
X10431094Y-15073759D01*
X10424964Y-15136000D01*
X10424964Y-15486000D01*
X10431094Y-15548241D01*
X10449249Y-15608090D01*
X10464167Y-15636000D01*
X10449249Y-15663910D01*
X10431094Y-15723759D01*
X10424964Y-15786000D01*
X10424964Y-16136000D01*
X10431094Y-16198241D01*
X10449249Y-16258090D01*
X10478731Y-16313247D01*
X10488351Y-16324969D01*
X10485322Y-16332282D01*
X10471247Y-16320731D01*
X10416090Y-16291249D01*
X10356241Y-16273094D01*
X10294000Y-16266964D01*
X9944000Y-16266964D01*
X9881759Y-16273094D01*
X9821910Y-16291249D01*
X9794000Y-16306167D01*
X9766090Y-16291249D01*
X9706241Y-16273094D01*
X9644000Y-16266964D01*
X9294000Y-16266964D01*
X9231759Y-16273094D01*
X9171910Y-16291249D01*
X9116753Y-16320731D01*
X9068407Y-16360407D01*
X9028731Y-16408753D01*
X8999249Y-16463910D01*
X8981094Y-16523759D01*
X8974964Y-16586000D01*
X8974964Y-17386000D01*
X8981094Y-17448241D01*
X8999249Y-17508090D01*
X9028731Y-17563247D01*
X9041500Y-17578807D01*
X9041501Y-17721622D01*
X9036313Y-17722654D01*
X8905736Y-17776740D01*
X8788220Y-17855262D01*
X8688281Y-17955201D01*
X8609759Y-18072717D01*
X8555673Y-18203294D01*
X8528100Y-18341913D01*
X8528100Y-18483249D01*
X8555673Y-18621868D01*
X8609759Y-18752445D01*
X8688281Y-18869961D01*
X8788220Y-18969900D01*
X8876519Y-19028900D01*
X5001500Y-19028900D01*
X5001500Y-18291600D01*
X5003340Y-17261299D01*
X5192412Y-17261299D01*
X5213401Y-17263366D01*
X5218780Y-17262836D01*
X5200700Y-17353732D01*
X5200700Y-17495068D01*
X5228273Y-17633687D01*
X5282359Y-17764264D01*
X5360881Y-17881780D01*
X5460820Y-17981719D01*
X5578336Y-18060241D01*
X5708913Y-18114327D01*
X5847532Y-18141900D01*
X5988868Y-18141900D01*
X6127487Y-18114327D01*
X6258064Y-18060241D01*
X6375580Y-17981719D01*
X6475519Y-17881780D01*
X6554041Y-17764264D01*
X6608127Y-17633687D01*
X6635700Y-17495068D01*
X6635700Y-17353732D01*
X6608127Y-17215113D01*
X6574836Y-17134740D01*
X7254541Y-16455036D01*
X7544000Y-16455036D01*
X7606241Y-16448906D01*
X7666090Y-16430751D01*
X7721247Y-16401269D01*
X7762980Y-16367020D01*
X7728731Y-16408753D01*
X7699249Y-16463910D01*
X7681094Y-16523759D01*
X7674964Y-16586000D01*
X7674964Y-17386000D01*
X7681094Y-17448241D01*
X7699249Y-17508090D01*
X7728731Y-17563247D01*
X7768407Y-17611593D01*
X7816753Y-17651269D01*
X7871910Y-17680751D01*
X7931759Y-17698906D01*
X7994000Y-17705036D01*
X8344000Y-17705036D01*
X8406241Y-17698906D01*
X8466090Y-17680751D01*
X8521247Y-17651269D01*
X8569593Y-17611593D01*
X8609269Y-17563247D01*
X8638751Y-17508090D01*
X8656906Y-17448241D01*
X8663036Y-17386000D01*
X8663036Y-16586000D01*
X8656906Y-16523759D01*
X8638751Y-16463910D01*
X8609269Y-16408753D01*
X8569593Y-16360407D01*
X8521247Y-16320731D01*
X8466090Y-16291249D01*
X8406241Y-16273094D01*
X8344000Y-16266964D01*
X7994000Y-16266964D01*
X7931759Y-16273094D01*
X7871910Y-16291249D01*
X7816753Y-16320731D01*
X7775020Y-16354980D01*
X7809269Y-16313247D01*
X7838751Y-16258090D01*
X7856906Y-16198241D01*
X7863036Y-16136000D01*
X7863036Y-15786000D01*
X7856906Y-15723759D01*
X7838751Y-15663910D01*
X7823833Y-15636000D01*
X7838751Y-15608090D01*
X7856906Y-15548241D01*
X7863036Y-15486000D01*
X7863036Y-15136000D01*
X7856906Y-15073759D01*
X7838751Y-15013910D01*
X7823833Y-14986000D01*
X7838751Y-14958090D01*
X7856906Y-14898241D01*
X7863036Y-14836000D01*
X7863036Y-14486000D01*
X7856906Y-14423759D01*
X7838751Y-14363910D01*
X7823833Y-14336000D01*
X7838751Y-14308090D01*
X7856906Y-14248241D01*
X7863036Y-14186000D01*
X7863036Y-13836000D01*
X7856906Y-13773759D01*
X7838751Y-13713910D01*
X7809269Y-13658753D01*
X7775020Y-13617020D01*
X7816753Y-13651269D01*
X7871910Y-13680751D01*
X7931759Y-13698906D01*
X7994000Y-13705036D01*
X8344000Y-13705036D01*
X8406241Y-13698906D01*
X8466090Y-13680751D01*
X8494000Y-13665833D01*
X8521910Y-13680751D01*
X8581759Y-13698906D01*
X8644000Y-13705036D01*
X8994000Y-13705036D01*
X9056241Y-13698906D01*
X9116090Y-13680751D01*
X9144000Y-13665833D01*
X9171910Y-13680751D01*
X9231759Y-13698906D01*
X9294000Y-13705036D01*
X9644000Y-13705036D01*
X9706241Y-13698906D01*
X9766090Y-13680751D01*
X9794000Y-13665833D01*
X9821910Y-13680751D01*
X9881759Y-13698906D01*
X9944000Y-13705036D01*
X10294000Y-13705036D01*
X10356241Y-13698906D01*
X10416090Y-13680751D01*
X10471247Y-13651269D01*
X10519593Y-13611593D01*
X10559269Y-13563247D01*
X10588751Y-13508090D01*
X10606906Y-13448241D01*
X10613036Y-13386000D01*
X10613036Y-12586000D01*
X10606906Y-12523759D01*
X10588751Y-12463910D01*
X10559269Y-12408753D01*
X10519593Y-12360407D01*
X10471247Y-12320731D01*
X10416090Y-12291249D01*
X10356241Y-12273094D01*
X10294000Y-12266964D01*
X10049552Y-12266964D01*
X10059241Y-12252464D01*
X10113327Y-12121887D01*
X10140900Y-11983268D01*
X10140900Y-11841932D01*
X10113327Y-11703313D01*
X10059241Y-11572736D01*
X9980719Y-11455220D01*
X9880780Y-11355281D01*
X9763264Y-11276759D01*
X9632687Y-11222673D01*
X9494068Y-11195100D01*
X9352732Y-11195100D01*
X9214113Y-11222673D01*
X9083536Y-11276759D01*
X9027140Y-11314441D01*
X8966380Y-11253681D01*
X8900836Y-11209886D01*
X8991780Y-11149119D01*
X9091719Y-11049180D01*
X9111684Y-11019300D01*
X15117411Y-11019300D01*
X15138400Y-11021367D01*
X15159389Y-11019300D01*
X15159397Y-11019300D01*
X15222205Y-11013114D01*
X15302789Y-10988669D01*
X15377055Y-10948973D01*
X15442150Y-10895550D01*
X15455533Y-10879243D01*
X16320865Y-10013912D01*
X16376913Y-10037127D01*
G37*
X16376913Y-10037127D02*
X16515532Y-10064700D01*
X16559523Y-10064700D01*
X11863036Y-14761188D01*
X11863036Y-14486000D01*
X11856906Y-14423759D01*
X11838751Y-14363910D01*
X11809269Y-14308753D01*
X11769593Y-14260407D01*
X11721247Y-14220731D01*
X11666090Y-14191249D01*
X11606241Y-14173094D01*
X11544000Y-14166964D01*
X10744000Y-14166964D01*
X10681759Y-14173094D01*
X10621910Y-14191249D01*
X10566753Y-14220731D01*
X10518407Y-14260407D01*
X10478731Y-14308753D01*
X10449249Y-14363910D01*
X10431094Y-14423759D01*
X10424964Y-14486000D01*
X10424964Y-14836000D01*
X10431094Y-14898241D01*
X10449249Y-14958090D01*
X10464167Y-14986000D01*
X10449249Y-15013910D01*
X10431094Y-15073759D01*
X10424964Y-15136000D01*
X10424964Y-15486000D01*
X10431094Y-15548241D01*
X10449249Y-15608090D01*
X10464167Y-15636000D01*
X10449249Y-15663910D01*
X10431094Y-15723759D01*
X10424964Y-15786000D01*
X10424964Y-16136000D01*
X10431094Y-16198241D01*
X10449249Y-16258090D01*
X10478731Y-16313247D01*
X10488351Y-16324969D01*
X10485322Y-16332282D01*
X10471247Y-16320731D01*
X10416090Y-16291249D01*
X10356241Y-16273094D01*
X10294000Y-16266964D01*
X9944000Y-16266964D01*
X9881759Y-16273094D01*
X9821910Y-16291249D01*
X9794000Y-16306167D01*
X9766090Y-16291249D01*
X9706241Y-16273094D01*
X9644000Y-16266964D01*
X9294000Y-16266964D01*
X9231759Y-16273094D01*
X9171910Y-16291249D01*
X9116753Y-16320731D01*
X9068407Y-16360407D01*
X9028731Y-16408753D01*
X8999249Y-16463910D01*
X8981094Y-16523759D01*
X8974964Y-16586000D01*
X8974964Y-17386000D01*
X8981094Y-17448241D01*
X8999249Y-17508090D01*
X9028731Y-17563247D01*
X9041500Y-17578807D01*
X9041501Y-17721622D01*
X9036313Y-17722654D01*
X8905736Y-17776740D01*
X8788220Y-17855262D01*
X8688281Y-17955201D01*
X8609759Y-18072717D01*
X8555673Y-18203294D01*
X8528100Y-18341913D01*
X8528100Y-18483249D01*
X8555673Y-18621868D01*
X8609759Y-18752445D01*
X8688281Y-18869961D01*
X8788220Y-18969900D01*
X8876519Y-19028900D01*
X5001500Y-19028900D01*
X5001500Y-18291600D01*
X5003340Y-17261299D01*
X5192412Y-17261299D01*
X5213401Y-17263366D01*
X5218780Y-17262836D01*
X5200700Y-17353732D01*
X5200700Y-17495068D01*
X5228273Y-17633687D01*
X5282359Y-17764264D01*
X5360881Y-17881780D01*
X5460820Y-17981719D01*
X5578336Y-18060241D01*
X5708913Y-18114327D01*
X5847532Y-18141900D01*
X5988868Y-18141900D01*
X6127487Y-18114327D01*
X6258064Y-18060241D01*
X6375580Y-17981719D01*
X6475519Y-17881780D01*
X6554041Y-17764264D01*
X6608127Y-17633687D01*
X6635700Y-17495068D01*
X6635700Y-17353732D01*
X6608127Y-17215113D01*
X6574836Y-17134740D01*
X7254541Y-16455036D01*
X7544000Y-16455036D01*
X7606241Y-16448906D01*
X7666090Y-16430751D01*
X7721247Y-16401269D01*
X7762980Y-16367020D01*
X7728731Y-16408753D01*
X7699249Y-16463910D01*
X7681094Y-16523759D01*
X7674964Y-16586000D01*
X7674964Y-17386000D01*
X7681094Y-17448241D01*
X7699249Y-17508090D01*
X7728731Y-17563247D01*
X7768407Y-17611593D01*
X7816753Y-17651269D01*
X7871910Y-17680751D01*
X7931759Y-17698906D01*
X7994000Y-17705036D01*
X8344000Y-17705036D01*
X8406241Y-17698906D01*
X8466090Y-17680751D01*
X8521247Y-17651269D01*
X8569593Y-17611593D01*
X8609269Y-17563247D01*
X8638751Y-17508090D01*
X8656906Y-17448241D01*
X8663036Y-17386000D01*
X8663036Y-16586000D01*
X8656906Y-16523759D01*
X8638751Y-16463910D01*
X8609269Y-16408753D01*
X8569593Y-16360407D01*
X8521247Y-16320731D01*
X8466090Y-16291249D01*
X8406241Y-16273094D01*
X8344000Y-16266964D01*
X7994000Y-16266964D01*
X7931759Y-16273094D01*
X7871910Y-16291249D01*
X7816753Y-16320731D01*
X7775020Y-16354980D01*
X7809269Y-16313247D01*
X7838751Y-16258090D01*
X7856906Y-16198241D01*
X7863036Y-16136000D01*
X7863036Y-15786000D01*
X7856906Y-15723759D01*
X7838751Y-15663910D01*
X7823833Y-15636000D01*
X7838751Y-15608090D01*
X7856906Y-15548241D01*
X7863036Y-15486000D01*
X7863036Y-15136000D01*
X7856906Y-15073759D01*
X7838751Y-15013910D01*
X7823833Y-14986000D01*
X7838751Y-14958090D01*
X7856906Y-14898241D01*
X7863036Y-14836000D01*
X7863036Y-14486000D01*
X7856906Y-14423759D01*
X7838751Y-14363910D01*
X7823833Y-14336000D01*
X7838751Y-14308090D01*
X7856906Y-14248241D01*
X7863036Y-14186000D01*
X7863036Y-13836000D01*
X7856906Y-13773759D01*
X7838751Y-13713910D01*
X7809269Y-13658753D01*
X7775020Y-13617020D01*
X7816753Y-13651269D01*
X7871910Y-13680751D01*
X7931759Y-13698906D01*
X7994000Y-13705036D01*
X8344000Y-13705036D01*
X8406241Y-13698906D01*
X8466090Y-13680751D01*
X8494000Y-13665833D01*
X8521910Y-13680751D01*
X8581759Y-13698906D01*
X8644000Y-13705036D01*
X8994000Y-13705036D01*
X9056241Y-13698906D01*
X9116090Y-13680751D01*
X9144000Y-13665833D01*
X9171910Y-13680751D01*
X9231759Y-13698906D01*
X9294000Y-13705036D01*
X9644000Y-13705036D01*
X9706241Y-13698906D01*
X9766090Y-13680751D01*
X9794000Y-13665833D01*
X9821910Y-13680751D01*
X9881759Y-13698906D01*
X9944000Y-13705036D01*
X10294000Y-13705036D01*
X10356241Y-13698906D01*
X10416090Y-13680751D01*
X10471247Y-13651269D01*
X10519593Y-13611593D01*
X10559269Y-13563247D01*
X10588751Y-13508090D01*
X10606906Y-13448241D01*
X10613036Y-13386000D01*
X10613036Y-12586000D01*
X10606906Y-12523759D01*
X10588751Y-12463910D01*
X10559269Y-12408753D01*
X10519593Y-12360407D01*
X10471247Y-12320731D01*
X10416090Y-12291249D01*
X10356241Y-12273094D01*
X10294000Y-12266964D01*
X10049552Y-12266964D01*
X10059241Y-12252464D01*
X10113327Y-12121887D01*
X10140900Y-11983268D01*
X10140900Y-11841932D01*
X10113327Y-11703313D01*
X10059241Y-11572736D01*
X9980719Y-11455220D01*
X9880780Y-11355281D01*
X9763264Y-11276759D01*
X9632687Y-11222673D01*
X9494068Y-11195100D01*
X9352732Y-11195100D01*
X9214113Y-11222673D01*
X9083536Y-11276759D01*
X9027140Y-11314441D01*
X8966380Y-11253681D01*
X8900836Y-11209886D01*
X8991780Y-11149119D01*
X9091719Y-11049180D01*
X9111684Y-11019300D01*
X15117411Y-11019300D01*
X15138400Y-11021367D01*
X15159389Y-11019300D01*
X15159397Y-11019300D01*
X15222205Y-11013114D01*
X15302789Y-10988669D01*
X15377055Y-10948973D01*
X15442150Y-10895550D01*
X15455533Y-10879243D01*
X16320865Y-10013912D01*
X16376913Y-10037127D01*
G36*
X15975305Y-12468804D02*
G01*
X16075244Y-12568743D01*
X16192760Y-12647265D01*
X16323337Y-12701351D01*
X16461956Y-12728924D01*
X16603292Y-12728924D01*
X16741911Y-12701351D01*
X16872488Y-12647265D01*
X16990004Y-12568743D01*
X17020528Y-12538219D01*
X17192734Y-12710426D01*
X17097927Y-12773774D01*
X16997988Y-12873713D01*
X16919466Y-12991229D01*
X16865380Y-13121806D01*
X16837807Y-13260425D01*
X16837807Y-13401761D01*
X16865380Y-13540380D01*
X16919466Y-13670957D01*
X16997988Y-13788473D01*
X17097927Y-13888412D01*
X17215443Y-13966934D01*
X17346020Y-14021020D01*
X17484639Y-14048593D01*
X17625975Y-14048593D01*
X17660052Y-14041815D01*
X17667858Y-14048221D01*
X17667864Y-14048227D01*
X17673252Y-14052649D01*
X17603681Y-14122220D01*
X17583716Y-14152100D01*
X15831984Y-14152100D01*
X15810997Y-14150033D01*
X15790010Y-14152100D01*
X15790001Y-14152100D01*
X15727193Y-14158286D01*
X15646609Y-14182731D01*
X15572343Y-14222427D01*
X15572341Y-14222428D01*
X15572342Y-14222428D01*
X15523556Y-14262465D01*
X15523550Y-14262471D01*
X15507248Y-14275850D01*
X15493869Y-14292152D01*
X15002956Y-14783066D01*
X14986649Y-14796449D01*
X14973267Y-14812755D01*
X14973264Y-14812758D01*
X14941212Y-14851814D01*
X14933226Y-14861545D01*
X14893530Y-14935811D01*
X14869085Y-15016395D01*
X14862899Y-15079203D01*
X14862899Y-15079210D01*
X14860832Y-15100199D01*
X14862899Y-15121188D01*
X14862900Y-16594209D01*
X14168900Y-17288209D01*
X14168900Y-16884084D01*
X14198780Y-16864119D01*
X14298719Y-16764180D01*
X14377241Y-16646664D01*
X14431327Y-16516087D01*
X14458900Y-16377468D01*
X14458900Y-16236132D01*
X14431327Y-16097513D01*
X14377241Y-15966936D01*
X14298719Y-15849420D01*
X14198780Y-15749481D01*
X14081264Y-15670959D01*
X13950687Y-15616873D01*
X13812068Y-15589300D01*
X13670732Y-15589300D01*
X13532113Y-15616873D01*
X13401536Y-15670959D01*
X13284020Y-15749481D01*
X13184081Y-15849420D01*
X13105559Y-15966936D01*
X13051473Y-16097513D01*
X13023900Y-16236132D01*
X13023900Y-16377468D01*
X13051473Y-16516087D01*
X13105559Y-16646664D01*
X13184081Y-16764180D01*
X13284020Y-16864119D01*
X13313900Y-16884085D01*
X13313901Y-17679122D01*
X12548324Y-18444700D01*
X10562100Y-18444700D01*
X10562100Y-18179152D01*
X10562341Y-18176320D01*
X10562172Y-18163584D01*
X10562495Y-18150876D01*
X10562100Y-18145457D01*
X10562100Y-18140003D01*
X10561821Y-18137173D01*
X10554282Y-17569324D01*
X10559269Y-17563247D01*
X10588751Y-17508090D01*
X10606906Y-17448241D01*
X10613036Y-17386000D01*
X10613036Y-17164935D01*
X10667820Y-17219719D01*
X10785336Y-17298241D01*
X10915913Y-17352327D01*
X11054532Y-17379900D01*
X11195868Y-17379900D01*
X11334487Y-17352327D01*
X11465064Y-17298241D01*
X11582580Y-17219719D01*
X11682519Y-17119780D01*
X11701823Y-17090890D01*
X11711874Y-17089900D01*
X11711882Y-17089900D01*
X11774690Y-17083714D01*
X11855274Y-17059269D01*
X11929540Y-17019573D01*
X11964622Y-16990781D01*
X11978326Y-16979535D01*
X11978328Y-16979533D01*
X11994635Y-16966150D01*
X12008018Y-16949843D01*
X13095996Y-15861865D01*
X13112302Y-15848483D01*
X13152990Y-15798906D01*
X13165725Y-15783388D01*
X13205421Y-15709122D01*
X13229866Y-15628538D01*
X13231224Y-15614750D01*
X13236052Y-15565730D01*
X13236052Y-15565722D01*
X13238119Y-15544733D01*
X13236052Y-15523744D01*
X13236052Y-15049887D01*
X15911951Y-12373988D01*
X15975305Y-12468804D01*
G37*
X15975305Y-12468804D02*
X16075244Y-12568743D01*
X16192760Y-12647265D01*
X16323337Y-12701351D01*
X16461956Y-12728924D01*
X16603292Y-12728924D01*
X16741911Y-12701351D01*
X16872488Y-12647265D01*
X16990004Y-12568743D01*
X17020528Y-12538219D01*
X17192734Y-12710426D01*
X17097927Y-12773774D01*
X16997988Y-12873713D01*
X16919466Y-12991229D01*
X16865380Y-13121806D01*
X16837807Y-13260425D01*
X16837807Y-13401761D01*
X16865380Y-13540380D01*
X16919466Y-13670957D01*
X16997988Y-13788473D01*
X17097927Y-13888412D01*
X17215443Y-13966934D01*
X17346020Y-14021020D01*
X17484639Y-14048593D01*
X17625975Y-14048593D01*
X17660052Y-14041815D01*
X17667858Y-14048221D01*
X17667864Y-14048227D01*
X17673252Y-14052649D01*
X17603681Y-14122220D01*
X17583716Y-14152100D01*
X15831984Y-14152100D01*
X15810997Y-14150033D01*
X15790010Y-14152100D01*
X15790001Y-14152100D01*
X15727193Y-14158286D01*
X15646609Y-14182731D01*
X15572343Y-14222427D01*
X15572341Y-14222428D01*
X15572342Y-14222428D01*
X15523556Y-14262465D01*
X15523550Y-14262471D01*
X15507248Y-14275850D01*
X15493869Y-14292152D01*
X15002956Y-14783066D01*
X14986649Y-14796449D01*
X14973267Y-14812755D01*
X14973264Y-14812758D01*
X14941212Y-14851814D01*
X14933226Y-14861545D01*
X14893530Y-14935811D01*
X14869085Y-15016395D01*
X14862899Y-15079203D01*
X14862899Y-15079210D01*
X14860832Y-15100199D01*
X14862899Y-15121188D01*
X14862900Y-16594209D01*
X14168900Y-17288209D01*
X14168900Y-16884084D01*
X14198780Y-16864119D01*
X14298719Y-16764180D01*
X14377241Y-16646664D01*
X14431327Y-16516087D01*
X14458900Y-16377468D01*
X14458900Y-16236132D01*
X14431327Y-16097513D01*
X14377241Y-15966936D01*
X14298719Y-15849420D01*
X14198780Y-15749481D01*
X14081264Y-15670959D01*
X13950687Y-15616873D01*
X13812068Y-15589300D01*
X13670732Y-15589300D01*
X13532113Y-15616873D01*
X13401536Y-15670959D01*
X13284020Y-15749481D01*
X13184081Y-15849420D01*
X13105559Y-15966936D01*
X13051473Y-16097513D01*
X13023900Y-16236132D01*
X13023900Y-16377468D01*
X13051473Y-16516087D01*
X13105559Y-16646664D01*
X13184081Y-16764180D01*
X13284020Y-16864119D01*
X13313900Y-16884085D01*
X13313901Y-17679122D01*
X12548324Y-18444700D01*
X10562100Y-18444700D01*
X10562100Y-18179152D01*
X10562341Y-18176320D01*
X10562172Y-18163584D01*
X10562495Y-18150876D01*
X10562100Y-18145457D01*
X10562100Y-18140003D01*
X10561821Y-18137173D01*
X10554282Y-17569324D01*
X10559269Y-17563247D01*
X10588751Y-17508090D01*
X10606906Y-17448241D01*
X10613036Y-17386000D01*
X10613036Y-17164935D01*
X10667820Y-17219719D01*
X10785336Y-17298241D01*
X10915913Y-17352327D01*
X11054532Y-17379900D01*
X11195868Y-17379900D01*
X11334487Y-17352327D01*
X11465064Y-17298241D01*
X11582580Y-17219719D01*
X11682519Y-17119780D01*
X11701823Y-17090890D01*
X11711874Y-17089900D01*
X11711882Y-17089900D01*
X11774690Y-17083714D01*
X11855274Y-17059269D01*
X11929540Y-17019573D01*
X11964622Y-16990781D01*
X11978326Y-16979535D01*
X11978328Y-16979533D01*
X11994635Y-16966150D01*
X12008018Y-16949843D01*
X13095996Y-15861865D01*
X13112302Y-15848483D01*
X13152990Y-15798906D01*
X13165725Y-15783388D01*
X13205421Y-15709122D01*
X13229866Y-15628538D01*
X13231224Y-15614750D01*
X13236052Y-15565730D01*
X13236052Y-15565722D01*
X13238119Y-15544733D01*
X13236052Y-15523744D01*
X13236052Y-15049887D01*
X15911951Y-12373988D01*
X15975305Y-12468804D01*
G36*
X32077875Y-434118D02*
G01*
X31969258Y-596675D01*
X31894441Y-777299D01*
X31856300Y-969047D01*
X31856300Y-1164553D01*
X31894441Y-1356301D01*
X31969258Y-1536925D01*
X32077875Y-1699482D01*
X32216118Y-1837725D01*
X32378675Y-1946342D01*
X32559299Y-2021159D01*
X32751047Y-2059300D01*
X32946553Y-2059300D01*
X33138301Y-2021159D01*
X33318925Y-1946342D01*
X33481482Y-1837725D01*
X33619725Y-1699482D01*
X33728342Y-1536925D01*
X33781300Y-1409073D01*
X33781300Y-2107500D01*
X25705594Y-2107500D01*
X25748056Y-2065038D01*
X25875825Y-1873819D01*
X25963834Y-1661347D01*
X26008700Y-1435789D01*
X26008700Y-1205811D01*
X25963834Y-980253D01*
X25875825Y-767781D01*
X25748056Y-576562D01*
X25585438Y-413944D01*
X25515930Y-367500D01*
X32144493Y-367500D01*
X32077875Y-434118D01*
G37*
X32077875Y-434118D02*
X31969258Y-596675D01*
X31894441Y-777299D01*
X31856300Y-969047D01*
X31856300Y-1164553D01*
X31894441Y-1356301D01*
X31969258Y-1536925D01*
X32077875Y-1699482D01*
X32216118Y-1837725D01*
X32378675Y-1946342D01*
X32559299Y-2021159D01*
X32751047Y-2059300D01*
X32946553Y-2059300D01*
X33138301Y-2021159D01*
X33318925Y-1946342D01*
X33481482Y-1837725D01*
X33619725Y-1699482D01*
X33728342Y-1536925D01*
X33781300Y-1409073D01*
X33781300Y-2107500D01*
X25705594Y-2107500D01*
X25748056Y-2065038D01*
X25875825Y-1873819D01*
X25963834Y-1661347D01*
X26008700Y-1435789D01*
X26008700Y-1205811D01*
X25963834Y-980253D01*
X25875825Y-767781D01*
X25748056Y-576562D01*
X25585438Y-413944D01*
X25515930Y-367500D01*
X32144493Y-367500D01*
X32077875Y-434118D01*
M02*
