G04 #@! TF.GenerationSoftware,KiCad,Pcbnew,(5.1.5)-3*
G04 #@! TF.CreationDate,2020-04-17T11:23:33-04:00*
G04 #@! TF.ProjectId,STM32_SMD_Quadcopter,53544d33-325f-4534-9d44-5f5175616463,rev?*
G04 #@! TF.SameCoordinates,PX2daf690PY1aab7d8*
G04 #@! TF.FileFunction,Legend,Top*
G04 #@! TF.FilePolarity,Positive*
%FSLAX46Y46*%
G04 Gerber Fmt 4.6, Leading zero omitted, Abs format (unit mm)*
G04 Created by KiCad (PCBNEW (5.1.5)-3) date 2020-04-17 11:23:33*
%MOMM*%
%LPD*%
G04 APERTURE LIST*
%ADD10C,0.031750*%
%ADD11C,0.120000*%
%ADD12C,0.150000*%
%ADD13C,0.050000*%
G04 APERTURE END LIST*
D10*
X21799247Y-24089934D02*
X21799247Y-23581934D01*
X21968580Y-23944791D01*
X22137914Y-23581934D01*
X22137914Y-24089934D01*
X22379819Y-24089934D02*
X22379819Y-23751267D01*
X22379819Y-23581934D02*
X22355628Y-23606125D01*
X22379819Y-23630315D01*
X22404009Y-23606125D01*
X22379819Y-23581934D01*
X22379819Y-23630315D01*
X22839438Y-24065744D02*
X22791057Y-24089934D01*
X22694295Y-24089934D01*
X22645914Y-24065744D01*
X22621723Y-24041553D01*
X22597533Y-23993172D01*
X22597533Y-23848029D01*
X22621723Y-23799648D01*
X22645914Y-23775458D01*
X22694295Y-23751267D01*
X22791057Y-23751267D01*
X22839438Y-23775458D01*
X23057152Y-24089934D02*
X23057152Y-23581934D01*
X23274866Y-24089934D02*
X23274866Y-23823839D01*
X23250676Y-23775458D01*
X23202295Y-23751267D01*
X23129723Y-23751267D01*
X23081342Y-23775458D01*
X23057152Y-23799648D01*
X23734485Y-24089934D02*
X23734485Y-23823839D01*
X23710295Y-23775458D01*
X23661914Y-23751267D01*
X23565152Y-23751267D01*
X23516771Y-23775458D01*
X23734485Y-24065744D02*
X23686104Y-24089934D01*
X23565152Y-24089934D01*
X23516771Y-24065744D01*
X23492580Y-24017363D01*
X23492580Y-23968982D01*
X23516771Y-23920601D01*
X23565152Y-23896410D01*
X23686104Y-23896410D01*
X23734485Y-23872220D01*
X24169914Y-24065744D02*
X24121533Y-24089934D01*
X24024771Y-24089934D01*
X23976390Y-24065744D01*
X23952200Y-24017363D01*
X23952200Y-23823839D01*
X23976390Y-23775458D01*
X24024771Y-23751267D01*
X24121533Y-23751267D01*
X24169914Y-23775458D01*
X24194104Y-23823839D01*
X24194104Y-23872220D01*
X23952200Y-23920601D01*
X24484390Y-24089934D02*
X24436009Y-24065744D01*
X24411819Y-24017363D01*
X24411819Y-23581934D01*
X25306866Y-24089934D02*
X25064961Y-24089934D01*
X25064961Y-23581934D01*
X25693914Y-24089934D02*
X25693914Y-23823839D01*
X25669723Y-23775458D01*
X25621342Y-23751267D01*
X25524580Y-23751267D01*
X25476200Y-23775458D01*
X25693914Y-24065744D02*
X25645533Y-24089934D01*
X25524580Y-24089934D01*
X25476200Y-24065744D01*
X25452009Y-24017363D01*
X25452009Y-23968982D01*
X25476200Y-23920601D01*
X25524580Y-23896410D01*
X25645533Y-23896410D01*
X25693914Y-23872220D01*
X25935819Y-23751267D02*
X25935819Y-24089934D01*
X25935819Y-23799648D02*
X25960009Y-23775458D01*
X26008390Y-23751267D01*
X26080961Y-23751267D01*
X26129342Y-23775458D01*
X26153533Y-23823839D01*
X26153533Y-24089934D01*
X26613152Y-23751267D02*
X26613152Y-24162505D01*
X26588961Y-24210886D01*
X26564771Y-24235077D01*
X26516390Y-24259267D01*
X26443819Y-24259267D01*
X26395438Y-24235077D01*
X26613152Y-24065744D02*
X26564771Y-24089934D01*
X26468009Y-24089934D01*
X26419628Y-24065744D01*
X26395438Y-24041553D01*
X26371247Y-23993172D01*
X26371247Y-23848029D01*
X26395438Y-23799648D01*
X26419628Y-23775458D01*
X26468009Y-23751267D01*
X26564771Y-23751267D01*
X26613152Y-23775458D01*
X26782485Y-23751267D02*
X26976009Y-23751267D01*
X26855057Y-24089934D02*
X26855057Y-23654505D01*
X26879247Y-23606125D01*
X26927628Y-23581934D01*
X26976009Y-23581934D01*
X27217914Y-24089934D02*
X27169533Y-24065744D01*
X27145342Y-24041553D01*
X27121152Y-23993172D01*
X27121152Y-23848029D01*
X27145342Y-23799648D01*
X27169533Y-23775458D01*
X27217914Y-23751267D01*
X27290485Y-23751267D01*
X27338866Y-23775458D01*
X27363057Y-23799648D01*
X27387247Y-23848029D01*
X27387247Y-23993172D01*
X27363057Y-24041553D01*
X27338866Y-24065744D01*
X27290485Y-24089934D01*
X27217914Y-24089934D01*
X27604961Y-24089934D02*
X27604961Y-23751267D01*
X27604961Y-23848029D02*
X27629152Y-23799648D01*
X27653342Y-23775458D01*
X27701723Y-23751267D01*
X27750104Y-23751267D01*
X28137152Y-24089934D02*
X28137152Y-23581934D01*
X28137152Y-24065744D02*
X28088771Y-24089934D01*
X27992009Y-24089934D01*
X27943628Y-24065744D01*
X27919438Y-24041553D01*
X27895247Y-23993172D01*
X27895247Y-23848029D01*
X27919438Y-23799648D01*
X27943628Y-23775458D01*
X27992009Y-23751267D01*
X28088771Y-23751267D01*
X28137152Y-23775458D01*
X22125819Y-24883684D02*
X22125819Y-24375684D01*
X22295152Y-24738541D01*
X22464485Y-24375684D01*
X22464485Y-24883684D01*
X22706390Y-24883684D02*
X22706390Y-24545017D01*
X22706390Y-24375684D02*
X22682200Y-24399875D01*
X22706390Y-24424065D01*
X22730580Y-24399875D01*
X22706390Y-24375684D01*
X22706390Y-24424065D01*
X23166009Y-24859494D02*
X23117628Y-24883684D01*
X23020866Y-24883684D01*
X22972485Y-24859494D01*
X22948295Y-24835303D01*
X22924104Y-24786922D01*
X22924104Y-24641779D01*
X22948295Y-24593398D01*
X22972485Y-24569208D01*
X23020866Y-24545017D01*
X23117628Y-24545017D01*
X23166009Y-24569208D01*
X23383723Y-24883684D02*
X23383723Y-24545017D01*
X23383723Y-24641779D02*
X23407914Y-24593398D01*
X23432104Y-24569208D01*
X23480485Y-24545017D01*
X23528866Y-24545017D01*
X23770771Y-24883684D02*
X23722390Y-24859494D01*
X23698200Y-24835303D01*
X23674009Y-24786922D01*
X23674009Y-24641779D01*
X23698200Y-24593398D01*
X23722390Y-24569208D01*
X23770771Y-24545017D01*
X23843342Y-24545017D01*
X23891723Y-24569208D01*
X23915914Y-24593398D01*
X23940104Y-24641779D01*
X23940104Y-24786922D01*
X23915914Y-24835303D01*
X23891723Y-24859494D01*
X23843342Y-24883684D01*
X23770771Y-24883684D01*
X24714200Y-24617589D02*
X24544866Y-24617589D01*
X24544866Y-24883684D02*
X24544866Y-24375684D01*
X24786771Y-24375684D01*
X25270580Y-24835303D02*
X25246390Y-24859494D01*
X25173819Y-24883684D01*
X25125438Y-24883684D01*
X25052866Y-24859494D01*
X25004485Y-24811113D01*
X24980295Y-24762732D01*
X24956104Y-24665970D01*
X24956104Y-24593398D01*
X24980295Y-24496636D01*
X25004485Y-24448255D01*
X25052866Y-24399875D01*
X25125438Y-24375684D01*
X25173819Y-24375684D01*
X25246390Y-24399875D01*
X25270580Y-24424065D01*
X25488295Y-24375684D02*
X25488295Y-24786922D01*
X25512485Y-24835303D01*
X25536676Y-24859494D01*
X25585057Y-24883684D01*
X25681819Y-24883684D01*
X25730200Y-24859494D01*
X25754390Y-24835303D01*
X25778580Y-24786922D01*
X25778580Y-24375684D01*
X26334961Y-24375684D02*
X26504295Y-24883684D01*
X26673628Y-24375684D01*
X26939723Y-24375684D02*
X26988104Y-24375684D01*
X27036485Y-24399875D01*
X27060676Y-24424065D01*
X27084866Y-24472446D01*
X27109057Y-24569208D01*
X27109057Y-24690160D01*
X27084866Y-24786922D01*
X27060676Y-24835303D01*
X27036485Y-24859494D01*
X26988104Y-24883684D01*
X26939723Y-24883684D01*
X26891342Y-24859494D01*
X26867152Y-24835303D01*
X26842961Y-24786922D01*
X26818771Y-24690160D01*
X26818771Y-24569208D01*
X26842961Y-24472446D01*
X26867152Y-24424065D01*
X26891342Y-24399875D01*
X26939723Y-24375684D01*
X27326771Y-24835303D02*
X27350961Y-24859494D01*
X27326771Y-24883684D01*
X27302580Y-24859494D01*
X27326771Y-24835303D01*
X27326771Y-24883684D01*
X27665438Y-24375684D02*
X27713819Y-24375684D01*
X27762200Y-24399875D01*
X27786390Y-24424065D01*
X27810580Y-24472446D01*
X27834771Y-24569208D01*
X27834771Y-24690160D01*
X27810580Y-24786922D01*
X27786390Y-24835303D01*
X27762200Y-24859494D01*
X27713819Y-24883684D01*
X27665438Y-24883684D01*
X27617057Y-24859494D01*
X27592866Y-24835303D01*
X27568676Y-24786922D01*
X27544485Y-24690160D01*
X27544485Y-24569208D01*
X27568676Y-24472446D01*
X27592866Y-24424065D01*
X27617057Y-24399875D01*
X27665438Y-24375684D01*
D11*
X28490400Y-7943000D02*
X30060400Y-7943000D01*
X28490400Y-8763000D02*
X28490400Y-7943000D01*
X31630400Y-16823000D02*
X33740400Y-16823000D01*
X31630400Y-15943000D02*
X33740400Y-15943000D01*
X31630400Y-14283000D02*
X33740400Y-14283000D01*
X31630400Y-13403000D02*
X33740400Y-13403000D01*
X31630400Y-11743000D02*
X33740400Y-11743000D01*
X31630400Y-10863000D02*
X33740400Y-10863000D01*
X31630400Y-9203000D02*
X33740400Y-9203000D01*
X31630400Y-8323000D02*
X33740400Y-8323000D01*
X33740400Y-17773000D02*
X33740400Y-7373000D01*
X36480400Y-17773000D02*
X33740400Y-17773000D01*
X36480400Y-7373000D02*
X36480400Y-17773000D01*
X33740400Y-7373000D02*
X36480400Y-7373000D01*
X2402621Y-23289800D02*
X2728179Y-23289800D01*
X2402621Y-24309800D02*
X2728179Y-24309800D01*
X13026800Y-14384000D02*
X13026800Y-7059000D01*
X13026800Y-7059000D02*
X9426800Y-7059000D01*
X9426800Y-7059000D02*
X9426800Y-14384000D01*
X16200Y-5216200D02*
X2676200Y-5216200D01*
X16200Y-2616200D02*
X16200Y-5216200D01*
X2676200Y-2616200D02*
X2676200Y-5216200D01*
X16200Y-2616200D02*
X2676200Y-2616200D01*
X16200Y-1346200D02*
X16200Y-16200D01*
X16200Y-16200D02*
X1346200Y-16200D01*
X54300Y-8890000D02*
X314300Y-8890000D01*
X2594300Y-8890000D02*
X4364300Y-8890000D01*
X4364300Y-8890000D02*
X4364300Y-9270000D01*
X4364300Y-16510000D02*
X2594300Y-16510000D01*
X314300Y-16510000D02*
X54300Y-16510000D01*
X4364300Y-16510000D02*
X4364300Y-16130000D01*
X35467000Y-19360000D02*
X32782000Y-19360000D01*
X35467000Y-21280000D02*
X35467000Y-19360000D01*
X32782000Y-21280000D02*
X35467000Y-21280000D01*
X27310000Y-23342000D02*
X28240000Y-23342000D01*
X30470000Y-23342000D02*
X29540000Y-23342000D01*
X30470000Y-23342000D02*
X30470000Y-20182000D01*
X27310000Y-23342000D02*
X27310000Y-21882000D01*
X33766979Y-5463000D02*
X33441421Y-5463000D01*
X33766979Y-4443000D02*
X33441421Y-4443000D01*
X32832800Y-4185800D02*
X35517800Y-4185800D01*
X35517800Y-4185800D02*
X35517800Y-2265800D01*
X35517800Y-2265800D02*
X32832800Y-2265800D01*
D12*
X5020000Y-23087000D02*
X5020000Y-22687000D01*
X5020000Y-23087000D02*
X5420000Y-23087000D01*
X8220000Y-23087000D02*
X8220000Y-22687000D01*
X8220000Y-23087000D02*
X7820000Y-23087000D01*
X8220000Y-19887000D02*
X8220000Y-20287000D01*
X8220000Y-19887000D02*
X7820000Y-19887000D01*
X5020000Y-19887000D02*
X5420000Y-19887000D01*
D11*
X26316400Y-19390579D02*
X26316400Y-19065021D01*
X25296400Y-19390579D02*
X25296400Y-19065021D01*
X21930679Y-21236400D02*
X21605121Y-21236400D01*
X21930679Y-20216400D02*
X21605121Y-20216400D01*
D12*
X15729200Y-7398000D02*
X15729200Y-8398000D01*
X26079200Y-7398000D02*
X26079200Y-8473000D01*
X26079200Y-17748000D02*
X26079200Y-16673000D01*
X15729200Y-17748000D02*
X15729200Y-16673000D01*
X15729200Y-7398000D02*
X16804200Y-7398000D01*
X15729200Y-17748000D02*
X16804200Y-17748000D01*
X26079200Y-17748000D02*
X25004200Y-17748000D01*
X26079200Y-7398000D02*
X25004200Y-7398000D01*
X15729200Y-8398000D02*
X14704200Y-8398000D01*
D11*
X11167400Y-5989200D02*
X13852400Y-5989200D01*
X11167400Y-4069200D02*
X11167400Y-5989200D01*
X13852400Y-4069200D02*
X11167400Y-4069200D01*
X6983000Y-3236279D02*
X6983000Y-2910721D01*
X8003000Y-3236279D02*
X8003000Y-2910721D01*
X1079600Y-8050200D02*
X3364600Y-8050200D01*
X3364600Y-8050200D02*
X3364600Y-6580200D01*
X3364600Y-6580200D02*
X1079600Y-6580200D01*
X7621600Y-8344700D02*
X7621600Y-10629700D01*
X9091600Y-8344700D02*
X7621600Y-8344700D01*
X9091600Y-10629700D02*
X9091600Y-8344700D01*
X14182600Y-21366600D02*
X11497600Y-21366600D01*
X11497600Y-21366600D02*
X11497600Y-23286600D01*
X11497600Y-23286600D02*
X14182600Y-23286600D01*
X9270000Y-13870000D02*
X6985000Y-13870000D01*
X9270000Y-15340000D02*
X9270000Y-13870000D01*
X6985000Y-15340000D02*
X9270000Y-15340000D01*
X6985000Y-16800500D02*
X9270000Y-16800500D01*
X9270000Y-16800500D02*
X9270000Y-15330500D01*
X9270000Y-15330500D02*
X6985000Y-15330500D01*
X15475889Y-25400102D02*
X15475889Y-23280102D01*
X13415889Y-25400102D02*
X15475889Y-25400102D01*
X13415889Y-23280102D02*
X15475889Y-23280102D01*
X13415889Y-25400102D02*
X13415889Y-23280102D01*
X12415889Y-25400102D02*
X11355889Y-25400102D01*
X11355889Y-25400102D02*
X11355889Y-24340102D01*
X35931603Y-23267684D02*
X35931603Y-24327684D01*
X34871603Y-23267684D02*
X35931603Y-23267684D01*
X33871603Y-23267684D02*
X33871603Y-25387684D01*
X33871603Y-25387684D02*
X31811603Y-25387684D01*
X33871603Y-23267684D02*
X31811603Y-23267684D01*
X31811603Y-23267684D02*
X31811603Y-25387684D01*
X31788800Y-6800D02*
X31788800Y-2126800D01*
X33848800Y-6800D02*
X31788800Y-6800D01*
X33848800Y-2126800D02*
X31788800Y-2126800D01*
X33848800Y-6800D02*
X33848800Y-2126800D01*
X34848800Y-6800D02*
X35908800Y-6800D01*
X35908800Y-6800D02*
X35908800Y-1066800D01*
X11386000Y-2126800D02*
X11386000Y-1066800D01*
X12446000Y-2126800D02*
X11386000Y-2126800D01*
X13446000Y-2126800D02*
X13446000Y-6800D01*
X13446000Y-6800D02*
X15506000Y-6800D01*
X13446000Y-2126800D02*
X15506000Y-2126800D01*
X15506000Y-2126800D02*
X15506000Y-6800D01*
X16113600Y-23443600D02*
X16113600Y-21983600D01*
X19273600Y-23443600D02*
X19273600Y-20283600D01*
X19273600Y-23443600D02*
X18343600Y-23443600D01*
X16113600Y-23443600D02*
X17043600Y-23443600D01*
X32034600Y-2289400D02*
X31104600Y-2289400D01*
X28874600Y-2289400D02*
X29804600Y-2289400D01*
X28874600Y-2289400D02*
X28874600Y-5449400D01*
X32034600Y-2289400D02*
X32034600Y-3749400D01*
X19268600Y-2032600D02*
X19268600Y-3492600D01*
X16108600Y-2032600D02*
X16108600Y-5192600D01*
X16108600Y-2032600D02*
X17038600Y-2032600D01*
X19268600Y-2032600D02*
X18338600Y-2032600D01*
X15953200Y-21325621D02*
X15953200Y-21651179D01*
X14933200Y-21325621D02*
X14933200Y-21651179D01*
X20880800Y-23251379D02*
X20880800Y-22925821D01*
X19860800Y-23251379D02*
X19860800Y-22925821D01*
X5064879Y-6094000D02*
X4739321Y-6094000D01*
X5064879Y-7114000D02*
X4739321Y-7114000D01*
X7342600Y-9692321D02*
X7342600Y-10017879D01*
X6322600Y-9692321D02*
X6322600Y-10017879D01*
X31752000Y-21071721D02*
X31752000Y-21397279D01*
X30732000Y-21071721D02*
X30732000Y-21397279D01*
X28767721Y-20068000D02*
X29093279Y-20068000D01*
X28767721Y-19048000D02*
X29093279Y-19048000D01*
X28475400Y-4455379D02*
X28475400Y-4129821D01*
X27455400Y-4455379D02*
X27455400Y-4129821D01*
X30566679Y-6961600D02*
X30241121Y-6961600D01*
X30566679Y-5941600D02*
X30241121Y-5941600D01*
X15775400Y-4226779D02*
X15775400Y-3901221D01*
X14755400Y-4226779D02*
X14755400Y-3901221D01*
X7947879Y-12634500D02*
X7622321Y-12634500D01*
X7947879Y-13654500D02*
X7622321Y-13654500D01*
X7947879Y-18036000D02*
X7622321Y-18036000D01*
X7947879Y-17016000D02*
X7622321Y-17016000D01*
X13231400Y-15682079D02*
X13231400Y-15356521D01*
X14251400Y-15682079D02*
X14251400Y-15356521D01*
X11302200Y-19210200D02*
X11302200Y-19510200D01*
X11302200Y-19510200D02*
X14602200Y-19510200D01*
X14602200Y-19510200D02*
X14602200Y-19210200D01*
X11302200Y-17010200D02*
X11302200Y-16710200D01*
X11302200Y-16710200D02*
X14602200Y-16710200D01*
X14602200Y-16710200D02*
X14602200Y-17010200D01*
X8292000Y-3145064D02*
X8292000Y-1940936D01*
X11012000Y-3145064D02*
X11012000Y-1940936D01*
X13146921Y-20241800D02*
X13472479Y-20241800D01*
X13146921Y-21261800D02*
X13472479Y-21261800D01*
X33944879Y-22785800D02*
X33619321Y-22785800D01*
X33944879Y-21765800D02*
X33619321Y-21765800D01*
X6840000Y-1317600D02*
X6090000Y-1317600D01*
X3320000Y-1317600D02*
X4070000Y-1317600D01*
X3320000Y-3948163D02*
X3320000Y-1317600D01*
X6840000Y-3948163D02*
X6840000Y-1317600D01*
X4070000Y-4698163D02*
X3320000Y-3948163D01*
X6090000Y-4698163D02*
X6840000Y-3948163D01*
X3778600Y-21665363D02*
X4528600Y-20915363D01*
X1758600Y-21665363D02*
X1008600Y-20915363D01*
X4528600Y-20915363D02*
X4528600Y-18284800D01*
X1008600Y-20915363D02*
X1008600Y-18284800D01*
X1008600Y-18284800D02*
X1758600Y-18284800D01*
X4528600Y-18284800D02*
X3778600Y-18284800D01*
X2042379Y-6428200D02*
X1716821Y-6428200D01*
X2042379Y-5408200D02*
X1716821Y-5408200D01*
X25465921Y-5666200D02*
X25791479Y-5666200D01*
X25465921Y-4646200D02*
X25791479Y-4646200D01*
X12842121Y-2792000D02*
X13167679Y-2792000D01*
X12842121Y-3812000D02*
X13167679Y-3812000D01*
X22667179Y-4519200D02*
X22341621Y-4519200D01*
X22667179Y-5539200D02*
X22341621Y-5539200D01*
X13256800Y-9590721D02*
X13256800Y-9916279D01*
X14276800Y-9590721D02*
X14276800Y-9916279D01*
X13256800Y-12862779D02*
X13256800Y-12537221D01*
X14276800Y-12862779D02*
X14276800Y-12537221D01*
X28711200Y-2650800D02*
X28711200Y9200D01*
X23571200Y-2650800D02*
X28711200Y-2650800D01*
X23571200Y9200D02*
X28711200Y9200D01*
X23571200Y-2650800D02*
X23571200Y9200D01*
X22301200Y-2650800D02*
X20971200Y-2650800D01*
X20971200Y-2650800D02*
X20971200Y-1320800D01*
X20703000Y-1488221D02*
X20703000Y-1813779D01*
X19683000Y-1488221D02*
X19683000Y-1813779D01*
D13*
X32813006Y-7347612D02*
X32813006Y-7633326D01*
X32793959Y-7690469D01*
X32755863Y-7728564D01*
X32698720Y-7747612D01*
X32660625Y-7747612D01*
X33174911Y-7480945D02*
X33174911Y-7747612D01*
X33079673Y-7328564D02*
X32984435Y-7614279D01*
X33232054Y-7614279D01*
X4491346Y-23816962D02*
X4510394Y-23797915D01*
X4567537Y-23778867D01*
X4605632Y-23778867D01*
X4662775Y-23797915D01*
X4700870Y-23836010D01*
X4719918Y-23874105D01*
X4738965Y-23950296D01*
X4738965Y-24007439D01*
X4719918Y-24083629D01*
X4700870Y-24121724D01*
X4662775Y-24159820D01*
X4605632Y-24178867D01*
X4567537Y-24178867D01*
X4510394Y-24159820D01*
X4491346Y-24140772D01*
X4300870Y-23778867D02*
X4224680Y-23778867D01*
X4186584Y-23797915D01*
X4167537Y-23816962D01*
X4129441Y-23874105D01*
X4110394Y-23950296D01*
X4110394Y-24102677D01*
X4129441Y-24140772D01*
X4148489Y-24159820D01*
X4186584Y-24178867D01*
X4262775Y-24178867D01*
X4300870Y-24159820D01*
X4319918Y-24140772D01*
X4338965Y-24102677D01*
X4338965Y-24007439D01*
X4319918Y-23969343D01*
X4300870Y-23950296D01*
X4262775Y-23931248D01*
X4186584Y-23931248D01*
X4148489Y-23950296D01*
X4129441Y-23969343D01*
X4110394Y-24007439D01*
X9026523Y-11645923D02*
X8836047Y-11645923D01*
X9236047Y-11512590D02*
X9026523Y-11645923D01*
X9236047Y-11779257D01*
X8836047Y-12122114D02*
X8836047Y-11893542D01*
X8836047Y-12007828D02*
X9236047Y-12007828D01*
X9178904Y-11969733D01*
X9140809Y-11931638D01*
X9121761Y-11893542D01*
X763932Y-5921993D02*
X1049646Y-5921993D01*
X1106789Y-5941040D01*
X1144884Y-5979136D01*
X1163932Y-6036279D01*
X1163932Y-6074374D01*
X1163932Y-5521993D02*
X1163932Y-5750564D01*
X1163932Y-5636279D02*
X763932Y-5636279D01*
X821075Y-5674374D01*
X859170Y-5712469D01*
X878218Y-5750564D01*
X347372Y-17534873D02*
X633086Y-17534873D01*
X690229Y-17553920D01*
X728324Y-17592016D01*
X747372Y-17649159D01*
X747372Y-17687254D01*
X385467Y-17363444D02*
X366420Y-17344397D01*
X347372Y-17306301D01*
X347372Y-17211063D01*
X366420Y-17172968D01*
X385467Y-17153920D01*
X423562Y-17134873D01*
X461658Y-17134873D01*
X518800Y-17153920D01*
X747372Y-17382492D01*
X747372Y-17134873D01*
X35105938Y-18726807D02*
X35105938Y-19126807D01*
X35010700Y-19126807D01*
X34953557Y-19107760D01*
X34915461Y-19069664D01*
X34896414Y-19031569D01*
X34877366Y-18955379D01*
X34877366Y-18898236D01*
X34896414Y-18822045D01*
X34915461Y-18783950D01*
X34953557Y-18745855D01*
X35010700Y-18726807D01*
X35105938Y-18726807D01*
X34534509Y-18993474D02*
X34534509Y-18726807D01*
X34629747Y-19145855D02*
X34724985Y-18860140D01*
X34477366Y-18860140D01*
X29793592Y-24279864D02*
X29812640Y-24241769D01*
X29850735Y-24203674D01*
X29907878Y-24146531D01*
X29926925Y-24108436D01*
X29926925Y-24070340D01*
X29831687Y-24089388D02*
X29850735Y-24051293D01*
X29888830Y-24013198D01*
X29965020Y-23994150D01*
X30098354Y-23994150D01*
X30174544Y-24013198D01*
X30212640Y-24051293D01*
X30231687Y-24089388D01*
X30231687Y-24165579D01*
X30212640Y-24203674D01*
X30174544Y-24241769D01*
X30098354Y-24260817D01*
X29965020Y-24260817D01*
X29888830Y-24241769D01*
X29850735Y-24203674D01*
X29831687Y-24165579D01*
X29831687Y-24089388D01*
X30193592Y-24413198D02*
X30212640Y-24432245D01*
X30231687Y-24470340D01*
X30231687Y-24565579D01*
X30212640Y-24603674D01*
X30193592Y-24622721D01*
X30155497Y-24641769D01*
X30117401Y-24641769D01*
X30060259Y-24622721D01*
X29831687Y-24394150D01*
X29831687Y-24641769D01*
X35213933Y-5474317D02*
X35194885Y-5493364D01*
X35137742Y-5512412D01*
X35099647Y-5512412D01*
X35042504Y-5493364D01*
X35004409Y-5455269D01*
X34985361Y-5417174D01*
X34966314Y-5340983D01*
X34966314Y-5283840D01*
X34985361Y-5207650D01*
X35004409Y-5169555D01*
X35042504Y-5131460D01*
X35099647Y-5112412D01*
X35137742Y-5112412D01*
X35194885Y-5131460D01*
X35213933Y-5150507D01*
X35442504Y-5283840D02*
X35404409Y-5264793D01*
X35385361Y-5245745D01*
X35366314Y-5207650D01*
X35366314Y-5188602D01*
X35385361Y-5150507D01*
X35404409Y-5131460D01*
X35442504Y-5112412D01*
X35518695Y-5112412D01*
X35556790Y-5131460D01*
X35575838Y-5150507D01*
X35594885Y-5188602D01*
X35594885Y-5207650D01*
X35575838Y-5245745D01*
X35556790Y-5264793D01*
X35518695Y-5283840D01*
X35442504Y-5283840D01*
X35404409Y-5302888D01*
X35385361Y-5321936D01*
X35366314Y-5360031D01*
X35366314Y-5436221D01*
X35385361Y-5474317D01*
X35404409Y-5493364D01*
X35442504Y-5512412D01*
X35518695Y-5512412D01*
X35556790Y-5493364D01*
X35575838Y-5474317D01*
X35594885Y-5436221D01*
X35594885Y-5360031D01*
X35575838Y-5321936D01*
X35556790Y-5302888D01*
X35518695Y-5283840D01*
X35023461Y-4864712D02*
X35023461Y-4464712D01*
X35118700Y-4464712D01*
X35175842Y-4483760D01*
X35213938Y-4521855D01*
X35232985Y-4559950D01*
X35252033Y-4636140D01*
X35252033Y-4693283D01*
X35232985Y-4769474D01*
X35213938Y-4807569D01*
X35175842Y-4845664D01*
X35118700Y-4864712D01*
X35023461Y-4864712D01*
X35613938Y-4464712D02*
X35423461Y-4464712D01*
X35404414Y-4655188D01*
X35423461Y-4636140D01*
X35461557Y-4617093D01*
X35556795Y-4617093D01*
X35594890Y-4636140D01*
X35613938Y-4655188D01*
X35632985Y-4693283D01*
X35632985Y-4788521D01*
X35613938Y-4826617D01*
X35594890Y-4845664D01*
X35556795Y-4864712D01*
X35461557Y-4864712D01*
X35423461Y-4845664D01*
X35404414Y-4826617D01*
X4886998Y-19039232D02*
X4886998Y-19363041D01*
X4906045Y-19401137D01*
X4925093Y-19420184D01*
X4963188Y-19439232D01*
X5039379Y-19439232D01*
X5077474Y-19420184D01*
X5096521Y-19401137D01*
X5115569Y-19363041D01*
X5115569Y-19039232D01*
X5286998Y-19077327D02*
X5306045Y-19058280D01*
X5344140Y-19039232D01*
X5439379Y-19039232D01*
X5477474Y-19058280D01*
X5496521Y-19077327D01*
X5515569Y-19115422D01*
X5515569Y-19153518D01*
X5496521Y-19210660D01*
X5267950Y-19439232D01*
X5515569Y-19439232D01*
X24505302Y-19613277D02*
X24486255Y-19594229D01*
X24467207Y-19537086D01*
X24467207Y-19498991D01*
X24486255Y-19441848D01*
X24524350Y-19403753D01*
X24562445Y-19384705D01*
X24638636Y-19365658D01*
X24695779Y-19365658D01*
X24771969Y-19384705D01*
X24810064Y-19403753D01*
X24848160Y-19441848D01*
X24867207Y-19498991D01*
X24867207Y-19537086D01*
X24848160Y-19594229D01*
X24829112Y-19613277D01*
X24467207Y-19994229D02*
X24467207Y-19765658D01*
X24467207Y-19879943D02*
X24867207Y-19879943D01*
X24810064Y-19841848D01*
X24771969Y-19803753D01*
X24752921Y-19765658D01*
X24695779Y-20222800D02*
X24714826Y-20184705D01*
X24733874Y-20165658D01*
X24771969Y-20146610D01*
X24791017Y-20146610D01*
X24829112Y-20165658D01*
X24848160Y-20184705D01*
X24867207Y-20222800D01*
X24867207Y-20298991D01*
X24848160Y-20337086D01*
X24829112Y-20356134D01*
X24791017Y-20375181D01*
X24771969Y-20375181D01*
X24733874Y-20356134D01*
X24714826Y-20337086D01*
X24695779Y-20298991D01*
X24695779Y-20222800D01*
X24676731Y-20184705D01*
X24657683Y-20165658D01*
X24619588Y-20146610D01*
X24543398Y-20146610D01*
X24505302Y-20165658D01*
X24486255Y-20184705D01*
X24467207Y-20222800D01*
X24467207Y-20298991D01*
X24486255Y-20337086D01*
X24505302Y-20356134D01*
X24543398Y-20375181D01*
X24619588Y-20375181D01*
X24657683Y-20356134D01*
X24676731Y-20337086D01*
X24695779Y-20298991D01*
X21899277Y-21829377D02*
X21880229Y-21848424D01*
X21823086Y-21867472D01*
X21784991Y-21867472D01*
X21727848Y-21848424D01*
X21689753Y-21810329D01*
X21670705Y-21772234D01*
X21651658Y-21696043D01*
X21651658Y-21638900D01*
X21670705Y-21562710D01*
X21689753Y-21524615D01*
X21727848Y-21486520D01*
X21784991Y-21467472D01*
X21823086Y-21467472D01*
X21880229Y-21486520D01*
X21899277Y-21505567D01*
X22051658Y-21505567D02*
X22070705Y-21486520D01*
X22108800Y-21467472D01*
X22204039Y-21467472D01*
X22242134Y-21486520D01*
X22261181Y-21505567D01*
X22280229Y-21543662D01*
X22280229Y-21581758D01*
X22261181Y-21638900D01*
X22032610Y-21867472D01*
X22280229Y-21867472D01*
X22432610Y-21505567D02*
X22451658Y-21486520D01*
X22489753Y-21467472D01*
X22584991Y-21467472D01*
X22623086Y-21486520D01*
X22642134Y-21505567D01*
X22661181Y-21543662D01*
X22661181Y-21581758D01*
X22642134Y-21638900D01*
X22413562Y-21867472D01*
X22661181Y-21867472D01*
X14856498Y-7682892D02*
X14856498Y-8006701D01*
X14875545Y-8044797D01*
X14894593Y-8063844D01*
X14932688Y-8082892D01*
X15008879Y-8082892D01*
X15046974Y-8063844D01*
X15066021Y-8044797D01*
X15085069Y-8006701D01*
X15085069Y-7682892D01*
X15446974Y-7816225D02*
X15446974Y-8082892D01*
X15351736Y-7663844D02*
X15256498Y-7949559D01*
X15504117Y-7949559D01*
X10428641Y-5822292D02*
X10428641Y-5422292D01*
X10523880Y-5422292D01*
X10581022Y-5441340D01*
X10619118Y-5479435D01*
X10638165Y-5517530D01*
X10657213Y-5593720D01*
X10657213Y-5650863D01*
X10638165Y-5727054D01*
X10619118Y-5765149D01*
X10581022Y-5803244D01*
X10523880Y-5822292D01*
X10428641Y-5822292D01*
X11000070Y-5422292D02*
X10923880Y-5422292D01*
X10885784Y-5441340D01*
X10866737Y-5460387D01*
X10828641Y-5517530D01*
X10809594Y-5593720D01*
X10809594Y-5746101D01*
X10828641Y-5784197D01*
X10847689Y-5803244D01*
X10885784Y-5822292D01*
X10961975Y-5822292D01*
X11000070Y-5803244D01*
X11019118Y-5784197D01*
X11038165Y-5746101D01*
X11038165Y-5650863D01*
X11019118Y-5612768D01*
X11000070Y-5593720D01*
X10961975Y-5574673D01*
X10885784Y-5574673D01*
X10847689Y-5593720D01*
X10828641Y-5612768D01*
X10809594Y-5650863D01*
X7607917Y-1539866D02*
X7626964Y-1558914D01*
X7646012Y-1616057D01*
X7646012Y-1654152D01*
X7626964Y-1711295D01*
X7588869Y-1749390D01*
X7550774Y-1768438D01*
X7474583Y-1787485D01*
X7417440Y-1787485D01*
X7341250Y-1768438D01*
X7303155Y-1749390D01*
X7265060Y-1711295D01*
X7246012Y-1654152D01*
X7246012Y-1616057D01*
X7265060Y-1558914D01*
X7284107Y-1539866D01*
X7246012Y-1197009D02*
X7246012Y-1273200D01*
X7265060Y-1311295D01*
X7284107Y-1330342D01*
X7341250Y-1368438D01*
X7417440Y-1387485D01*
X7569821Y-1387485D01*
X7607917Y-1368438D01*
X7626964Y-1349390D01*
X7646012Y-1311295D01*
X7646012Y-1235104D01*
X7626964Y-1197009D01*
X7607917Y-1177961D01*
X7569821Y-1158914D01*
X7474583Y-1158914D01*
X7436488Y-1177961D01*
X7417440Y-1197009D01*
X7398393Y-1235104D01*
X7398393Y-1311295D01*
X7417440Y-1349390D01*
X7436488Y-1368438D01*
X7474583Y-1387485D01*
X4458298Y-8028327D02*
X4458298Y-8428327D01*
X4363060Y-8428327D01*
X4305917Y-8409280D01*
X4267821Y-8371184D01*
X4248774Y-8333089D01*
X4229726Y-8256899D01*
X4229726Y-8199756D01*
X4248774Y-8123565D01*
X4267821Y-8085470D01*
X4305917Y-8047375D01*
X4363060Y-8028327D01*
X4458298Y-8028327D01*
X3848774Y-8028327D02*
X4077345Y-8028327D01*
X3963060Y-8028327D02*
X3963060Y-8428327D01*
X4001155Y-8371184D01*
X4039250Y-8333089D01*
X4077345Y-8314041D01*
X8129927Y-7560981D02*
X8529927Y-7560981D01*
X8529927Y-7656220D01*
X8510880Y-7713362D01*
X8472784Y-7751458D01*
X8434689Y-7770505D01*
X8358499Y-7789553D01*
X8301356Y-7789553D01*
X8225165Y-7770505D01*
X8187070Y-7751458D01*
X8148975Y-7713362D01*
X8129927Y-7656220D01*
X8129927Y-7560981D01*
X8491832Y-7941934D02*
X8510880Y-7960981D01*
X8529927Y-7999077D01*
X8529927Y-8094315D01*
X8510880Y-8132410D01*
X8491832Y-8151458D01*
X8453737Y-8170505D01*
X8415641Y-8170505D01*
X8358499Y-8151458D01*
X8129927Y-7922886D01*
X8129927Y-8170505D01*
X11194378Y-22455527D02*
X11194378Y-22855527D01*
X11099140Y-22855527D01*
X11041997Y-22836480D01*
X11003901Y-22798384D01*
X10984854Y-22760289D01*
X10965806Y-22684099D01*
X10965806Y-22626956D01*
X10984854Y-22550765D01*
X11003901Y-22512670D01*
X11041997Y-22474575D01*
X11099140Y-22455527D01*
X11194378Y-22455527D01*
X10832473Y-22855527D02*
X10584854Y-22855527D01*
X10718187Y-22703146D01*
X10661044Y-22703146D01*
X10622949Y-22684099D01*
X10603901Y-22665051D01*
X10584854Y-22626956D01*
X10584854Y-22531718D01*
X10603901Y-22493622D01*
X10622949Y-22474575D01*
X10661044Y-22455527D01*
X10775330Y-22455527D01*
X10813425Y-22474575D01*
X10832473Y-22493622D01*
X6096598Y-14416427D02*
X6096598Y-14816427D01*
X6001360Y-14816427D01*
X5944217Y-14797380D01*
X5906121Y-14759284D01*
X5887074Y-14721189D01*
X5868026Y-14644999D01*
X5868026Y-14587856D01*
X5887074Y-14511665D01*
X5906121Y-14473570D01*
X5944217Y-14435475D01*
X6001360Y-14416427D01*
X6096598Y-14416427D01*
X5734693Y-14816427D02*
X5468026Y-14816427D01*
X5639455Y-14416427D01*
X6053418Y-15879467D02*
X6053418Y-16279467D01*
X5958180Y-16279467D01*
X5901037Y-16260420D01*
X5862941Y-16222324D01*
X5843894Y-16184229D01*
X5824846Y-16108039D01*
X5824846Y-16050896D01*
X5843894Y-15974705D01*
X5862941Y-15936610D01*
X5901037Y-15898515D01*
X5958180Y-15879467D01*
X6053418Y-15879467D01*
X5596275Y-16108039D02*
X5634370Y-16127086D01*
X5653418Y-16146134D01*
X5672465Y-16184229D01*
X5672465Y-16203277D01*
X5653418Y-16241372D01*
X5634370Y-16260420D01*
X5596275Y-16279467D01*
X5520084Y-16279467D01*
X5481989Y-16260420D01*
X5462941Y-16241372D01*
X5443894Y-16203277D01*
X5443894Y-16184229D01*
X5462941Y-16146134D01*
X5481989Y-16127086D01*
X5520084Y-16108039D01*
X5596275Y-16108039D01*
X5634370Y-16088991D01*
X5653418Y-16069943D01*
X5672465Y-16031848D01*
X5672465Y-15955658D01*
X5653418Y-15917562D01*
X5634370Y-15898515D01*
X5596275Y-15879467D01*
X5520084Y-15879467D01*
X5481989Y-15898515D01*
X5462941Y-15917562D01*
X5443894Y-15955658D01*
X5443894Y-16031848D01*
X5462941Y-16069943D01*
X5481989Y-16088991D01*
X5520084Y-16108039D01*
X10356890Y-24943412D02*
X10356890Y-24543412D01*
X10490223Y-24829126D01*
X10623557Y-24543412D01*
X10623557Y-24943412D01*
X11023557Y-24943412D02*
X10794985Y-24943412D01*
X10909271Y-24943412D02*
X10909271Y-24543412D01*
X10871176Y-24600555D01*
X10833080Y-24638650D01*
X10794985Y-24657698D01*
X30935970Y-25017072D02*
X30935970Y-24617072D01*
X31069303Y-24902786D01*
X31202637Y-24617072D01*
X31202637Y-25017072D01*
X31374065Y-24655167D02*
X31393113Y-24636120D01*
X31431208Y-24617072D01*
X31526446Y-24617072D01*
X31564541Y-24636120D01*
X31583589Y-24655167D01*
X31602637Y-24693262D01*
X31602637Y-24731358D01*
X31583589Y-24788500D01*
X31355018Y-25017072D01*
X31602637Y-25017072D01*
X31700429Y-141627D02*
X31700429Y-541627D01*
X31567096Y-255913D01*
X31433762Y-541627D01*
X31433762Y-141627D01*
X31281381Y-541627D02*
X31033762Y-541627D01*
X31167096Y-389246D01*
X31109953Y-389246D01*
X31071858Y-370199D01*
X31052810Y-351151D01*
X31033762Y-313056D01*
X31033762Y-217818D01*
X31052810Y-179722D01*
X31071858Y-160675D01*
X31109953Y-141627D01*
X31224239Y-141627D01*
X31262334Y-160675D01*
X31281381Y-179722D01*
X16620449Y-329587D02*
X16620449Y-729587D01*
X16487116Y-443873D01*
X16353782Y-729587D01*
X16353782Y-329587D01*
X15991878Y-596254D02*
X15991878Y-329587D01*
X16087116Y-748635D02*
X16182354Y-462920D01*
X15934735Y-462920D01*
X16268092Y-24368764D02*
X16287140Y-24330669D01*
X16325235Y-24292574D01*
X16382378Y-24235431D01*
X16401425Y-24197336D01*
X16401425Y-24159240D01*
X16306187Y-24178288D02*
X16325235Y-24140193D01*
X16363330Y-24102098D01*
X16439520Y-24083050D01*
X16572854Y-24083050D01*
X16649044Y-24102098D01*
X16687140Y-24140193D01*
X16706187Y-24178288D01*
X16706187Y-24254479D01*
X16687140Y-24292574D01*
X16649044Y-24330669D01*
X16572854Y-24349717D01*
X16439520Y-24349717D01*
X16363330Y-24330669D01*
X16325235Y-24292574D01*
X16306187Y-24254479D01*
X16306187Y-24178288D01*
X16306187Y-24730669D02*
X16306187Y-24502098D01*
X16306187Y-24616383D02*
X16706187Y-24616383D01*
X16649044Y-24578288D01*
X16610949Y-24540193D01*
X16591901Y-24502098D01*
X29637327Y-1450335D02*
X29618280Y-1488430D01*
X29580184Y-1526525D01*
X29523041Y-1583668D01*
X29503994Y-1621763D01*
X29503994Y-1659859D01*
X29599232Y-1640811D02*
X29580184Y-1678906D01*
X29542089Y-1717001D01*
X29465899Y-1736049D01*
X29332565Y-1736049D01*
X29256375Y-1717001D01*
X29218280Y-1678906D01*
X29199232Y-1640811D01*
X29199232Y-1564620D01*
X29218280Y-1526525D01*
X29256375Y-1488430D01*
X29332565Y-1469382D01*
X29465899Y-1469382D01*
X29542089Y-1488430D01*
X29580184Y-1526525D01*
X29599232Y-1564620D01*
X29599232Y-1640811D01*
X29199232Y-1336049D02*
X29199232Y-1088430D01*
X29351613Y-1221763D01*
X29351613Y-1164620D01*
X29370660Y-1126525D01*
X29389708Y-1107478D01*
X29427803Y-1088430D01*
X29523041Y-1088430D01*
X29561137Y-1107478D01*
X29580184Y-1126525D01*
X29599232Y-1164620D01*
X29599232Y-1278906D01*
X29580184Y-1317001D01*
X29561137Y-1336049D01*
X19012507Y-1150615D02*
X18993460Y-1188710D01*
X18955364Y-1226805D01*
X18898221Y-1283948D01*
X18879174Y-1322043D01*
X18879174Y-1360139D01*
X18974412Y-1341091D02*
X18955364Y-1379186D01*
X18917269Y-1417281D01*
X18841079Y-1436329D01*
X18707745Y-1436329D01*
X18631555Y-1417281D01*
X18593460Y-1379186D01*
X18574412Y-1341091D01*
X18574412Y-1264900D01*
X18593460Y-1226805D01*
X18631555Y-1188710D01*
X18707745Y-1169662D01*
X18841079Y-1169662D01*
X18917269Y-1188710D01*
X18955364Y-1226805D01*
X18974412Y-1264900D01*
X18974412Y-1341091D01*
X18707745Y-826805D02*
X18974412Y-826805D01*
X18555364Y-922043D02*
X18841079Y-1017281D01*
X18841079Y-769662D01*
X15526407Y-19725013D02*
X15716883Y-19591680D01*
X15526407Y-19496441D02*
X15926407Y-19496441D01*
X15926407Y-19648822D01*
X15907360Y-19686918D01*
X15888312Y-19705965D01*
X15850217Y-19725013D01*
X15793074Y-19725013D01*
X15754979Y-19705965D01*
X15735931Y-19686918D01*
X15716883Y-19648822D01*
X15716883Y-19496441D01*
X15526407Y-20105965D02*
X15526407Y-19877394D01*
X15526407Y-19991680D02*
X15926407Y-19991680D01*
X15869264Y-19953584D01*
X15831169Y-19915489D01*
X15812121Y-19877394D01*
X21704912Y-22690446D02*
X21514436Y-22823780D01*
X21704912Y-22919018D02*
X21304912Y-22919018D01*
X21304912Y-22766637D01*
X21323960Y-22728541D01*
X21343007Y-22709494D01*
X21381102Y-22690446D01*
X21438245Y-22690446D01*
X21476340Y-22709494D01*
X21495388Y-22728541D01*
X21514436Y-22766637D01*
X21514436Y-22919018D01*
X21304912Y-22557113D02*
X21304912Y-22309494D01*
X21457293Y-22442827D01*
X21457293Y-22385684D01*
X21476340Y-22347589D01*
X21495388Y-22328541D01*
X21533483Y-22309494D01*
X21628721Y-22309494D01*
X21666817Y-22328541D01*
X21685864Y-22347589D01*
X21704912Y-22385684D01*
X21704912Y-22499970D01*
X21685864Y-22538065D01*
X21666817Y-22557113D01*
X6790046Y-6519567D02*
X6923380Y-6710043D01*
X7018618Y-6519567D02*
X7018618Y-6919567D01*
X6866237Y-6919567D01*
X6828141Y-6900520D01*
X6809094Y-6881472D01*
X6790046Y-6843377D01*
X6790046Y-6786234D01*
X6809094Y-6748139D01*
X6828141Y-6729091D01*
X6866237Y-6710043D01*
X7018618Y-6710043D01*
X6656713Y-6919567D02*
X6390046Y-6919567D01*
X6561475Y-6519567D01*
X6600847Y-7906393D02*
X6791323Y-7773060D01*
X6600847Y-7677821D02*
X7000847Y-7677821D01*
X7000847Y-7830202D01*
X6981800Y-7868298D01*
X6962752Y-7887345D01*
X6924657Y-7906393D01*
X6867514Y-7906393D01*
X6829419Y-7887345D01*
X6810371Y-7868298D01*
X6791323Y-7830202D01*
X6791323Y-7677821D01*
X6829419Y-8134964D02*
X6848466Y-8096869D01*
X6867514Y-8077821D01*
X6905609Y-8058774D01*
X6924657Y-8058774D01*
X6962752Y-8077821D01*
X6981800Y-8096869D01*
X7000847Y-8134964D01*
X7000847Y-8211155D01*
X6981800Y-8249250D01*
X6962752Y-8268298D01*
X6924657Y-8287345D01*
X6905609Y-8287345D01*
X6867514Y-8268298D01*
X6848466Y-8249250D01*
X6829419Y-8211155D01*
X6829419Y-8134964D01*
X6810371Y-8096869D01*
X6791323Y-8077821D01*
X6753228Y-8058774D01*
X6677038Y-8058774D01*
X6638942Y-8077821D01*
X6619895Y-8096869D01*
X6600847Y-8134964D01*
X6600847Y-8211155D01*
X6619895Y-8249250D01*
X6638942Y-8268298D01*
X6677038Y-8287345D01*
X6753228Y-8287345D01*
X6791323Y-8268298D01*
X6810371Y-8249250D01*
X6829419Y-8211155D01*
X30890867Y-19288133D02*
X31081343Y-19154800D01*
X30890867Y-19059561D02*
X31290867Y-19059561D01*
X31290867Y-19211942D01*
X31271820Y-19250038D01*
X31252772Y-19269085D01*
X31214677Y-19288133D01*
X31157534Y-19288133D01*
X31119439Y-19269085D01*
X31100391Y-19250038D01*
X31081343Y-19211942D01*
X31081343Y-19059561D01*
X30890867Y-19478609D02*
X30890867Y-19554800D01*
X30909915Y-19592895D01*
X30928962Y-19611942D01*
X30986105Y-19650038D01*
X31062296Y-19669085D01*
X31214677Y-19669085D01*
X31252772Y-19650038D01*
X31271820Y-19630990D01*
X31290867Y-19592895D01*
X31290867Y-19516704D01*
X31271820Y-19478609D01*
X31252772Y-19459561D01*
X31214677Y-19440514D01*
X31119439Y-19440514D01*
X31081343Y-19459561D01*
X31062296Y-19478609D01*
X31043248Y-19516704D01*
X31043248Y-19592895D01*
X31062296Y-19630990D01*
X31081343Y-19650038D01*
X31119439Y-19669085D01*
X28579477Y-18735652D02*
X28446143Y-18545176D01*
X28350905Y-18735652D02*
X28350905Y-18335652D01*
X28503286Y-18335652D01*
X28541381Y-18354700D01*
X28560429Y-18373747D01*
X28579477Y-18411842D01*
X28579477Y-18468985D01*
X28560429Y-18507080D01*
X28541381Y-18526128D01*
X28503286Y-18545176D01*
X28350905Y-18545176D01*
X28960429Y-18735652D02*
X28731858Y-18735652D01*
X28846143Y-18735652D02*
X28846143Y-18335652D01*
X28808048Y-18392795D01*
X28769953Y-18430890D01*
X28731858Y-18449938D01*
X29208048Y-18335652D02*
X29246143Y-18335652D01*
X29284239Y-18354700D01*
X29303286Y-18373747D01*
X29322334Y-18411842D01*
X29341381Y-18488033D01*
X29341381Y-18583271D01*
X29322334Y-18659461D01*
X29303286Y-18697557D01*
X29284239Y-18716604D01*
X29246143Y-18735652D01*
X29208048Y-18735652D01*
X29169953Y-18716604D01*
X29150905Y-18697557D01*
X29131858Y-18659461D01*
X29112810Y-18583271D01*
X29112810Y-18488033D01*
X29131858Y-18411842D01*
X29150905Y-18373747D01*
X29169953Y-18354700D01*
X29208048Y-18335652D01*
X28245412Y-6548722D02*
X28054936Y-6682056D01*
X28245412Y-6777294D02*
X27845412Y-6777294D01*
X27845412Y-6624913D01*
X27864460Y-6586818D01*
X27883507Y-6567770D01*
X27921602Y-6548722D01*
X27978745Y-6548722D01*
X28016840Y-6567770D01*
X28035888Y-6586818D01*
X28054936Y-6624913D01*
X28054936Y-6777294D01*
X28245412Y-6167770D02*
X28245412Y-6396341D01*
X28245412Y-6282056D02*
X27845412Y-6282056D01*
X27902555Y-6320151D01*
X27940650Y-6358246D01*
X27959698Y-6396341D01*
X28245412Y-5786818D02*
X28245412Y-6015389D01*
X28245412Y-5901103D02*
X27845412Y-5901103D01*
X27902555Y-5939199D01*
X27940650Y-5977294D01*
X27959698Y-6015389D01*
X32654842Y-6230007D02*
X32788176Y-6420483D01*
X32883414Y-6230007D02*
X32883414Y-6630007D01*
X32731033Y-6630007D01*
X32692938Y-6610960D01*
X32673890Y-6591912D01*
X32654842Y-6553817D01*
X32654842Y-6496674D01*
X32673890Y-6458579D01*
X32692938Y-6439531D01*
X32731033Y-6420483D01*
X32883414Y-6420483D01*
X32273890Y-6230007D02*
X32502461Y-6230007D01*
X32388176Y-6230007D02*
X32388176Y-6630007D01*
X32426271Y-6572864D01*
X32464366Y-6534769D01*
X32502461Y-6515721D01*
X32121509Y-6591912D02*
X32102461Y-6610960D01*
X32064366Y-6630007D01*
X31969128Y-6630007D01*
X31931033Y-6610960D01*
X31911985Y-6591912D01*
X31892938Y-6553817D01*
X31892938Y-6515721D01*
X31911985Y-6458579D01*
X32140557Y-6230007D01*
X31892938Y-6230007D01*
X15385392Y-6426802D02*
X15194916Y-6560136D01*
X15385392Y-6655374D02*
X14985392Y-6655374D01*
X14985392Y-6502993D01*
X15004440Y-6464898D01*
X15023487Y-6445850D01*
X15061582Y-6426802D01*
X15118725Y-6426802D01*
X15156820Y-6445850D01*
X15175868Y-6464898D01*
X15194916Y-6502993D01*
X15194916Y-6655374D01*
X15385392Y-6045850D02*
X15385392Y-6274421D01*
X15385392Y-6160136D02*
X14985392Y-6160136D01*
X15042535Y-6198231D01*
X15080630Y-6236326D01*
X15099678Y-6274421D01*
X14985392Y-5912517D02*
X14985392Y-5664898D01*
X15137773Y-5798231D01*
X15137773Y-5741088D01*
X15156820Y-5702993D01*
X15175868Y-5683945D01*
X15213963Y-5664898D01*
X15309201Y-5664898D01*
X15347297Y-5683945D01*
X15366344Y-5702993D01*
X15385392Y-5741088D01*
X15385392Y-5855374D01*
X15366344Y-5893469D01*
X15347297Y-5912517D01*
X6099142Y-13103247D02*
X6232476Y-13293723D01*
X6327714Y-13103247D02*
X6327714Y-13503247D01*
X6175333Y-13503247D01*
X6137238Y-13484200D01*
X6118190Y-13465152D01*
X6099142Y-13427057D01*
X6099142Y-13369914D01*
X6118190Y-13331819D01*
X6137238Y-13312771D01*
X6175333Y-13293723D01*
X6327714Y-13293723D01*
X5718190Y-13103247D02*
X5946761Y-13103247D01*
X5832476Y-13103247D02*
X5832476Y-13503247D01*
X5870571Y-13446104D01*
X5908666Y-13408009D01*
X5946761Y-13388961D01*
X5356285Y-13503247D02*
X5546761Y-13503247D01*
X5565809Y-13312771D01*
X5546761Y-13331819D01*
X5508666Y-13350866D01*
X5413428Y-13350866D01*
X5375333Y-13331819D01*
X5356285Y-13312771D01*
X5337238Y-13274676D01*
X5337238Y-13179438D01*
X5356285Y-13141342D01*
X5375333Y-13122295D01*
X5413428Y-13103247D01*
X5508666Y-13103247D01*
X5546761Y-13122295D01*
X5565809Y-13141342D01*
X6109302Y-17172327D02*
X6242636Y-17362803D01*
X6337874Y-17172327D02*
X6337874Y-17572327D01*
X6185493Y-17572327D01*
X6147398Y-17553280D01*
X6128350Y-17534232D01*
X6109302Y-17496137D01*
X6109302Y-17438994D01*
X6128350Y-17400899D01*
X6147398Y-17381851D01*
X6185493Y-17362803D01*
X6337874Y-17362803D01*
X5728350Y-17172327D02*
X5956921Y-17172327D01*
X5842636Y-17172327D02*
X5842636Y-17572327D01*
X5880731Y-17515184D01*
X5918826Y-17477089D01*
X5956921Y-17458041D01*
X5385493Y-17572327D02*
X5461683Y-17572327D01*
X5499779Y-17553280D01*
X5518826Y-17534232D01*
X5556921Y-17477089D01*
X5575969Y-17400899D01*
X5575969Y-17248518D01*
X5556921Y-17210422D01*
X5537874Y-17191375D01*
X5499779Y-17172327D01*
X5423588Y-17172327D01*
X5385493Y-17191375D01*
X5366445Y-17210422D01*
X5347398Y-17248518D01*
X5347398Y-17343756D01*
X5366445Y-17381851D01*
X5385493Y-17400899D01*
X5423588Y-17419946D01*
X5499779Y-17419946D01*
X5537874Y-17400899D01*
X5556921Y-17381851D01*
X5575969Y-17343756D01*
X13015572Y-16307402D02*
X12825096Y-16440736D01*
X13015572Y-16535974D02*
X12615572Y-16535974D01*
X12615572Y-16383593D01*
X12634620Y-16345498D01*
X12653667Y-16326450D01*
X12691762Y-16307402D01*
X12748905Y-16307402D01*
X12787000Y-16326450D01*
X12806048Y-16345498D01*
X12825096Y-16383593D01*
X12825096Y-16535974D01*
X13015572Y-15926450D02*
X13015572Y-16155021D01*
X13015572Y-16040736D02*
X12615572Y-16040736D01*
X12672715Y-16078831D01*
X12710810Y-16116926D01*
X12729858Y-16155021D01*
X12615572Y-15793117D02*
X12615572Y-15526450D01*
X13015572Y-15697879D01*
X10921933Y-19665335D02*
X10864790Y-19646287D01*
X10769552Y-19646287D01*
X10731457Y-19665335D01*
X10712409Y-19684382D01*
X10693361Y-19722478D01*
X10693361Y-19760573D01*
X10712409Y-19798668D01*
X10731457Y-19817716D01*
X10769552Y-19836763D01*
X10845742Y-19855811D01*
X10883838Y-19874859D01*
X10902885Y-19893906D01*
X10921933Y-19932001D01*
X10921933Y-19970097D01*
X10902885Y-20008192D01*
X10883838Y-20027240D01*
X10845742Y-20046287D01*
X10750504Y-20046287D01*
X10693361Y-20027240D01*
X10560028Y-20046287D02*
X10464790Y-19646287D01*
X10388600Y-19932001D01*
X10312409Y-19646287D01*
X10217171Y-20046287D01*
X9855266Y-19646287D02*
X10083838Y-19646287D01*
X9969552Y-19646287D02*
X9969552Y-20046287D01*
X10007647Y-19989144D01*
X10045742Y-19951049D01*
X10083838Y-19932001D01*
X9136997Y-5743542D02*
X9156044Y-5762590D01*
X9175092Y-5819733D01*
X9175092Y-5857828D01*
X9156044Y-5914971D01*
X9117949Y-5953066D01*
X9079854Y-5972114D01*
X9003663Y-5991161D01*
X8946520Y-5991161D01*
X8870330Y-5972114D01*
X8832235Y-5953066D01*
X8794140Y-5914971D01*
X8775092Y-5857828D01*
X8775092Y-5819733D01*
X8794140Y-5762590D01*
X8813187Y-5743542D01*
X9175092Y-5362590D02*
X9175092Y-5591161D01*
X9175092Y-5476876D02*
X8775092Y-5476876D01*
X8832235Y-5514971D01*
X8870330Y-5553066D01*
X8889378Y-5591161D01*
X8775092Y-5229257D02*
X8775092Y-4981638D01*
X8927473Y-5114971D01*
X8927473Y-5057828D01*
X8946520Y-5019733D01*
X8965568Y-5000685D01*
X9003663Y-4981638D01*
X9098901Y-4981638D01*
X9136997Y-5000685D01*
X9156044Y-5019733D01*
X9175092Y-5057828D01*
X9175092Y-5172114D01*
X9156044Y-5210209D01*
X9136997Y-5229257D01*
X11278226Y-20624182D02*
X11297274Y-20605135D01*
X11354417Y-20586087D01*
X11392512Y-20586087D01*
X11449655Y-20605135D01*
X11487750Y-20643230D01*
X11506798Y-20681325D01*
X11525845Y-20757516D01*
X11525845Y-20814659D01*
X11506798Y-20890849D01*
X11487750Y-20928944D01*
X11449655Y-20967040D01*
X11392512Y-20986087D01*
X11354417Y-20986087D01*
X11297274Y-20967040D01*
X11278226Y-20947992D01*
X10897274Y-20586087D02*
X11125845Y-20586087D01*
X11011560Y-20586087D02*
X11011560Y-20986087D01*
X11049655Y-20928944D01*
X11087750Y-20890849D01*
X11125845Y-20871801D01*
X35771446Y-21985622D02*
X35790494Y-21966575D01*
X35847637Y-21947527D01*
X35885732Y-21947527D01*
X35942875Y-21966575D01*
X35980970Y-22004670D01*
X36000018Y-22042765D01*
X36019065Y-22118956D01*
X36019065Y-22176099D01*
X36000018Y-22252289D01*
X35980970Y-22290384D01*
X35942875Y-22328480D01*
X35885732Y-22347527D01*
X35847637Y-22347527D01*
X35790494Y-22328480D01*
X35771446Y-22309432D01*
X35619065Y-22309432D02*
X35600018Y-22328480D01*
X35561922Y-22347527D01*
X35466684Y-22347527D01*
X35428589Y-22328480D01*
X35409541Y-22309432D01*
X35390494Y-22271337D01*
X35390494Y-22233241D01*
X35409541Y-22176099D01*
X35638113Y-21947527D01*
X35390494Y-21947527D01*
X6594457Y-5418446D02*
X6613504Y-5437494D01*
X6632552Y-5494637D01*
X6632552Y-5532732D01*
X6613504Y-5589875D01*
X6575409Y-5627970D01*
X6537314Y-5647018D01*
X6461123Y-5666065D01*
X6403980Y-5666065D01*
X6327790Y-5647018D01*
X6289695Y-5627970D01*
X6251600Y-5589875D01*
X6232552Y-5532732D01*
X6232552Y-5494637D01*
X6251600Y-5437494D01*
X6270647Y-5418446D01*
X6232552Y-5285113D02*
X6232552Y-5037494D01*
X6384933Y-5170827D01*
X6384933Y-5113684D01*
X6403980Y-5075589D01*
X6423028Y-5056541D01*
X6461123Y-5037494D01*
X6556361Y-5037494D01*
X6594457Y-5056541D01*
X6613504Y-5075589D01*
X6632552Y-5113684D01*
X6632552Y-5227970D01*
X6613504Y-5266065D01*
X6594457Y-5285113D01*
X1278237Y-21976706D02*
X1297284Y-21995754D01*
X1316332Y-22052897D01*
X1316332Y-22090992D01*
X1297284Y-22148135D01*
X1259189Y-22186230D01*
X1221094Y-22205278D01*
X1144903Y-22224325D01*
X1087760Y-22224325D01*
X1011570Y-22205278D01*
X973475Y-22186230D01*
X935380Y-22148135D01*
X916332Y-22090992D01*
X916332Y-22052897D01*
X935380Y-21995754D01*
X954427Y-21976706D01*
X1049665Y-21633849D02*
X1316332Y-21633849D01*
X897284Y-21729087D02*
X1182999Y-21824325D01*
X1182999Y-21576706D01*
X4387182Y-7500002D02*
X4406230Y-7480955D01*
X4463373Y-7461907D01*
X4501468Y-7461907D01*
X4558611Y-7480955D01*
X4596706Y-7519050D01*
X4615754Y-7557145D01*
X4634801Y-7633336D01*
X4634801Y-7690479D01*
X4615754Y-7766669D01*
X4596706Y-7804764D01*
X4558611Y-7842860D01*
X4501468Y-7861907D01*
X4463373Y-7861907D01*
X4406230Y-7842860D01*
X4387182Y-7823812D01*
X4006230Y-7461907D02*
X4234801Y-7461907D01*
X4120516Y-7461907D02*
X4120516Y-7861907D01*
X4158611Y-7804764D01*
X4196706Y-7766669D01*
X4234801Y-7747621D01*
X3758611Y-7861907D02*
X3720516Y-7861907D01*
X3682420Y-7842860D01*
X3663373Y-7823812D01*
X3644325Y-7785717D01*
X3625278Y-7709526D01*
X3625278Y-7614288D01*
X3644325Y-7538098D01*
X3663373Y-7500002D01*
X3682420Y-7480955D01*
X3720516Y-7461907D01*
X3758611Y-7461907D01*
X3796706Y-7480955D01*
X3815754Y-7500002D01*
X3834801Y-7538098D01*
X3853849Y-7614288D01*
X3853849Y-7709526D01*
X3834801Y-7785717D01*
X3815754Y-7823812D01*
X3796706Y-7842860D01*
X3758611Y-7861907D01*
X25338437Y-4338937D02*
X25319389Y-4357984D01*
X25262246Y-4377032D01*
X25224151Y-4377032D01*
X25167008Y-4357984D01*
X25128913Y-4319889D01*
X25109865Y-4281794D01*
X25090818Y-4205603D01*
X25090818Y-4148460D01*
X25109865Y-4072270D01*
X25128913Y-4034175D01*
X25167008Y-3996080D01*
X25224151Y-3977032D01*
X25262246Y-3977032D01*
X25319389Y-3996080D01*
X25338437Y-4015127D01*
X25719389Y-4377032D02*
X25490818Y-4377032D01*
X25605103Y-4377032D02*
X25605103Y-3977032D01*
X25567008Y-4034175D01*
X25528913Y-4072270D01*
X25490818Y-4091318D01*
X26100341Y-4377032D02*
X25871770Y-4377032D01*
X25986056Y-4377032D02*
X25986056Y-3977032D01*
X25947960Y-4034175D01*
X25909865Y-4072270D01*
X25871770Y-4091318D01*
X11673237Y-2606657D02*
X11654189Y-2625704D01*
X11597046Y-2644752D01*
X11558951Y-2644752D01*
X11501808Y-2625704D01*
X11463713Y-2587609D01*
X11444665Y-2549514D01*
X11425618Y-2473323D01*
X11425618Y-2416180D01*
X11444665Y-2339990D01*
X11463713Y-2301895D01*
X11501808Y-2263800D01*
X11558951Y-2244752D01*
X11597046Y-2244752D01*
X11654189Y-2263800D01*
X11673237Y-2282847D01*
X12054189Y-2644752D02*
X11825618Y-2644752D01*
X11939903Y-2644752D02*
X11939903Y-2244752D01*
X11901808Y-2301895D01*
X11863713Y-2339990D01*
X11825618Y-2359038D01*
X12187522Y-2244752D02*
X12454189Y-2244752D01*
X12282760Y-2644752D01*
X22774242Y-3992262D02*
X22793290Y-3973215D01*
X22850433Y-3954167D01*
X22888528Y-3954167D01*
X22945671Y-3973215D01*
X22983766Y-4011310D01*
X23002814Y-4049405D01*
X23021861Y-4125596D01*
X23021861Y-4182739D01*
X23002814Y-4258929D01*
X22983766Y-4297024D01*
X22945671Y-4335120D01*
X22888528Y-4354167D01*
X22850433Y-4354167D01*
X22793290Y-4335120D01*
X22774242Y-4316072D01*
X22393290Y-3954167D02*
X22621861Y-3954167D01*
X22507576Y-3954167D02*
X22507576Y-4354167D01*
X22545671Y-4297024D01*
X22583766Y-4258929D01*
X22621861Y-4239881D01*
X22202814Y-3954167D02*
X22126623Y-3954167D01*
X22088528Y-3973215D01*
X22069480Y-3992262D01*
X22031385Y-4049405D01*
X22012338Y-4125596D01*
X22012338Y-4277977D01*
X22031385Y-4316072D01*
X22050433Y-4335120D01*
X22088528Y-4354167D01*
X22164719Y-4354167D01*
X22202814Y-4335120D01*
X22221861Y-4316072D01*
X22240909Y-4277977D01*
X22240909Y-4182739D01*
X22221861Y-4144643D01*
X22202814Y-4125596D01*
X22164719Y-4106548D01*
X22088528Y-4106548D01*
X22050433Y-4125596D01*
X22031385Y-4144643D01*
X22012338Y-4182739D01*
X13578222Y-7088537D02*
X13559175Y-7069489D01*
X13540127Y-7012346D01*
X13540127Y-6974251D01*
X13559175Y-6917108D01*
X13597270Y-6879013D01*
X13635365Y-6859965D01*
X13711556Y-6840918D01*
X13768699Y-6840918D01*
X13844889Y-6859965D01*
X13882984Y-6879013D01*
X13921080Y-6917108D01*
X13940127Y-6974251D01*
X13940127Y-7012346D01*
X13921080Y-7069489D01*
X13902032Y-7088537D01*
X13902032Y-7240918D02*
X13921080Y-7259965D01*
X13940127Y-7298060D01*
X13940127Y-7393299D01*
X13921080Y-7431394D01*
X13902032Y-7450441D01*
X13863937Y-7469489D01*
X13825841Y-7469489D01*
X13768699Y-7450441D01*
X13540127Y-7221870D01*
X13540127Y-7469489D01*
X13940127Y-7717108D02*
X13940127Y-7755203D01*
X13921080Y-7793299D01*
X13902032Y-7812346D01*
X13863937Y-7831394D01*
X13787746Y-7850441D01*
X13692508Y-7850441D01*
X13616318Y-7831394D01*
X13578222Y-7812346D01*
X13559175Y-7793299D01*
X13540127Y-7755203D01*
X13540127Y-7717108D01*
X13559175Y-7679013D01*
X13578222Y-7659965D01*
X13616318Y-7640918D01*
X13692508Y-7621870D01*
X13787746Y-7621870D01*
X13863937Y-7640918D01*
X13902032Y-7659965D01*
X13921080Y-7679013D01*
X13940127Y-7717108D01*
X12825077Y-12113862D02*
X12844124Y-12132910D01*
X12863172Y-12190053D01*
X12863172Y-12228148D01*
X12844124Y-12285291D01*
X12806029Y-12323386D01*
X12767934Y-12342434D01*
X12691743Y-12361481D01*
X12634600Y-12361481D01*
X12558410Y-12342434D01*
X12520315Y-12323386D01*
X12482220Y-12285291D01*
X12463172Y-12228148D01*
X12463172Y-12190053D01*
X12482220Y-12132910D01*
X12501267Y-12113862D01*
X12501267Y-11961481D02*
X12482220Y-11942434D01*
X12463172Y-11904339D01*
X12463172Y-11809100D01*
X12482220Y-11771005D01*
X12501267Y-11751958D01*
X12539362Y-11732910D01*
X12577458Y-11732910D01*
X12634600Y-11751958D01*
X12863172Y-11980529D01*
X12863172Y-11732910D01*
X12863172Y-11351958D02*
X12863172Y-11580529D01*
X12863172Y-11466243D02*
X12463172Y-11466243D01*
X12520315Y-11504339D01*
X12558410Y-11542434D01*
X12577458Y-11580529D01*
X22051026Y-2971192D02*
X22051026Y-3256906D01*
X22031979Y-3314049D01*
X21993883Y-3352144D01*
X21936740Y-3371192D01*
X21898645Y-3371192D01*
X22431979Y-2971192D02*
X22241502Y-2971192D01*
X22222455Y-3161668D01*
X22241502Y-3142620D01*
X22279598Y-3123573D01*
X22374836Y-3123573D01*
X22412931Y-3142620D01*
X22431979Y-3161668D01*
X22451026Y-3199763D01*
X22451026Y-3295001D01*
X22431979Y-3333097D01*
X22412931Y-3352144D01*
X22374836Y-3371192D01*
X22279598Y-3371192D01*
X22241502Y-3352144D01*
X22222455Y-3333097D01*
X20032367Y-3344553D02*
X20222843Y-3211220D01*
X20032367Y-3115981D02*
X20432367Y-3115981D01*
X20432367Y-3268362D01*
X20413320Y-3306458D01*
X20394272Y-3325505D01*
X20356177Y-3344553D01*
X20299034Y-3344553D01*
X20260939Y-3325505D01*
X20241891Y-3306458D01*
X20222843Y-3268362D01*
X20222843Y-3115981D01*
X20394272Y-3496934D02*
X20413320Y-3515981D01*
X20432367Y-3554077D01*
X20432367Y-3649315D01*
X20413320Y-3687410D01*
X20394272Y-3706458D01*
X20356177Y-3725505D01*
X20318081Y-3725505D01*
X20260939Y-3706458D01*
X20032367Y-3477886D01*
X20032367Y-3725505D01*
M02*
