G04 #@! TF.GenerationSoftware,KiCad,Pcbnew,(5.1.8)-1*
G04 #@! TF.CreationDate,2020-11-28T11:44:15-05:00*
G04 #@! TF.ProjectId,STM32_SMD_Quadcopter,53544d33-325f-4534-9d44-5f5175616463,rev?*
G04 #@! TF.SameCoordinates,PX2daf690PY1aab7d8*
G04 #@! TF.FileFunction,Legend,Bot*
G04 #@! TF.FilePolarity,Positive*
%FSLAX46Y46*%
G04 Gerber Fmt 4.6, Leading zero omitted, Abs format (unit mm)*
G04 Created by KiCad (PCBNEW (5.1.8)-1) date 2020-11-28 11:44:15*
%MOMM*%
%LPD*%
G01*
G04 APERTURE LIST*
%ADD10C,0.120000*%
%ADD11C,0.050000*%
G04 APERTURE END LIST*
D10*
X17079400Y-16632200D02*
X17079400Y-22932200D01*
X29949400Y-17332200D02*
X29949400Y-22932200D01*
X17079400Y-12922200D02*
X17079400Y-14732200D01*
X29949400Y-12922200D02*
X18689400Y-12922200D01*
X29949400Y-14082200D02*
X29949400Y-12922200D01*
X17189400Y-12922200D02*
X17079400Y-12922200D01*
X17378800Y-3501800D02*
X17378800Y-2041800D01*
X14218800Y-3501800D02*
X14218800Y-341800D01*
X14218800Y-3501800D02*
X15148800Y-3501800D01*
X17378800Y-3501800D02*
X16448800Y-3501800D01*
X8138000Y-21819200D02*
X9068000Y-21819200D01*
X11298000Y-21819200D02*
X10368000Y-21819200D01*
X11298000Y-21819200D02*
X11298000Y-24979200D01*
X8138000Y-21819200D02*
X8138000Y-23279200D01*
X8596800Y-12100936D02*
X8596800Y-13305064D01*
X11316800Y-12100936D02*
X11316800Y-13305064D01*
X4604900Y-21822000D02*
X4604900Y-23282000D01*
X7764900Y-21822000D02*
X7764900Y-24982000D01*
X7764900Y-21822000D02*
X6834900Y-21822000D01*
X4604900Y-21822000D02*
X5534900Y-21822000D01*
X20871300Y-3503200D02*
X19941300Y-3503200D01*
X17711300Y-3503200D02*
X18641300Y-3503200D01*
X17711300Y-3503200D02*
X17711300Y-343200D01*
X20871300Y-3503200D02*
X20871300Y-2043200D01*
X8781100Y-3538200D02*
X8781100Y-4798200D01*
X8781100Y-10358200D02*
X8781100Y-9098200D01*
X5021100Y-3538200D02*
X8781100Y-3538200D01*
X2771100Y-10358200D02*
X8781100Y-10358200D01*
D11*
X31338226Y-21419616D02*
X31338226Y-21562473D01*
X31347750Y-21591044D01*
X31366798Y-21610092D01*
X31395369Y-21619616D01*
X31414417Y-21619616D01*
X31262036Y-21419616D02*
X31138226Y-21419616D01*
X31204893Y-21495806D01*
X31176321Y-21495806D01*
X31157274Y-21505330D01*
X31147750Y-21514854D01*
X31138226Y-21533901D01*
X31138226Y-21581520D01*
X31147750Y-21600568D01*
X31157274Y-21610092D01*
X31176321Y-21619616D01*
X31233464Y-21619616D01*
X31252512Y-21610092D01*
X31262036Y-21600568D01*
X17013183Y-4402832D02*
X17003660Y-4383784D01*
X16984612Y-4364737D01*
X16956040Y-4336165D01*
X16946517Y-4317118D01*
X16946517Y-4298070D01*
X16994136Y-4307594D02*
X16984612Y-4288546D01*
X16965564Y-4269499D01*
X16927469Y-4259975D01*
X16860802Y-4259975D01*
X16822707Y-4269499D01*
X16803660Y-4288546D01*
X16794136Y-4307594D01*
X16794136Y-4345689D01*
X16803660Y-4364737D01*
X16822707Y-4383784D01*
X16860802Y-4393308D01*
X16927469Y-4393308D01*
X16965564Y-4383784D01*
X16984612Y-4364737D01*
X16994136Y-4345689D01*
X16994136Y-4307594D01*
X16860802Y-4564737D02*
X16994136Y-4564737D01*
X16784612Y-4517118D02*
X16927469Y-4469499D01*
X16927469Y-4593308D01*
X10950163Y-20824192D02*
X10940640Y-20805144D01*
X10921592Y-20786097D01*
X10893020Y-20757525D01*
X10883497Y-20738478D01*
X10883497Y-20719430D01*
X10931116Y-20728954D02*
X10921592Y-20709906D01*
X10902544Y-20690859D01*
X10864449Y-20681335D01*
X10797782Y-20681335D01*
X10759687Y-20690859D01*
X10740640Y-20709906D01*
X10731116Y-20728954D01*
X10731116Y-20767049D01*
X10740640Y-20786097D01*
X10759687Y-20805144D01*
X10797782Y-20814668D01*
X10864449Y-20814668D01*
X10902544Y-20805144D01*
X10921592Y-20786097D01*
X10931116Y-20767049D01*
X10931116Y-20728954D01*
X10750163Y-20890859D02*
X10740640Y-20900382D01*
X10731116Y-20919430D01*
X10731116Y-20967049D01*
X10740640Y-20986097D01*
X10750163Y-20995620D01*
X10769211Y-21005144D01*
X10788259Y-21005144D01*
X10816830Y-20995620D01*
X10931116Y-20881335D01*
X10931116Y-21005144D01*
X8151168Y-12438526D02*
X8160692Y-12429002D01*
X8170216Y-12400431D01*
X8170216Y-12381383D01*
X8160692Y-12352812D01*
X8141644Y-12333764D01*
X8122597Y-12324240D01*
X8084501Y-12314717D01*
X8055930Y-12314717D01*
X8017835Y-12324240D01*
X7998787Y-12333764D01*
X7979740Y-12352812D01*
X7970216Y-12381383D01*
X7970216Y-12400431D01*
X7979740Y-12429002D01*
X7989263Y-12438526D01*
X7970216Y-12619479D02*
X7970216Y-12524240D01*
X8065454Y-12514717D01*
X8055930Y-12524240D01*
X8046406Y-12543288D01*
X8046406Y-12590907D01*
X8055930Y-12609955D01*
X8065454Y-12619479D01*
X8084501Y-12629002D01*
X8132120Y-12629002D01*
X8151168Y-12619479D01*
X8160692Y-12609955D01*
X8170216Y-12590907D01*
X8170216Y-12543288D01*
X8160692Y-12524240D01*
X8151168Y-12514717D01*
X5087963Y-20839692D02*
X5078440Y-20820644D01*
X5059392Y-20801597D01*
X5030820Y-20773025D01*
X5021297Y-20753978D01*
X5021297Y-20734930D01*
X5068916Y-20744454D02*
X5059392Y-20725406D01*
X5040344Y-20706359D01*
X5002249Y-20696835D01*
X4935582Y-20696835D01*
X4897487Y-20706359D01*
X4878440Y-20725406D01*
X4868916Y-20744454D01*
X4868916Y-20782549D01*
X4878440Y-20801597D01*
X4897487Y-20820644D01*
X4935582Y-20830168D01*
X5002249Y-20830168D01*
X5040344Y-20820644D01*
X5059392Y-20801597D01*
X5068916Y-20782549D01*
X5068916Y-20744454D01*
X5068916Y-21020644D02*
X5068916Y-20906359D01*
X5068916Y-20963501D02*
X4868916Y-20963501D01*
X4897487Y-20944454D01*
X4916535Y-20925406D01*
X4926059Y-20906359D01*
X18364503Y-4361312D02*
X18354980Y-4342264D01*
X18335932Y-4323217D01*
X18307360Y-4294645D01*
X18297837Y-4275598D01*
X18297837Y-4256550D01*
X18345456Y-4266074D02*
X18335932Y-4247026D01*
X18316884Y-4227979D01*
X18278789Y-4218455D01*
X18212122Y-4218455D01*
X18174027Y-4227979D01*
X18154980Y-4247026D01*
X18145456Y-4266074D01*
X18145456Y-4304169D01*
X18154980Y-4323217D01*
X18174027Y-4342264D01*
X18212122Y-4351788D01*
X18278789Y-4351788D01*
X18316884Y-4342264D01*
X18335932Y-4323217D01*
X18345456Y-4304169D01*
X18345456Y-4266074D01*
X18145456Y-4418455D02*
X18145456Y-4542264D01*
X18221646Y-4475598D01*
X18221646Y-4504169D01*
X18231170Y-4523217D01*
X18240694Y-4532740D01*
X18259741Y-4542264D01*
X18307360Y-4542264D01*
X18326408Y-4532740D01*
X18335932Y-4523217D01*
X18345456Y-4504169D01*
X18345456Y-4447026D01*
X18335932Y-4427979D01*
X18326408Y-4418455D01*
X6390620Y-11390356D02*
X6390620Y-11552260D01*
X6381097Y-11571308D01*
X6371573Y-11580832D01*
X6352525Y-11590356D01*
X6314430Y-11590356D01*
X6295382Y-11580832D01*
X6285859Y-11571308D01*
X6276335Y-11552260D01*
X6276335Y-11390356D01*
X6076335Y-11590356D02*
X6190620Y-11590356D01*
X6133478Y-11590356D02*
X6133478Y-11390356D01*
X6152525Y-11418927D01*
X6171573Y-11437975D01*
X6190620Y-11447499D01*
M02*
