G04 #@! TF.GenerationSoftware,KiCad,Pcbnew,(5.1.8)-1*
G04 #@! TF.CreationDate,2020-11-28T11:44:15-05:00*
G04 #@! TF.ProjectId,STM32_SMD_Quadcopter,53544d33-325f-4534-9d44-5f5175616463,rev?*
G04 #@! TF.SameCoordinates,PX2daf690PY1aab7d8*
G04 #@! TF.FileFunction,Legend,Top*
G04 #@! TF.FilePolarity,Positive*
%FSLAX46Y46*%
G04 Gerber Fmt 4.6, Leading zero omitted, Abs format (unit mm)*
G04 Created by KiCad (PCBNEW (5.1.8)-1) date 2020-11-28 11:44:15*
%MOMM*%
%LPD*%
G01*
G04 APERTURE LIST*
%ADD10C,0.100000*%
%ADD11C,0.031750*%
%ADD12C,0.120000*%
%ADD13C,0.150000*%
%ADD14C,0.050000*%
G04 APERTURE END LIST*
D10*
X16518457Y-10552180D02*
X16518457Y-11266466D01*
X16475600Y-11409323D01*
X16389885Y-11504561D01*
X16261314Y-11552180D01*
X16175600Y-11552180D01*
X17375600Y-11552180D02*
X16947028Y-11552180D01*
X16947028Y-10552180D01*
X18189885Y-11456942D02*
X18147028Y-11504561D01*
X18018457Y-11552180D01*
X17932742Y-11552180D01*
X17804171Y-11504561D01*
X17718457Y-11409323D01*
X17675600Y-11314085D01*
X17632742Y-11123609D01*
X17632742Y-10980752D01*
X17675600Y-10790276D01*
X17718457Y-10695038D01*
X17804171Y-10599800D01*
X17932742Y-10552180D01*
X18018457Y-10552180D01*
X18147028Y-10599800D01*
X18189885Y-10647419D01*
X18832742Y-10552180D02*
X18832742Y-11266466D01*
X18789885Y-11409323D01*
X18704171Y-11504561D01*
X18575600Y-11552180D01*
X18489885Y-11552180D01*
X19689885Y-11552180D02*
X19261314Y-11552180D01*
X19261314Y-10552180D01*
X20504171Y-11456942D02*
X20461314Y-11504561D01*
X20332742Y-11552180D01*
X20247028Y-11552180D01*
X20118457Y-11504561D01*
X20032742Y-11409323D01*
X19989885Y-11314085D01*
X19947028Y-11123609D01*
X19947028Y-10980752D01*
X19989885Y-10790276D01*
X20032742Y-10695038D01*
X20118457Y-10599800D01*
X20247028Y-10552180D01*
X20332742Y-10552180D01*
X20461314Y-10599800D01*
X20504171Y-10647419D01*
X21147028Y-10552180D02*
X21147028Y-11266466D01*
X21104171Y-11409323D01*
X21018457Y-11504561D01*
X20889885Y-11552180D01*
X20804171Y-11552180D01*
X22004171Y-11552180D02*
X21575600Y-11552180D01*
X21575600Y-10552180D01*
X22818457Y-11456942D02*
X22775600Y-11504561D01*
X22647028Y-11552180D01*
X22561314Y-11552180D01*
X22432742Y-11504561D01*
X22347028Y-11409323D01*
X22304171Y-11314085D01*
X22261314Y-11123609D01*
X22261314Y-10980752D01*
X22304171Y-10790276D01*
X22347028Y-10695038D01*
X22432742Y-10599800D01*
X22561314Y-10552180D01*
X22647028Y-10552180D01*
X22775600Y-10599800D01*
X22818457Y-10647419D01*
X23461314Y-10552180D02*
X23461314Y-11266466D01*
X23418457Y-11409323D01*
X23332742Y-11504561D01*
X23204171Y-11552180D01*
X23118457Y-11552180D01*
X24318457Y-11552180D02*
X23889885Y-11552180D01*
X23889885Y-10552180D01*
X25132742Y-11456942D02*
X25089885Y-11504561D01*
X24961314Y-11552180D01*
X24875600Y-11552180D01*
X24747028Y-11504561D01*
X24661314Y-11409323D01*
X24618457Y-11314085D01*
X24575600Y-11123609D01*
X24575600Y-10980752D01*
X24618457Y-10790276D01*
X24661314Y-10695038D01*
X24747028Y-10599800D01*
X24875600Y-10552180D01*
X24961314Y-10552180D01*
X25089885Y-10599800D01*
X25132742Y-10647419D01*
D11*
X22650147Y-24026434D02*
X22650147Y-23518434D01*
X22819480Y-23881291D01*
X22988814Y-23518434D01*
X22988814Y-24026434D01*
X23230719Y-24026434D02*
X23230719Y-23687767D01*
X23230719Y-23518434D02*
X23206528Y-23542625D01*
X23230719Y-23566815D01*
X23254909Y-23542625D01*
X23230719Y-23518434D01*
X23230719Y-23566815D01*
X23690338Y-24002244D02*
X23641957Y-24026434D01*
X23545195Y-24026434D01*
X23496814Y-24002244D01*
X23472623Y-23978053D01*
X23448433Y-23929672D01*
X23448433Y-23784529D01*
X23472623Y-23736148D01*
X23496814Y-23711958D01*
X23545195Y-23687767D01*
X23641957Y-23687767D01*
X23690338Y-23711958D01*
X23908052Y-24026434D02*
X23908052Y-23518434D01*
X24125766Y-24026434D02*
X24125766Y-23760339D01*
X24101576Y-23711958D01*
X24053195Y-23687767D01*
X23980623Y-23687767D01*
X23932242Y-23711958D01*
X23908052Y-23736148D01*
X24585385Y-24026434D02*
X24585385Y-23760339D01*
X24561195Y-23711958D01*
X24512814Y-23687767D01*
X24416052Y-23687767D01*
X24367671Y-23711958D01*
X24585385Y-24002244D02*
X24537004Y-24026434D01*
X24416052Y-24026434D01*
X24367671Y-24002244D01*
X24343480Y-23953863D01*
X24343480Y-23905482D01*
X24367671Y-23857101D01*
X24416052Y-23832910D01*
X24537004Y-23832910D01*
X24585385Y-23808720D01*
X25020814Y-24002244D02*
X24972433Y-24026434D01*
X24875671Y-24026434D01*
X24827290Y-24002244D01*
X24803100Y-23953863D01*
X24803100Y-23760339D01*
X24827290Y-23711958D01*
X24875671Y-23687767D01*
X24972433Y-23687767D01*
X25020814Y-23711958D01*
X25045004Y-23760339D01*
X25045004Y-23808720D01*
X24803100Y-23857101D01*
X25335290Y-24026434D02*
X25286909Y-24002244D01*
X25262719Y-23953863D01*
X25262719Y-23518434D01*
X26157766Y-24026434D02*
X25915861Y-24026434D01*
X25915861Y-23518434D01*
X26544814Y-24026434D02*
X26544814Y-23760339D01*
X26520623Y-23711958D01*
X26472242Y-23687767D01*
X26375480Y-23687767D01*
X26327100Y-23711958D01*
X26544814Y-24002244D02*
X26496433Y-24026434D01*
X26375480Y-24026434D01*
X26327100Y-24002244D01*
X26302909Y-23953863D01*
X26302909Y-23905482D01*
X26327100Y-23857101D01*
X26375480Y-23832910D01*
X26496433Y-23832910D01*
X26544814Y-23808720D01*
X26786719Y-23687767D02*
X26786719Y-24026434D01*
X26786719Y-23736148D02*
X26810909Y-23711958D01*
X26859290Y-23687767D01*
X26931861Y-23687767D01*
X26980242Y-23711958D01*
X27004433Y-23760339D01*
X27004433Y-24026434D01*
X27464052Y-23687767D02*
X27464052Y-24099005D01*
X27439861Y-24147386D01*
X27415671Y-24171577D01*
X27367290Y-24195767D01*
X27294719Y-24195767D01*
X27246338Y-24171577D01*
X27464052Y-24002244D02*
X27415671Y-24026434D01*
X27318909Y-24026434D01*
X27270528Y-24002244D01*
X27246338Y-23978053D01*
X27222147Y-23929672D01*
X27222147Y-23784529D01*
X27246338Y-23736148D01*
X27270528Y-23711958D01*
X27318909Y-23687767D01*
X27415671Y-23687767D01*
X27464052Y-23711958D01*
X27633385Y-23687767D02*
X27826909Y-23687767D01*
X27705957Y-24026434D02*
X27705957Y-23591005D01*
X27730147Y-23542625D01*
X27778528Y-23518434D01*
X27826909Y-23518434D01*
X28068814Y-24026434D02*
X28020433Y-24002244D01*
X27996242Y-23978053D01*
X27972052Y-23929672D01*
X27972052Y-23784529D01*
X27996242Y-23736148D01*
X28020433Y-23711958D01*
X28068814Y-23687767D01*
X28141385Y-23687767D01*
X28189766Y-23711958D01*
X28213957Y-23736148D01*
X28238147Y-23784529D01*
X28238147Y-23929672D01*
X28213957Y-23978053D01*
X28189766Y-24002244D01*
X28141385Y-24026434D01*
X28068814Y-24026434D01*
X28455861Y-24026434D02*
X28455861Y-23687767D01*
X28455861Y-23784529D02*
X28480052Y-23736148D01*
X28504242Y-23711958D01*
X28552623Y-23687767D01*
X28601004Y-23687767D01*
X28988052Y-24026434D02*
X28988052Y-23518434D01*
X28988052Y-24002244D02*
X28939671Y-24026434D01*
X28842909Y-24026434D01*
X28794528Y-24002244D01*
X28770338Y-23978053D01*
X28746147Y-23929672D01*
X28746147Y-23784529D01*
X28770338Y-23736148D01*
X28794528Y-23711958D01*
X28842909Y-23687767D01*
X28939671Y-23687767D01*
X28988052Y-23711958D01*
X22976719Y-24820184D02*
X22976719Y-24312184D01*
X23146052Y-24675041D01*
X23315385Y-24312184D01*
X23315385Y-24820184D01*
X23557290Y-24820184D02*
X23557290Y-24481517D01*
X23557290Y-24312184D02*
X23533100Y-24336375D01*
X23557290Y-24360565D01*
X23581480Y-24336375D01*
X23557290Y-24312184D01*
X23557290Y-24360565D01*
X24016909Y-24795994D02*
X23968528Y-24820184D01*
X23871766Y-24820184D01*
X23823385Y-24795994D01*
X23799195Y-24771803D01*
X23775004Y-24723422D01*
X23775004Y-24578279D01*
X23799195Y-24529898D01*
X23823385Y-24505708D01*
X23871766Y-24481517D01*
X23968528Y-24481517D01*
X24016909Y-24505708D01*
X24234623Y-24820184D02*
X24234623Y-24481517D01*
X24234623Y-24578279D02*
X24258814Y-24529898D01*
X24283004Y-24505708D01*
X24331385Y-24481517D01*
X24379766Y-24481517D01*
X24621671Y-24820184D02*
X24573290Y-24795994D01*
X24549100Y-24771803D01*
X24524909Y-24723422D01*
X24524909Y-24578279D01*
X24549100Y-24529898D01*
X24573290Y-24505708D01*
X24621671Y-24481517D01*
X24694242Y-24481517D01*
X24742623Y-24505708D01*
X24766814Y-24529898D01*
X24791004Y-24578279D01*
X24791004Y-24723422D01*
X24766814Y-24771803D01*
X24742623Y-24795994D01*
X24694242Y-24820184D01*
X24621671Y-24820184D01*
X25565100Y-24554089D02*
X25395766Y-24554089D01*
X25395766Y-24820184D02*
X25395766Y-24312184D01*
X25637671Y-24312184D01*
X26121480Y-24771803D02*
X26097290Y-24795994D01*
X26024719Y-24820184D01*
X25976338Y-24820184D01*
X25903766Y-24795994D01*
X25855385Y-24747613D01*
X25831195Y-24699232D01*
X25807004Y-24602470D01*
X25807004Y-24529898D01*
X25831195Y-24433136D01*
X25855385Y-24384755D01*
X25903766Y-24336375D01*
X25976338Y-24312184D01*
X26024719Y-24312184D01*
X26097290Y-24336375D01*
X26121480Y-24360565D01*
X26339195Y-24312184D02*
X26339195Y-24723422D01*
X26363385Y-24771803D01*
X26387576Y-24795994D01*
X26435957Y-24820184D01*
X26532719Y-24820184D01*
X26581100Y-24795994D01*
X26605290Y-24771803D01*
X26629480Y-24723422D01*
X26629480Y-24312184D01*
X27185861Y-24312184D02*
X27355195Y-24820184D01*
X27524528Y-24312184D01*
X27790623Y-24312184D02*
X27839004Y-24312184D01*
X27887385Y-24336375D01*
X27911576Y-24360565D01*
X27935766Y-24408946D01*
X27959957Y-24505708D01*
X27959957Y-24626660D01*
X27935766Y-24723422D01*
X27911576Y-24771803D01*
X27887385Y-24795994D01*
X27839004Y-24820184D01*
X27790623Y-24820184D01*
X27742242Y-24795994D01*
X27718052Y-24771803D01*
X27693861Y-24723422D01*
X27669671Y-24626660D01*
X27669671Y-24505708D01*
X27693861Y-24408946D01*
X27718052Y-24360565D01*
X27742242Y-24336375D01*
X27790623Y-24312184D01*
X28177671Y-24771803D02*
X28201861Y-24795994D01*
X28177671Y-24820184D01*
X28153480Y-24795994D01*
X28177671Y-24771803D01*
X28177671Y-24820184D01*
X28516338Y-24312184D02*
X28564719Y-24312184D01*
X28613100Y-24336375D01*
X28637290Y-24360565D01*
X28661480Y-24408946D01*
X28685671Y-24505708D01*
X28685671Y-24626660D01*
X28661480Y-24723422D01*
X28637290Y-24771803D01*
X28613100Y-24795994D01*
X28564719Y-24820184D01*
X28516338Y-24820184D01*
X28467957Y-24795994D01*
X28443766Y-24771803D01*
X28419576Y-24723422D01*
X28395385Y-24626660D01*
X28395385Y-24505708D01*
X28419576Y-24408946D01*
X28443766Y-24360565D01*
X28467957Y-24336375D01*
X28516338Y-24312184D01*
D12*
X32772236Y-23084200D02*
X32556564Y-23084200D01*
X32772236Y-23804200D02*
X32556564Y-23804200D01*
D13*
X34808600Y-18178700D02*
X34283600Y-18178700D01*
X34808600Y-22478700D02*
X34283600Y-22478700D01*
X30508600Y-22478700D02*
X31033600Y-22478700D01*
X30508600Y-18178700D02*
X31033600Y-18178700D01*
X34808600Y-22478700D02*
X34808600Y-21953700D01*
X30508600Y-22478700D02*
X30508600Y-21953700D01*
X34808600Y-18178700D02*
X34808600Y-18703700D01*
D12*
X5945600Y-8727121D02*
X5945600Y-9052679D01*
X4925600Y-8727121D02*
X4925600Y-9052679D01*
D13*
X15729200Y-7398000D02*
X15729200Y-8398000D01*
X26079200Y-7398000D02*
X26079200Y-8473000D01*
X26079200Y-17748000D02*
X26079200Y-16673000D01*
X15729200Y-17748000D02*
X15729200Y-16673000D01*
X15729200Y-7398000D02*
X16804200Y-7398000D01*
X15729200Y-17748000D02*
X16804200Y-17748000D01*
X26079200Y-17748000D02*
X25004200Y-17748000D01*
X26079200Y-7398000D02*
X25004200Y-7398000D01*
X15729200Y-8398000D02*
X14704200Y-8398000D01*
D12*
X10238800Y-15115600D02*
X9588800Y-15115600D01*
X6118800Y-10995600D02*
X6768800Y-10995600D01*
X6118800Y-15115600D02*
X6768800Y-15115600D01*
X6118800Y-10995600D02*
X6118800Y-11645600D01*
X6118800Y-15115600D02*
X6118800Y-14465600D01*
X10238800Y-15115600D02*
X10238800Y-14465600D01*
X10238800Y-10995600D02*
X10238800Y-11645600D01*
X27815000Y-1615321D02*
X27815000Y-1940879D01*
X26795000Y-1615321D02*
X26795000Y-1940879D01*
X12486521Y-8942800D02*
X12812079Y-8942800D01*
X12486521Y-7922800D02*
X12812079Y-7922800D01*
X16304800Y-1686679D02*
X16304800Y-1361121D01*
X17324800Y-1686679D02*
X17324800Y-1361121D01*
X16200Y-5216200D02*
X2676200Y-5216200D01*
X16200Y-2616200D02*
X16200Y-5216200D01*
X2676200Y-2616200D02*
X2676200Y-5216200D01*
X16200Y-2616200D02*
X2676200Y-2616200D01*
X16200Y-1346200D02*
X16200Y-16200D01*
X16200Y-16200D02*
X1346200Y-16200D01*
X54300Y-8890000D02*
X314300Y-8890000D01*
X2594300Y-8890000D02*
X4364300Y-8890000D01*
X4364300Y-8890000D02*
X4364300Y-9270000D01*
X4364300Y-16510000D02*
X2594300Y-16510000D01*
X314300Y-16510000D02*
X54300Y-16510000D01*
X4364300Y-16510000D02*
X4364300Y-16130000D01*
X14408100Y-20325200D02*
X11723100Y-20325200D01*
X14408100Y-22245200D02*
X14408100Y-20325200D01*
X11723100Y-22245200D02*
X14408100Y-22245200D01*
X23085300Y-2634100D02*
X20400300Y-2634100D01*
X20400300Y-2634100D02*
X20400300Y-4554100D01*
X20400300Y-4554100D02*
X23085300Y-4554100D01*
X28627800Y-17714079D02*
X28627800Y-17388521D01*
X27607800Y-17714079D02*
X27607800Y-17388521D01*
X23484521Y-19543300D02*
X23810079Y-19543300D01*
X23484521Y-20563300D02*
X23810079Y-20563300D01*
X11243600Y-4668400D02*
X13928600Y-4668400D01*
X11243600Y-2748400D02*
X11243600Y-4668400D01*
X13928600Y-2748400D02*
X11243600Y-2748400D01*
X6983000Y-3236279D02*
X6983000Y-2910721D01*
X8003000Y-3236279D02*
X8003000Y-2910721D01*
X2349300Y-5284800D02*
X64300Y-5284800D01*
X64300Y-5284800D02*
X64300Y-6754800D01*
X64300Y-6754800D02*
X2349300Y-6754800D01*
X11164100Y-7669200D02*
X13449100Y-7669200D01*
X11164100Y-6199200D02*
X11164100Y-7669200D01*
X13449100Y-6199200D02*
X11164100Y-6199200D01*
X4405900Y-20325200D02*
X1720900Y-20325200D01*
X1720900Y-20325200D02*
X1720900Y-22245200D01*
X1720900Y-22245200D02*
X4405900Y-22245200D01*
X14096000Y-16333800D02*
X11811000Y-16333800D01*
X14096000Y-17803800D02*
X14096000Y-16333800D01*
X11811000Y-17803800D02*
X14096000Y-17803800D01*
X8355000Y-9689900D02*
X8355000Y-7404900D01*
X8355000Y-7404900D02*
X6885000Y-7404900D01*
X6885000Y-7404900D02*
X6885000Y-9689900D01*
X4655489Y-24841302D02*
X4655489Y-22721302D01*
X2595489Y-24841302D02*
X4655489Y-24841302D01*
X2595489Y-22721302D02*
X4655489Y-22721302D01*
X2595489Y-24841302D02*
X2595489Y-22721302D01*
X1595489Y-24841302D02*
X535489Y-24841302D01*
X535489Y-24841302D02*
X535489Y-23781302D01*
X15614200Y-22701700D02*
X15614200Y-23761700D01*
X14554200Y-22701700D02*
X15614200Y-22701700D01*
X13554200Y-22701700D02*
X13554200Y-24821700D01*
X13554200Y-24821700D02*
X11494200Y-24821700D01*
X13554200Y-22701700D02*
X11494200Y-22701700D01*
X11494200Y-22701700D02*
X11494200Y-24821700D01*
X24878600Y-2596700D02*
X24878600Y-476700D01*
X22818600Y-2596700D02*
X24878600Y-2596700D01*
X22818600Y-476700D02*
X24878600Y-476700D01*
X22818600Y-2596700D02*
X22818600Y-476700D01*
X21818600Y-2596700D02*
X20758600Y-2596700D01*
X20758600Y-2596700D02*
X20758600Y-1536700D01*
X10065200Y-2596700D02*
X10065200Y-1536700D01*
X11125200Y-2596700D02*
X10065200Y-2596700D01*
X12125200Y-2596700D02*
X12125200Y-476700D01*
X12125200Y-476700D02*
X14185200Y-476700D01*
X12125200Y-2596700D02*
X14185200Y-2596700D01*
X14185200Y-2596700D02*
X14185200Y-476700D01*
X6377400Y-23586121D02*
X6377400Y-23911679D01*
X5357400Y-23586121D02*
X5357400Y-23911679D01*
X6830600Y-23586321D02*
X6830600Y-23911879D01*
X7850600Y-23586321D02*
X7850600Y-23911879D01*
X1712079Y-6995700D02*
X1386521Y-6995700D01*
X1712079Y-8015700D02*
X1386521Y-8015700D01*
X9916700Y-7833479D02*
X9916700Y-7507921D01*
X10936700Y-7833479D02*
X10936700Y-7507921D01*
X10797000Y-23586121D02*
X10797000Y-23911679D01*
X9777000Y-23586121D02*
X9777000Y-23911679D01*
X8303800Y-23586221D02*
X8303800Y-23911779D01*
X9323800Y-23586221D02*
X9323800Y-23911779D01*
X20245800Y-1686779D02*
X20245800Y-1361221D01*
X19225800Y-1686779D02*
X19225800Y-1361221D01*
X17765300Y-1686879D02*
X17765300Y-1361321D01*
X18785300Y-1686879D02*
X18785300Y-1361321D01*
X15864300Y-1686779D02*
X15864300Y-1361221D01*
X14844300Y-1686779D02*
X14844300Y-1361221D01*
X12773879Y-15098300D02*
X12448321Y-15098300D01*
X12773879Y-16118300D02*
X12448321Y-16118300D01*
X36209700Y-11267221D02*
X36209700Y-11592779D01*
X35189700Y-11267221D02*
X35189700Y-11592779D01*
X31067000Y-13139600D02*
X31067000Y-13439600D01*
X31067000Y-13439600D02*
X34367000Y-13439600D01*
X34367000Y-13439600D02*
X34367000Y-13139600D01*
X31067000Y-10939600D02*
X31067000Y-10639600D01*
X31067000Y-10639600D02*
X34367000Y-10639600D01*
X34367000Y-10639600D02*
X34367000Y-10939600D01*
X6840000Y-1317600D02*
X6090000Y-1317600D01*
X3320000Y-1317600D02*
X4070000Y-1317600D01*
X3320000Y-3948163D02*
X3320000Y-1317600D01*
X6840000Y-3948163D02*
X6840000Y-1317600D01*
X4070000Y-4698163D02*
X3320000Y-3948163D01*
X6090000Y-4698163D02*
X6840000Y-3948163D01*
X28128500Y-8803321D02*
X28128500Y-9128879D01*
X29148500Y-8803321D02*
X29148500Y-9128879D01*
X12761279Y-14632400D02*
X12435721Y-14632400D01*
X12761279Y-13612400D02*
X12435721Y-13612400D01*
X36255000Y-2803200D02*
X36255000Y-143200D01*
X31115000Y-2803200D02*
X36255000Y-2803200D01*
X31115000Y-143200D02*
X36255000Y-143200D01*
X31115000Y-2803200D02*
X31115000Y-143200D01*
X29845000Y-2803200D02*
X28515000Y-2803200D01*
X28515000Y-2803200D02*
X28515000Y-1473200D01*
X17071021Y-24868600D02*
X17396579Y-24868600D01*
X17071021Y-23848600D02*
X17396579Y-23848600D01*
X20055621Y-23848600D02*
X20381179Y-23848600D01*
X20055621Y-24868600D02*
X20381179Y-24868600D01*
X31563000Y-3343600D02*
X34223000Y-3343600D01*
X34223000Y-3343600D02*
X34223000Y-3403600D01*
X34223000Y-9753600D02*
X34223000Y-9813600D01*
X31563000Y-9813600D02*
X34223000Y-9813600D01*
X31563000Y-3343600D02*
X31563000Y-3403600D01*
X31563000Y-9753600D02*
X31563000Y-9813600D01*
X34223000Y-3403600D02*
X35683000Y-3403600D01*
X14299200Y-9277600D02*
X10999200Y-9277600D01*
X10999200Y-9277600D02*
X10999200Y-13277600D01*
X6910041Y-16269700D02*
X6602759Y-16269700D01*
X6910041Y-17029700D02*
X6602759Y-17029700D01*
X5482000Y-20285764D02*
X5482000Y-20501436D01*
X6202000Y-20285764D02*
X6202000Y-20501436D01*
X10469200Y-20298464D02*
X10469200Y-20514136D01*
X9749200Y-20298464D02*
X9749200Y-20514136D01*
X34601036Y-23804200D02*
X34385364Y-23804200D01*
X34601036Y-23084200D02*
X34385364Y-23084200D01*
X24667800Y-4187136D02*
X24667800Y-3971464D01*
X23947800Y-4187136D02*
X23947800Y-3971464D01*
X17445936Y-20747400D02*
X17230264Y-20747400D01*
X17445936Y-21467400D02*
X17230264Y-21467400D01*
X8830136Y-16315100D02*
X8614464Y-16315100D01*
X8830136Y-17035100D02*
X8614464Y-17035100D01*
X14867300Y-4105736D02*
X14867300Y-3890064D01*
X15587300Y-4105736D02*
X15587300Y-3890064D01*
X30727764Y-23084200D02*
X30943436Y-23084200D01*
X30727764Y-23804200D02*
X30943436Y-23804200D01*
X33342948Y-17435500D02*
X33865452Y-17435500D01*
X33342948Y-15965500D02*
X33865452Y-15965500D01*
X30128442Y-15965700D02*
X30602958Y-15965700D01*
X30128442Y-14920700D02*
X30602958Y-14920700D01*
X30141142Y-16432000D02*
X30615658Y-16432000D01*
X30141142Y-17477000D02*
X30615658Y-17477000D01*
D14*
X32535828Y-24675628D02*
X32526304Y-24685152D01*
X32497733Y-24694676D01*
X32478685Y-24694676D01*
X32450114Y-24685152D01*
X32431066Y-24666104D01*
X32421542Y-24647057D01*
X32412019Y-24608961D01*
X32412019Y-24580390D01*
X32421542Y-24542295D01*
X32431066Y-24523247D01*
X32450114Y-24504200D01*
X32478685Y-24494676D01*
X32497733Y-24494676D01*
X32526304Y-24504200D01*
X32535828Y-24513723D01*
X32726304Y-24694676D02*
X32612019Y-24694676D01*
X32669161Y-24694676D02*
X32669161Y-24494676D01*
X32650114Y-24523247D01*
X32631066Y-24542295D01*
X32612019Y-24551819D01*
X32916780Y-24694676D02*
X32802495Y-24694676D01*
X32859638Y-24694676D02*
X32859638Y-24494676D01*
X32840590Y-24523247D01*
X32821542Y-24542295D01*
X32802495Y-24551819D01*
X32506219Y-16844176D02*
X32506219Y-17006080D01*
X32515742Y-17025128D01*
X32525266Y-17034652D01*
X32544314Y-17044176D01*
X32582409Y-17044176D01*
X32601457Y-17034652D01*
X32610980Y-17025128D01*
X32620504Y-17006080D01*
X32620504Y-16844176D01*
X32810980Y-16844176D02*
X32715742Y-16844176D01*
X32706219Y-16939414D01*
X32715742Y-16929890D01*
X32734790Y-16920366D01*
X32782409Y-16920366D01*
X32801457Y-16929890D01*
X32810980Y-16939414D01*
X32820504Y-16958461D01*
X32820504Y-17006080D01*
X32810980Y-17025128D01*
X32801457Y-17034652D01*
X32782409Y-17044176D01*
X32734790Y-17044176D01*
X32715742Y-17034652D01*
X32706219Y-17025128D01*
X5353356Y-10951411D02*
X5258118Y-11018078D01*
X5353356Y-11065697D02*
X5153356Y-11065697D01*
X5153356Y-10989506D01*
X5162880Y-10970459D01*
X5172403Y-10960935D01*
X5191451Y-10951411D01*
X5220022Y-10951411D01*
X5239070Y-10960935D01*
X5248594Y-10970459D01*
X5258118Y-10989506D01*
X5258118Y-11065697D01*
X5353356Y-10760935D02*
X5353356Y-10875220D01*
X5353356Y-10818078D02*
X5153356Y-10818078D01*
X5181927Y-10837125D01*
X5200975Y-10856173D01*
X5210499Y-10875220D01*
X5153356Y-10589506D02*
X5153356Y-10627601D01*
X5162880Y-10646649D01*
X5172403Y-10656173D01*
X5200975Y-10675220D01*
X5239070Y-10684744D01*
X5315260Y-10684744D01*
X5334308Y-10675220D01*
X5343832Y-10665697D01*
X5353356Y-10646649D01*
X5353356Y-10608554D01*
X5343832Y-10589506D01*
X5334308Y-10579982D01*
X5315260Y-10570459D01*
X5267641Y-10570459D01*
X5248594Y-10579982D01*
X5239070Y-10589506D01*
X5229546Y-10608554D01*
X5229546Y-10646649D01*
X5239070Y-10665697D01*
X5248594Y-10675220D01*
X5267641Y-10684744D01*
X15008879Y-7792416D02*
X15008879Y-7954320D01*
X15018402Y-7973368D01*
X15027926Y-7982892D01*
X15046974Y-7992416D01*
X15085069Y-7992416D01*
X15104117Y-7982892D01*
X15113640Y-7973368D01*
X15123164Y-7954320D01*
X15123164Y-7792416D01*
X15304117Y-7859082D02*
X15304117Y-7992416D01*
X15256498Y-7782892D02*
X15208879Y-7925749D01*
X15332688Y-7925749D01*
X4830776Y-11615400D02*
X4992680Y-11615400D01*
X5011728Y-11605877D01*
X5021252Y-11596353D01*
X5030776Y-11577305D01*
X5030776Y-11539210D01*
X5021252Y-11520162D01*
X5011728Y-11510639D01*
X4992680Y-11501115D01*
X4830776Y-11501115D01*
X4830776Y-11424924D02*
X4830776Y-11301115D01*
X4906966Y-11367781D01*
X4906966Y-11339210D01*
X4916490Y-11320162D01*
X4926014Y-11310639D01*
X4945061Y-11301115D01*
X4992680Y-11301115D01*
X5011728Y-11310639D01*
X5021252Y-11320162D01*
X5030776Y-11339210D01*
X5030776Y-11396353D01*
X5021252Y-11415400D01*
X5011728Y-11424924D01*
X27415796Y-3571653D02*
X27320558Y-3638320D01*
X27415796Y-3685939D02*
X27215796Y-3685939D01*
X27215796Y-3609748D01*
X27225320Y-3590700D01*
X27234843Y-3581177D01*
X27253891Y-3571653D01*
X27282462Y-3571653D01*
X27301510Y-3581177D01*
X27311034Y-3590700D01*
X27320558Y-3609748D01*
X27320558Y-3685939D01*
X27234843Y-3495462D02*
X27225320Y-3485939D01*
X27215796Y-3466891D01*
X27215796Y-3419272D01*
X27225320Y-3400224D01*
X27234843Y-3390700D01*
X27253891Y-3381177D01*
X27272939Y-3381177D01*
X27301510Y-3390700D01*
X27415796Y-3504986D01*
X27415796Y-3381177D01*
X10112908Y-8549948D02*
X10103384Y-8559472D01*
X10074813Y-8568996D01*
X10055765Y-8568996D01*
X10027194Y-8559472D01*
X10008146Y-8540424D01*
X9998622Y-8521377D01*
X9989099Y-8483281D01*
X9989099Y-8454710D01*
X9998622Y-8416615D01*
X10008146Y-8397567D01*
X10027194Y-8378520D01*
X10055765Y-8368996D01*
X10074813Y-8368996D01*
X10103384Y-8378520D01*
X10112908Y-8388043D01*
X10189099Y-8388043D02*
X10198622Y-8378520D01*
X10217670Y-8368996D01*
X10265289Y-8368996D01*
X10284337Y-8378520D01*
X10293860Y-8388043D01*
X10303384Y-8407091D01*
X10303384Y-8426139D01*
X10293860Y-8454710D01*
X10179575Y-8568996D01*
X10303384Y-8568996D01*
X10427194Y-8368996D02*
X10446241Y-8368996D01*
X10465289Y-8378520D01*
X10474813Y-8388043D01*
X10484337Y-8407091D01*
X10493860Y-8445186D01*
X10493860Y-8492805D01*
X10484337Y-8530900D01*
X10474813Y-8549948D01*
X10465289Y-8559472D01*
X10446241Y-8568996D01*
X10427194Y-8568996D01*
X10408146Y-8559472D01*
X10398622Y-8549948D01*
X10389099Y-8530900D01*
X10379575Y-8492805D01*
X10379575Y-8445186D01*
X10389099Y-8407091D01*
X10398622Y-8388043D01*
X10408146Y-8378520D01*
X10427194Y-8368996D01*
X17994936Y-1487371D02*
X17899698Y-1554038D01*
X17994936Y-1601657D02*
X17794936Y-1601657D01*
X17794936Y-1525466D01*
X17804460Y-1506419D01*
X17813983Y-1496895D01*
X17833031Y-1487371D01*
X17861602Y-1487371D01*
X17880650Y-1496895D01*
X17890174Y-1506419D01*
X17899698Y-1525466D01*
X17899698Y-1601657D01*
X17994936Y-1296895D02*
X17994936Y-1411180D01*
X17994936Y-1354038D02*
X17794936Y-1354038D01*
X17823507Y-1373085D01*
X17842555Y-1392133D01*
X17852079Y-1411180D01*
X17861602Y-1125466D02*
X17994936Y-1125466D01*
X17785412Y-1173085D02*
X17928269Y-1220704D01*
X17928269Y-1096895D01*
X873456Y-5855326D02*
X1016313Y-5855326D01*
X1044884Y-5864850D01*
X1063932Y-5883898D01*
X1073456Y-5912469D01*
X1073456Y-5931517D01*
X1073456Y-5655326D02*
X1073456Y-5769612D01*
X1073456Y-5712469D02*
X873456Y-5712469D01*
X902027Y-5731517D01*
X921075Y-5750564D01*
X930599Y-5769612D01*
X456896Y-17468206D02*
X599753Y-17468206D01*
X628324Y-17477730D01*
X647372Y-17496778D01*
X656896Y-17525349D01*
X656896Y-17544397D01*
X475943Y-17382492D02*
X466420Y-17372968D01*
X456896Y-17353920D01*
X456896Y-17306301D01*
X466420Y-17287254D01*
X475943Y-17277730D01*
X494991Y-17268206D01*
X514039Y-17268206D01*
X542610Y-17277730D01*
X656896Y-17392016D01*
X656896Y-17268206D01*
X13604180Y-19963436D02*
X13604180Y-19763436D01*
X13651800Y-19763436D01*
X13680371Y-19772960D01*
X13699419Y-19792007D01*
X13708942Y-19811055D01*
X13718466Y-19849150D01*
X13718466Y-19877721D01*
X13708942Y-19915817D01*
X13699419Y-19934864D01*
X13680371Y-19953912D01*
X13651800Y-19963436D01*
X13604180Y-19963436D01*
X13889895Y-19830102D02*
X13889895Y-19963436D01*
X13842276Y-19753912D02*
X13794657Y-19896769D01*
X13918466Y-19896769D01*
X20451780Y-2226616D02*
X20451780Y-2026616D01*
X20499400Y-2026616D01*
X20527971Y-2036140D01*
X20547019Y-2055187D01*
X20556542Y-2074235D01*
X20566066Y-2112330D01*
X20566066Y-2140901D01*
X20556542Y-2178997D01*
X20547019Y-2198044D01*
X20527971Y-2217092D01*
X20499400Y-2226616D01*
X20451780Y-2226616D01*
X20747019Y-2026616D02*
X20651780Y-2026616D01*
X20642257Y-2121854D01*
X20651780Y-2112330D01*
X20670828Y-2102806D01*
X20718447Y-2102806D01*
X20737495Y-2112330D01*
X20747019Y-2121854D01*
X20756542Y-2140901D01*
X20756542Y-2188520D01*
X20747019Y-2207568D01*
X20737495Y-2217092D01*
X20718447Y-2226616D01*
X20670828Y-2226616D01*
X20651780Y-2217092D01*
X20642257Y-2207568D01*
X27030988Y-18322491D02*
X27040512Y-18332015D01*
X27050036Y-18360586D01*
X27050036Y-18379634D01*
X27040512Y-18408205D01*
X27021464Y-18427253D01*
X27002417Y-18436777D01*
X26964321Y-18446300D01*
X26935750Y-18446300D01*
X26897655Y-18436777D01*
X26878607Y-18427253D01*
X26859560Y-18408205D01*
X26850036Y-18379634D01*
X26850036Y-18360586D01*
X26859560Y-18332015D01*
X26869083Y-18322491D01*
X27050036Y-18132015D02*
X27050036Y-18246300D01*
X27050036Y-18189158D02*
X26850036Y-18189158D01*
X26878607Y-18208205D01*
X26897655Y-18227253D01*
X26907179Y-18246300D01*
X26935750Y-18017729D02*
X26926226Y-18036777D01*
X26916702Y-18046300D01*
X26897655Y-18055824D01*
X26888131Y-18055824D01*
X26869083Y-18046300D01*
X26859560Y-18036777D01*
X26850036Y-18017729D01*
X26850036Y-17979634D01*
X26859560Y-17960586D01*
X26869083Y-17951062D01*
X26888131Y-17941539D01*
X26897655Y-17941539D01*
X26916702Y-17951062D01*
X26926226Y-17960586D01*
X26935750Y-17979634D01*
X26935750Y-18017729D01*
X26945274Y-18036777D01*
X26954798Y-18046300D01*
X26973845Y-18055824D01*
X27011940Y-18055824D01*
X27030988Y-18046300D01*
X27040512Y-18036777D01*
X27050036Y-18017729D01*
X27050036Y-17979634D01*
X27040512Y-17960586D01*
X27030988Y-17951062D01*
X27011940Y-17941539D01*
X26973845Y-17941539D01*
X26954798Y-17951062D01*
X26945274Y-17960586D01*
X26935750Y-17979634D01*
X23130208Y-19164608D02*
X23120684Y-19174132D01*
X23092113Y-19183656D01*
X23073065Y-19183656D01*
X23044494Y-19174132D01*
X23025446Y-19155084D01*
X23015922Y-19136037D01*
X23006399Y-19097941D01*
X23006399Y-19069370D01*
X23015922Y-19031275D01*
X23025446Y-19012227D01*
X23044494Y-18993180D01*
X23073065Y-18983656D01*
X23092113Y-18983656D01*
X23120684Y-18993180D01*
X23130208Y-19002703D01*
X23206399Y-19002703D02*
X23215922Y-18993180D01*
X23234970Y-18983656D01*
X23282589Y-18983656D01*
X23301637Y-18993180D01*
X23311160Y-19002703D01*
X23320684Y-19021751D01*
X23320684Y-19040799D01*
X23311160Y-19069370D01*
X23196875Y-19183656D01*
X23320684Y-19183656D01*
X23396875Y-19002703D02*
X23406399Y-18993180D01*
X23425446Y-18983656D01*
X23473065Y-18983656D01*
X23492113Y-18993180D01*
X23501637Y-19002703D01*
X23511160Y-19021751D01*
X23511160Y-19040799D01*
X23501637Y-19069370D01*
X23387351Y-19183656D01*
X23511160Y-19183656D01*
X10652460Y-4411016D02*
X10652460Y-4211016D01*
X10700080Y-4211016D01*
X10728651Y-4220540D01*
X10747699Y-4239587D01*
X10757222Y-4258635D01*
X10766746Y-4296730D01*
X10766746Y-4325301D01*
X10757222Y-4363397D01*
X10747699Y-4382444D01*
X10728651Y-4401492D01*
X10700080Y-4411016D01*
X10652460Y-4411016D01*
X10938175Y-4211016D02*
X10900080Y-4211016D01*
X10881032Y-4220540D01*
X10871508Y-4230063D01*
X10852460Y-4258635D01*
X10842937Y-4296730D01*
X10842937Y-4372920D01*
X10852460Y-4391968D01*
X10861984Y-4401492D01*
X10881032Y-4411016D01*
X10919127Y-4411016D01*
X10938175Y-4401492D01*
X10947699Y-4391968D01*
X10957222Y-4372920D01*
X10957222Y-4325301D01*
X10947699Y-4306254D01*
X10938175Y-4296730D01*
X10919127Y-4287206D01*
X10881032Y-4287206D01*
X10861984Y-4296730D01*
X10852460Y-4306254D01*
X10842937Y-4325301D01*
X7536488Y-1506533D02*
X7546012Y-1516057D01*
X7555536Y-1544628D01*
X7555536Y-1563676D01*
X7546012Y-1592247D01*
X7526964Y-1611295D01*
X7507917Y-1620819D01*
X7469821Y-1630342D01*
X7441250Y-1630342D01*
X7403155Y-1620819D01*
X7384107Y-1611295D01*
X7365060Y-1592247D01*
X7355536Y-1563676D01*
X7355536Y-1544628D01*
X7365060Y-1516057D01*
X7374583Y-1506533D01*
X7355536Y-1335104D02*
X7355536Y-1373200D01*
X7365060Y-1392247D01*
X7374583Y-1401771D01*
X7403155Y-1420819D01*
X7441250Y-1430342D01*
X7517440Y-1430342D01*
X7536488Y-1420819D01*
X7546012Y-1411295D01*
X7555536Y-1392247D01*
X7555536Y-1354152D01*
X7546012Y-1335104D01*
X7536488Y-1325580D01*
X7517440Y-1316057D01*
X7469821Y-1316057D01*
X7450774Y-1325580D01*
X7441250Y-1335104D01*
X7431726Y-1354152D01*
X7431726Y-1392247D01*
X7441250Y-1411295D01*
X7450774Y-1420819D01*
X7469821Y-1430342D01*
X-881780Y-5216196D02*
X-881780Y-5016196D01*
X-834160Y-5016196D01*
X-805589Y-5025720D01*
X-786541Y-5044767D01*
X-777018Y-5063815D01*
X-767494Y-5101910D01*
X-767494Y-5130481D01*
X-777018Y-5168577D01*
X-786541Y-5187624D01*
X-805589Y-5206672D01*
X-834160Y-5216196D01*
X-881780Y-5216196D01*
X-577018Y-5216196D02*
X-691303Y-5216196D01*
X-634160Y-5216196D02*
X-634160Y-5016196D01*
X-653208Y-5044767D01*
X-672256Y-5063815D01*
X-691303Y-5073339D01*
X10528000Y-7070396D02*
X10528000Y-6870396D01*
X10575620Y-6870396D01*
X10604191Y-6879920D01*
X10623239Y-6898967D01*
X10632762Y-6918015D01*
X10642286Y-6956110D01*
X10642286Y-6984681D01*
X10632762Y-7022777D01*
X10623239Y-7041824D01*
X10604191Y-7060872D01*
X10575620Y-7070396D01*
X10528000Y-7070396D01*
X10718477Y-6889443D02*
X10728000Y-6879920D01*
X10747048Y-6870396D01*
X10794667Y-6870396D01*
X10813715Y-6879920D01*
X10823239Y-6889443D01*
X10832762Y-6908491D01*
X10832762Y-6927539D01*
X10823239Y-6956110D01*
X10708953Y-7070396D01*
X10832762Y-7070396D01*
X974820Y-21685556D02*
X974820Y-21485556D01*
X1022440Y-21485556D01*
X1051011Y-21495080D01*
X1070059Y-21514127D01*
X1079582Y-21533175D01*
X1089106Y-21571270D01*
X1089106Y-21599841D01*
X1079582Y-21637937D01*
X1070059Y-21656984D01*
X1051011Y-21676032D01*
X1022440Y-21685556D01*
X974820Y-21685556D01*
X1155773Y-21485556D02*
X1279582Y-21485556D01*
X1212916Y-21561746D01*
X1241487Y-21561746D01*
X1260535Y-21571270D01*
X1270059Y-21580794D01*
X1279582Y-21599841D01*
X1279582Y-21647460D01*
X1270059Y-21666508D01*
X1260535Y-21676032D01*
X1241487Y-21685556D01*
X1184344Y-21685556D01*
X1165297Y-21676032D01*
X1155773Y-21666508D01*
X10479740Y-17151656D02*
X10479740Y-16951656D01*
X10527360Y-16951656D01*
X10555931Y-16961180D01*
X10574979Y-16980227D01*
X10584502Y-16999275D01*
X10594026Y-17037370D01*
X10594026Y-17065941D01*
X10584502Y-17104037D01*
X10574979Y-17123084D01*
X10555931Y-17142132D01*
X10527360Y-17151656D01*
X10479740Y-17151656D01*
X10660693Y-16951656D02*
X10794026Y-16951656D01*
X10708312Y-17151656D01*
X7705396Y-11064339D02*
X7505396Y-11064339D01*
X7505396Y-11016720D01*
X7514920Y-10988148D01*
X7533967Y-10969100D01*
X7553015Y-10959577D01*
X7591110Y-10950053D01*
X7619681Y-10950053D01*
X7657777Y-10959577D01*
X7676824Y-10969100D01*
X7695872Y-10988148D01*
X7705396Y-11016720D01*
X7705396Y-11064339D01*
X7591110Y-10835767D02*
X7581586Y-10854815D01*
X7572062Y-10864339D01*
X7553015Y-10873862D01*
X7543491Y-10873862D01*
X7524443Y-10864339D01*
X7514920Y-10854815D01*
X7505396Y-10835767D01*
X7505396Y-10797672D01*
X7514920Y-10778624D01*
X7524443Y-10769100D01*
X7543491Y-10759577D01*
X7553015Y-10759577D01*
X7572062Y-10769100D01*
X7581586Y-10778624D01*
X7591110Y-10797672D01*
X7591110Y-10835767D01*
X7600634Y-10854815D01*
X7610158Y-10864339D01*
X7629205Y-10873862D01*
X7667300Y-10873862D01*
X7686348Y-10864339D01*
X7695872Y-10854815D01*
X7705396Y-10835767D01*
X7705396Y-10797672D01*
X7695872Y-10778624D01*
X7686348Y-10769100D01*
X7667300Y-10759577D01*
X7629205Y-10759577D01*
X7610158Y-10769100D01*
X7600634Y-10778624D01*
X7591110Y-10797672D01*
X-301605Y-24294136D02*
X-301605Y-24094136D01*
X-234939Y-24236993D01*
X-168272Y-24094136D01*
X-168272Y-24294136D01*
X31728Y-24294136D02*
X-82558Y-24294136D01*
X-25415Y-24294136D02*
X-25415Y-24094136D01*
X-44462Y-24122707D01*
X-63510Y-24141755D01*
X-82558Y-24151279D01*
X10780472Y-24360612D02*
X10780472Y-24160612D01*
X10847138Y-24303469D01*
X10913805Y-24160612D01*
X10913805Y-24360612D01*
X10999519Y-24179659D02*
X11009043Y-24170136D01*
X11028091Y-24160612D01*
X11075710Y-24160612D01*
X11094757Y-24170136D01*
X11104281Y-24179659D01*
X11113805Y-24198707D01*
X11113805Y-24217755D01*
X11104281Y-24246326D01*
X10989996Y-24360612D01*
X11113805Y-24360612D01*
X25128875Y-2371396D02*
X25128875Y-2171396D01*
X25195541Y-2314253D01*
X25262208Y-2171396D01*
X25262208Y-2371396D01*
X25338399Y-2171396D02*
X25462208Y-2171396D01*
X25395541Y-2247586D01*
X25424113Y-2247586D01*
X25443160Y-2257110D01*
X25452684Y-2266634D01*
X25462208Y-2285681D01*
X25462208Y-2333300D01*
X25452684Y-2352348D01*
X25443160Y-2361872D01*
X25424113Y-2371396D01*
X25366970Y-2371396D01*
X25347922Y-2361872D01*
X25338399Y-2352348D01*
X14813935Y-1070916D02*
X14813935Y-870916D01*
X14880601Y-1013773D01*
X14947268Y-870916D01*
X14947268Y-1070916D01*
X15128220Y-937582D02*
X15128220Y-1070916D01*
X15080601Y-861392D02*
X15032982Y-1004249D01*
X15156792Y-1004249D01*
X6222036Y-22085513D02*
X6126798Y-22152180D01*
X6222036Y-22199799D02*
X6022036Y-22199799D01*
X6022036Y-22123608D01*
X6031560Y-22104560D01*
X6041083Y-22095037D01*
X6060131Y-22085513D01*
X6088702Y-22085513D01*
X6107750Y-22095037D01*
X6117274Y-22104560D01*
X6126798Y-22123608D01*
X6126798Y-22199799D01*
X6222036Y-21895037D02*
X6222036Y-22009322D01*
X6222036Y-21952180D02*
X6022036Y-21952180D01*
X6050607Y-21971227D01*
X6069655Y-21990275D01*
X6079179Y-22009322D01*
X6277916Y-24247253D02*
X6182678Y-24313920D01*
X6277916Y-24361539D02*
X6077916Y-24361539D01*
X6077916Y-24285348D01*
X6087440Y-24266300D01*
X6096963Y-24256777D01*
X6116011Y-24247253D01*
X6144582Y-24247253D01*
X6163630Y-24256777D01*
X6173154Y-24266300D01*
X6182678Y-24285348D01*
X6182678Y-24361539D01*
X6077916Y-24180586D02*
X6077916Y-24056777D01*
X6154106Y-24123443D01*
X6154106Y-24094872D01*
X6163630Y-24075824D01*
X6173154Y-24066300D01*
X6192201Y-24056777D01*
X6239820Y-24056777D01*
X6258868Y-24066300D01*
X6268392Y-24075824D01*
X6277916Y-24094872D01*
X6277916Y-24152015D01*
X6268392Y-24171062D01*
X6258868Y-24180586D01*
X3337246Y-7692696D02*
X3270580Y-7597458D01*
X3222960Y-7692696D02*
X3222960Y-7492696D01*
X3299151Y-7492696D01*
X3318199Y-7502220D01*
X3327722Y-7511743D01*
X3337246Y-7530791D01*
X3337246Y-7559362D01*
X3327722Y-7578410D01*
X3318199Y-7587934D01*
X3299151Y-7597458D01*
X3222960Y-7597458D01*
X3403913Y-7492696D02*
X3537246Y-7492696D01*
X3451532Y-7692696D01*
X10567976Y-9586073D02*
X10472738Y-9652740D01*
X10567976Y-9700359D02*
X10367976Y-9700359D01*
X10367976Y-9624168D01*
X10377500Y-9605120D01*
X10387023Y-9595597D01*
X10406071Y-9586073D01*
X10434642Y-9586073D01*
X10453690Y-9595597D01*
X10463214Y-9605120D01*
X10472738Y-9624168D01*
X10472738Y-9700359D01*
X10453690Y-9471787D02*
X10444166Y-9490835D01*
X10434642Y-9500359D01*
X10415595Y-9509882D01*
X10406071Y-9509882D01*
X10387023Y-9500359D01*
X10377500Y-9490835D01*
X10367976Y-9471787D01*
X10367976Y-9433692D01*
X10377500Y-9414644D01*
X10387023Y-9405120D01*
X10406071Y-9395597D01*
X10415595Y-9395597D01*
X10434642Y-9405120D01*
X10444166Y-9414644D01*
X10453690Y-9433692D01*
X10453690Y-9471787D01*
X10463214Y-9490835D01*
X10472738Y-9500359D01*
X10491785Y-9509882D01*
X10529880Y-9509882D01*
X10548928Y-9500359D01*
X10558452Y-9490835D01*
X10567976Y-9471787D01*
X10567976Y-9433692D01*
X10558452Y-9414644D01*
X10548928Y-9405120D01*
X10529880Y-9395597D01*
X10491785Y-9395597D01*
X10472738Y-9405120D01*
X10463214Y-9414644D01*
X10453690Y-9433692D01*
X10207296Y-21902533D02*
X10112058Y-21969200D01*
X10207296Y-22016819D02*
X10007296Y-22016819D01*
X10007296Y-21940628D01*
X10016820Y-21921580D01*
X10026343Y-21912057D01*
X10045391Y-21902533D01*
X10073962Y-21902533D01*
X10093010Y-21912057D01*
X10102534Y-21921580D01*
X10112058Y-21940628D01*
X10112058Y-22016819D01*
X10207296Y-21807295D02*
X10207296Y-21769200D01*
X10197772Y-21750152D01*
X10188248Y-21740628D01*
X10159677Y-21721580D01*
X10121581Y-21712057D01*
X10045391Y-21712057D01*
X10026343Y-21721580D01*
X10016820Y-21731104D01*
X10007296Y-21750152D01*
X10007296Y-21788247D01*
X10016820Y-21807295D01*
X10026343Y-21816819D01*
X10045391Y-21826342D01*
X10093010Y-21826342D01*
X10112058Y-21816819D01*
X10121581Y-21807295D01*
X10131105Y-21788247D01*
X10131105Y-21750152D01*
X10121581Y-21731104D01*
X10112058Y-21721580D01*
X10093010Y-21712057D01*
X9907576Y-23783691D02*
X9812338Y-23850358D01*
X9907576Y-23897977D02*
X9707576Y-23897977D01*
X9707576Y-23821786D01*
X9717100Y-23802739D01*
X9726623Y-23793215D01*
X9745671Y-23783691D01*
X9774242Y-23783691D01*
X9793290Y-23793215D01*
X9802814Y-23802739D01*
X9812338Y-23821786D01*
X9812338Y-23897977D01*
X9907576Y-23593215D02*
X9907576Y-23707500D01*
X9907576Y-23650358D02*
X9707576Y-23650358D01*
X9736147Y-23669405D01*
X9755195Y-23688453D01*
X9764719Y-23707500D01*
X9707576Y-23469405D02*
X9707576Y-23450358D01*
X9717100Y-23431310D01*
X9726623Y-23421786D01*
X9745671Y-23412262D01*
X9783766Y-23402739D01*
X9831385Y-23402739D01*
X9869480Y-23412262D01*
X9888528Y-23421786D01*
X9898052Y-23431310D01*
X9907576Y-23450358D01*
X9907576Y-23469405D01*
X9898052Y-23488453D01*
X9888528Y-23497977D01*
X9869480Y-23507500D01*
X9831385Y-23517024D01*
X9783766Y-23517024D01*
X9745671Y-23507500D01*
X9726623Y-23497977D01*
X9717100Y-23488453D01*
X9707576Y-23469405D01*
X19925336Y-3651551D02*
X19830098Y-3718218D01*
X19925336Y-3765837D02*
X19725336Y-3765837D01*
X19725336Y-3689646D01*
X19734860Y-3670599D01*
X19744383Y-3661075D01*
X19763431Y-3651551D01*
X19792002Y-3651551D01*
X19811050Y-3661075D01*
X19820574Y-3670599D01*
X19830098Y-3689646D01*
X19830098Y-3765837D01*
X19925336Y-3461075D02*
X19925336Y-3575360D01*
X19925336Y-3518218D02*
X19725336Y-3518218D01*
X19753907Y-3537265D01*
X19772955Y-3556313D01*
X19782479Y-3575360D01*
X19925336Y-3270599D02*
X19925336Y-3384884D01*
X19925336Y-3327741D02*
X19725336Y-3327741D01*
X19753907Y-3346789D01*
X19772955Y-3365837D01*
X19782479Y-3384884D01*
X18406416Y-3646471D02*
X18311178Y-3713138D01*
X18406416Y-3760757D02*
X18206416Y-3760757D01*
X18206416Y-3684566D01*
X18215940Y-3665519D01*
X18225463Y-3655995D01*
X18244511Y-3646471D01*
X18273082Y-3646471D01*
X18292130Y-3655995D01*
X18301654Y-3665519D01*
X18311178Y-3684566D01*
X18311178Y-3760757D01*
X18406416Y-3455995D02*
X18406416Y-3570280D01*
X18406416Y-3513138D02*
X18206416Y-3513138D01*
X18234987Y-3532185D01*
X18254035Y-3551233D01*
X18263559Y-3570280D01*
X18225463Y-3379804D02*
X18215940Y-3370280D01*
X18206416Y-3351233D01*
X18206416Y-3303614D01*
X18215940Y-3284566D01*
X18225463Y-3275042D01*
X18244511Y-3265519D01*
X18263559Y-3265519D01*
X18292130Y-3275042D01*
X18406416Y-3389328D01*
X18406416Y-3265519D01*
X15383816Y-3758231D02*
X15288578Y-3824898D01*
X15383816Y-3872517D02*
X15183816Y-3872517D01*
X15183816Y-3796326D01*
X15193340Y-3777279D01*
X15202863Y-3767755D01*
X15221911Y-3758231D01*
X15250482Y-3758231D01*
X15269530Y-3767755D01*
X15279054Y-3777279D01*
X15288578Y-3796326D01*
X15288578Y-3872517D01*
X15383816Y-3567755D02*
X15383816Y-3682040D01*
X15383816Y-3624898D02*
X15183816Y-3624898D01*
X15212387Y-3643945D01*
X15231435Y-3662993D01*
X15240959Y-3682040D01*
X15183816Y-3501088D02*
X15183816Y-3377279D01*
X15260006Y-3443945D01*
X15260006Y-3415374D01*
X15269530Y-3396326D01*
X15279054Y-3386802D01*
X15298101Y-3377279D01*
X15345720Y-3377279D01*
X15364768Y-3386802D01*
X15374292Y-3396326D01*
X15383816Y-3415374D01*
X15383816Y-3472517D01*
X15374292Y-3491564D01*
X15364768Y-3501088D01*
X10539428Y-15838476D02*
X10472761Y-15743238D01*
X10425142Y-15838476D02*
X10425142Y-15638476D01*
X10501333Y-15638476D01*
X10520380Y-15648000D01*
X10529904Y-15657523D01*
X10539428Y-15676571D01*
X10539428Y-15705142D01*
X10529904Y-15724190D01*
X10520380Y-15733714D01*
X10501333Y-15743238D01*
X10425142Y-15743238D01*
X10729904Y-15838476D02*
X10615619Y-15838476D01*
X10672761Y-15838476D02*
X10672761Y-15638476D01*
X10653714Y-15667047D01*
X10634666Y-15686095D01*
X10615619Y-15695619D01*
X10910857Y-15638476D02*
X10815619Y-15638476D01*
X10806095Y-15733714D01*
X10815619Y-15724190D01*
X10834666Y-15714666D01*
X10882285Y-15714666D01*
X10901333Y-15724190D01*
X10910857Y-15733714D01*
X10920380Y-15752761D01*
X10920380Y-15800380D01*
X10910857Y-15819428D01*
X10901333Y-15828952D01*
X10882285Y-15838476D01*
X10834666Y-15838476D01*
X10815619Y-15828952D01*
X10806095Y-15819428D01*
X36696956Y-11027611D02*
X36601718Y-11094278D01*
X36696956Y-11141897D02*
X36496956Y-11141897D01*
X36496956Y-11065706D01*
X36506480Y-11046659D01*
X36516003Y-11037135D01*
X36535051Y-11027611D01*
X36563622Y-11027611D01*
X36582670Y-11037135D01*
X36592194Y-11046659D01*
X36601718Y-11065706D01*
X36601718Y-11141897D01*
X36696956Y-10837135D02*
X36696956Y-10951420D01*
X36696956Y-10894278D02*
X36496956Y-10894278D01*
X36525527Y-10913325D01*
X36544575Y-10932373D01*
X36554099Y-10951420D01*
X36496956Y-10770468D02*
X36496956Y-10637135D01*
X36696956Y-10722849D01*
X29886733Y-13837592D02*
X29915304Y-13847116D01*
X29962923Y-13847116D01*
X29981971Y-13837592D01*
X29991495Y-13828068D01*
X30001019Y-13809020D01*
X30001019Y-13789973D01*
X29991495Y-13770925D01*
X29981971Y-13761401D01*
X29962923Y-13751878D01*
X29924828Y-13742354D01*
X29905780Y-13732830D01*
X29896257Y-13723306D01*
X29886733Y-13704259D01*
X29886733Y-13685211D01*
X29896257Y-13666163D01*
X29905780Y-13656640D01*
X29924828Y-13647116D01*
X29972447Y-13647116D01*
X30001019Y-13656640D01*
X30067685Y-13647116D02*
X30115304Y-13847116D01*
X30153400Y-13704259D01*
X30191495Y-13847116D01*
X30239114Y-13647116D01*
X30420066Y-13847116D02*
X30305780Y-13847116D01*
X30362923Y-13847116D02*
X30362923Y-13647116D01*
X30343876Y-13675687D01*
X30324828Y-13694735D01*
X30305780Y-13704259D01*
X6523028Y-5385113D02*
X6532552Y-5394637D01*
X6542076Y-5423208D01*
X6542076Y-5442256D01*
X6532552Y-5470827D01*
X6513504Y-5489875D01*
X6494457Y-5499399D01*
X6456361Y-5508922D01*
X6427790Y-5508922D01*
X6389695Y-5499399D01*
X6370647Y-5489875D01*
X6351600Y-5470827D01*
X6342076Y-5442256D01*
X6342076Y-5423208D01*
X6351600Y-5394637D01*
X6361123Y-5385113D01*
X6342076Y-5318446D02*
X6342076Y-5194637D01*
X6418266Y-5261303D01*
X6418266Y-5232732D01*
X6427790Y-5213684D01*
X6437314Y-5204160D01*
X6456361Y-5194637D01*
X6503980Y-5194637D01*
X6523028Y-5204160D01*
X6532552Y-5213684D01*
X6542076Y-5232732D01*
X6542076Y-5289875D01*
X6532552Y-5308922D01*
X6523028Y-5318446D01*
X27815848Y-9081971D02*
X27825372Y-9091495D01*
X27834896Y-9120066D01*
X27834896Y-9139114D01*
X27825372Y-9167685D01*
X27806324Y-9186733D01*
X27787277Y-9196257D01*
X27749181Y-9205780D01*
X27720610Y-9205780D01*
X27682515Y-9196257D01*
X27663467Y-9186733D01*
X27644420Y-9167685D01*
X27634896Y-9139114D01*
X27634896Y-9120066D01*
X27644420Y-9091495D01*
X27653943Y-9081971D01*
X27834896Y-8891495D02*
X27834896Y-9005780D01*
X27834896Y-8948638D02*
X27634896Y-8948638D01*
X27663467Y-8967685D01*
X27682515Y-8986733D01*
X27692039Y-9005780D01*
X27834896Y-8796257D02*
X27834896Y-8758161D01*
X27825372Y-8739114D01*
X27815848Y-8729590D01*
X27787277Y-8710542D01*
X27749181Y-8701019D01*
X27672991Y-8701019D01*
X27653943Y-8710542D01*
X27644420Y-8720066D01*
X27634896Y-8739114D01*
X27634896Y-8777209D01*
X27644420Y-8796257D01*
X27653943Y-8805780D01*
X27672991Y-8815304D01*
X27720610Y-8815304D01*
X27739658Y-8805780D01*
X27749181Y-8796257D01*
X27758705Y-8777209D01*
X27758705Y-8739114D01*
X27749181Y-8720066D01*
X27739658Y-8710542D01*
X27720610Y-8701019D01*
X11626648Y-15278408D02*
X11617124Y-15287932D01*
X11588553Y-15297456D01*
X11569505Y-15297456D01*
X11540934Y-15287932D01*
X11521886Y-15268884D01*
X11512362Y-15249837D01*
X11502839Y-15211741D01*
X11502839Y-15183170D01*
X11512362Y-15145075D01*
X11521886Y-15126027D01*
X11540934Y-15106980D01*
X11569505Y-15097456D01*
X11588553Y-15097456D01*
X11617124Y-15106980D01*
X11626648Y-15116503D01*
X11702839Y-15116503D02*
X11712362Y-15106980D01*
X11731410Y-15097456D01*
X11779029Y-15097456D01*
X11798077Y-15106980D01*
X11807600Y-15116503D01*
X11817124Y-15135551D01*
X11817124Y-15154599D01*
X11807600Y-15183170D01*
X11693315Y-15297456D01*
X11817124Y-15297456D01*
X12007600Y-15297456D02*
X11893315Y-15297456D01*
X11950458Y-15297456D02*
X11950458Y-15097456D01*
X11931410Y-15126027D01*
X11912362Y-15145075D01*
X11893315Y-15154599D01*
X29661493Y-3233116D02*
X29661493Y-3375973D01*
X29651969Y-3404544D01*
X29632921Y-3423592D01*
X29604350Y-3433116D01*
X29585302Y-3433116D01*
X29851969Y-3233116D02*
X29756731Y-3233116D01*
X29747207Y-3328354D01*
X29756731Y-3318830D01*
X29775779Y-3309306D01*
X29823398Y-3309306D01*
X29842445Y-3318830D01*
X29851969Y-3328354D01*
X29861493Y-3347401D01*
X29861493Y-3395020D01*
X29851969Y-3414068D01*
X29842445Y-3423592D01*
X29823398Y-3433116D01*
X29775779Y-3433116D01*
X29756731Y-3423592D01*
X29747207Y-3414068D01*
X17200466Y-23019076D02*
X17133800Y-22923838D01*
X17086180Y-23019076D02*
X17086180Y-22819076D01*
X17162371Y-22819076D01*
X17181419Y-22828600D01*
X17190942Y-22838123D01*
X17200466Y-22857171D01*
X17200466Y-22885742D01*
X17190942Y-22904790D01*
X17181419Y-22914314D01*
X17162371Y-22923838D01*
X17086180Y-22923838D01*
X17371895Y-22885742D02*
X17371895Y-23019076D01*
X17324276Y-22809552D02*
X17276657Y-22952409D01*
X17400466Y-22952409D01*
X20185066Y-23019076D02*
X20118400Y-22923838D01*
X20070780Y-23019076D02*
X20070780Y-22819076D01*
X20146971Y-22819076D01*
X20166019Y-22828600D01*
X20175542Y-22838123D01*
X20185066Y-22857171D01*
X20185066Y-22885742D01*
X20175542Y-22904790D01*
X20166019Y-22914314D01*
X20146971Y-22923838D01*
X20070780Y-22923838D01*
X20366019Y-22819076D02*
X20270780Y-22819076D01*
X20261257Y-22914314D01*
X20270780Y-22904790D01*
X20289828Y-22895266D01*
X20337447Y-22895266D01*
X20356495Y-22904790D01*
X20366019Y-22914314D01*
X20375542Y-22933361D01*
X20375542Y-22980980D01*
X20366019Y-23000028D01*
X20356495Y-23009552D01*
X20337447Y-23019076D01*
X20289828Y-23019076D01*
X20270780Y-23009552D01*
X20261257Y-23000028D01*
X32826333Y-1794076D02*
X32826333Y-1936933D01*
X32816809Y-1965504D01*
X32797761Y-1984552D01*
X32769190Y-1994076D01*
X32750142Y-1994076D01*
X33007285Y-1860742D02*
X33007285Y-1994076D01*
X32959666Y-1784552D02*
X32912047Y-1927409D01*
X33035857Y-1927409D01*
X15094438Y-11372838D02*
X15189676Y-11372838D01*
X14989676Y-11439504D02*
X15094438Y-11372838D01*
X14989676Y-11306171D01*
X15189676Y-11134742D02*
X15189676Y-11249028D01*
X15189676Y-11191885D02*
X14989676Y-11191885D01*
X15018247Y-11210933D01*
X15037295Y-11229980D01*
X15046819Y-11249028D01*
X6627828Y-17910176D02*
X6561161Y-17814938D01*
X6513542Y-17910176D02*
X6513542Y-17710176D01*
X6589733Y-17710176D01*
X6608780Y-17719700D01*
X6618304Y-17729223D01*
X6627828Y-17748271D01*
X6627828Y-17776842D01*
X6618304Y-17795890D01*
X6608780Y-17805414D01*
X6589733Y-17814938D01*
X6513542Y-17814938D01*
X6704019Y-17729223D02*
X6713542Y-17719700D01*
X6732590Y-17710176D01*
X6780209Y-17710176D01*
X6799257Y-17719700D01*
X6808780Y-17729223D01*
X6818304Y-17748271D01*
X6818304Y-17767319D01*
X6808780Y-17795890D01*
X6694495Y-17910176D01*
X6818304Y-17910176D01*
X6999257Y-17710176D02*
X6904019Y-17710176D01*
X6894495Y-17805414D01*
X6904019Y-17795890D01*
X6923066Y-17786366D01*
X6970685Y-17786366D01*
X6989733Y-17795890D01*
X6999257Y-17805414D01*
X7008780Y-17824461D01*
X7008780Y-17872080D01*
X6999257Y-17891128D01*
X6989733Y-17900652D01*
X6970685Y-17910176D01*
X6923066Y-17910176D01*
X6904019Y-17900652D01*
X6894495Y-17891128D01*
X7073428Y-20426933D02*
X7082952Y-20436457D01*
X7092476Y-20465028D01*
X7092476Y-20484076D01*
X7082952Y-20512647D01*
X7063904Y-20531695D01*
X7044857Y-20541219D01*
X7006761Y-20550742D01*
X6978190Y-20550742D01*
X6940095Y-20541219D01*
X6921047Y-20531695D01*
X6902000Y-20512647D01*
X6892476Y-20484076D01*
X6892476Y-20465028D01*
X6902000Y-20436457D01*
X6911523Y-20426933D01*
X7092476Y-20236457D02*
X7092476Y-20350742D01*
X7092476Y-20293600D02*
X6892476Y-20293600D01*
X6921047Y-20312647D01*
X6940095Y-20331695D01*
X6949619Y-20350742D01*
X11340628Y-20439633D02*
X11350152Y-20449157D01*
X11359676Y-20477728D01*
X11359676Y-20496776D01*
X11350152Y-20525347D01*
X11331104Y-20544395D01*
X11312057Y-20553919D01*
X11273961Y-20563442D01*
X11245390Y-20563442D01*
X11207295Y-20553919D01*
X11188247Y-20544395D01*
X11169200Y-20525347D01*
X11159676Y-20496776D01*
X11159676Y-20477728D01*
X11169200Y-20449157D01*
X11178723Y-20439633D01*
X11178723Y-20363442D02*
X11169200Y-20353919D01*
X11159676Y-20334871D01*
X11159676Y-20287252D01*
X11169200Y-20268204D01*
X11178723Y-20258680D01*
X11197771Y-20249157D01*
X11216819Y-20249157D01*
X11245390Y-20258680D01*
X11359676Y-20372966D01*
X11359676Y-20249157D01*
X34459866Y-24675628D02*
X34450342Y-24685152D01*
X34421771Y-24694676D01*
X34402723Y-24694676D01*
X34374152Y-24685152D01*
X34355104Y-24666104D01*
X34345580Y-24647057D01*
X34336057Y-24608961D01*
X34336057Y-24580390D01*
X34345580Y-24542295D01*
X34355104Y-24523247D01*
X34374152Y-24504200D01*
X34402723Y-24494676D01*
X34421771Y-24494676D01*
X34450342Y-24504200D01*
X34459866Y-24513723D01*
X34526533Y-24494676D02*
X34659866Y-24494676D01*
X34574152Y-24694676D01*
X23219228Y-4112633D02*
X23228752Y-4122157D01*
X23238276Y-4150728D01*
X23238276Y-4169776D01*
X23228752Y-4198347D01*
X23209704Y-4217395D01*
X23190657Y-4226919D01*
X23152561Y-4236442D01*
X23123990Y-4236442D01*
X23085895Y-4226919D01*
X23066847Y-4217395D01*
X23047800Y-4198347D01*
X23038276Y-4169776D01*
X23038276Y-4150728D01*
X23047800Y-4122157D01*
X23057323Y-4112633D01*
X23123990Y-3998347D02*
X23114466Y-4017395D01*
X23104942Y-4026919D01*
X23085895Y-4036442D01*
X23076371Y-4036442D01*
X23057323Y-4026919D01*
X23047800Y-4017395D01*
X23038276Y-3998347D01*
X23038276Y-3960252D01*
X23047800Y-3941204D01*
X23057323Y-3931680D01*
X23076371Y-3922157D01*
X23085895Y-3922157D01*
X23104942Y-3931680D01*
X23114466Y-3941204D01*
X23123990Y-3960252D01*
X23123990Y-3998347D01*
X23133514Y-4017395D01*
X23143038Y-4026919D01*
X23162085Y-4036442D01*
X23200180Y-4036442D01*
X23219228Y-4026919D01*
X23228752Y-4017395D01*
X23238276Y-3998347D01*
X23238276Y-3960252D01*
X23228752Y-3941204D01*
X23219228Y-3931680D01*
X23200180Y-3922157D01*
X23162085Y-3922157D01*
X23143038Y-3931680D01*
X23133514Y-3941204D01*
X23123990Y-3960252D01*
X17304766Y-22338828D02*
X17295242Y-22348352D01*
X17266671Y-22357876D01*
X17247623Y-22357876D01*
X17219052Y-22348352D01*
X17200004Y-22329304D01*
X17190480Y-22310257D01*
X17180957Y-22272161D01*
X17180957Y-22243590D01*
X17190480Y-22205495D01*
X17200004Y-22186447D01*
X17219052Y-22167400D01*
X17247623Y-22157876D01*
X17266671Y-22157876D01*
X17295242Y-22167400D01*
X17304766Y-22176923D01*
X17400004Y-22357876D02*
X17438100Y-22357876D01*
X17457147Y-22348352D01*
X17466671Y-22338828D01*
X17485719Y-22310257D01*
X17495242Y-22272161D01*
X17495242Y-22195971D01*
X17485719Y-22176923D01*
X17476195Y-22167400D01*
X17457147Y-22157876D01*
X17419052Y-22157876D01*
X17400004Y-22167400D01*
X17390480Y-22176923D01*
X17380957Y-22195971D01*
X17380957Y-22243590D01*
X17390480Y-22262638D01*
X17400004Y-22272161D01*
X17419052Y-22281685D01*
X17457147Y-22281685D01*
X17476195Y-22272161D01*
X17485719Y-22262638D01*
X17495242Y-22243590D01*
X8593728Y-17906528D02*
X8584204Y-17916052D01*
X8555633Y-17925576D01*
X8536585Y-17925576D01*
X8508014Y-17916052D01*
X8488966Y-17897004D01*
X8479442Y-17877957D01*
X8469919Y-17839861D01*
X8469919Y-17811290D01*
X8479442Y-17773195D01*
X8488966Y-17754147D01*
X8508014Y-17735100D01*
X8536585Y-17725576D01*
X8555633Y-17725576D01*
X8584204Y-17735100D01*
X8593728Y-17744623D01*
X8784204Y-17925576D02*
X8669919Y-17925576D01*
X8727061Y-17925576D02*
X8727061Y-17725576D01*
X8708014Y-17754147D01*
X8688966Y-17773195D01*
X8669919Y-17782719D01*
X8908014Y-17725576D02*
X8927061Y-17725576D01*
X8946109Y-17735100D01*
X8955633Y-17744623D01*
X8965157Y-17763671D01*
X8974680Y-17801766D01*
X8974680Y-17849385D01*
X8965157Y-17887480D01*
X8955633Y-17906528D01*
X8946109Y-17916052D01*
X8927061Y-17925576D01*
X8908014Y-17925576D01*
X8888966Y-17916052D01*
X8879442Y-17906528D01*
X8869919Y-17887480D01*
X8860395Y-17849385D01*
X8860395Y-17801766D01*
X8869919Y-17763671D01*
X8879442Y-17744623D01*
X8888966Y-17735100D01*
X8908014Y-17725576D01*
X14138728Y-4126471D02*
X14148252Y-4135995D01*
X14157776Y-4164566D01*
X14157776Y-4183614D01*
X14148252Y-4212185D01*
X14129204Y-4231233D01*
X14110157Y-4240757D01*
X14072061Y-4250280D01*
X14043490Y-4250280D01*
X14005395Y-4240757D01*
X13986347Y-4231233D01*
X13967300Y-4212185D01*
X13957776Y-4183614D01*
X13957776Y-4164566D01*
X13967300Y-4135995D01*
X13976823Y-4126471D01*
X14157776Y-3935995D02*
X14157776Y-4050280D01*
X14157776Y-3993138D02*
X13957776Y-3993138D01*
X13986347Y-4012185D01*
X14005395Y-4031233D01*
X14014919Y-4050280D01*
X13957776Y-3869328D02*
X13957776Y-3735995D01*
X14157776Y-3821709D01*
X30802266Y-22355628D02*
X30792742Y-22365152D01*
X30764171Y-22374676D01*
X30745123Y-22374676D01*
X30716552Y-22365152D01*
X30697504Y-22346104D01*
X30687980Y-22327057D01*
X30678457Y-22288961D01*
X30678457Y-22260390D01*
X30687980Y-22222295D01*
X30697504Y-22203247D01*
X30716552Y-22184200D01*
X30745123Y-22174676D01*
X30764171Y-22174676D01*
X30792742Y-22184200D01*
X30802266Y-22193723D01*
X30973695Y-22241342D02*
X30973695Y-22374676D01*
X30926076Y-22165152D02*
X30878457Y-22308009D01*
X31002266Y-22308009D01*
X33475628Y-15091928D02*
X33466104Y-15101452D01*
X33437533Y-15110976D01*
X33418485Y-15110976D01*
X33389914Y-15101452D01*
X33370866Y-15082404D01*
X33361342Y-15063357D01*
X33351819Y-15025261D01*
X33351819Y-14996690D01*
X33361342Y-14958595D01*
X33370866Y-14939547D01*
X33389914Y-14920500D01*
X33418485Y-14910976D01*
X33437533Y-14910976D01*
X33466104Y-14920500D01*
X33475628Y-14930023D01*
X33666104Y-15110976D02*
X33551819Y-15110976D01*
X33608961Y-15110976D02*
X33608961Y-14910976D01*
X33589914Y-14939547D01*
X33570866Y-14958595D01*
X33551819Y-14968119D01*
X33742295Y-14930023D02*
X33751819Y-14920500D01*
X33770866Y-14910976D01*
X33818485Y-14910976D01*
X33837533Y-14920500D01*
X33847057Y-14930023D01*
X33856580Y-14949071D01*
X33856580Y-14968119D01*
X33847057Y-14996690D01*
X33732771Y-15110976D01*
X33856580Y-15110976D01*
X30332366Y-14103676D02*
X30265700Y-14008438D01*
X30218080Y-14103676D02*
X30218080Y-13903676D01*
X30294271Y-13903676D01*
X30313319Y-13913200D01*
X30322842Y-13922723D01*
X30332366Y-13941771D01*
X30332366Y-13970342D01*
X30322842Y-13989390D01*
X30313319Y-13998914D01*
X30294271Y-14008438D01*
X30218080Y-14008438D01*
X30503795Y-13903676D02*
X30465700Y-13903676D01*
X30446652Y-13913200D01*
X30437128Y-13922723D01*
X30418080Y-13951295D01*
X30408557Y-13989390D01*
X30408557Y-14065580D01*
X30418080Y-14084628D01*
X30427604Y-14094152D01*
X30446652Y-14103676D01*
X30484747Y-14103676D01*
X30503795Y-14094152D01*
X30513319Y-14084628D01*
X30522842Y-14065580D01*
X30522842Y-14017961D01*
X30513319Y-13998914D01*
X30503795Y-13989390D01*
X30484747Y-13979866D01*
X30446652Y-13979866D01*
X30427604Y-13989390D01*
X30418080Y-13998914D01*
X30408557Y-14017961D01*
X30249828Y-15614976D02*
X30183161Y-15519738D01*
X30135542Y-15614976D02*
X30135542Y-15414976D01*
X30211733Y-15414976D01*
X30230780Y-15424500D01*
X30240304Y-15434023D01*
X30249828Y-15453071D01*
X30249828Y-15481642D01*
X30240304Y-15500690D01*
X30230780Y-15510214D01*
X30211733Y-15519738D01*
X30135542Y-15519738D01*
X30440304Y-15614976D02*
X30326019Y-15614976D01*
X30383161Y-15614976D02*
X30383161Y-15414976D01*
X30364114Y-15443547D01*
X30345066Y-15462595D01*
X30326019Y-15472119D01*
X30554590Y-15500690D02*
X30535542Y-15491166D01*
X30526019Y-15481642D01*
X30516495Y-15462595D01*
X30516495Y-15453071D01*
X30526019Y-15434023D01*
X30535542Y-15424500D01*
X30554590Y-15414976D01*
X30592685Y-15414976D01*
X30611733Y-15424500D01*
X30621257Y-15434023D01*
X30630780Y-15453071D01*
X30630780Y-15462595D01*
X30621257Y-15481642D01*
X30611733Y-15491166D01*
X30592685Y-15500690D01*
X30554590Y-15500690D01*
X30535542Y-15510214D01*
X30526019Y-15519738D01*
X30516495Y-15538785D01*
X30516495Y-15576880D01*
X30526019Y-15595928D01*
X30535542Y-15605452D01*
X30554590Y-15614976D01*
X30592685Y-15614976D01*
X30611733Y-15605452D01*
X30621257Y-15595928D01*
X30630780Y-15576880D01*
X30630780Y-15538785D01*
X30621257Y-15519738D01*
X30611733Y-15510214D01*
X30592685Y-15500690D01*
M02*
