M48
; DRILL file {KiCad (5.1.8)-1} date 11/28/20 11:44:06
; FORMAT={-:-/ absolute / metric / decimal}
; #@! TF.CreationDate,2020-11-28T11:44:06-05:00
; #@! TF.GenerationSoftware,Kicad,Pcbnew,(5.1.8)-1
; #@! TF.FileFunction,Plated,1,2,PTH
FMAT,2
METRIC
T1C0.400
T2C0.800
T3C1.000
%
G90
G05
T1
X3.353Y-2.553
X3.597Y-1.174
X3.597Y-17.374
X3.721Y-4.648
X3.721Y-6.948
X4.445Y-16.713
X5.258Y-12.04
X5.271Y-17.716
X5.304Y-13.341
X5.368Y-11.055
X5.474Y-8.198
X5.537Y-9.868
X6.236Y-16.65
X6.352Y-11.251
X7.197Y-1.174
X7.341Y-24.537
X7.432Y-21.161
X7.48Y-22.466
X7.555Y-5.571
X7.62Y-9.677
X7.81Y-8.198
X7.823Y-15.824
X8.369Y-21.196
X8.493Y-5.549
X8.814Y-22.961
X8.997Y-1.174
X9.114Y-9.649
X10.008Y-10.808
X10.071Y-15.24
X10.287Y-24.536
X11.843Y-17.05
X12.37Y-18.288
X13.945Y-18.428
X15.354Y-0.736
X15.418Y-19.71
X15.481Y-17.678
X15.938Y-20.599
X16.197Y-22.774
X16.394Y-17.596
X16.472Y-9.868
X16.701Y-3.376
X16.815Y-2.311
X17.158Y-16.882
X17.297Y-8.026
X17.805Y-22.225
X17.818Y-21.107
X18.047Y-20.066
X18.275Y-0.737
X18.347Y-3.293
X18.923Y-14.91
X18.928Y-19.844
X19.342Y-22.162
X19.647Y-8.425
X19.66Y-12.256
X19.765Y-19.515
X19.799Y-16.612
X20.355Y-7.869
X20.697Y-13.774
X20.942Y-15.342
X21.095Y-22.581
X21.215Y-8.133
X21.438Y-20.32
X21.597Y-16.474
X22.092Y-7.93
X22.441Y-15.57
X23.241Y-22.39
X23.397Y-16.474
X24.27Y-15.71
X25.197Y-16.474
X25.248Y-21.196
X25.26Y-14.392
X25.336Y-3.912
X25.362Y-12.535
X25.45Y-13.513
X25.619Y-11.672
X25.654Y-20.028
X25.756Y-0.749
X25.895Y-24.498
X26.441Y-5.258
X26.657Y-21.793
X26.683Y-19.723
X27.407Y-22.403
X27.495Y-5.283
X27.877Y-15.557
X28.118Y-18.339
X28.181Y-16.878
X28.245Y-3.823
X28.308Y-6.566
X28.638Y-8.179
X28.994Y-14.364
X29.058Y-19.583
X29.058Y-22.339
X29.4Y-5.372
X29.654Y-11.671
X30.023Y-18.174
X30.492Y-14.58
X31.102Y-13.754
X31.547Y-24.447
X32.397Y-11.974
X32.677Y-14.668
X33.045Y-13.144
X33.985Y-10.477
X34.874Y-24.308
X35.281Y-13.538
T2
X21.819Y-1.537
X23.819Y-1.537
X12.554Y-23.762
X14.554Y-23.762
X1.595Y-23.781
X3.595Y-23.781
X11.125Y-1.537
X13.125Y-1.537
T3
X1.346Y-1.346
X1.346Y-3.886
X29.845Y-1.473
X32.385Y-1.473
X34.925Y-1.473
T0
M30
