G04 #@! TF.GenerationSoftware,KiCad,Pcbnew,(5.1.8)-1*
G04 #@! TF.CreationDate,2020-11-28T11:44:15-05:00*
G04 #@! TF.ProjectId,STM32_SMD_Quadcopter,53544d33-325f-4534-9d44-5f5175616463,rev?*
G04 #@! TF.SameCoordinates,PX2daf690PY1aab7d8*
G04 #@! TF.FileFunction,Soldermask,Bot*
G04 #@! TF.FilePolarity,Negative*
%FSLAX46Y46*%
G04 Gerber Fmt 4.6, Leading zero omitted, Abs format (unit mm)*
G04 Created by KiCad (PCBNEW (5.1.8)-1) date 2020-11-28 11:44:15*
%MOMM*%
%LPD*%
G01*
G04 APERTURE LIST*
%ADD10R,0.700000X1.750000*%
%ADD11R,1.300000X1.500000*%
%ADD12R,0.800000X1.500000*%
%ADD13R,1.450000X1.000000*%
%ADD14R,0.800000X1.400000*%
%ADD15R,1.500000X1.500000*%
%ADD16R,1.000000X1.550000*%
%ADD17R,0.800000X1.900000*%
%ADD18R,1.700000X1.700000*%
%ADD19O,1.700000X1.700000*%
%ADD20R,1.350000X1.350000*%
%ADD21O,1.350000X1.350000*%
%ADD22R,2.000000X3.800000*%
%ADD23R,2.000000X1.500000*%
G04 APERTURE END LIST*
D10*
X28039400Y-24057200D03*
D11*
X29239400Y-23932200D03*
D12*
X29489400Y-16332200D03*
D13*
X29164400Y-14832200D03*
D14*
X17539400Y-15682200D03*
D10*
X26939400Y-24057200D03*
X25839400Y-24057200D03*
X24739400Y-24057200D03*
X23639400Y-24057200D03*
X22539400Y-24057200D03*
X21439400Y-24057200D03*
X20339400Y-24057200D03*
D15*
X17889400Y-23932200D03*
D16*
X17939400Y-13257200D03*
D17*
X15798800Y-4241800D03*
X16748800Y-1241800D03*
X14848800Y-1241800D03*
D18*
X1346200Y-1346200D03*
D19*
X1346200Y-3886200D03*
D17*
X10668000Y-24079200D03*
X8768000Y-24079200D03*
X9718000Y-21079200D03*
G36*
G01*
X8881800Y-10678000D02*
X11031800Y-10678000D01*
G75*
G02*
X11281800Y-10928000I0J-250000D01*
G01*
X11281800Y-11678000D01*
G75*
G02*
X11031800Y-11928000I-250000J0D01*
G01*
X8881800Y-11928000D01*
G75*
G02*
X8631800Y-11678000I0J250000D01*
G01*
X8631800Y-10928000D01*
G75*
G02*
X8881800Y-10678000I250000J0D01*
G01*
G37*
G36*
G01*
X8881800Y-13478000D02*
X11031800Y-13478000D01*
G75*
G02*
X11281800Y-13728000I0J-250000D01*
G01*
X11281800Y-14478000D01*
G75*
G02*
X11031800Y-14728000I-250000J0D01*
G01*
X8881800Y-14728000D01*
G75*
G02*
X8631800Y-14478000I0J250000D01*
G01*
X8631800Y-13728000D01*
G75*
G02*
X8881800Y-13478000I250000J0D01*
G01*
G37*
D20*
X1595489Y-23781302D03*
D21*
X3595489Y-23781302D03*
X12554200Y-23761700D03*
D20*
X14554200Y-23761700D03*
X21818600Y-1536700D03*
D21*
X23818600Y-1536700D03*
X13125200Y-1536700D03*
D20*
X11125200Y-1536700D03*
D17*
X6184900Y-21082000D03*
X5234900Y-24082000D03*
X7134900Y-24082000D03*
X18341300Y-1243200D03*
X20241300Y-1243200D03*
X19291300Y-4243200D03*
D22*
X10021100Y-6948200D03*
D23*
X3721100Y-6948200D03*
X3721100Y-4648200D03*
X3721100Y-9248200D03*
D18*
X29845000Y-1473200D03*
D19*
X32385000Y-1473200D03*
X34925000Y-1473200D03*
M02*
