G04 #@! TF.GenerationSoftware,KiCad,Pcbnew,(5.1.8)-1*
G04 #@! TF.CreationDate,2020-11-28T11:44:15-05:00*
G04 #@! TF.ProjectId,STM32_SMD_Quadcopter,53544d33-325f-4534-9d44-5f5175616463,rev?*
G04 #@! TF.SameCoordinates,PX2daf690PY1aab7d8*
G04 #@! TF.FileFunction,Copper,L2,Bot*
G04 #@! TF.FilePolarity,Positive*
%FSLAX46Y46*%
G04 Gerber Fmt 4.6, Leading zero omitted, Abs format (unit mm)*
G04 Created by KiCad (PCBNEW (5.1.8)-1) date 2020-11-28 11:44:15*
%MOMM*%
%LPD*%
G01*
G04 APERTURE LIST*
G04 #@! TA.AperFunction,SMDPad,CuDef*
%ADD10R,0.700000X1.750000*%
G04 #@! TD*
G04 #@! TA.AperFunction,SMDPad,CuDef*
%ADD11R,1.300000X1.500000*%
G04 #@! TD*
G04 #@! TA.AperFunction,SMDPad,CuDef*
%ADD12R,0.800000X1.500000*%
G04 #@! TD*
G04 #@! TA.AperFunction,SMDPad,CuDef*
%ADD13R,1.450000X1.000000*%
G04 #@! TD*
G04 #@! TA.AperFunction,SMDPad,CuDef*
%ADD14R,0.800000X1.400000*%
G04 #@! TD*
G04 #@! TA.AperFunction,SMDPad,CuDef*
%ADD15R,1.500000X1.500000*%
G04 #@! TD*
G04 #@! TA.AperFunction,SMDPad,CuDef*
%ADD16R,1.000000X1.550000*%
G04 #@! TD*
G04 #@! TA.AperFunction,SMDPad,CuDef*
%ADD17R,0.800000X1.900000*%
G04 #@! TD*
G04 #@! TA.AperFunction,ComponentPad*
%ADD18R,1.700000X1.700000*%
G04 #@! TD*
G04 #@! TA.AperFunction,ComponentPad*
%ADD19O,1.700000X1.700000*%
G04 #@! TD*
G04 #@! TA.AperFunction,ComponentPad*
%ADD20R,1.350000X1.350000*%
G04 #@! TD*
G04 #@! TA.AperFunction,ComponentPad*
%ADD21O,1.350000X1.350000*%
G04 #@! TD*
G04 #@! TA.AperFunction,SMDPad,CuDef*
%ADD22R,2.000000X3.800000*%
G04 #@! TD*
G04 #@! TA.AperFunction,SMDPad,CuDef*
%ADD23R,2.000000X1.500000*%
G04 #@! TD*
G04 #@! TA.AperFunction,ViaPad*
%ADD24C,0.800000*%
G04 #@! TD*
G04 #@! TA.AperFunction,Conductor*
%ADD25C,1.500000*%
G04 #@! TD*
G04 #@! TA.AperFunction,Conductor*
%ADD26C,0.220000*%
G04 #@! TD*
G04 #@! TA.AperFunction,Conductor*
%ADD27C,0.500000*%
G04 #@! TD*
G04 #@! TA.AperFunction,Conductor*
%ADD28C,0.127000*%
G04 #@! TD*
G04 #@! TA.AperFunction,Conductor*
%ADD29C,0.100000*%
G04 #@! TD*
G04 APERTURE END LIST*
D10*
X28039400Y-24057200D03*
D11*
X29239400Y-23932200D03*
D12*
X29489400Y-16332200D03*
D13*
X29164400Y-14832200D03*
D14*
X17539400Y-15682200D03*
D10*
X26939400Y-24057200D03*
X25839400Y-24057200D03*
X24739400Y-24057200D03*
X23639400Y-24057200D03*
X22539400Y-24057200D03*
X21439400Y-24057200D03*
X20339400Y-24057200D03*
D15*
X17889400Y-23932200D03*
D16*
X17939400Y-13257200D03*
D17*
X15798800Y-4241800D03*
X16748800Y-1241800D03*
X14848800Y-1241800D03*
D18*
X1346200Y-1346200D03*
D19*
X1346200Y-3886200D03*
D17*
X10668000Y-24079200D03*
X8768000Y-24079200D03*
X9718000Y-21079200D03*
G04 #@! TA.AperFunction,SMDPad,CuDef*
G36*
G01*
X8881800Y-10678000D02*
X11031800Y-10678000D01*
G75*
G02*
X11281800Y-10928000I0J-250000D01*
G01*
X11281800Y-11678000D01*
G75*
G02*
X11031800Y-11928000I-250000J0D01*
G01*
X8881800Y-11928000D01*
G75*
G02*
X8631800Y-11678000I0J250000D01*
G01*
X8631800Y-10928000D01*
G75*
G02*
X8881800Y-10678000I250000J0D01*
G01*
G37*
G04 #@! TD.AperFunction*
G04 #@! TA.AperFunction,SMDPad,CuDef*
G36*
G01*
X8881800Y-13478000D02*
X11031800Y-13478000D01*
G75*
G02*
X11281800Y-13728000I0J-250000D01*
G01*
X11281800Y-14478000D01*
G75*
G02*
X11031800Y-14728000I-250000J0D01*
G01*
X8881800Y-14728000D01*
G75*
G02*
X8631800Y-14478000I0J250000D01*
G01*
X8631800Y-13728000D01*
G75*
G02*
X8881800Y-13478000I250000J0D01*
G01*
G37*
G04 #@! TD.AperFunction*
D20*
X1595489Y-23781302D03*
D21*
X3595489Y-23781302D03*
X12554200Y-23761700D03*
D20*
X14554200Y-23761700D03*
X21818600Y-1536700D03*
D21*
X23818600Y-1536700D03*
X13125200Y-1536700D03*
D20*
X11125200Y-1536700D03*
D17*
X6184900Y-21082000D03*
X5234900Y-24082000D03*
X7134900Y-24082000D03*
X18341300Y-1243200D03*
X20241300Y-1243200D03*
X19291300Y-4243200D03*
D22*
X10021100Y-6948200D03*
D23*
X3721100Y-6948200D03*
X3721100Y-4648200D03*
X3721100Y-9248200D03*
D18*
X29845000Y-1473200D03*
D19*
X32385000Y-1473200D03*
X34925000Y-1473200D03*
D24*
X25654000Y-20027900D03*
X25247600Y-21196300D03*
X12369800Y-18288000D03*
X13944600Y-18427700D03*
X17805400Y-22225000D03*
X19342100Y-22161500D03*
X28181300Y-16878300D03*
X28994100Y-14363700D03*
X25895300Y-24498300D03*
X3721100Y-4648200D03*
X5473700Y-8198200D03*
X7810090Y-8198200D03*
X5257800Y-12039600D03*
X5304302Y-13340600D03*
X18046700Y-20066000D03*
X29400500Y-5372100D03*
X27495500Y-5283200D03*
X7340600Y-24536600D03*
X10287000Y-24536400D03*
X18275300Y-736600D03*
X15354300Y-736500D03*
X7432415Y-21160790D03*
X15417800Y-19710400D03*
X15481300Y-17678400D03*
X25619147Y-11672435D03*
X21437600Y-20320000D03*
X19765366Y-19515252D03*
X18927545Y-19844003D03*
X8369300Y-21196300D03*
X15938500Y-20599400D03*
X16393991Y-17595523D03*
X25361900Y-12534900D03*
X18347350Y-3293201D03*
X22092230Y-7929689D03*
X16700736Y-3376344D03*
X21215456Y-8132889D03*
X5537200Y-9867900D03*
X6352122Y-11250657D03*
X7555051Y-5571231D03*
X19647310Y-8424879D03*
X8492963Y-5548727D03*
X10071100Y-15240000D03*
X9113810Y-9648800D03*
X20355039Y-7868874D03*
X6235700Y-16649700D03*
X10007600Y-10807700D03*
X7620000Y-9677406D03*
X28638500Y-8178600D03*
X3721100Y-6948200D03*
X23241000Y-22390100D03*
X26657300Y-21793200D03*
X17818100Y-21107400D03*
X21094700Y-22580600D03*
X17297400Y-8026400D03*
X18923000Y-14909800D03*
X17157700Y-16882214D03*
X11842650Y-17049650D03*
X28117800Y-18338800D03*
X30022800Y-18173700D03*
X33985200Y-10477500D03*
X31546800Y-24447500D03*
X34874200Y-24307800D03*
X19799300Y-16611600D03*
X26682700Y-19723100D03*
X16471900Y-9867900D03*
X16814800Y-2311400D03*
X8813800Y-22961500D03*
X7480300Y-22466300D03*
X3596800Y-1174390D03*
X3596800Y-17374390D03*
X7196800Y-1174390D03*
X16196800Y-22774390D03*
X20696800Y-13774390D03*
X21596800Y-16474390D03*
X25196800Y-16474390D03*
X29057600Y-19583400D03*
X32396800Y-11974390D03*
X32677100Y-14668500D03*
X8996800Y-1174390D03*
X23396800Y-16474390D03*
X35280600Y-13538200D03*
X29057600Y-22339300D03*
X33045400Y-13144500D03*
X5270500Y-17716500D03*
X4445000Y-16713200D03*
X3352800Y-2552700D03*
X25755600Y-749300D03*
X25336500Y-3911600D03*
X28244800Y-3822700D03*
X20942300Y-15341600D03*
X22440900Y-15570200D03*
X24269700Y-15709900D03*
X7823200Y-15824200D03*
X5368127Y-11055437D03*
X27406600Y-22402800D03*
X27876500Y-15557500D03*
X29654500Y-11671300D03*
X19659600Y-12255502D03*
X28308300Y-6565900D03*
X26441400Y-5257800D03*
X31102300Y-13754100D03*
X25450236Y-13512678D03*
X30492300Y-14579600D03*
X25259613Y-14392271D03*
D25*
X3595489Y-22841409D02*
X3595489Y-23781302D01*
X5354898Y-21082000D02*
X3595489Y-22841409D01*
X6184900Y-21082000D02*
X5354898Y-21082000D01*
X2108200Y-4648200D02*
X1346200Y-3886200D01*
X3721100Y-4648200D02*
X2108200Y-4648200D01*
X1346200Y-23532013D02*
X1595489Y-23781302D01*
X1346200Y-19151600D02*
X1346200Y-23532013D01*
X939800Y-18745200D02*
X1346200Y-19151600D01*
X939800Y-4292600D02*
X939800Y-18745200D01*
X1346200Y-3886200D02*
X939800Y-4292600D01*
X9718000Y-21079200D02*
X10548002Y-21079200D01*
X12554200Y-23085398D02*
X12554200Y-23761700D01*
X10548002Y-21079200D02*
X12554200Y-23085398D01*
X23818600Y-2416702D02*
X23818600Y-1536700D01*
X22234802Y-4000500D02*
X23818600Y-2416702D01*
X19534000Y-4000500D02*
X22234802Y-4000500D01*
X19291300Y-4243200D02*
X19534000Y-4000500D01*
X15798800Y-4241800D02*
X14859000Y-3302000D01*
X13125200Y-2398202D02*
X13125200Y-1536700D01*
X14028998Y-3302000D02*
X13125200Y-2398202D01*
X14859000Y-3302000D02*
X14028998Y-3302000D01*
D26*
X5473700Y-8198200D02*
X6039385Y-8198200D01*
X6039385Y-8198200D02*
X7810090Y-8198200D01*
X5257800Y-13294098D02*
X5304302Y-13340600D01*
X5257800Y-12039600D02*
X5257800Y-13294098D01*
X18046700Y-20139500D02*
X18046700Y-20066000D01*
X18625900Y-20718700D02*
X18046700Y-20139500D01*
X20718700Y-20718700D02*
X18625900Y-20718700D01*
X21755100Y-21755100D02*
X20718700Y-20718700D01*
X21755100Y-23741500D02*
X21755100Y-21755100D01*
X21439400Y-24057200D02*
X21755100Y-23741500D01*
X29400500Y-5372100D02*
X27736800Y-5372100D01*
X27647900Y-5283200D02*
X27495500Y-5283200D01*
X27736800Y-5372100D02*
X27647900Y-5283200D01*
D27*
X7134900Y-24330900D02*
X7340600Y-24536600D01*
X7134900Y-24082000D02*
X7134900Y-24330900D01*
X10668000Y-24155400D02*
X10287000Y-24536400D01*
X10668000Y-24079200D02*
X10668000Y-24155400D01*
X18341300Y-802600D02*
X18275300Y-736600D01*
X18341300Y-1243200D02*
X18341300Y-802600D01*
X14849000Y-1241800D02*
X15354300Y-736500D01*
X14848800Y-1241800D02*
X14849000Y-1241800D01*
X7432415Y-21160790D02*
X7432415Y-20126585D01*
D26*
X8299398Y-19259602D02*
X14967002Y-19259602D01*
X7432415Y-20126585D02*
X8299398Y-19259602D01*
X14967002Y-19259602D02*
X15417800Y-19710400D01*
X18998799Y-12522901D02*
X19366799Y-12890901D01*
X19366799Y-12890901D02*
X19952401Y-12890901D01*
X19952401Y-12890901D02*
X21170867Y-11672435D01*
X18998799Y-12255099D02*
X18998799Y-12522901D01*
X21170867Y-11672435D02*
X25619147Y-11672435D01*
X18650001Y-11906301D02*
X18998799Y-12255099D01*
X16435373Y-11906301D02*
X18650001Y-11906301D01*
X15481300Y-17678400D02*
X15481300Y-12860374D01*
X15481300Y-12860374D02*
X16435373Y-11906301D01*
X22539400Y-21421800D02*
X21437600Y-20320000D01*
X22539400Y-24057200D02*
X22539400Y-21421800D01*
X26634000Y-22656800D02*
X25412700Y-22656800D01*
X26939400Y-24057200D02*
X26939400Y-22962200D01*
X21871153Y-19115253D02*
X20165365Y-19115253D01*
X26939400Y-22962200D02*
X26634000Y-22656800D01*
X20165365Y-19115253D02*
X19765366Y-19515252D01*
X25412700Y-22656800D02*
X21871153Y-19115253D01*
X20492735Y-19709998D02*
X19958731Y-20244002D01*
X21705002Y-19709998D02*
X20492735Y-19709998D01*
X19327544Y-20244002D02*
X18927545Y-19844003D01*
X24739400Y-22744396D02*
X21705002Y-19709998D01*
X19958731Y-20244002D02*
X19327544Y-20244002D01*
X24739400Y-24057200D02*
X24739400Y-22744396D01*
D27*
X8369300Y-21196300D02*
X8369300Y-20142200D01*
D26*
X8369300Y-20142200D02*
X8925590Y-19585910D01*
X8925590Y-19585910D02*
X14314306Y-19585910D01*
X14314306Y-19585910D02*
X15327796Y-20599400D01*
X15327796Y-20599400D02*
X15938500Y-20599400D01*
X20760965Y-12534900D02*
X25361900Y-12534900D01*
X18678788Y-12387652D02*
X18678788Y-12655453D01*
X16393991Y-17595523D02*
X16393991Y-12562009D01*
X19234247Y-13210912D02*
X20084953Y-13210912D01*
X20084953Y-13210912D02*
X20760965Y-12534900D01*
X18563337Y-12272199D02*
X18678788Y-12387652D01*
X18678788Y-12655453D02*
X19234247Y-13210912D01*
X16683801Y-12272199D02*
X18563337Y-12272199D01*
X16393991Y-12562009D02*
X16683801Y-12272199D01*
X17947351Y-4627253D02*
X18723299Y-5403201D01*
X18723299Y-5403201D02*
X19565742Y-5403201D01*
X19565742Y-5403201D02*
X22092230Y-7929689D01*
X17947351Y-3693200D02*
X17947351Y-4627253D01*
X18347350Y-3293201D02*
X17947351Y-3693200D01*
X16700736Y-3376344D02*
X16700736Y-3833201D01*
X16700736Y-3833201D02*
X18590747Y-5723212D01*
X18590747Y-5723212D02*
X19371464Y-5723212D01*
X19371464Y-5723212D02*
X21215456Y-7567204D01*
X21215456Y-7567204D02*
X21215456Y-8132889D01*
X5937199Y-10267899D02*
X5937199Y-10835734D01*
X5537200Y-9867900D02*
X5937199Y-10267899D01*
X5937199Y-10835734D02*
X6352122Y-11250657D01*
X17305731Y-6083300D02*
X19647310Y-8424879D01*
X13284200Y-6083300D02*
X17305731Y-6083300D01*
X8496597Y-4064000D02*
X11264900Y-4064000D01*
X11264900Y-4064000D02*
X13284200Y-6083300D01*
X7555051Y-5005546D02*
X8496597Y-4064000D01*
X7555051Y-5571231D02*
X7555051Y-5005546D01*
X8993244Y-15240000D02*
X8401101Y-14647857D01*
X10071100Y-15240000D02*
X8993244Y-15240000D01*
X8401101Y-14647857D02*
X8401101Y-10361509D01*
X8401101Y-10361509D02*
X9113810Y-9648800D01*
X20332700Y-7889208D02*
X20353034Y-7868874D01*
X20353034Y-7868874D02*
X20355039Y-7868874D01*
X20355039Y-8639004D02*
X20355039Y-7868874D01*
X19959154Y-9034889D02*
X20355039Y-8639004D01*
X12966700Y-6477000D02*
X16756214Y-6477000D01*
X16756214Y-6477000D02*
X19314103Y-9034889D01*
X11327899Y-4838199D02*
X12966700Y-6477000D01*
X8637806Y-4838199D02*
X11327899Y-4838199D01*
X19314103Y-9034889D02*
X19959154Y-9034889D01*
X8492963Y-4983042D02*
X8637806Y-4838199D01*
X8492963Y-5548727D02*
X8492963Y-4983042D01*
D25*
X3721100Y-6948200D02*
X7275800Y-6948200D01*
X7275800Y-6948200D02*
X10021100Y-6948200D01*
X11281800Y-11303000D02*
X13550900Y-13572100D01*
X9956800Y-11303000D02*
X11281800Y-11303000D01*
X13550900Y-13572100D02*
X13550900Y-16776700D01*
D27*
X13550900Y-16776700D02*
X12115600Y-16776700D01*
D26*
X6235700Y-16649700D02*
X6235700Y-17208500D01*
X6235700Y-17208500D02*
X6858000Y-17830800D01*
X6858000Y-17830800D02*
X11061500Y-17830800D01*
D25*
X9956800Y-11303000D02*
X9956800Y-10858500D01*
X9956800Y-10858500D02*
X10007600Y-10807700D01*
X10407599Y-10407701D02*
X10007600Y-10807700D01*
X10021100Y-6948200D02*
X10407599Y-7334699D01*
X10407599Y-7334699D02*
X10407599Y-10407701D01*
D26*
X7275800Y-6948200D02*
X7532984Y-6948200D01*
X8490183Y-7905399D02*
X8490183Y-8807223D01*
X7532984Y-6948200D02*
X8490183Y-7905399D01*
X8490183Y-8807223D02*
X7620000Y-9677406D01*
D25*
X32385000Y-6578600D02*
X32385000Y-1473200D01*
X10021100Y-6948200D02*
X11151900Y-6948200D01*
X11151900Y-6948200D02*
X14820900Y-10617200D01*
D27*
X29502100Y-9042200D02*
X28638500Y-8178600D01*
X29502100Y-9461500D02*
X29502100Y-9042200D01*
D26*
X23639400Y-22788500D02*
X23241000Y-22390100D01*
X23639400Y-24057200D02*
X23639400Y-22788500D01*
X17818100Y-21107400D02*
X20091400Y-21107400D01*
X20091400Y-21107400D02*
X21120100Y-22136100D01*
X21120100Y-22555200D02*
X21094700Y-22580600D01*
X21120100Y-22136100D02*
X21120100Y-22555200D01*
X17995900Y-8724900D02*
X17995900Y-10617200D01*
X17297400Y-8026400D02*
X17995900Y-8724900D01*
D25*
X16725900Y-10617200D02*
X17995900Y-10617200D01*
X14820900Y-10617200D02*
X16725900Y-10617200D01*
D26*
X17157700Y-17699961D02*
X17157700Y-16882214D01*
X16569260Y-18288401D02*
X17157700Y-17699961D01*
X15062601Y-18288401D02*
X16569260Y-18288401D01*
X13550900Y-16776700D02*
X15062601Y-18288401D01*
X11842650Y-17049650D02*
X12115600Y-16776700D01*
X11061500Y-17830800D02*
X11842650Y-17049650D01*
X29857700Y-18338800D02*
X30022800Y-18173700D01*
X28117800Y-18338800D02*
X29857700Y-18338800D01*
X31362650Y-7600950D02*
X31362650Y-8058150D01*
D25*
X29502100Y-9461500D02*
X31362650Y-7600950D01*
X31362650Y-7600950D02*
X32385000Y-6578600D01*
D26*
X33782000Y-10477500D02*
X33985200Y-10477500D01*
X31362650Y-8058150D02*
X33782000Y-10477500D01*
D25*
X17995900Y-10617200D02*
X18618200Y-9994900D01*
X18618200Y-9994900D02*
X28968700Y-9994900D01*
X28968700Y-9994900D02*
X29502100Y-9461500D01*
D26*
X34734500Y-24447500D02*
X34874200Y-24307800D01*
X31546800Y-24447500D02*
X34734500Y-24447500D01*
X18923000Y-14909800D02*
X19799300Y-15786100D01*
X19799300Y-15786100D02*
X19799300Y-16611600D01*
X26657300Y-21793200D02*
X26657300Y-19748500D01*
X26657300Y-19748500D02*
X26682700Y-19723100D01*
X16725900Y-10617200D02*
X16471900Y-10363200D01*
X16471900Y-10363200D02*
X16471900Y-9867900D01*
D27*
X16748800Y-2245400D02*
X16814800Y-2311400D01*
X16748800Y-1241800D02*
X16748800Y-2245400D01*
X8768000Y-23007300D02*
X8813800Y-22961500D01*
X8768000Y-24079200D02*
X8768000Y-23007300D01*
X5234900Y-24082000D02*
X5234900Y-23124200D01*
X5234900Y-23124200D02*
X5816600Y-22542500D01*
X7404100Y-22542500D02*
X7480300Y-22466300D01*
X5816600Y-22542500D02*
X7404100Y-22542500D01*
X18941299Y-2543201D02*
X17046601Y-2543201D01*
X17046601Y-2543201D02*
X16814800Y-2311400D01*
X20241300Y-1243200D02*
X18941299Y-2543201D01*
D26*
X7823200Y-15824200D02*
X5943600Y-13944600D01*
X5943600Y-11851156D02*
X5368127Y-11275683D01*
X5368127Y-11275683D02*
X5368127Y-11055437D01*
X5943600Y-13944600D02*
X5943600Y-11851156D01*
X27419300Y-16014700D02*
X27876500Y-15557500D01*
X27419300Y-22390100D02*
X27419300Y-16014700D01*
X27406600Y-22402800D02*
X27419300Y-22390100D01*
X29654500Y-11671300D02*
X28938111Y-10954911D01*
X20960191Y-10954911D02*
X19659600Y-12255502D01*
X28938111Y-10954911D02*
X20960191Y-10954911D01*
X28308300Y-6565900D02*
X27749500Y-6565900D01*
X27749500Y-6565900D02*
X26441400Y-5257800D01*
X26224814Y-12738100D02*
X25450236Y-13512678D01*
X31102300Y-13754100D02*
X30086300Y-12738100D01*
X30086300Y-12738100D02*
X26224814Y-12738100D01*
X25825298Y-14392271D02*
X25259613Y-14392271D01*
X26857169Y-13360400D02*
X25825298Y-14392271D01*
X30492300Y-14579600D02*
X29273100Y-13360400D01*
X29273100Y-13360400D02*
X26857169Y-13360400D01*
D28*
X25391703Y-23084300D02*
X25391711Y-23084300D01*
X25412700Y-23086367D01*
X25433689Y-23084300D01*
X26287311Y-23084300D01*
X26276494Y-23119959D01*
X26270364Y-23182200D01*
X26270364Y-24932200D01*
X26276494Y-24994441D01*
X26288039Y-25032500D01*
X25390761Y-25032500D01*
X25402306Y-24994441D01*
X25408436Y-24932200D01*
X25408436Y-23182200D01*
X25402306Y-23119959D01*
X25391482Y-23084278D01*
X25391703Y-23084300D01*
G04 #@! TA.AperFunction,Conductor*
D29*
G36*
X25391703Y-23084300D02*
G01*
X25391711Y-23084300D01*
X25412700Y-23086367D01*
X25433689Y-23084300D01*
X26287311Y-23084300D01*
X26276494Y-23119959D01*
X26270364Y-23182200D01*
X26270364Y-24932200D01*
X26276494Y-24994441D01*
X26288039Y-25032500D01*
X25390761Y-25032500D01*
X25402306Y-24994441D01*
X25408436Y-24932200D01*
X25408436Y-23182200D01*
X25402306Y-23119959D01*
X25391482Y-23084278D01*
X25391703Y-23084300D01*
G37*
G04 #@! TD.AperFunction*
D28*
X14129764Y-1170880D02*
X14116213Y-1126209D01*
X14017088Y-940759D01*
X13883689Y-778211D01*
X13721141Y-644812D01*
X13535691Y-545687D01*
X13334467Y-484646D01*
X13125200Y-464035D01*
X12915934Y-484646D01*
X12714710Y-545687D01*
X12529260Y-644812D01*
X12366712Y-778211D01*
X12233313Y-940759D01*
X12134188Y-1126209D01*
X12119236Y-1175498D01*
X12119236Y-861700D01*
X12113106Y-799459D01*
X12094951Y-739610D01*
X12065469Y-684453D01*
X12025793Y-636107D01*
X11977447Y-596431D01*
X11922290Y-566949D01*
X11862441Y-548794D01*
X11800200Y-542664D01*
X10450200Y-542664D01*
X10387959Y-548794D01*
X10328110Y-566949D01*
X10272953Y-596431D01*
X10224607Y-636107D01*
X10184931Y-684453D01*
X10155449Y-739610D01*
X10137294Y-799459D01*
X10131164Y-861700D01*
X10131164Y-2211700D01*
X10137294Y-2273941D01*
X10155449Y-2333790D01*
X10184931Y-2388947D01*
X10224607Y-2437293D01*
X10272953Y-2476969D01*
X10328110Y-2506451D01*
X10387959Y-2524606D01*
X10450200Y-2530736D01*
X11800200Y-2530736D01*
X11862441Y-2524606D01*
X11922290Y-2506451D01*
X11977447Y-2476969D01*
X12025793Y-2437293D01*
X12053107Y-2404010D01*
X12057700Y-2450640D01*
X12057700Y-2450642D01*
X12073146Y-2607468D01*
X12134187Y-2808692D01*
X12233312Y-2994143D01*
X12366711Y-3156691D01*
X12407452Y-3190126D01*
X13237078Y-4019753D01*
X13270509Y-4060489D01*
X13433057Y-4193888D01*
X13618507Y-4293013D01*
X13819731Y-4354054D01*
X13976557Y-4369500D01*
X13976559Y-4369500D01*
X14028997Y-4374665D01*
X14081435Y-4369500D01*
X14416828Y-4369500D01*
X15079764Y-5032437D01*
X15079764Y-5191800D01*
X15085894Y-5254041D01*
X15104049Y-5313890D01*
X15133531Y-5369047D01*
X15173207Y-5417393D01*
X15221553Y-5457069D01*
X15276710Y-5486551D01*
X15336559Y-5504706D01*
X15398800Y-5510836D01*
X16198800Y-5510836D01*
X16261041Y-5504706D01*
X16320890Y-5486551D01*
X16376047Y-5457069D01*
X16424393Y-5417393D01*
X16464069Y-5369047D01*
X16493551Y-5313890D01*
X16511706Y-5254041D01*
X16517836Y-5191800D01*
X16517836Y-5032665D01*
X16557288Y-5000288D01*
X16690688Y-4837740D01*
X16789813Y-4652291D01*
X16819008Y-4556049D01*
X18273618Y-6010660D01*
X18286997Y-6026962D01*
X18303299Y-6040341D01*
X18303305Y-6040347D01*
X18322759Y-6056312D01*
X18352092Y-6080385D01*
X18426358Y-6120081D01*
X18506942Y-6144526D01*
X18569750Y-6150712D01*
X18569759Y-6150712D01*
X18590746Y-6152779D01*
X18611733Y-6150712D01*
X19194388Y-6150712D01*
X20209869Y-7166193D01*
X20145752Y-7178947D01*
X20015175Y-7233033D01*
X19897659Y-7311555D01*
X19797720Y-7411494D01*
X19719198Y-7529010D01*
X19665112Y-7659587D01*
X19655606Y-7707379D01*
X19576642Y-7707379D01*
X19541397Y-7714390D01*
X17622864Y-5795857D01*
X17609481Y-5779550D01*
X17586116Y-5760374D01*
X17579468Y-5754919D01*
X17544386Y-5726127D01*
X17470120Y-5686431D01*
X17389536Y-5661986D01*
X17326728Y-5655800D01*
X17326720Y-5655800D01*
X17305731Y-5653733D01*
X17284742Y-5655800D01*
X13461276Y-5655800D01*
X11582033Y-3776557D01*
X11568650Y-3760250D01*
X11503555Y-3706827D01*
X11429289Y-3667131D01*
X11348705Y-3642686D01*
X11285897Y-3636500D01*
X11285889Y-3636500D01*
X11264900Y-3634433D01*
X11243911Y-3636500D01*
X8517583Y-3636500D01*
X8496596Y-3634433D01*
X8475609Y-3636500D01*
X8475600Y-3636500D01*
X8412792Y-3642686D01*
X8332208Y-3667131D01*
X8257942Y-3706827D01*
X8240730Y-3720953D01*
X8209155Y-3746865D01*
X8209149Y-3746871D01*
X8192847Y-3760250D01*
X8179468Y-3776552D01*
X7267603Y-4688418D01*
X7251302Y-4701796D01*
X7237923Y-4718098D01*
X7237916Y-4718105D01*
X7197878Y-4766892D01*
X7158182Y-4841158D01*
X7133737Y-4921742D01*
X7126561Y-4994608D01*
X7097671Y-5013912D01*
X6997732Y-5113851D01*
X6919210Y-5231367D01*
X6865124Y-5361944D01*
X6837551Y-5500563D01*
X6837551Y-5641899D01*
X6865124Y-5780518D01*
X6906620Y-5880700D01*
X4736696Y-5880700D01*
X4721100Y-5879164D01*
X2721100Y-5879164D01*
X2658859Y-5885294D01*
X2599010Y-5903449D01*
X2543853Y-5932931D01*
X2495507Y-5972607D01*
X2455831Y-6020953D01*
X2426349Y-6076110D01*
X2408194Y-6135959D01*
X2402064Y-6198200D01*
X2402064Y-7698200D01*
X2408194Y-7760441D01*
X2426349Y-7820290D01*
X2455831Y-7875447D01*
X2495507Y-7923793D01*
X2543853Y-7963469D01*
X2599010Y-7992951D01*
X2658859Y-8011106D01*
X2721100Y-8017236D01*
X4721100Y-8017236D01*
X4736696Y-8015700D01*
X4778445Y-8015700D01*
X4756200Y-8127532D01*
X4756200Y-8268868D01*
X4783773Y-8407487D01*
X4837859Y-8538064D01*
X4916381Y-8655580D01*
X5016320Y-8755519D01*
X5133836Y-8834041D01*
X5264413Y-8888127D01*
X5403032Y-8915700D01*
X5544368Y-8915700D01*
X5682987Y-8888127D01*
X5813564Y-8834041D01*
X5931080Y-8755519D01*
X6031019Y-8655580D01*
X6050984Y-8625700D01*
X7232806Y-8625700D01*
X7252771Y-8655580D01*
X7352710Y-8755519D01*
X7470226Y-8834041D01*
X7600803Y-8888127D01*
X7739422Y-8915700D01*
X7777130Y-8915700D01*
X7725913Y-8966917D01*
X7690668Y-8959906D01*
X7549332Y-8959906D01*
X7410713Y-8987479D01*
X7280136Y-9041565D01*
X7162620Y-9120087D01*
X7062681Y-9220026D01*
X6984159Y-9337542D01*
X6930073Y-9468119D01*
X6902500Y-9606738D01*
X6902500Y-9748074D01*
X6930073Y-9886693D01*
X6984159Y-10017270D01*
X7062681Y-10134786D01*
X7162620Y-10234725D01*
X7280136Y-10313247D01*
X7410713Y-10367333D01*
X7549332Y-10394906D01*
X7690668Y-10394906D01*
X7829287Y-10367333D01*
X7959864Y-10313247D01*
X7977444Y-10301501D01*
X7971534Y-10361509D01*
X7973602Y-10382508D01*
X7973601Y-14626868D01*
X7971534Y-14647857D01*
X7973601Y-14668846D01*
X7973601Y-14668853D01*
X7977595Y-14709406D01*
X7979787Y-14731661D01*
X8004232Y-14812245D01*
X8043928Y-14886511D01*
X8083966Y-14935298D01*
X8083969Y-14935301D01*
X8097351Y-14951607D01*
X8113658Y-14964990D01*
X8676111Y-15527443D01*
X8689494Y-15543750D01*
X8754589Y-15597173D01*
X8828855Y-15636869D01*
X8909439Y-15661314D01*
X8972247Y-15667500D01*
X8972255Y-15667500D01*
X8993244Y-15669567D01*
X9014233Y-15667500D01*
X9493816Y-15667500D01*
X9513781Y-15697380D01*
X9613720Y-15797319D01*
X9731236Y-15875841D01*
X9861813Y-15929927D01*
X10000432Y-15957500D01*
X10141768Y-15957500D01*
X10280387Y-15929927D01*
X10410964Y-15875841D01*
X10528480Y-15797319D01*
X10628419Y-15697380D01*
X10706941Y-15579864D01*
X10761027Y-15449287D01*
X10788600Y-15310668D01*
X10788600Y-15169332D01*
X10761027Y-15030713D01*
X10706941Y-14900136D01*
X10628419Y-14782620D01*
X10528480Y-14682681D01*
X10410964Y-14604159D01*
X10280387Y-14550073D01*
X10141768Y-14522500D01*
X10000432Y-14522500D01*
X9861813Y-14550073D01*
X9731236Y-14604159D01*
X9613720Y-14682681D01*
X9513781Y-14782620D01*
X9493816Y-14812500D01*
X9170320Y-14812500D01*
X8828601Y-14470781D01*
X8828601Y-12241796D01*
X8881800Y-12247036D01*
X9458421Y-12247036D01*
X9546309Y-12294013D01*
X9747533Y-12355054D01*
X9956800Y-12375665D01*
X10009241Y-12370500D01*
X10839628Y-12370500D01*
X12483400Y-14014273D01*
X12483401Y-16209200D01*
X12087729Y-16209200D01*
X12004351Y-16217412D01*
X11897377Y-16249862D01*
X11798789Y-16302559D01*
X11759773Y-16334579D01*
X11633363Y-16359723D01*
X11502786Y-16413809D01*
X11385270Y-16492331D01*
X11285331Y-16592270D01*
X11206809Y-16709786D01*
X11152723Y-16840363D01*
X11125150Y-16978982D01*
X11125150Y-17120318D01*
X11132161Y-17155563D01*
X10884424Y-17403300D01*
X7035077Y-17403300D01*
X6765938Y-17134161D01*
X6793019Y-17107080D01*
X6871541Y-16989564D01*
X6925627Y-16858987D01*
X6953200Y-16720368D01*
X6953200Y-16579032D01*
X6925627Y-16440413D01*
X6871541Y-16309836D01*
X6793019Y-16192320D01*
X6693080Y-16092381D01*
X6575564Y-16013859D01*
X6444987Y-15959773D01*
X6306368Y-15932200D01*
X6165032Y-15932200D01*
X6026413Y-15959773D01*
X5895836Y-16013859D01*
X5778320Y-16092381D01*
X5678381Y-16192320D01*
X5599859Y-16309836D01*
X5545773Y-16440413D01*
X5518200Y-16579032D01*
X5518200Y-16720368D01*
X5545773Y-16858987D01*
X5599859Y-16989564D01*
X5678381Y-17107080D01*
X5778320Y-17207019D01*
X5807936Y-17226808D01*
X5814386Y-17292304D01*
X5838831Y-17372888D01*
X5878527Y-17447154D01*
X5918565Y-17495941D01*
X5918572Y-17495948D01*
X5931951Y-17512250D01*
X5948252Y-17525628D01*
X6540871Y-18118248D01*
X6554250Y-18134550D01*
X6570552Y-18147929D01*
X6570558Y-18147935D01*
X6596561Y-18169274D01*
X6619345Y-18187973D01*
X6693611Y-18227669D01*
X6774195Y-18252114D01*
X6837003Y-18258300D01*
X6837012Y-18258300D01*
X6857999Y-18260367D01*
X6878986Y-18258300D01*
X11040511Y-18258300D01*
X11061500Y-18260367D01*
X11082489Y-18258300D01*
X11082497Y-18258300D01*
X11145305Y-18252114D01*
X11225889Y-18227669D01*
X11300155Y-18187973D01*
X11365250Y-18134550D01*
X11378633Y-18118243D01*
X11736737Y-17760139D01*
X11771982Y-17767150D01*
X11913318Y-17767150D01*
X12051937Y-17739577D01*
X12182514Y-17685491D01*
X12300030Y-17606969D01*
X12399969Y-17507030D01*
X12478491Y-17389514D01*
X12497260Y-17344200D01*
X12643811Y-17344200D01*
X12659013Y-17372641D01*
X12792412Y-17535189D01*
X12954960Y-17668588D01*
X13140410Y-17767713D01*
X13341634Y-17828754D01*
X13550900Y-17849365D01*
X13760167Y-17828754D01*
X13942935Y-17773312D01*
X14745472Y-18575849D01*
X14758851Y-18592151D01*
X14775153Y-18605530D01*
X14775159Y-18605536D01*
X14806285Y-18631080D01*
X14823946Y-18645574D01*
X14898212Y-18685270D01*
X14978796Y-18709715D01*
X15041604Y-18715901D01*
X15041613Y-18715901D01*
X15062600Y-18717968D01*
X15083587Y-18715901D01*
X16548271Y-18715901D01*
X16569260Y-18717968D01*
X16590249Y-18715901D01*
X16590257Y-18715901D01*
X16653065Y-18709715D01*
X16733649Y-18685270D01*
X16807915Y-18645574D01*
X16873010Y-18592151D01*
X16886393Y-18575844D01*
X17445144Y-18017093D01*
X17461450Y-18003711D01*
X17477093Y-17984651D01*
X17514873Y-17938616D01*
X17554569Y-17864350D01*
X17579014Y-17783766D01*
X17580595Y-17767713D01*
X17585200Y-17720958D01*
X17585200Y-17720950D01*
X17587267Y-17699961D01*
X17585200Y-17678972D01*
X17585200Y-17459498D01*
X17615080Y-17439533D01*
X17715019Y-17339594D01*
X17793541Y-17222078D01*
X17847627Y-17091501D01*
X17875200Y-16952882D01*
X17875200Y-16811546D01*
X17847627Y-16672927D01*
X17793541Y-16542350D01*
X17715019Y-16424834D01*
X17615080Y-16324895D01*
X17497564Y-16246373D01*
X17366987Y-16192287D01*
X17228368Y-16164714D01*
X17087032Y-16164714D01*
X16948413Y-16192287D01*
X16821491Y-16244859D01*
X16821491Y-12739085D01*
X16860878Y-12699699D01*
X18253578Y-12699699D01*
X18257474Y-12739258D01*
X18281919Y-12819842D01*
X18292361Y-12839377D01*
X18321615Y-12894107D01*
X18361653Y-12942894D01*
X18361660Y-12942901D01*
X18375039Y-12959203D01*
X18391341Y-12972582D01*
X18917114Y-13498355D01*
X18930497Y-13514662D01*
X18946804Y-13528045D01*
X18946806Y-13528047D01*
X18967235Y-13544813D01*
X18995592Y-13568085D01*
X19069858Y-13607781D01*
X19150442Y-13632226D01*
X19213250Y-13638412D01*
X19213258Y-13638412D01*
X19234247Y-13640479D01*
X19255236Y-13638412D01*
X20063964Y-13638412D01*
X20084953Y-13640479D01*
X20105942Y-13638412D01*
X20105950Y-13638412D01*
X20168758Y-13632226D01*
X20249342Y-13607781D01*
X20323608Y-13568085D01*
X20358690Y-13539293D01*
X20372394Y-13528047D01*
X20372396Y-13528045D01*
X20388703Y-13514662D01*
X20402086Y-13498355D01*
X20870241Y-13030200D01*
X21501100Y-13030200D01*
X21501100Y-14884400D01*
X21502320Y-14896788D01*
X21505934Y-14908700D01*
X21511802Y-14919679D01*
X21519699Y-14929301D01*
X21529321Y-14937198D01*
X21540300Y-14943066D01*
X21552212Y-14946680D01*
X21564600Y-14947900D01*
X24079200Y-14947900D01*
X24091588Y-14946680D01*
X24103500Y-14943066D01*
X24114479Y-14937198D01*
X24124101Y-14929301D01*
X24131998Y-14919679D01*
X24137866Y-14908700D01*
X24141480Y-14896788D01*
X24142700Y-14884400D01*
X24142700Y-13030200D01*
X24141480Y-13017812D01*
X24137866Y-13005900D01*
X24131998Y-12994921D01*
X24124101Y-12985299D01*
X24114479Y-12977402D01*
X24103500Y-12971534D01*
X24091588Y-12967920D01*
X24079200Y-12966700D01*
X21564600Y-12966700D01*
X21552212Y-12967920D01*
X21540300Y-12971534D01*
X21529321Y-12977402D01*
X21519699Y-12985299D01*
X21511802Y-12994921D01*
X21505934Y-13005900D01*
X21502320Y-13017812D01*
X21501100Y-13030200D01*
X20870241Y-13030200D01*
X20938042Y-12962400D01*
X24784616Y-12962400D01*
X24804581Y-12992280D01*
X24882776Y-13070475D01*
X24814395Y-13172814D01*
X24760309Y-13303391D01*
X24732736Y-13442010D01*
X24732736Y-13583346D01*
X24760309Y-13721965D01*
X24806052Y-13832400D01*
X24802233Y-13834952D01*
X24702294Y-13934891D01*
X24623772Y-14052407D01*
X24569686Y-14182984D01*
X24542113Y-14321603D01*
X24542113Y-14462939D01*
X24569686Y-14601558D01*
X24623772Y-14732135D01*
X24702294Y-14849651D01*
X24802233Y-14949590D01*
X24919749Y-15028112D01*
X25050326Y-15082198D01*
X25188945Y-15109771D01*
X25330281Y-15109771D01*
X25468900Y-15082198D01*
X25599477Y-15028112D01*
X25716993Y-14949590D01*
X25816932Y-14849651D01*
X25836236Y-14820761D01*
X25846287Y-14819771D01*
X25846295Y-14819771D01*
X25909103Y-14813585D01*
X25989687Y-14789140D01*
X26063953Y-14749444D01*
X26129048Y-14696021D01*
X26142431Y-14679714D01*
X27034246Y-13787900D01*
X29096024Y-13787900D01*
X29781811Y-14473687D01*
X29774800Y-14508932D01*
X29774800Y-14650268D01*
X29802373Y-14788887D01*
X29856459Y-14919464D01*
X29934981Y-15036980D01*
X30034920Y-15136919D01*
X30152436Y-15215441D01*
X30283013Y-15269527D01*
X30421632Y-15297100D01*
X30562968Y-15297100D01*
X30701587Y-15269527D01*
X30832164Y-15215441D01*
X30949680Y-15136919D01*
X31049619Y-15036980D01*
X31128141Y-14919464D01*
X31182227Y-14788887D01*
X31209800Y-14650268D01*
X31209800Y-14508932D01*
X31207598Y-14497860D01*
X33445440Y-14497860D01*
X33445440Y-14686740D01*
X33482288Y-14871989D01*
X33554569Y-15046491D01*
X33659504Y-15203538D01*
X33793062Y-15337096D01*
X33950109Y-15442031D01*
X34124611Y-15514312D01*
X34309860Y-15551160D01*
X34498740Y-15551160D01*
X34683989Y-15514312D01*
X34858491Y-15442031D01*
X35015538Y-15337096D01*
X35149096Y-15203538D01*
X35254031Y-15046491D01*
X35326312Y-14871989D01*
X35363160Y-14686740D01*
X35363160Y-14497860D01*
X35326312Y-14312611D01*
X35254031Y-14138109D01*
X35149096Y-13981062D01*
X35015538Y-13847504D01*
X34858491Y-13742569D01*
X34683989Y-13670288D01*
X34498740Y-13633440D01*
X34309860Y-13633440D01*
X34124611Y-13670288D01*
X33950109Y-13742569D01*
X33793062Y-13847504D01*
X33659504Y-13981062D01*
X33554569Y-14138109D01*
X33482288Y-14312611D01*
X33445440Y-14497860D01*
X31207598Y-14497860D01*
X31201255Y-14465973D01*
X31311587Y-14444027D01*
X31442164Y-14389941D01*
X31559680Y-14311419D01*
X31659619Y-14211480D01*
X31738141Y-14093964D01*
X31792227Y-13963387D01*
X31819800Y-13824768D01*
X31819800Y-13683432D01*
X31792227Y-13544813D01*
X31738141Y-13414236D01*
X31659619Y-13296720D01*
X31559680Y-13196781D01*
X31442164Y-13118259D01*
X31311587Y-13064173D01*
X31172968Y-13036600D01*
X31031632Y-13036600D01*
X30996387Y-13043611D01*
X30403433Y-12450657D01*
X30390050Y-12434350D01*
X30368665Y-12416799D01*
X30345295Y-12397620D01*
X30324955Y-12380927D01*
X30250689Y-12341231D01*
X30170105Y-12316786D01*
X30107297Y-12310600D01*
X30107289Y-12310600D01*
X30086300Y-12308533D01*
X30065311Y-12310600D01*
X29986013Y-12310600D01*
X29994364Y-12307141D01*
X30111880Y-12228619D01*
X30211819Y-12128680D01*
X30290341Y-12011164D01*
X30344427Y-11880587D01*
X30372000Y-11741968D01*
X30372000Y-11600632D01*
X30344427Y-11462013D01*
X30290341Y-11331436D01*
X30211819Y-11213920D01*
X30111880Y-11113981D01*
X29994364Y-11035459D01*
X29863787Y-10981373D01*
X29725168Y-10953800D01*
X29583832Y-10953800D01*
X29548587Y-10960811D01*
X29505940Y-10918164D01*
X29564641Y-10886788D01*
X29727189Y-10753389D01*
X29760625Y-10712647D01*
X31586598Y-8886674D01*
X33272569Y-10572645D01*
X33295273Y-10686787D01*
X33349359Y-10817364D01*
X33427881Y-10934880D01*
X33527820Y-11034819D01*
X33645336Y-11113341D01*
X33775913Y-11167427D01*
X33914532Y-11195000D01*
X34055868Y-11195000D01*
X34194487Y-11167427D01*
X34325064Y-11113341D01*
X34442580Y-11034819D01*
X34542519Y-10934880D01*
X34621041Y-10817364D01*
X34675127Y-10686787D01*
X34702700Y-10548168D01*
X34702700Y-10406832D01*
X34675127Y-10268213D01*
X34621041Y-10137636D01*
X34542519Y-10020120D01*
X34442580Y-9920181D01*
X34325064Y-9841659D01*
X34194487Y-9787573D01*
X34055868Y-9760000D01*
X33914532Y-9760000D01*
X33775913Y-9787573D01*
X33719865Y-9810789D01*
X32191174Y-8282098D01*
X33102753Y-7370520D01*
X33143489Y-7337089D01*
X33276888Y-7174541D01*
X33376013Y-6989091D01*
X33437054Y-6787867D01*
X33452500Y-6631041D01*
X33452500Y-6631039D01*
X33457665Y-6578601D01*
X33452500Y-6526163D01*
X33452500Y-1946852D01*
X33507634Y-1813747D01*
X33552500Y-1588189D01*
X33552500Y-1358211D01*
X33507634Y-1132653D01*
X33419625Y-920181D01*
X33291856Y-728962D01*
X33129238Y-566344D01*
X32938019Y-438575D01*
X32766429Y-367500D01*
X36157700Y-367500D01*
X36157701Y-25032500D01*
X31962753Y-25032500D01*
X32004180Y-25004819D01*
X32104119Y-24904880D01*
X32124084Y-24875000D01*
X34431608Y-24875000D01*
X34534336Y-24943641D01*
X34664913Y-24997727D01*
X34803532Y-25025300D01*
X34944868Y-25025300D01*
X35083487Y-24997727D01*
X35214064Y-24943641D01*
X35331580Y-24865119D01*
X35431519Y-24765180D01*
X35510041Y-24647664D01*
X35564127Y-24517087D01*
X35591700Y-24378468D01*
X35591700Y-24237132D01*
X35564127Y-24098513D01*
X35510041Y-23967936D01*
X35431519Y-23850420D01*
X35331580Y-23750481D01*
X35214064Y-23671959D01*
X35083487Y-23617873D01*
X34944868Y-23590300D01*
X34803532Y-23590300D01*
X34664913Y-23617873D01*
X34534336Y-23671959D01*
X34416820Y-23750481D01*
X34316881Y-23850420D01*
X34238359Y-23967936D01*
X34216794Y-24020000D01*
X32124084Y-24020000D01*
X32104119Y-23990120D01*
X32004180Y-23890181D01*
X31886664Y-23811659D01*
X31756087Y-23757573D01*
X31617468Y-23730000D01*
X31476132Y-23730000D01*
X31337513Y-23757573D01*
X31206936Y-23811659D01*
X31089420Y-23890181D01*
X30989481Y-23990120D01*
X30910959Y-24107636D01*
X30856873Y-24238213D01*
X30829300Y-24376832D01*
X30829300Y-24518168D01*
X30856873Y-24656787D01*
X30910959Y-24787364D01*
X30989481Y-24904880D01*
X31089420Y-25004819D01*
X31130847Y-25032500D01*
X28690761Y-25032500D01*
X28702306Y-24994441D01*
X28708436Y-24932200D01*
X28708436Y-23182200D01*
X28702306Y-23119959D01*
X28684151Y-23060110D01*
X28654669Y-23004953D01*
X28614993Y-22956607D01*
X28566647Y-22916931D01*
X28511490Y-22887449D01*
X28451641Y-22869294D01*
X28389400Y-22863164D01*
X27960935Y-22863164D01*
X27963919Y-22860180D01*
X28042441Y-22742664D01*
X28096527Y-22612087D01*
X28124100Y-22473468D01*
X28124100Y-22332132D01*
X28096527Y-22193513D01*
X28042441Y-22062936D01*
X27963919Y-21945420D01*
X27863980Y-21845481D01*
X27846800Y-21834002D01*
X27846800Y-21426662D01*
X27914604Y-21528138D01*
X28048162Y-21661696D01*
X28205209Y-21766631D01*
X28379711Y-21838912D01*
X28564960Y-21875760D01*
X28753840Y-21875760D01*
X28939089Y-21838912D01*
X29113591Y-21766631D01*
X29270638Y-21661696D01*
X29404196Y-21528138D01*
X29509131Y-21371091D01*
X29581412Y-21196589D01*
X29618260Y-21011340D01*
X29618260Y-20822460D01*
X29581412Y-20637211D01*
X29509131Y-20462709D01*
X29404196Y-20305662D01*
X29270638Y-20172104D01*
X29113591Y-20067169D01*
X28939089Y-19994888D01*
X28753840Y-19958040D01*
X28564960Y-19958040D01*
X28379711Y-19994888D01*
X28205209Y-20067169D01*
X28048162Y-20172104D01*
X27914604Y-20305662D01*
X27846800Y-20407138D01*
X27846800Y-19003165D01*
X27908513Y-19028727D01*
X28047132Y-19056300D01*
X28188468Y-19056300D01*
X28327087Y-19028727D01*
X28457664Y-18974641D01*
X28575180Y-18896119D01*
X28675119Y-18796180D01*
X28695084Y-18766300D01*
X29618222Y-18766300D01*
X29682936Y-18809541D01*
X29813513Y-18863627D01*
X29952132Y-18891200D01*
X30093468Y-18891200D01*
X30232087Y-18863627D01*
X30362664Y-18809541D01*
X30480180Y-18731019D01*
X30580119Y-18631080D01*
X30658641Y-18513564D01*
X30712727Y-18382987D01*
X30740300Y-18244368D01*
X30740300Y-18103032D01*
X30712727Y-17964413D01*
X30658641Y-17833836D01*
X30580119Y-17716320D01*
X30480180Y-17616381D01*
X30362664Y-17537859D01*
X30232087Y-17483773D01*
X30093468Y-17456200D01*
X29952132Y-17456200D01*
X29813513Y-17483773D01*
X29682936Y-17537859D01*
X29565420Y-17616381D01*
X29465481Y-17716320D01*
X29386959Y-17833836D01*
X29354873Y-17911300D01*
X28695084Y-17911300D01*
X28675119Y-17881420D01*
X28575180Y-17781481D01*
X28457664Y-17702959D01*
X28327087Y-17648873D01*
X28188468Y-17621300D01*
X28047132Y-17621300D01*
X27908513Y-17648873D01*
X27846800Y-17674435D01*
X27846800Y-16275000D01*
X27947168Y-16275000D01*
X28085787Y-16247427D01*
X28216364Y-16193341D01*
X28333880Y-16114819D01*
X28433819Y-16014880D01*
X28512341Y-15897364D01*
X28566427Y-15766787D01*
X28594000Y-15628168D01*
X28594000Y-15486832D01*
X28566427Y-15348213D01*
X28512341Y-15217636D01*
X28433819Y-15100120D01*
X28333880Y-15000181D01*
X28216364Y-14921659D01*
X28085787Y-14867573D01*
X27947168Y-14840000D01*
X27805832Y-14840000D01*
X27667213Y-14867573D01*
X27536636Y-14921659D01*
X27419120Y-15000181D01*
X27319181Y-15100120D01*
X27240659Y-15217636D01*
X27186573Y-15348213D01*
X27159000Y-15486832D01*
X27159000Y-15628168D01*
X27166011Y-15663413D01*
X27131853Y-15697571D01*
X27115551Y-15710950D01*
X27102172Y-15727252D01*
X27102165Y-15727259D01*
X27062127Y-15776046D01*
X27022431Y-15850312D01*
X26997986Y-15930896D01*
X26989733Y-16014700D01*
X26991801Y-16035699D01*
X26991801Y-17182747D01*
X20282668Y-17142931D01*
X20356619Y-17068980D01*
X20435141Y-16951464D01*
X20489227Y-16820887D01*
X20516800Y-16682268D01*
X20516800Y-16540932D01*
X20489227Y-16402313D01*
X20435141Y-16271736D01*
X20356619Y-16154220D01*
X20256680Y-16054281D01*
X20226800Y-16034316D01*
X20226800Y-15807086D01*
X20228867Y-15786099D01*
X20226800Y-15765112D01*
X20226800Y-15765103D01*
X20220614Y-15702295D01*
X20196169Y-15621711D01*
X20156473Y-15547445D01*
X20147703Y-15536759D01*
X20116435Y-15498658D01*
X20116429Y-15498652D01*
X20103050Y-15482350D01*
X20086749Y-15468972D01*
X19633489Y-15015713D01*
X19640500Y-14980468D01*
X19640500Y-14839132D01*
X19612927Y-14700513D01*
X19558841Y-14569936D01*
X19480319Y-14452420D01*
X19380380Y-14352481D01*
X19262864Y-14273959D01*
X19132287Y-14219873D01*
X18993668Y-14192300D01*
X18852332Y-14192300D01*
X18713713Y-14219873D01*
X18583136Y-14273959D01*
X18465620Y-14352481D01*
X18365681Y-14452420D01*
X18287159Y-14569936D01*
X18233073Y-14700513D01*
X18205500Y-14839132D01*
X18205500Y-14980468D01*
X18233073Y-15119087D01*
X18287159Y-15249664D01*
X18365681Y-15367180D01*
X18465620Y-15467119D01*
X18583136Y-15545641D01*
X18713713Y-15599727D01*
X18852332Y-15627300D01*
X18993668Y-15627300D01*
X19028913Y-15620289D01*
X19371800Y-15963177D01*
X19371800Y-16034316D01*
X19341920Y-16054281D01*
X19241981Y-16154220D01*
X19163459Y-16271736D01*
X19109373Y-16402313D01*
X19081800Y-16540932D01*
X19081800Y-16682268D01*
X19109373Y-16820887D01*
X19163459Y-16951464D01*
X19241981Y-17068980D01*
X19310160Y-17137159D01*
X18491577Y-17132301D01*
X18479729Y-17133345D01*
X18467765Y-17136783D01*
X18456701Y-17142489D01*
X18446964Y-17150243D01*
X18438926Y-17159749D01*
X18432897Y-17170640D01*
X18429109Y-17182497D01*
X18427707Y-17194866D01*
X18402307Y-18922066D01*
X18403319Y-18934331D01*
X18406730Y-18946303D01*
X18412411Y-18957379D01*
X18420144Y-18967134D01*
X18429632Y-18975193D01*
X18440509Y-18981246D01*
X18452358Y-18985061D01*
X18464724Y-18986491D01*
X19265849Y-19000070D01*
X19208047Y-19057872D01*
X19142262Y-19156325D01*
X19136832Y-19154076D01*
X18998213Y-19126503D01*
X18856877Y-19126503D01*
X18718258Y-19154076D01*
X18587681Y-19208162D01*
X18470165Y-19286684D01*
X18370226Y-19386623D01*
X18350984Y-19415421D01*
X18255987Y-19376073D01*
X18117368Y-19348500D01*
X17976032Y-19348500D01*
X17837413Y-19376073D01*
X17706836Y-19430159D01*
X17589320Y-19508681D01*
X17489381Y-19608620D01*
X17410859Y-19726136D01*
X17356773Y-19856713D01*
X17329200Y-19995332D01*
X17329200Y-20136668D01*
X17356773Y-20275287D01*
X17410859Y-20405864D01*
X17462003Y-20482406D01*
X17360720Y-20550081D01*
X17260781Y-20650020D01*
X17182259Y-20767536D01*
X17128173Y-20898113D01*
X17100600Y-21036732D01*
X17100600Y-21178068D01*
X17128173Y-21316687D01*
X17182259Y-21447264D01*
X17260781Y-21564780D01*
X17360720Y-21664719D01*
X17478236Y-21743241D01*
X17608813Y-21797327D01*
X17747432Y-21824900D01*
X17888768Y-21824900D01*
X18027387Y-21797327D01*
X18157964Y-21743241D01*
X18275480Y-21664719D01*
X18375419Y-21564780D01*
X18395384Y-21534900D01*
X19914324Y-21534900D01*
X20523467Y-22144043D01*
X20458859Y-22240736D01*
X20404773Y-22371313D01*
X20377200Y-22509932D01*
X20377200Y-22651268D01*
X20404773Y-22789887D01*
X20435125Y-22863164D01*
X19989400Y-22863164D01*
X19927159Y-22869294D01*
X19867310Y-22887449D01*
X19812153Y-22916931D01*
X19763807Y-22956607D01*
X19724131Y-23004953D01*
X19694649Y-23060110D01*
X19676494Y-23119959D01*
X19670364Y-23182200D01*
X19670364Y-24932200D01*
X19676494Y-24994441D01*
X19688039Y-25032500D01*
X11386711Y-25032500D01*
X11387036Y-25029200D01*
X11387036Y-23427907D01*
X11486700Y-23527571D01*
X11486700Y-23814141D01*
X11502146Y-23970967D01*
X11563188Y-24172191D01*
X11662313Y-24357641D01*
X11795712Y-24520189D01*
X11958260Y-24653588D01*
X12143710Y-24752713D01*
X12344934Y-24813754D01*
X12554200Y-24834365D01*
X12763467Y-24813754D01*
X12964691Y-24752713D01*
X13150141Y-24653588D01*
X13312689Y-24520189D01*
X13446088Y-24357641D01*
X13545213Y-24172191D01*
X13560164Y-24122904D01*
X13560164Y-24436700D01*
X13566294Y-24498941D01*
X13584449Y-24558790D01*
X13613931Y-24613947D01*
X13653607Y-24662293D01*
X13701953Y-24701969D01*
X13757110Y-24731451D01*
X13816959Y-24749606D01*
X13879200Y-24755736D01*
X15229200Y-24755736D01*
X15291441Y-24749606D01*
X15351290Y-24731451D01*
X15406447Y-24701969D01*
X15454793Y-24662293D01*
X15494469Y-24613947D01*
X15523951Y-24558790D01*
X15542106Y-24498941D01*
X15548236Y-24436700D01*
X15548236Y-23086700D01*
X15542106Y-23024459D01*
X15523951Y-22964610D01*
X15494469Y-22909453D01*
X15454793Y-22861107D01*
X15406447Y-22821431D01*
X15351290Y-22791949D01*
X15291441Y-22773794D01*
X15229200Y-22767664D01*
X13879200Y-22767664D01*
X13816959Y-22773794D01*
X13757110Y-22791949D01*
X13701953Y-22821431D01*
X13653607Y-22861107D01*
X13613931Y-22909453D01*
X13610220Y-22916396D01*
X13606254Y-22876131D01*
X13545213Y-22674907D01*
X13446088Y-22489457D01*
X13312689Y-22326909D01*
X13271953Y-22293478D01*
X11339926Y-20361452D01*
X11306491Y-20320711D01*
X11143943Y-20187312D01*
X10958493Y-20088187D01*
X10757269Y-20027146D01*
X10617805Y-20013410D01*
X14137230Y-20013410D01*
X15010667Y-20886848D01*
X15024046Y-20903150D01*
X15040348Y-20916529D01*
X15040354Y-20916535D01*
X15065702Y-20937337D01*
X15089141Y-20956573D01*
X15163407Y-20996269D01*
X15243991Y-21020714D01*
X15306799Y-21026900D01*
X15306808Y-21026900D01*
X15327795Y-21028967D01*
X15348782Y-21026900D01*
X15361216Y-21026900D01*
X15381181Y-21056780D01*
X15481120Y-21156719D01*
X15598636Y-21235241D01*
X15729213Y-21289327D01*
X15867832Y-21316900D01*
X16009168Y-21316900D01*
X16147787Y-21289327D01*
X16278364Y-21235241D01*
X16395880Y-21156719D01*
X16495819Y-21056780D01*
X16574341Y-20939264D01*
X16628427Y-20808687D01*
X16656000Y-20670068D01*
X16656000Y-20528732D01*
X16628427Y-20390113D01*
X16574341Y-20259536D01*
X16495819Y-20142020D01*
X16395880Y-20042081D01*
X16278364Y-19963559D01*
X16147787Y-19909473D01*
X16111206Y-19902197D01*
X16135300Y-19781068D01*
X16135300Y-19639732D01*
X16107727Y-19501113D01*
X16053641Y-19370536D01*
X15975119Y-19253020D01*
X15875180Y-19153081D01*
X15757664Y-19074559D01*
X15627087Y-19020473D01*
X15488468Y-18992900D01*
X15347132Y-18992900D01*
X15311887Y-18999911D01*
X15284135Y-18972159D01*
X15270752Y-18955852D01*
X15254280Y-18942333D01*
X15229584Y-18922066D01*
X15205657Y-18902429D01*
X15131391Y-18862733D01*
X15050807Y-18838288D01*
X14987999Y-18832102D01*
X14987991Y-18832102D01*
X14967002Y-18830035D01*
X14946013Y-18832102D01*
X8320384Y-18832102D01*
X8299397Y-18830035D01*
X8278410Y-18832102D01*
X8278401Y-18832102D01*
X8215593Y-18838288D01*
X8135009Y-18862733D01*
X8060743Y-18902429D01*
X8037959Y-18921128D01*
X8011956Y-18942467D01*
X8011950Y-18942473D01*
X7995648Y-18955852D01*
X7982269Y-18972154D01*
X7394333Y-19560091D01*
X7321167Y-19567297D01*
X7214193Y-19599747D01*
X7115605Y-19652444D01*
X7029192Y-19723361D01*
X6958275Y-19809774D01*
X6905578Y-19908362D01*
X6876540Y-20004089D01*
X6850169Y-19954753D01*
X6810493Y-19906407D01*
X6762147Y-19866731D01*
X6706990Y-19837249D01*
X6647141Y-19819094D01*
X6584900Y-19812964D01*
X5784900Y-19812964D01*
X5722659Y-19819094D01*
X5662810Y-19837249D01*
X5607653Y-19866731D01*
X5559307Y-19906407D01*
X5519631Y-19954753D01*
X5490149Y-20009910D01*
X5488757Y-20014500D01*
X5407336Y-20014500D01*
X5354897Y-20009335D01*
X5302459Y-20014500D01*
X5302457Y-20014500D01*
X5145631Y-20029946D01*
X4944407Y-20090987D01*
X4758957Y-20190112D01*
X4596409Y-20323511D01*
X4562978Y-20364247D01*
X2877741Y-22049485D01*
X2837000Y-22082920D01*
X2703601Y-22245468D01*
X2604476Y-22430919D01*
X2543435Y-22632143D01*
X2527989Y-22788968D01*
X2522824Y-22841409D01*
X2527989Y-22893847D01*
X2527989Y-22919588D01*
X2496082Y-22880709D01*
X2447736Y-22841033D01*
X2413700Y-22822840D01*
X2413700Y-19204037D01*
X2418280Y-19157535D01*
X2514311Y-19197312D01*
X2699560Y-19234160D01*
X2888440Y-19234160D01*
X3073689Y-19197312D01*
X3248191Y-19125031D01*
X3405238Y-19020096D01*
X3538796Y-18886538D01*
X3643731Y-18729491D01*
X3716012Y-18554989D01*
X3752860Y-18369740D01*
X3752860Y-18180860D01*
X3716012Y-17995611D01*
X3643731Y-17821109D01*
X3538796Y-17664062D01*
X3405238Y-17530504D01*
X3248191Y-17425569D01*
X3073689Y-17353288D01*
X2888440Y-17316440D01*
X2699560Y-17316440D01*
X2514311Y-17353288D01*
X2339809Y-17425569D01*
X2182762Y-17530504D01*
X2049204Y-17664062D01*
X2007300Y-17726776D01*
X2007300Y-11968932D01*
X4540300Y-11968932D01*
X4540300Y-12110268D01*
X4567873Y-12248887D01*
X4621959Y-12379464D01*
X4700481Y-12496980D01*
X4800420Y-12596919D01*
X4830300Y-12616885D01*
X4830301Y-12799902D01*
X4746983Y-12883220D01*
X4668461Y-13000736D01*
X4614375Y-13131313D01*
X4586802Y-13269932D01*
X4586802Y-13411268D01*
X4614375Y-13549887D01*
X4668461Y-13680464D01*
X4746983Y-13797980D01*
X4846922Y-13897919D01*
X4964438Y-13976441D01*
X5095015Y-14030527D01*
X5233634Y-14058100D01*
X5374970Y-14058100D01*
X5513589Y-14030527D01*
X5522146Y-14026983D01*
X5522286Y-14028404D01*
X5546731Y-14108988D01*
X5586427Y-14183254D01*
X5626465Y-14232041D01*
X5626468Y-14232044D01*
X5639850Y-14248350D01*
X5656157Y-14261733D01*
X7112711Y-15718287D01*
X7105700Y-15753532D01*
X7105700Y-15894868D01*
X7133273Y-16033487D01*
X7187359Y-16164064D01*
X7265881Y-16281580D01*
X7365820Y-16381519D01*
X7483336Y-16460041D01*
X7613913Y-16514127D01*
X7752532Y-16541700D01*
X7893868Y-16541700D01*
X8032487Y-16514127D01*
X8163064Y-16460041D01*
X8280580Y-16381519D01*
X8380519Y-16281580D01*
X8459041Y-16164064D01*
X8513127Y-16033487D01*
X8540700Y-15894868D01*
X8540700Y-15753532D01*
X8513127Y-15614913D01*
X8459041Y-15484336D01*
X8380519Y-15366820D01*
X8280580Y-15266881D01*
X8163064Y-15188359D01*
X8032487Y-15134273D01*
X7893868Y-15106700D01*
X7752532Y-15106700D01*
X7717287Y-15113711D01*
X6371100Y-13767524D01*
X6371100Y-11968157D01*
X6422790Y-11968157D01*
X6561409Y-11940584D01*
X6691986Y-11886498D01*
X6809502Y-11807976D01*
X6909441Y-11708037D01*
X6987963Y-11590521D01*
X7042049Y-11459944D01*
X7069622Y-11321325D01*
X7069622Y-11179989D01*
X7042049Y-11041370D01*
X6987963Y-10910793D01*
X6909441Y-10793277D01*
X6809502Y-10693338D01*
X6691986Y-10614816D01*
X6561409Y-10560730D01*
X6422790Y-10533157D01*
X6364699Y-10533157D01*
X6364699Y-10288887D01*
X6366766Y-10267898D01*
X6364699Y-10246909D01*
X6364699Y-10246902D01*
X6358513Y-10184094D01*
X6334068Y-10103510D01*
X6294372Y-10029244D01*
X6283325Y-10015783D01*
X6254334Y-9980457D01*
X6254328Y-9980451D01*
X6247922Y-9972645D01*
X6254700Y-9938568D01*
X6254700Y-9797232D01*
X6227127Y-9658613D01*
X6173041Y-9528036D01*
X6094519Y-9410520D01*
X5994580Y-9310581D01*
X5877064Y-9232059D01*
X5746487Y-9177973D01*
X5607868Y-9150400D01*
X5466532Y-9150400D01*
X5327913Y-9177973D01*
X5197336Y-9232059D01*
X5079820Y-9310581D01*
X4979881Y-9410520D01*
X4901359Y-9528036D01*
X4847273Y-9658613D01*
X4819700Y-9797232D01*
X4819700Y-9938568D01*
X4847273Y-10077187D01*
X4901359Y-10207764D01*
X4979881Y-10325280D01*
X5060743Y-10406142D01*
X5028263Y-10419596D01*
X4910747Y-10498118D01*
X4810808Y-10598057D01*
X4732286Y-10715573D01*
X4678200Y-10846150D01*
X4650627Y-10984769D01*
X4650627Y-11126105D01*
X4678200Y-11264724D01*
X4732286Y-11395301D01*
X4794416Y-11488285D01*
X4700481Y-11582220D01*
X4621959Y-11699736D01*
X4567873Y-11830313D01*
X4540300Y-11968932D01*
X2007300Y-11968932D01*
X2007300Y-5710927D01*
X2055759Y-5715700D01*
X2108200Y-5720865D01*
X2160641Y-5715700D01*
X2705504Y-5715700D01*
X2721100Y-5717236D01*
X4721100Y-5717236D01*
X4783341Y-5711106D01*
X4843190Y-5692951D01*
X4898347Y-5663469D01*
X4946693Y-5623793D01*
X4986369Y-5575447D01*
X5015851Y-5520290D01*
X5034006Y-5460441D01*
X5040136Y-5398200D01*
X5040136Y-3898200D01*
X5034006Y-3835959D01*
X5015851Y-3776110D01*
X4986369Y-3720953D01*
X4946693Y-3672607D01*
X4898347Y-3632931D01*
X4843190Y-3603449D01*
X4783341Y-3585294D01*
X4721100Y-3579164D01*
X2721100Y-3579164D01*
X2705504Y-3580700D01*
X2550373Y-3580700D01*
X2435959Y-3466287D01*
X2380825Y-3333181D01*
X2253056Y-3141962D01*
X2090438Y-2979344D01*
X1899219Y-2851575D01*
X1686747Y-2763566D01*
X1461189Y-2718700D01*
X1231211Y-2718700D01*
X1005653Y-2763566D01*
X793181Y-2851575D01*
X601962Y-2979344D01*
X439344Y-3141962D01*
X367500Y-3249484D01*
X367500Y-367500D01*
X14129764Y-367500D01*
X14129764Y-1170880D01*
G04 #@! TA.AperFunction,Conductor*
D29*
G36*
X14129764Y-1170880D02*
G01*
X14116213Y-1126209D01*
X14017088Y-940759D01*
X13883689Y-778211D01*
X13721141Y-644812D01*
X13535691Y-545687D01*
X13334467Y-484646D01*
X13125200Y-464035D01*
X12915934Y-484646D01*
X12714710Y-545687D01*
X12529260Y-644812D01*
X12366712Y-778211D01*
X12233313Y-940759D01*
X12134188Y-1126209D01*
X12119236Y-1175498D01*
X12119236Y-861700D01*
X12113106Y-799459D01*
X12094951Y-739610D01*
X12065469Y-684453D01*
X12025793Y-636107D01*
X11977447Y-596431D01*
X11922290Y-566949D01*
X11862441Y-548794D01*
X11800200Y-542664D01*
X10450200Y-542664D01*
X10387959Y-548794D01*
X10328110Y-566949D01*
X10272953Y-596431D01*
X10224607Y-636107D01*
X10184931Y-684453D01*
X10155449Y-739610D01*
X10137294Y-799459D01*
X10131164Y-861700D01*
X10131164Y-2211700D01*
X10137294Y-2273941D01*
X10155449Y-2333790D01*
X10184931Y-2388947D01*
X10224607Y-2437293D01*
X10272953Y-2476969D01*
X10328110Y-2506451D01*
X10387959Y-2524606D01*
X10450200Y-2530736D01*
X11800200Y-2530736D01*
X11862441Y-2524606D01*
X11922290Y-2506451D01*
X11977447Y-2476969D01*
X12025793Y-2437293D01*
X12053107Y-2404010D01*
X12057700Y-2450640D01*
X12057700Y-2450642D01*
X12073146Y-2607468D01*
X12134187Y-2808692D01*
X12233312Y-2994143D01*
X12366711Y-3156691D01*
X12407452Y-3190126D01*
X13237078Y-4019753D01*
X13270509Y-4060489D01*
X13433057Y-4193888D01*
X13618507Y-4293013D01*
X13819731Y-4354054D01*
X13976557Y-4369500D01*
X13976559Y-4369500D01*
X14028997Y-4374665D01*
X14081435Y-4369500D01*
X14416828Y-4369500D01*
X15079764Y-5032437D01*
X15079764Y-5191800D01*
X15085894Y-5254041D01*
X15104049Y-5313890D01*
X15133531Y-5369047D01*
X15173207Y-5417393D01*
X15221553Y-5457069D01*
X15276710Y-5486551D01*
X15336559Y-5504706D01*
X15398800Y-5510836D01*
X16198800Y-5510836D01*
X16261041Y-5504706D01*
X16320890Y-5486551D01*
X16376047Y-5457069D01*
X16424393Y-5417393D01*
X16464069Y-5369047D01*
X16493551Y-5313890D01*
X16511706Y-5254041D01*
X16517836Y-5191800D01*
X16517836Y-5032665D01*
X16557288Y-5000288D01*
X16690688Y-4837740D01*
X16789813Y-4652291D01*
X16819008Y-4556049D01*
X18273618Y-6010660D01*
X18286997Y-6026962D01*
X18303299Y-6040341D01*
X18303305Y-6040347D01*
X18322759Y-6056312D01*
X18352092Y-6080385D01*
X18426358Y-6120081D01*
X18506942Y-6144526D01*
X18569750Y-6150712D01*
X18569759Y-6150712D01*
X18590746Y-6152779D01*
X18611733Y-6150712D01*
X19194388Y-6150712D01*
X20209869Y-7166193D01*
X20145752Y-7178947D01*
X20015175Y-7233033D01*
X19897659Y-7311555D01*
X19797720Y-7411494D01*
X19719198Y-7529010D01*
X19665112Y-7659587D01*
X19655606Y-7707379D01*
X19576642Y-7707379D01*
X19541397Y-7714390D01*
X17622864Y-5795857D01*
X17609481Y-5779550D01*
X17586116Y-5760374D01*
X17579468Y-5754919D01*
X17544386Y-5726127D01*
X17470120Y-5686431D01*
X17389536Y-5661986D01*
X17326728Y-5655800D01*
X17326720Y-5655800D01*
X17305731Y-5653733D01*
X17284742Y-5655800D01*
X13461276Y-5655800D01*
X11582033Y-3776557D01*
X11568650Y-3760250D01*
X11503555Y-3706827D01*
X11429289Y-3667131D01*
X11348705Y-3642686D01*
X11285897Y-3636500D01*
X11285889Y-3636500D01*
X11264900Y-3634433D01*
X11243911Y-3636500D01*
X8517583Y-3636500D01*
X8496596Y-3634433D01*
X8475609Y-3636500D01*
X8475600Y-3636500D01*
X8412792Y-3642686D01*
X8332208Y-3667131D01*
X8257942Y-3706827D01*
X8240730Y-3720953D01*
X8209155Y-3746865D01*
X8209149Y-3746871D01*
X8192847Y-3760250D01*
X8179468Y-3776552D01*
X7267603Y-4688418D01*
X7251302Y-4701796D01*
X7237923Y-4718098D01*
X7237916Y-4718105D01*
X7197878Y-4766892D01*
X7158182Y-4841158D01*
X7133737Y-4921742D01*
X7126561Y-4994608D01*
X7097671Y-5013912D01*
X6997732Y-5113851D01*
X6919210Y-5231367D01*
X6865124Y-5361944D01*
X6837551Y-5500563D01*
X6837551Y-5641899D01*
X6865124Y-5780518D01*
X6906620Y-5880700D01*
X4736696Y-5880700D01*
X4721100Y-5879164D01*
X2721100Y-5879164D01*
X2658859Y-5885294D01*
X2599010Y-5903449D01*
X2543853Y-5932931D01*
X2495507Y-5972607D01*
X2455831Y-6020953D01*
X2426349Y-6076110D01*
X2408194Y-6135959D01*
X2402064Y-6198200D01*
X2402064Y-7698200D01*
X2408194Y-7760441D01*
X2426349Y-7820290D01*
X2455831Y-7875447D01*
X2495507Y-7923793D01*
X2543853Y-7963469D01*
X2599010Y-7992951D01*
X2658859Y-8011106D01*
X2721100Y-8017236D01*
X4721100Y-8017236D01*
X4736696Y-8015700D01*
X4778445Y-8015700D01*
X4756200Y-8127532D01*
X4756200Y-8268868D01*
X4783773Y-8407487D01*
X4837859Y-8538064D01*
X4916381Y-8655580D01*
X5016320Y-8755519D01*
X5133836Y-8834041D01*
X5264413Y-8888127D01*
X5403032Y-8915700D01*
X5544368Y-8915700D01*
X5682987Y-8888127D01*
X5813564Y-8834041D01*
X5931080Y-8755519D01*
X6031019Y-8655580D01*
X6050984Y-8625700D01*
X7232806Y-8625700D01*
X7252771Y-8655580D01*
X7352710Y-8755519D01*
X7470226Y-8834041D01*
X7600803Y-8888127D01*
X7739422Y-8915700D01*
X7777130Y-8915700D01*
X7725913Y-8966917D01*
X7690668Y-8959906D01*
X7549332Y-8959906D01*
X7410713Y-8987479D01*
X7280136Y-9041565D01*
X7162620Y-9120087D01*
X7062681Y-9220026D01*
X6984159Y-9337542D01*
X6930073Y-9468119D01*
X6902500Y-9606738D01*
X6902500Y-9748074D01*
X6930073Y-9886693D01*
X6984159Y-10017270D01*
X7062681Y-10134786D01*
X7162620Y-10234725D01*
X7280136Y-10313247D01*
X7410713Y-10367333D01*
X7549332Y-10394906D01*
X7690668Y-10394906D01*
X7829287Y-10367333D01*
X7959864Y-10313247D01*
X7977444Y-10301501D01*
X7971534Y-10361509D01*
X7973602Y-10382508D01*
X7973601Y-14626868D01*
X7971534Y-14647857D01*
X7973601Y-14668846D01*
X7973601Y-14668853D01*
X7977595Y-14709406D01*
X7979787Y-14731661D01*
X8004232Y-14812245D01*
X8043928Y-14886511D01*
X8083966Y-14935298D01*
X8083969Y-14935301D01*
X8097351Y-14951607D01*
X8113658Y-14964990D01*
X8676111Y-15527443D01*
X8689494Y-15543750D01*
X8754589Y-15597173D01*
X8828855Y-15636869D01*
X8909439Y-15661314D01*
X8972247Y-15667500D01*
X8972255Y-15667500D01*
X8993244Y-15669567D01*
X9014233Y-15667500D01*
X9493816Y-15667500D01*
X9513781Y-15697380D01*
X9613720Y-15797319D01*
X9731236Y-15875841D01*
X9861813Y-15929927D01*
X10000432Y-15957500D01*
X10141768Y-15957500D01*
X10280387Y-15929927D01*
X10410964Y-15875841D01*
X10528480Y-15797319D01*
X10628419Y-15697380D01*
X10706941Y-15579864D01*
X10761027Y-15449287D01*
X10788600Y-15310668D01*
X10788600Y-15169332D01*
X10761027Y-15030713D01*
X10706941Y-14900136D01*
X10628419Y-14782620D01*
X10528480Y-14682681D01*
X10410964Y-14604159D01*
X10280387Y-14550073D01*
X10141768Y-14522500D01*
X10000432Y-14522500D01*
X9861813Y-14550073D01*
X9731236Y-14604159D01*
X9613720Y-14682681D01*
X9513781Y-14782620D01*
X9493816Y-14812500D01*
X9170320Y-14812500D01*
X8828601Y-14470781D01*
X8828601Y-12241796D01*
X8881800Y-12247036D01*
X9458421Y-12247036D01*
X9546309Y-12294013D01*
X9747533Y-12355054D01*
X9956800Y-12375665D01*
X10009241Y-12370500D01*
X10839628Y-12370500D01*
X12483400Y-14014273D01*
X12483401Y-16209200D01*
X12087729Y-16209200D01*
X12004351Y-16217412D01*
X11897377Y-16249862D01*
X11798789Y-16302559D01*
X11759773Y-16334579D01*
X11633363Y-16359723D01*
X11502786Y-16413809D01*
X11385270Y-16492331D01*
X11285331Y-16592270D01*
X11206809Y-16709786D01*
X11152723Y-16840363D01*
X11125150Y-16978982D01*
X11125150Y-17120318D01*
X11132161Y-17155563D01*
X10884424Y-17403300D01*
X7035077Y-17403300D01*
X6765938Y-17134161D01*
X6793019Y-17107080D01*
X6871541Y-16989564D01*
X6925627Y-16858987D01*
X6953200Y-16720368D01*
X6953200Y-16579032D01*
X6925627Y-16440413D01*
X6871541Y-16309836D01*
X6793019Y-16192320D01*
X6693080Y-16092381D01*
X6575564Y-16013859D01*
X6444987Y-15959773D01*
X6306368Y-15932200D01*
X6165032Y-15932200D01*
X6026413Y-15959773D01*
X5895836Y-16013859D01*
X5778320Y-16092381D01*
X5678381Y-16192320D01*
X5599859Y-16309836D01*
X5545773Y-16440413D01*
X5518200Y-16579032D01*
X5518200Y-16720368D01*
X5545773Y-16858987D01*
X5599859Y-16989564D01*
X5678381Y-17107080D01*
X5778320Y-17207019D01*
X5807936Y-17226808D01*
X5814386Y-17292304D01*
X5838831Y-17372888D01*
X5878527Y-17447154D01*
X5918565Y-17495941D01*
X5918572Y-17495948D01*
X5931951Y-17512250D01*
X5948252Y-17525628D01*
X6540871Y-18118248D01*
X6554250Y-18134550D01*
X6570552Y-18147929D01*
X6570558Y-18147935D01*
X6596561Y-18169274D01*
X6619345Y-18187973D01*
X6693611Y-18227669D01*
X6774195Y-18252114D01*
X6837003Y-18258300D01*
X6837012Y-18258300D01*
X6857999Y-18260367D01*
X6878986Y-18258300D01*
X11040511Y-18258300D01*
X11061500Y-18260367D01*
X11082489Y-18258300D01*
X11082497Y-18258300D01*
X11145305Y-18252114D01*
X11225889Y-18227669D01*
X11300155Y-18187973D01*
X11365250Y-18134550D01*
X11378633Y-18118243D01*
X11736737Y-17760139D01*
X11771982Y-17767150D01*
X11913318Y-17767150D01*
X12051937Y-17739577D01*
X12182514Y-17685491D01*
X12300030Y-17606969D01*
X12399969Y-17507030D01*
X12478491Y-17389514D01*
X12497260Y-17344200D01*
X12643811Y-17344200D01*
X12659013Y-17372641D01*
X12792412Y-17535189D01*
X12954960Y-17668588D01*
X13140410Y-17767713D01*
X13341634Y-17828754D01*
X13550900Y-17849365D01*
X13760167Y-17828754D01*
X13942935Y-17773312D01*
X14745472Y-18575849D01*
X14758851Y-18592151D01*
X14775153Y-18605530D01*
X14775159Y-18605536D01*
X14806285Y-18631080D01*
X14823946Y-18645574D01*
X14898212Y-18685270D01*
X14978796Y-18709715D01*
X15041604Y-18715901D01*
X15041613Y-18715901D01*
X15062600Y-18717968D01*
X15083587Y-18715901D01*
X16548271Y-18715901D01*
X16569260Y-18717968D01*
X16590249Y-18715901D01*
X16590257Y-18715901D01*
X16653065Y-18709715D01*
X16733649Y-18685270D01*
X16807915Y-18645574D01*
X16873010Y-18592151D01*
X16886393Y-18575844D01*
X17445144Y-18017093D01*
X17461450Y-18003711D01*
X17477093Y-17984651D01*
X17514873Y-17938616D01*
X17554569Y-17864350D01*
X17579014Y-17783766D01*
X17580595Y-17767713D01*
X17585200Y-17720958D01*
X17585200Y-17720950D01*
X17587267Y-17699961D01*
X17585200Y-17678972D01*
X17585200Y-17459498D01*
X17615080Y-17439533D01*
X17715019Y-17339594D01*
X17793541Y-17222078D01*
X17847627Y-17091501D01*
X17875200Y-16952882D01*
X17875200Y-16811546D01*
X17847627Y-16672927D01*
X17793541Y-16542350D01*
X17715019Y-16424834D01*
X17615080Y-16324895D01*
X17497564Y-16246373D01*
X17366987Y-16192287D01*
X17228368Y-16164714D01*
X17087032Y-16164714D01*
X16948413Y-16192287D01*
X16821491Y-16244859D01*
X16821491Y-12739085D01*
X16860878Y-12699699D01*
X18253578Y-12699699D01*
X18257474Y-12739258D01*
X18281919Y-12819842D01*
X18292361Y-12839377D01*
X18321615Y-12894107D01*
X18361653Y-12942894D01*
X18361660Y-12942901D01*
X18375039Y-12959203D01*
X18391341Y-12972582D01*
X18917114Y-13498355D01*
X18930497Y-13514662D01*
X18946804Y-13528045D01*
X18946806Y-13528047D01*
X18967235Y-13544813D01*
X18995592Y-13568085D01*
X19069858Y-13607781D01*
X19150442Y-13632226D01*
X19213250Y-13638412D01*
X19213258Y-13638412D01*
X19234247Y-13640479D01*
X19255236Y-13638412D01*
X20063964Y-13638412D01*
X20084953Y-13640479D01*
X20105942Y-13638412D01*
X20105950Y-13638412D01*
X20168758Y-13632226D01*
X20249342Y-13607781D01*
X20323608Y-13568085D01*
X20358690Y-13539293D01*
X20372394Y-13528047D01*
X20372396Y-13528045D01*
X20388703Y-13514662D01*
X20402086Y-13498355D01*
X20870241Y-13030200D01*
X21501100Y-13030200D01*
X21501100Y-14884400D01*
X21502320Y-14896788D01*
X21505934Y-14908700D01*
X21511802Y-14919679D01*
X21519699Y-14929301D01*
X21529321Y-14937198D01*
X21540300Y-14943066D01*
X21552212Y-14946680D01*
X21564600Y-14947900D01*
X24079200Y-14947900D01*
X24091588Y-14946680D01*
X24103500Y-14943066D01*
X24114479Y-14937198D01*
X24124101Y-14929301D01*
X24131998Y-14919679D01*
X24137866Y-14908700D01*
X24141480Y-14896788D01*
X24142700Y-14884400D01*
X24142700Y-13030200D01*
X24141480Y-13017812D01*
X24137866Y-13005900D01*
X24131998Y-12994921D01*
X24124101Y-12985299D01*
X24114479Y-12977402D01*
X24103500Y-12971534D01*
X24091588Y-12967920D01*
X24079200Y-12966700D01*
X21564600Y-12966700D01*
X21552212Y-12967920D01*
X21540300Y-12971534D01*
X21529321Y-12977402D01*
X21519699Y-12985299D01*
X21511802Y-12994921D01*
X21505934Y-13005900D01*
X21502320Y-13017812D01*
X21501100Y-13030200D01*
X20870241Y-13030200D01*
X20938042Y-12962400D01*
X24784616Y-12962400D01*
X24804581Y-12992280D01*
X24882776Y-13070475D01*
X24814395Y-13172814D01*
X24760309Y-13303391D01*
X24732736Y-13442010D01*
X24732736Y-13583346D01*
X24760309Y-13721965D01*
X24806052Y-13832400D01*
X24802233Y-13834952D01*
X24702294Y-13934891D01*
X24623772Y-14052407D01*
X24569686Y-14182984D01*
X24542113Y-14321603D01*
X24542113Y-14462939D01*
X24569686Y-14601558D01*
X24623772Y-14732135D01*
X24702294Y-14849651D01*
X24802233Y-14949590D01*
X24919749Y-15028112D01*
X25050326Y-15082198D01*
X25188945Y-15109771D01*
X25330281Y-15109771D01*
X25468900Y-15082198D01*
X25599477Y-15028112D01*
X25716993Y-14949590D01*
X25816932Y-14849651D01*
X25836236Y-14820761D01*
X25846287Y-14819771D01*
X25846295Y-14819771D01*
X25909103Y-14813585D01*
X25989687Y-14789140D01*
X26063953Y-14749444D01*
X26129048Y-14696021D01*
X26142431Y-14679714D01*
X27034246Y-13787900D01*
X29096024Y-13787900D01*
X29781811Y-14473687D01*
X29774800Y-14508932D01*
X29774800Y-14650268D01*
X29802373Y-14788887D01*
X29856459Y-14919464D01*
X29934981Y-15036980D01*
X30034920Y-15136919D01*
X30152436Y-15215441D01*
X30283013Y-15269527D01*
X30421632Y-15297100D01*
X30562968Y-15297100D01*
X30701587Y-15269527D01*
X30832164Y-15215441D01*
X30949680Y-15136919D01*
X31049619Y-15036980D01*
X31128141Y-14919464D01*
X31182227Y-14788887D01*
X31209800Y-14650268D01*
X31209800Y-14508932D01*
X31207598Y-14497860D01*
X33445440Y-14497860D01*
X33445440Y-14686740D01*
X33482288Y-14871989D01*
X33554569Y-15046491D01*
X33659504Y-15203538D01*
X33793062Y-15337096D01*
X33950109Y-15442031D01*
X34124611Y-15514312D01*
X34309860Y-15551160D01*
X34498740Y-15551160D01*
X34683989Y-15514312D01*
X34858491Y-15442031D01*
X35015538Y-15337096D01*
X35149096Y-15203538D01*
X35254031Y-15046491D01*
X35326312Y-14871989D01*
X35363160Y-14686740D01*
X35363160Y-14497860D01*
X35326312Y-14312611D01*
X35254031Y-14138109D01*
X35149096Y-13981062D01*
X35015538Y-13847504D01*
X34858491Y-13742569D01*
X34683989Y-13670288D01*
X34498740Y-13633440D01*
X34309860Y-13633440D01*
X34124611Y-13670288D01*
X33950109Y-13742569D01*
X33793062Y-13847504D01*
X33659504Y-13981062D01*
X33554569Y-14138109D01*
X33482288Y-14312611D01*
X33445440Y-14497860D01*
X31207598Y-14497860D01*
X31201255Y-14465973D01*
X31311587Y-14444027D01*
X31442164Y-14389941D01*
X31559680Y-14311419D01*
X31659619Y-14211480D01*
X31738141Y-14093964D01*
X31792227Y-13963387D01*
X31819800Y-13824768D01*
X31819800Y-13683432D01*
X31792227Y-13544813D01*
X31738141Y-13414236D01*
X31659619Y-13296720D01*
X31559680Y-13196781D01*
X31442164Y-13118259D01*
X31311587Y-13064173D01*
X31172968Y-13036600D01*
X31031632Y-13036600D01*
X30996387Y-13043611D01*
X30403433Y-12450657D01*
X30390050Y-12434350D01*
X30368665Y-12416799D01*
X30345295Y-12397620D01*
X30324955Y-12380927D01*
X30250689Y-12341231D01*
X30170105Y-12316786D01*
X30107297Y-12310600D01*
X30107289Y-12310600D01*
X30086300Y-12308533D01*
X30065311Y-12310600D01*
X29986013Y-12310600D01*
X29994364Y-12307141D01*
X30111880Y-12228619D01*
X30211819Y-12128680D01*
X30290341Y-12011164D01*
X30344427Y-11880587D01*
X30372000Y-11741968D01*
X30372000Y-11600632D01*
X30344427Y-11462013D01*
X30290341Y-11331436D01*
X30211819Y-11213920D01*
X30111880Y-11113981D01*
X29994364Y-11035459D01*
X29863787Y-10981373D01*
X29725168Y-10953800D01*
X29583832Y-10953800D01*
X29548587Y-10960811D01*
X29505940Y-10918164D01*
X29564641Y-10886788D01*
X29727189Y-10753389D01*
X29760625Y-10712647D01*
X31586598Y-8886674D01*
X33272569Y-10572645D01*
X33295273Y-10686787D01*
X33349359Y-10817364D01*
X33427881Y-10934880D01*
X33527820Y-11034819D01*
X33645336Y-11113341D01*
X33775913Y-11167427D01*
X33914532Y-11195000D01*
X34055868Y-11195000D01*
X34194487Y-11167427D01*
X34325064Y-11113341D01*
X34442580Y-11034819D01*
X34542519Y-10934880D01*
X34621041Y-10817364D01*
X34675127Y-10686787D01*
X34702700Y-10548168D01*
X34702700Y-10406832D01*
X34675127Y-10268213D01*
X34621041Y-10137636D01*
X34542519Y-10020120D01*
X34442580Y-9920181D01*
X34325064Y-9841659D01*
X34194487Y-9787573D01*
X34055868Y-9760000D01*
X33914532Y-9760000D01*
X33775913Y-9787573D01*
X33719865Y-9810789D01*
X32191174Y-8282098D01*
X33102753Y-7370520D01*
X33143489Y-7337089D01*
X33276888Y-7174541D01*
X33376013Y-6989091D01*
X33437054Y-6787867D01*
X33452500Y-6631041D01*
X33452500Y-6631039D01*
X33457665Y-6578601D01*
X33452500Y-6526163D01*
X33452500Y-1946852D01*
X33507634Y-1813747D01*
X33552500Y-1588189D01*
X33552500Y-1358211D01*
X33507634Y-1132653D01*
X33419625Y-920181D01*
X33291856Y-728962D01*
X33129238Y-566344D01*
X32938019Y-438575D01*
X32766429Y-367500D01*
X36157700Y-367500D01*
X36157701Y-25032500D01*
X31962753Y-25032500D01*
X32004180Y-25004819D01*
X32104119Y-24904880D01*
X32124084Y-24875000D01*
X34431608Y-24875000D01*
X34534336Y-24943641D01*
X34664913Y-24997727D01*
X34803532Y-25025300D01*
X34944868Y-25025300D01*
X35083487Y-24997727D01*
X35214064Y-24943641D01*
X35331580Y-24865119D01*
X35431519Y-24765180D01*
X35510041Y-24647664D01*
X35564127Y-24517087D01*
X35591700Y-24378468D01*
X35591700Y-24237132D01*
X35564127Y-24098513D01*
X35510041Y-23967936D01*
X35431519Y-23850420D01*
X35331580Y-23750481D01*
X35214064Y-23671959D01*
X35083487Y-23617873D01*
X34944868Y-23590300D01*
X34803532Y-23590300D01*
X34664913Y-23617873D01*
X34534336Y-23671959D01*
X34416820Y-23750481D01*
X34316881Y-23850420D01*
X34238359Y-23967936D01*
X34216794Y-24020000D01*
X32124084Y-24020000D01*
X32104119Y-23990120D01*
X32004180Y-23890181D01*
X31886664Y-23811659D01*
X31756087Y-23757573D01*
X31617468Y-23730000D01*
X31476132Y-23730000D01*
X31337513Y-23757573D01*
X31206936Y-23811659D01*
X31089420Y-23890181D01*
X30989481Y-23990120D01*
X30910959Y-24107636D01*
X30856873Y-24238213D01*
X30829300Y-24376832D01*
X30829300Y-24518168D01*
X30856873Y-24656787D01*
X30910959Y-24787364D01*
X30989481Y-24904880D01*
X31089420Y-25004819D01*
X31130847Y-25032500D01*
X28690761Y-25032500D01*
X28702306Y-24994441D01*
X28708436Y-24932200D01*
X28708436Y-23182200D01*
X28702306Y-23119959D01*
X28684151Y-23060110D01*
X28654669Y-23004953D01*
X28614993Y-22956607D01*
X28566647Y-22916931D01*
X28511490Y-22887449D01*
X28451641Y-22869294D01*
X28389400Y-22863164D01*
X27960935Y-22863164D01*
X27963919Y-22860180D01*
X28042441Y-22742664D01*
X28096527Y-22612087D01*
X28124100Y-22473468D01*
X28124100Y-22332132D01*
X28096527Y-22193513D01*
X28042441Y-22062936D01*
X27963919Y-21945420D01*
X27863980Y-21845481D01*
X27846800Y-21834002D01*
X27846800Y-21426662D01*
X27914604Y-21528138D01*
X28048162Y-21661696D01*
X28205209Y-21766631D01*
X28379711Y-21838912D01*
X28564960Y-21875760D01*
X28753840Y-21875760D01*
X28939089Y-21838912D01*
X29113591Y-21766631D01*
X29270638Y-21661696D01*
X29404196Y-21528138D01*
X29509131Y-21371091D01*
X29581412Y-21196589D01*
X29618260Y-21011340D01*
X29618260Y-20822460D01*
X29581412Y-20637211D01*
X29509131Y-20462709D01*
X29404196Y-20305662D01*
X29270638Y-20172104D01*
X29113591Y-20067169D01*
X28939089Y-19994888D01*
X28753840Y-19958040D01*
X28564960Y-19958040D01*
X28379711Y-19994888D01*
X28205209Y-20067169D01*
X28048162Y-20172104D01*
X27914604Y-20305662D01*
X27846800Y-20407138D01*
X27846800Y-19003165D01*
X27908513Y-19028727D01*
X28047132Y-19056300D01*
X28188468Y-19056300D01*
X28327087Y-19028727D01*
X28457664Y-18974641D01*
X28575180Y-18896119D01*
X28675119Y-18796180D01*
X28695084Y-18766300D01*
X29618222Y-18766300D01*
X29682936Y-18809541D01*
X29813513Y-18863627D01*
X29952132Y-18891200D01*
X30093468Y-18891200D01*
X30232087Y-18863627D01*
X30362664Y-18809541D01*
X30480180Y-18731019D01*
X30580119Y-18631080D01*
X30658641Y-18513564D01*
X30712727Y-18382987D01*
X30740300Y-18244368D01*
X30740300Y-18103032D01*
X30712727Y-17964413D01*
X30658641Y-17833836D01*
X30580119Y-17716320D01*
X30480180Y-17616381D01*
X30362664Y-17537859D01*
X30232087Y-17483773D01*
X30093468Y-17456200D01*
X29952132Y-17456200D01*
X29813513Y-17483773D01*
X29682936Y-17537859D01*
X29565420Y-17616381D01*
X29465481Y-17716320D01*
X29386959Y-17833836D01*
X29354873Y-17911300D01*
X28695084Y-17911300D01*
X28675119Y-17881420D01*
X28575180Y-17781481D01*
X28457664Y-17702959D01*
X28327087Y-17648873D01*
X28188468Y-17621300D01*
X28047132Y-17621300D01*
X27908513Y-17648873D01*
X27846800Y-17674435D01*
X27846800Y-16275000D01*
X27947168Y-16275000D01*
X28085787Y-16247427D01*
X28216364Y-16193341D01*
X28333880Y-16114819D01*
X28433819Y-16014880D01*
X28512341Y-15897364D01*
X28566427Y-15766787D01*
X28594000Y-15628168D01*
X28594000Y-15486832D01*
X28566427Y-15348213D01*
X28512341Y-15217636D01*
X28433819Y-15100120D01*
X28333880Y-15000181D01*
X28216364Y-14921659D01*
X28085787Y-14867573D01*
X27947168Y-14840000D01*
X27805832Y-14840000D01*
X27667213Y-14867573D01*
X27536636Y-14921659D01*
X27419120Y-15000181D01*
X27319181Y-15100120D01*
X27240659Y-15217636D01*
X27186573Y-15348213D01*
X27159000Y-15486832D01*
X27159000Y-15628168D01*
X27166011Y-15663413D01*
X27131853Y-15697571D01*
X27115551Y-15710950D01*
X27102172Y-15727252D01*
X27102165Y-15727259D01*
X27062127Y-15776046D01*
X27022431Y-15850312D01*
X26997986Y-15930896D01*
X26989733Y-16014700D01*
X26991801Y-16035699D01*
X26991801Y-17182747D01*
X20282668Y-17142931D01*
X20356619Y-17068980D01*
X20435141Y-16951464D01*
X20489227Y-16820887D01*
X20516800Y-16682268D01*
X20516800Y-16540932D01*
X20489227Y-16402313D01*
X20435141Y-16271736D01*
X20356619Y-16154220D01*
X20256680Y-16054281D01*
X20226800Y-16034316D01*
X20226800Y-15807086D01*
X20228867Y-15786099D01*
X20226800Y-15765112D01*
X20226800Y-15765103D01*
X20220614Y-15702295D01*
X20196169Y-15621711D01*
X20156473Y-15547445D01*
X20147703Y-15536759D01*
X20116435Y-15498658D01*
X20116429Y-15498652D01*
X20103050Y-15482350D01*
X20086749Y-15468972D01*
X19633489Y-15015713D01*
X19640500Y-14980468D01*
X19640500Y-14839132D01*
X19612927Y-14700513D01*
X19558841Y-14569936D01*
X19480319Y-14452420D01*
X19380380Y-14352481D01*
X19262864Y-14273959D01*
X19132287Y-14219873D01*
X18993668Y-14192300D01*
X18852332Y-14192300D01*
X18713713Y-14219873D01*
X18583136Y-14273959D01*
X18465620Y-14352481D01*
X18365681Y-14452420D01*
X18287159Y-14569936D01*
X18233073Y-14700513D01*
X18205500Y-14839132D01*
X18205500Y-14980468D01*
X18233073Y-15119087D01*
X18287159Y-15249664D01*
X18365681Y-15367180D01*
X18465620Y-15467119D01*
X18583136Y-15545641D01*
X18713713Y-15599727D01*
X18852332Y-15627300D01*
X18993668Y-15627300D01*
X19028913Y-15620289D01*
X19371800Y-15963177D01*
X19371800Y-16034316D01*
X19341920Y-16054281D01*
X19241981Y-16154220D01*
X19163459Y-16271736D01*
X19109373Y-16402313D01*
X19081800Y-16540932D01*
X19081800Y-16682268D01*
X19109373Y-16820887D01*
X19163459Y-16951464D01*
X19241981Y-17068980D01*
X19310160Y-17137159D01*
X18491577Y-17132301D01*
X18479729Y-17133345D01*
X18467765Y-17136783D01*
X18456701Y-17142489D01*
X18446964Y-17150243D01*
X18438926Y-17159749D01*
X18432897Y-17170640D01*
X18429109Y-17182497D01*
X18427707Y-17194866D01*
X18402307Y-18922066D01*
X18403319Y-18934331D01*
X18406730Y-18946303D01*
X18412411Y-18957379D01*
X18420144Y-18967134D01*
X18429632Y-18975193D01*
X18440509Y-18981246D01*
X18452358Y-18985061D01*
X18464724Y-18986491D01*
X19265849Y-19000070D01*
X19208047Y-19057872D01*
X19142262Y-19156325D01*
X19136832Y-19154076D01*
X18998213Y-19126503D01*
X18856877Y-19126503D01*
X18718258Y-19154076D01*
X18587681Y-19208162D01*
X18470165Y-19286684D01*
X18370226Y-19386623D01*
X18350984Y-19415421D01*
X18255987Y-19376073D01*
X18117368Y-19348500D01*
X17976032Y-19348500D01*
X17837413Y-19376073D01*
X17706836Y-19430159D01*
X17589320Y-19508681D01*
X17489381Y-19608620D01*
X17410859Y-19726136D01*
X17356773Y-19856713D01*
X17329200Y-19995332D01*
X17329200Y-20136668D01*
X17356773Y-20275287D01*
X17410859Y-20405864D01*
X17462003Y-20482406D01*
X17360720Y-20550081D01*
X17260781Y-20650020D01*
X17182259Y-20767536D01*
X17128173Y-20898113D01*
X17100600Y-21036732D01*
X17100600Y-21178068D01*
X17128173Y-21316687D01*
X17182259Y-21447264D01*
X17260781Y-21564780D01*
X17360720Y-21664719D01*
X17478236Y-21743241D01*
X17608813Y-21797327D01*
X17747432Y-21824900D01*
X17888768Y-21824900D01*
X18027387Y-21797327D01*
X18157964Y-21743241D01*
X18275480Y-21664719D01*
X18375419Y-21564780D01*
X18395384Y-21534900D01*
X19914324Y-21534900D01*
X20523467Y-22144043D01*
X20458859Y-22240736D01*
X20404773Y-22371313D01*
X20377200Y-22509932D01*
X20377200Y-22651268D01*
X20404773Y-22789887D01*
X20435125Y-22863164D01*
X19989400Y-22863164D01*
X19927159Y-22869294D01*
X19867310Y-22887449D01*
X19812153Y-22916931D01*
X19763807Y-22956607D01*
X19724131Y-23004953D01*
X19694649Y-23060110D01*
X19676494Y-23119959D01*
X19670364Y-23182200D01*
X19670364Y-24932200D01*
X19676494Y-24994441D01*
X19688039Y-25032500D01*
X11386711Y-25032500D01*
X11387036Y-25029200D01*
X11387036Y-23427907D01*
X11486700Y-23527571D01*
X11486700Y-23814141D01*
X11502146Y-23970967D01*
X11563188Y-24172191D01*
X11662313Y-24357641D01*
X11795712Y-24520189D01*
X11958260Y-24653588D01*
X12143710Y-24752713D01*
X12344934Y-24813754D01*
X12554200Y-24834365D01*
X12763467Y-24813754D01*
X12964691Y-24752713D01*
X13150141Y-24653588D01*
X13312689Y-24520189D01*
X13446088Y-24357641D01*
X13545213Y-24172191D01*
X13560164Y-24122904D01*
X13560164Y-24436700D01*
X13566294Y-24498941D01*
X13584449Y-24558790D01*
X13613931Y-24613947D01*
X13653607Y-24662293D01*
X13701953Y-24701969D01*
X13757110Y-24731451D01*
X13816959Y-24749606D01*
X13879200Y-24755736D01*
X15229200Y-24755736D01*
X15291441Y-24749606D01*
X15351290Y-24731451D01*
X15406447Y-24701969D01*
X15454793Y-24662293D01*
X15494469Y-24613947D01*
X15523951Y-24558790D01*
X15542106Y-24498941D01*
X15548236Y-24436700D01*
X15548236Y-23086700D01*
X15542106Y-23024459D01*
X15523951Y-22964610D01*
X15494469Y-22909453D01*
X15454793Y-22861107D01*
X15406447Y-22821431D01*
X15351290Y-22791949D01*
X15291441Y-22773794D01*
X15229200Y-22767664D01*
X13879200Y-22767664D01*
X13816959Y-22773794D01*
X13757110Y-22791949D01*
X13701953Y-22821431D01*
X13653607Y-22861107D01*
X13613931Y-22909453D01*
X13610220Y-22916396D01*
X13606254Y-22876131D01*
X13545213Y-22674907D01*
X13446088Y-22489457D01*
X13312689Y-22326909D01*
X13271953Y-22293478D01*
X11339926Y-20361452D01*
X11306491Y-20320711D01*
X11143943Y-20187312D01*
X10958493Y-20088187D01*
X10757269Y-20027146D01*
X10617805Y-20013410D01*
X14137230Y-20013410D01*
X15010667Y-20886848D01*
X15024046Y-20903150D01*
X15040348Y-20916529D01*
X15040354Y-20916535D01*
X15065702Y-20937337D01*
X15089141Y-20956573D01*
X15163407Y-20996269D01*
X15243991Y-21020714D01*
X15306799Y-21026900D01*
X15306808Y-21026900D01*
X15327795Y-21028967D01*
X15348782Y-21026900D01*
X15361216Y-21026900D01*
X15381181Y-21056780D01*
X15481120Y-21156719D01*
X15598636Y-21235241D01*
X15729213Y-21289327D01*
X15867832Y-21316900D01*
X16009168Y-21316900D01*
X16147787Y-21289327D01*
X16278364Y-21235241D01*
X16395880Y-21156719D01*
X16495819Y-21056780D01*
X16574341Y-20939264D01*
X16628427Y-20808687D01*
X16656000Y-20670068D01*
X16656000Y-20528732D01*
X16628427Y-20390113D01*
X16574341Y-20259536D01*
X16495819Y-20142020D01*
X16395880Y-20042081D01*
X16278364Y-19963559D01*
X16147787Y-19909473D01*
X16111206Y-19902197D01*
X16135300Y-19781068D01*
X16135300Y-19639732D01*
X16107727Y-19501113D01*
X16053641Y-19370536D01*
X15975119Y-19253020D01*
X15875180Y-19153081D01*
X15757664Y-19074559D01*
X15627087Y-19020473D01*
X15488468Y-18992900D01*
X15347132Y-18992900D01*
X15311887Y-18999911D01*
X15284135Y-18972159D01*
X15270752Y-18955852D01*
X15254280Y-18942333D01*
X15229584Y-18922066D01*
X15205657Y-18902429D01*
X15131391Y-18862733D01*
X15050807Y-18838288D01*
X14987999Y-18832102D01*
X14987991Y-18832102D01*
X14967002Y-18830035D01*
X14946013Y-18832102D01*
X8320384Y-18832102D01*
X8299397Y-18830035D01*
X8278410Y-18832102D01*
X8278401Y-18832102D01*
X8215593Y-18838288D01*
X8135009Y-18862733D01*
X8060743Y-18902429D01*
X8037959Y-18921128D01*
X8011956Y-18942467D01*
X8011950Y-18942473D01*
X7995648Y-18955852D01*
X7982269Y-18972154D01*
X7394333Y-19560091D01*
X7321167Y-19567297D01*
X7214193Y-19599747D01*
X7115605Y-19652444D01*
X7029192Y-19723361D01*
X6958275Y-19809774D01*
X6905578Y-19908362D01*
X6876540Y-20004089D01*
X6850169Y-19954753D01*
X6810493Y-19906407D01*
X6762147Y-19866731D01*
X6706990Y-19837249D01*
X6647141Y-19819094D01*
X6584900Y-19812964D01*
X5784900Y-19812964D01*
X5722659Y-19819094D01*
X5662810Y-19837249D01*
X5607653Y-19866731D01*
X5559307Y-19906407D01*
X5519631Y-19954753D01*
X5490149Y-20009910D01*
X5488757Y-20014500D01*
X5407336Y-20014500D01*
X5354897Y-20009335D01*
X5302459Y-20014500D01*
X5302457Y-20014500D01*
X5145631Y-20029946D01*
X4944407Y-20090987D01*
X4758957Y-20190112D01*
X4596409Y-20323511D01*
X4562978Y-20364247D01*
X2877741Y-22049485D01*
X2837000Y-22082920D01*
X2703601Y-22245468D01*
X2604476Y-22430919D01*
X2543435Y-22632143D01*
X2527989Y-22788968D01*
X2522824Y-22841409D01*
X2527989Y-22893847D01*
X2527989Y-22919588D01*
X2496082Y-22880709D01*
X2447736Y-22841033D01*
X2413700Y-22822840D01*
X2413700Y-19204037D01*
X2418280Y-19157535D01*
X2514311Y-19197312D01*
X2699560Y-19234160D01*
X2888440Y-19234160D01*
X3073689Y-19197312D01*
X3248191Y-19125031D01*
X3405238Y-19020096D01*
X3538796Y-18886538D01*
X3643731Y-18729491D01*
X3716012Y-18554989D01*
X3752860Y-18369740D01*
X3752860Y-18180860D01*
X3716012Y-17995611D01*
X3643731Y-17821109D01*
X3538796Y-17664062D01*
X3405238Y-17530504D01*
X3248191Y-17425569D01*
X3073689Y-17353288D01*
X2888440Y-17316440D01*
X2699560Y-17316440D01*
X2514311Y-17353288D01*
X2339809Y-17425569D01*
X2182762Y-17530504D01*
X2049204Y-17664062D01*
X2007300Y-17726776D01*
X2007300Y-11968932D01*
X4540300Y-11968932D01*
X4540300Y-12110268D01*
X4567873Y-12248887D01*
X4621959Y-12379464D01*
X4700481Y-12496980D01*
X4800420Y-12596919D01*
X4830300Y-12616885D01*
X4830301Y-12799902D01*
X4746983Y-12883220D01*
X4668461Y-13000736D01*
X4614375Y-13131313D01*
X4586802Y-13269932D01*
X4586802Y-13411268D01*
X4614375Y-13549887D01*
X4668461Y-13680464D01*
X4746983Y-13797980D01*
X4846922Y-13897919D01*
X4964438Y-13976441D01*
X5095015Y-14030527D01*
X5233634Y-14058100D01*
X5374970Y-14058100D01*
X5513589Y-14030527D01*
X5522146Y-14026983D01*
X5522286Y-14028404D01*
X5546731Y-14108988D01*
X5586427Y-14183254D01*
X5626465Y-14232041D01*
X5626468Y-14232044D01*
X5639850Y-14248350D01*
X5656157Y-14261733D01*
X7112711Y-15718287D01*
X7105700Y-15753532D01*
X7105700Y-15894868D01*
X7133273Y-16033487D01*
X7187359Y-16164064D01*
X7265881Y-16281580D01*
X7365820Y-16381519D01*
X7483336Y-16460041D01*
X7613913Y-16514127D01*
X7752532Y-16541700D01*
X7893868Y-16541700D01*
X8032487Y-16514127D01*
X8163064Y-16460041D01*
X8280580Y-16381519D01*
X8380519Y-16281580D01*
X8459041Y-16164064D01*
X8513127Y-16033487D01*
X8540700Y-15894868D01*
X8540700Y-15753532D01*
X8513127Y-15614913D01*
X8459041Y-15484336D01*
X8380519Y-15366820D01*
X8280580Y-15266881D01*
X8163064Y-15188359D01*
X8032487Y-15134273D01*
X7893868Y-15106700D01*
X7752532Y-15106700D01*
X7717287Y-15113711D01*
X6371100Y-13767524D01*
X6371100Y-11968157D01*
X6422790Y-11968157D01*
X6561409Y-11940584D01*
X6691986Y-11886498D01*
X6809502Y-11807976D01*
X6909441Y-11708037D01*
X6987963Y-11590521D01*
X7042049Y-11459944D01*
X7069622Y-11321325D01*
X7069622Y-11179989D01*
X7042049Y-11041370D01*
X6987963Y-10910793D01*
X6909441Y-10793277D01*
X6809502Y-10693338D01*
X6691986Y-10614816D01*
X6561409Y-10560730D01*
X6422790Y-10533157D01*
X6364699Y-10533157D01*
X6364699Y-10288887D01*
X6366766Y-10267898D01*
X6364699Y-10246909D01*
X6364699Y-10246902D01*
X6358513Y-10184094D01*
X6334068Y-10103510D01*
X6294372Y-10029244D01*
X6283325Y-10015783D01*
X6254334Y-9980457D01*
X6254328Y-9980451D01*
X6247922Y-9972645D01*
X6254700Y-9938568D01*
X6254700Y-9797232D01*
X6227127Y-9658613D01*
X6173041Y-9528036D01*
X6094519Y-9410520D01*
X5994580Y-9310581D01*
X5877064Y-9232059D01*
X5746487Y-9177973D01*
X5607868Y-9150400D01*
X5466532Y-9150400D01*
X5327913Y-9177973D01*
X5197336Y-9232059D01*
X5079820Y-9310581D01*
X4979881Y-9410520D01*
X4901359Y-9528036D01*
X4847273Y-9658613D01*
X4819700Y-9797232D01*
X4819700Y-9938568D01*
X4847273Y-10077187D01*
X4901359Y-10207764D01*
X4979881Y-10325280D01*
X5060743Y-10406142D01*
X5028263Y-10419596D01*
X4910747Y-10498118D01*
X4810808Y-10598057D01*
X4732286Y-10715573D01*
X4678200Y-10846150D01*
X4650627Y-10984769D01*
X4650627Y-11126105D01*
X4678200Y-11264724D01*
X4732286Y-11395301D01*
X4794416Y-11488285D01*
X4700481Y-11582220D01*
X4621959Y-11699736D01*
X4567873Y-11830313D01*
X4540300Y-11968932D01*
X2007300Y-11968932D01*
X2007300Y-5710927D01*
X2055759Y-5715700D01*
X2108200Y-5720865D01*
X2160641Y-5715700D01*
X2705504Y-5715700D01*
X2721100Y-5717236D01*
X4721100Y-5717236D01*
X4783341Y-5711106D01*
X4843190Y-5692951D01*
X4898347Y-5663469D01*
X4946693Y-5623793D01*
X4986369Y-5575447D01*
X5015851Y-5520290D01*
X5034006Y-5460441D01*
X5040136Y-5398200D01*
X5040136Y-3898200D01*
X5034006Y-3835959D01*
X5015851Y-3776110D01*
X4986369Y-3720953D01*
X4946693Y-3672607D01*
X4898347Y-3632931D01*
X4843190Y-3603449D01*
X4783341Y-3585294D01*
X4721100Y-3579164D01*
X2721100Y-3579164D01*
X2705504Y-3580700D01*
X2550373Y-3580700D01*
X2435959Y-3466287D01*
X2380825Y-3333181D01*
X2253056Y-3141962D01*
X2090438Y-2979344D01*
X1899219Y-2851575D01*
X1686747Y-2763566D01*
X1461189Y-2718700D01*
X1231211Y-2718700D01*
X1005653Y-2763566D01*
X793181Y-2851575D01*
X601962Y-2979344D01*
X439344Y-3141962D01*
X367500Y-3249484D01*
X367500Y-367500D01*
X14129764Y-367500D01*
X14129764Y-1170880D01*
G37*
G04 #@! TD.AperFunction*
D28*
X8959511Y-21837689D02*
X8998964Y-21870067D01*
X8998964Y-22029200D01*
X9005094Y-22091441D01*
X9023249Y-22151290D01*
X9052731Y-22206447D01*
X9092407Y-22254793D01*
X9140753Y-22294469D01*
X9195910Y-22323951D01*
X9255759Y-22342106D01*
X9318000Y-22348236D01*
X10118000Y-22348236D01*
X10180241Y-22342106D01*
X10240090Y-22323951D01*
X10268106Y-22308976D01*
X10769294Y-22810164D01*
X10268000Y-22810164D01*
X10205759Y-22816294D01*
X10145910Y-22834449D01*
X10090753Y-22863931D01*
X10042407Y-22903607D01*
X10002731Y-22951953D01*
X9973249Y-23007110D01*
X9955094Y-23066959D01*
X9948964Y-23129200D01*
X9948964Y-23899802D01*
X9947136Y-23900559D01*
X9829620Y-23979081D01*
X9729681Y-24079020D01*
X9651159Y-24196536D01*
X9597073Y-24327113D01*
X9569500Y-24465732D01*
X9569500Y-24607068D01*
X9597073Y-24745687D01*
X9651159Y-24876264D01*
X9729681Y-24993780D01*
X9768401Y-25032500D01*
X7859399Y-25032500D01*
X7897919Y-24993980D01*
X7976441Y-24876464D01*
X8030527Y-24745887D01*
X8058100Y-24607268D01*
X8058100Y-24465932D01*
X8030527Y-24327313D01*
X7976441Y-24196736D01*
X7897919Y-24079220D01*
X7853936Y-24035237D01*
X7853936Y-23132000D01*
X7847806Y-23069759D01*
X7829651Y-23009910D01*
X7800169Y-22954753D01*
X7760493Y-22906407D01*
X7712147Y-22866731D01*
X7656990Y-22837249D01*
X7597141Y-22819094D01*
X7534900Y-22812964D01*
X6734900Y-22812964D01*
X6672659Y-22819094D01*
X6612810Y-22837249D01*
X6557653Y-22866731D01*
X6509307Y-22906407D01*
X6469631Y-22954753D01*
X6440149Y-23009910D01*
X6421994Y-23069759D01*
X6415864Y-23132000D01*
X6415864Y-25032000D01*
X6415913Y-25032500D01*
X367500Y-25032500D01*
X367500Y-23965538D01*
X443453Y-24107636D01*
X454313Y-24127954D01*
X587712Y-24290502D01*
X601453Y-24301779D01*
X601453Y-24456302D01*
X607583Y-24518543D01*
X625738Y-24578392D01*
X655220Y-24633549D01*
X694896Y-24681895D01*
X743242Y-24721571D01*
X798399Y-24751053D01*
X858248Y-24769208D01*
X920489Y-24775338D01*
X1194964Y-24775338D01*
X1386222Y-24833356D01*
X1595489Y-24853967D01*
X1804755Y-24833356D01*
X1996015Y-24775338D01*
X2270489Y-24775338D01*
X2332730Y-24769208D01*
X2392579Y-24751053D01*
X2447736Y-24721571D01*
X2496082Y-24681895D01*
X2535758Y-24633549D01*
X2565240Y-24578392D01*
X2583395Y-24518543D01*
X2589525Y-24456302D01*
X2589525Y-24181828D01*
X2595489Y-24162166D01*
X2604477Y-24191793D01*
X2703602Y-24377243D01*
X2837001Y-24539791D01*
X2999549Y-24673190D01*
X3184999Y-24772315D01*
X3386223Y-24833356D01*
X3595489Y-24853967D01*
X3804756Y-24833356D01*
X4005980Y-24772315D01*
X4191430Y-24673190D01*
X4353978Y-24539791D01*
X4487377Y-24377243D01*
X4586502Y-24191793D01*
X4647543Y-23990569D01*
X4662989Y-23833742D01*
X4662989Y-23283581D01*
X5634794Y-22311776D01*
X5662810Y-22326751D01*
X5722659Y-22344906D01*
X5784900Y-22351036D01*
X6584900Y-22351036D01*
X6647141Y-22344906D01*
X6706990Y-22326751D01*
X6762147Y-22297269D01*
X6810493Y-22257593D01*
X6850169Y-22209247D01*
X6879651Y-22154090D01*
X6897806Y-22094241D01*
X6903936Y-22032000D01*
X6903936Y-21872867D01*
X6943389Y-21840489D01*
X7019461Y-21747794D01*
X7092551Y-21796631D01*
X7223128Y-21850717D01*
X7361747Y-21878290D01*
X7503083Y-21878290D01*
X7641702Y-21850717D01*
X7772279Y-21796631D01*
X7881771Y-21723470D01*
X7911920Y-21753619D01*
X8029436Y-21832141D01*
X8160013Y-21886227D01*
X8298632Y-21913800D01*
X8439968Y-21913800D01*
X8578587Y-21886227D01*
X8709164Y-21832141D01*
X8826680Y-21753619D01*
X8861742Y-21718557D01*
X8959511Y-21837689D01*
G04 #@! TA.AperFunction,Conductor*
D29*
G36*
X8959511Y-21837689D02*
G01*
X8998964Y-21870067D01*
X8998964Y-22029200D01*
X9005094Y-22091441D01*
X9023249Y-22151290D01*
X9052731Y-22206447D01*
X9092407Y-22254793D01*
X9140753Y-22294469D01*
X9195910Y-22323951D01*
X9255759Y-22342106D01*
X9318000Y-22348236D01*
X10118000Y-22348236D01*
X10180241Y-22342106D01*
X10240090Y-22323951D01*
X10268106Y-22308976D01*
X10769294Y-22810164D01*
X10268000Y-22810164D01*
X10205759Y-22816294D01*
X10145910Y-22834449D01*
X10090753Y-22863931D01*
X10042407Y-22903607D01*
X10002731Y-22951953D01*
X9973249Y-23007110D01*
X9955094Y-23066959D01*
X9948964Y-23129200D01*
X9948964Y-23899802D01*
X9947136Y-23900559D01*
X9829620Y-23979081D01*
X9729681Y-24079020D01*
X9651159Y-24196536D01*
X9597073Y-24327113D01*
X9569500Y-24465732D01*
X9569500Y-24607068D01*
X9597073Y-24745687D01*
X9651159Y-24876264D01*
X9729681Y-24993780D01*
X9768401Y-25032500D01*
X7859399Y-25032500D01*
X7897919Y-24993980D01*
X7976441Y-24876464D01*
X8030527Y-24745887D01*
X8058100Y-24607268D01*
X8058100Y-24465932D01*
X8030527Y-24327313D01*
X7976441Y-24196736D01*
X7897919Y-24079220D01*
X7853936Y-24035237D01*
X7853936Y-23132000D01*
X7847806Y-23069759D01*
X7829651Y-23009910D01*
X7800169Y-22954753D01*
X7760493Y-22906407D01*
X7712147Y-22866731D01*
X7656990Y-22837249D01*
X7597141Y-22819094D01*
X7534900Y-22812964D01*
X6734900Y-22812964D01*
X6672659Y-22819094D01*
X6612810Y-22837249D01*
X6557653Y-22866731D01*
X6509307Y-22906407D01*
X6469631Y-22954753D01*
X6440149Y-23009910D01*
X6421994Y-23069759D01*
X6415864Y-23132000D01*
X6415864Y-25032000D01*
X6415913Y-25032500D01*
X367500Y-25032500D01*
X367500Y-23965538D01*
X443453Y-24107636D01*
X454313Y-24127954D01*
X587712Y-24290502D01*
X601453Y-24301779D01*
X601453Y-24456302D01*
X607583Y-24518543D01*
X625738Y-24578392D01*
X655220Y-24633549D01*
X694896Y-24681895D01*
X743242Y-24721571D01*
X798399Y-24751053D01*
X858248Y-24769208D01*
X920489Y-24775338D01*
X1194964Y-24775338D01*
X1386222Y-24833356D01*
X1595489Y-24853967D01*
X1804755Y-24833356D01*
X1996015Y-24775338D01*
X2270489Y-24775338D01*
X2332730Y-24769208D01*
X2392579Y-24751053D01*
X2447736Y-24721571D01*
X2496082Y-24681895D01*
X2535758Y-24633549D01*
X2565240Y-24578392D01*
X2583395Y-24518543D01*
X2589525Y-24456302D01*
X2589525Y-24181828D01*
X2595489Y-24162166D01*
X2604477Y-24191793D01*
X2703602Y-24377243D01*
X2837001Y-24539791D01*
X2999549Y-24673190D01*
X3184999Y-24772315D01*
X3386223Y-24833356D01*
X3595489Y-24853967D01*
X3804756Y-24833356D01*
X4005980Y-24772315D01*
X4191430Y-24673190D01*
X4353978Y-24539791D01*
X4487377Y-24377243D01*
X4586502Y-24191793D01*
X4647543Y-23990569D01*
X4662989Y-23833742D01*
X4662989Y-23283581D01*
X5634794Y-22311776D01*
X5662810Y-22326751D01*
X5722659Y-22344906D01*
X5784900Y-22351036D01*
X6584900Y-22351036D01*
X6647141Y-22344906D01*
X6706990Y-22326751D01*
X6762147Y-22297269D01*
X6810493Y-22257593D01*
X6850169Y-22209247D01*
X6879651Y-22154090D01*
X6897806Y-22094241D01*
X6903936Y-22032000D01*
X6903936Y-21872867D01*
X6943389Y-21840489D01*
X7019461Y-21747794D01*
X7092551Y-21796631D01*
X7223128Y-21850717D01*
X7361747Y-21878290D01*
X7503083Y-21878290D01*
X7641702Y-21850717D01*
X7772279Y-21796631D01*
X7881771Y-21723470D01*
X7911920Y-21753619D01*
X8029436Y-21832141D01*
X8160013Y-21886227D01*
X8298632Y-21913800D01*
X8439968Y-21913800D01*
X8578587Y-21886227D01*
X8709164Y-21832141D01*
X8826680Y-21753619D01*
X8861742Y-21718557D01*
X8959511Y-21837689D01*
G37*
G04 #@! TD.AperFunction*
D28*
X26046859Y-19383236D02*
X25992773Y-19513813D01*
X25965200Y-19652432D01*
X25965200Y-19793768D01*
X25992773Y-19932387D01*
X26046859Y-20062964D01*
X26125381Y-20180480D01*
X26225320Y-20280419D01*
X26229801Y-20283413D01*
X26229800Y-21215916D01*
X26199920Y-21235881D01*
X26099981Y-21335820D01*
X26021459Y-21453336D01*
X25967373Y-21583913D01*
X25939800Y-21722532D01*
X25939800Y-21863868D01*
X25967373Y-22002487D01*
X26021459Y-22133064D01*
X26085762Y-22229300D01*
X25589776Y-22229300D01*
X22651776Y-19291300D01*
X26108289Y-19291300D01*
X26046859Y-19383236D01*
G04 #@! TA.AperFunction,Conductor*
D29*
G36*
X26046859Y-19383236D02*
G01*
X25992773Y-19513813D01*
X25965200Y-19652432D01*
X25965200Y-19793768D01*
X25992773Y-19932387D01*
X26046859Y-20062964D01*
X26125381Y-20180480D01*
X26225320Y-20280419D01*
X26229801Y-20283413D01*
X26229800Y-21215916D01*
X26199920Y-21235881D01*
X26099981Y-21335820D01*
X26021459Y-21453336D01*
X25967373Y-21583913D01*
X25939800Y-21722532D01*
X25939800Y-21863868D01*
X25967373Y-22002487D01*
X26021459Y-22133064D01*
X26085762Y-22229300D01*
X25589776Y-22229300D01*
X22651776Y-19291300D01*
X26108289Y-19291300D01*
X26046859Y-19383236D01*
G37*
G04 #@! TD.AperFunction*
D28*
X17622264Y-438249D02*
X17585373Y-527313D01*
X17557800Y-665932D01*
X17557800Y-807268D01*
X17585373Y-945887D01*
X17622264Y-1034951D01*
X17622264Y-2193200D01*
X17628394Y-2255441D01*
X17646549Y-2315290D01*
X17676031Y-2370447D01*
X17715707Y-2418793D01*
X17764053Y-2458469D01*
X17819210Y-2487951D01*
X17879059Y-2506106D01*
X17941300Y-2512236D01*
X18741300Y-2512236D01*
X18803541Y-2506106D01*
X18863390Y-2487951D01*
X18918547Y-2458469D01*
X18966893Y-2418793D01*
X19006569Y-2370447D01*
X19036051Y-2315290D01*
X19054206Y-2255441D01*
X19060336Y-2193200D01*
X19060336Y-367500D01*
X28806093Y-367500D01*
X28769407Y-397607D01*
X28729731Y-445953D01*
X28700249Y-501110D01*
X28682094Y-560959D01*
X28675964Y-623200D01*
X28675964Y-2323200D01*
X28682094Y-2385441D01*
X28700249Y-2445290D01*
X28729731Y-2500447D01*
X28769407Y-2548793D01*
X28817753Y-2588469D01*
X28872910Y-2617951D01*
X28932759Y-2636106D01*
X28995000Y-2642236D01*
X30695000Y-2642236D01*
X30757241Y-2636106D01*
X30817090Y-2617951D01*
X30872247Y-2588469D01*
X30920593Y-2548793D01*
X30960269Y-2500447D01*
X30989751Y-2445290D01*
X31007906Y-2385441D01*
X31014036Y-2323200D01*
X31014036Y-623200D01*
X31007906Y-560959D01*
X30989751Y-501110D01*
X30960269Y-445953D01*
X30920593Y-397607D01*
X30883907Y-367500D01*
X32003571Y-367500D01*
X31831981Y-438575D01*
X31640762Y-566344D01*
X31478144Y-728962D01*
X31350375Y-920181D01*
X31262366Y-1132653D01*
X31217500Y-1358211D01*
X31217500Y-1588189D01*
X31262366Y-1813747D01*
X31317501Y-1946854D01*
X31317500Y-6136427D01*
X30644899Y-6809029D01*
X30644894Y-6809033D01*
X29358197Y-8095731D01*
X29352425Y-8089960D01*
X29328427Y-7969313D01*
X29274341Y-7838736D01*
X29195819Y-7721220D01*
X29095880Y-7621281D01*
X28978364Y-7542759D01*
X28847787Y-7488673D01*
X28709168Y-7461100D01*
X28567832Y-7461100D01*
X28429213Y-7488673D01*
X28298636Y-7542759D01*
X28181120Y-7621281D01*
X28081181Y-7721220D01*
X28002659Y-7838736D01*
X27948573Y-7969313D01*
X27921000Y-8107932D01*
X27921000Y-8249268D01*
X27948573Y-8387887D01*
X28002659Y-8518464D01*
X28081181Y-8635980D01*
X28181120Y-8735919D01*
X28298636Y-8814441D01*
X28429213Y-8868527D01*
X28549860Y-8892525D01*
X28555631Y-8898297D01*
X28526528Y-8927400D01*
X20671390Y-8927400D01*
X20712212Y-8877659D01*
X20751908Y-8803393D01*
X20776353Y-8722809D01*
X20778237Y-8703679D01*
X20875592Y-8768730D01*
X21006169Y-8822816D01*
X21144788Y-8850389D01*
X21286124Y-8850389D01*
X21424743Y-8822816D01*
X21555320Y-8768730D01*
X21672836Y-8690208D01*
X21772775Y-8590269D01*
X21781298Y-8577514D01*
X21882943Y-8619616D01*
X22021562Y-8647189D01*
X22162898Y-8647189D01*
X22301517Y-8619616D01*
X22432094Y-8565530D01*
X22549610Y-8487008D01*
X22649549Y-8387069D01*
X22728071Y-8269553D01*
X22782157Y-8138976D01*
X22809730Y-8000357D01*
X22809730Y-7859021D01*
X22782157Y-7720402D01*
X22728071Y-7589825D01*
X22649549Y-7472309D01*
X22549610Y-7372370D01*
X22432094Y-7293848D01*
X22301517Y-7239762D01*
X22162898Y-7212189D01*
X22021562Y-7212189D01*
X21986317Y-7219200D01*
X20005851Y-5238734D01*
X20010336Y-5193200D01*
X20010336Y-5187132D01*
X25723900Y-5187132D01*
X25723900Y-5328468D01*
X25751473Y-5467087D01*
X25805559Y-5597664D01*
X25884081Y-5715180D01*
X25984020Y-5815119D01*
X26101536Y-5893641D01*
X26232113Y-5947727D01*
X26370732Y-5975300D01*
X26512068Y-5975300D01*
X26547313Y-5968289D01*
X27432367Y-6853343D01*
X27445750Y-6869650D01*
X27462057Y-6883033D01*
X27462059Y-6883035D01*
X27488214Y-6904500D01*
X27510845Y-6923073D01*
X27585111Y-6962769D01*
X27665695Y-6987214D01*
X27728503Y-6993400D01*
X27728511Y-6993400D01*
X27731192Y-6993664D01*
X27750981Y-7023280D01*
X27850920Y-7123219D01*
X27968436Y-7201741D01*
X28099013Y-7255827D01*
X28237632Y-7283400D01*
X28378968Y-7283400D01*
X28517587Y-7255827D01*
X28648164Y-7201741D01*
X28765680Y-7123219D01*
X28865619Y-7023280D01*
X28944141Y-6905764D01*
X28998227Y-6775187D01*
X29025800Y-6636568D01*
X29025800Y-6495232D01*
X28998227Y-6356613D01*
X28944141Y-6226036D01*
X28865619Y-6108520D01*
X28765680Y-6008581D01*
X28648164Y-5930059D01*
X28517587Y-5875973D01*
X28378968Y-5848400D01*
X28237632Y-5848400D01*
X28099013Y-5875973D01*
X27968436Y-5930059D01*
X27850920Y-6008581D01*
X27823839Y-6035663D01*
X27744750Y-5956574D01*
X27835364Y-5919041D01*
X27952880Y-5840519D01*
X27993799Y-5799600D01*
X28823216Y-5799600D01*
X28843181Y-5829480D01*
X28943120Y-5929419D01*
X29060636Y-6007941D01*
X29191213Y-6062027D01*
X29329832Y-6089600D01*
X29471168Y-6089600D01*
X29609787Y-6062027D01*
X29740364Y-6007941D01*
X29857880Y-5929419D01*
X29957819Y-5829480D01*
X30036341Y-5711964D01*
X30090427Y-5581387D01*
X30118000Y-5442768D01*
X30118000Y-5301432D01*
X30090427Y-5162813D01*
X30036341Y-5032236D01*
X29957819Y-4914720D01*
X29857880Y-4814781D01*
X29740364Y-4736259D01*
X29609787Y-4682173D01*
X29471168Y-4654600D01*
X29329832Y-4654600D01*
X29191213Y-4682173D01*
X29060636Y-4736259D01*
X28943120Y-4814781D01*
X28843181Y-4914720D01*
X28823216Y-4944600D01*
X28131865Y-4944600D01*
X28131341Y-4943336D01*
X28052819Y-4825820D01*
X27952880Y-4725881D01*
X27835364Y-4647359D01*
X27704787Y-4593273D01*
X27566168Y-4565700D01*
X27424832Y-4565700D01*
X27286213Y-4593273D01*
X27155636Y-4647359D01*
X27038120Y-4725881D01*
X26981150Y-4782851D01*
X26898780Y-4700481D01*
X26781264Y-4621959D01*
X26650687Y-4567873D01*
X26512068Y-4540300D01*
X26370732Y-4540300D01*
X26232113Y-4567873D01*
X26101536Y-4621959D01*
X25984020Y-4700481D01*
X25884081Y-4800420D01*
X25805559Y-4917936D01*
X25751473Y-5048513D01*
X25723900Y-5187132D01*
X20010336Y-5187132D01*
X20010336Y-5068000D01*
X22182364Y-5068000D01*
X22234802Y-5073165D01*
X22287240Y-5068000D01*
X22287243Y-5068000D01*
X22444069Y-5052554D01*
X22645293Y-4991513D01*
X22830743Y-4892388D01*
X22993291Y-4758989D01*
X23026726Y-4718248D01*
X24536353Y-3208622D01*
X24577089Y-3175191D01*
X24710488Y-3012643D01*
X24809613Y-2827193D01*
X24822747Y-2783897D01*
X24867769Y-2892591D01*
X24972704Y-3049638D01*
X25106262Y-3183196D01*
X25263309Y-3288131D01*
X25437811Y-3360412D01*
X25623060Y-3397260D01*
X25811940Y-3397260D01*
X25997189Y-3360412D01*
X26171691Y-3288131D01*
X26328738Y-3183196D01*
X26462296Y-3049638D01*
X26567231Y-2892591D01*
X26639512Y-2718089D01*
X26676360Y-2532840D01*
X26676360Y-2343960D01*
X26639512Y-2158711D01*
X26567231Y-1984209D01*
X26462296Y-1827162D01*
X26328738Y-1693604D01*
X26171691Y-1588669D01*
X25997189Y-1516388D01*
X25811940Y-1479540D01*
X25623060Y-1479540D01*
X25437811Y-1516388D01*
X25263309Y-1588669D01*
X25106262Y-1693604D01*
X24972704Y-1827162D01*
X24886100Y-1956775D01*
X24886100Y-1484260D01*
X24870654Y-1327433D01*
X24809613Y-1126209D01*
X24710488Y-940759D01*
X24577089Y-778211D01*
X24414541Y-644812D01*
X24229091Y-545687D01*
X24027867Y-484646D01*
X23818600Y-464035D01*
X23609334Y-484646D01*
X23408110Y-545687D01*
X23222660Y-644812D01*
X23060112Y-778211D01*
X22926713Y-940759D01*
X22827588Y-1126209D01*
X22812636Y-1175498D01*
X22812636Y-861700D01*
X22806506Y-799459D01*
X22788351Y-739610D01*
X22758869Y-684453D01*
X22719193Y-636107D01*
X22670847Y-596431D01*
X22615690Y-566949D01*
X22555841Y-548794D01*
X22493600Y-542664D01*
X21143600Y-542664D01*
X21081359Y-548794D01*
X21021510Y-566949D01*
X20966353Y-596431D01*
X20918007Y-636107D01*
X20878331Y-684453D01*
X20848849Y-739610D01*
X20830694Y-799459D01*
X20824564Y-861700D01*
X20824564Y-2211700D01*
X20830694Y-2273941D01*
X20848849Y-2333790D01*
X20878331Y-2388947D01*
X20918007Y-2437293D01*
X20966353Y-2476969D01*
X21021510Y-2506451D01*
X21081359Y-2524606D01*
X21143600Y-2530736D01*
X22194894Y-2530736D01*
X21792630Y-2933000D01*
X19586441Y-2933000D01*
X19534000Y-2927835D01*
X19481559Y-2933000D01*
X19324733Y-2948446D01*
X19239953Y-2974164D01*
X18991818Y-2974164D01*
X18983191Y-2953337D01*
X18904669Y-2835821D01*
X18804730Y-2735882D01*
X18687214Y-2657360D01*
X18556637Y-2603274D01*
X18418018Y-2575701D01*
X18276682Y-2575701D01*
X18138063Y-2603274D01*
X18007486Y-2657360D01*
X17889970Y-2735882D01*
X17790031Y-2835821D01*
X17711509Y-2953337D01*
X17657423Y-3083914D01*
X17629850Y-3222533D01*
X17629850Y-3363869D01*
X17636628Y-3397946D01*
X17630219Y-3405756D01*
X17630216Y-3405759D01*
X17628611Y-3407715D01*
X17590178Y-3454546D01*
X17550482Y-3528812D01*
X17526037Y-3609396D01*
X17519851Y-3672204D01*
X17519851Y-3672211D01*
X17517784Y-3693200D01*
X17519851Y-3714190D01*
X17519851Y-4047740D01*
X17277193Y-3805082D01*
X17336577Y-3716208D01*
X17390663Y-3585631D01*
X17418236Y-3447012D01*
X17418236Y-3305676D01*
X17390663Y-3167057D01*
X17336577Y-3036480D01*
X17258055Y-2918964D01*
X17158116Y-2819025D01*
X17040600Y-2740503D01*
X16910023Y-2686417D01*
X16771404Y-2658844D01*
X16630068Y-2658844D01*
X16491449Y-2686417D01*
X16360872Y-2740503D01*
X16243356Y-2819025D01*
X16143417Y-2918964D01*
X16107469Y-2972764D01*
X16039436Y-2972764D01*
X15650924Y-2584252D01*
X15617489Y-2543511D01*
X15469103Y-2421734D01*
X15474393Y-2417393D01*
X15514069Y-2369047D01*
X15543551Y-2313890D01*
X15561706Y-2254041D01*
X15567836Y-2191800D01*
X15567836Y-1424667D01*
X15694164Y-1372341D01*
X15811680Y-1293819D01*
X15911619Y-1193880D01*
X15990141Y-1076364D01*
X16044227Y-945787D01*
X16071800Y-807168D01*
X16071800Y-665832D01*
X16044227Y-527213D01*
X15990141Y-396636D01*
X15970673Y-367500D01*
X17622264Y-367500D01*
X17622264Y-438249D01*
G04 #@! TA.AperFunction,Conductor*
D29*
G36*
X17622264Y-438249D02*
G01*
X17585373Y-527313D01*
X17557800Y-665932D01*
X17557800Y-807268D01*
X17585373Y-945887D01*
X17622264Y-1034951D01*
X17622264Y-2193200D01*
X17628394Y-2255441D01*
X17646549Y-2315290D01*
X17676031Y-2370447D01*
X17715707Y-2418793D01*
X17764053Y-2458469D01*
X17819210Y-2487951D01*
X17879059Y-2506106D01*
X17941300Y-2512236D01*
X18741300Y-2512236D01*
X18803541Y-2506106D01*
X18863390Y-2487951D01*
X18918547Y-2458469D01*
X18966893Y-2418793D01*
X19006569Y-2370447D01*
X19036051Y-2315290D01*
X19054206Y-2255441D01*
X19060336Y-2193200D01*
X19060336Y-367500D01*
X28806093Y-367500D01*
X28769407Y-397607D01*
X28729731Y-445953D01*
X28700249Y-501110D01*
X28682094Y-560959D01*
X28675964Y-623200D01*
X28675964Y-2323200D01*
X28682094Y-2385441D01*
X28700249Y-2445290D01*
X28729731Y-2500447D01*
X28769407Y-2548793D01*
X28817753Y-2588469D01*
X28872910Y-2617951D01*
X28932759Y-2636106D01*
X28995000Y-2642236D01*
X30695000Y-2642236D01*
X30757241Y-2636106D01*
X30817090Y-2617951D01*
X30872247Y-2588469D01*
X30920593Y-2548793D01*
X30960269Y-2500447D01*
X30989751Y-2445290D01*
X31007906Y-2385441D01*
X31014036Y-2323200D01*
X31014036Y-623200D01*
X31007906Y-560959D01*
X30989751Y-501110D01*
X30960269Y-445953D01*
X30920593Y-397607D01*
X30883907Y-367500D01*
X32003571Y-367500D01*
X31831981Y-438575D01*
X31640762Y-566344D01*
X31478144Y-728962D01*
X31350375Y-920181D01*
X31262366Y-1132653D01*
X31217500Y-1358211D01*
X31217500Y-1588189D01*
X31262366Y-1813747D01*
X31317501Y-1946854D01*
X31317500Y-6136427D01*
X30644899Y-6809029D01*
X30644894Y-6809033D01*
X29358197Y-8095731D01*
X29352425Y-8089960D01*
X29328427Y-7969313D01*
X29274341Y-7838736D01*
X29195819Y-7721220D01*
X29095880Y-7621281D01*
X28978364Y-7542759D01*
X28847787Y-7488673D01*
X28709168Y-7461100D01*
X28567832Y-7461100D01*
X28429213Y-7488673D01*
X28298636Y-7542759D01*
X28181120Y-7621281D01*
X28081181Y-7721220D01*
X28002659Y-7838736D01*
X27948573Y-7969313D01*
X27921000Y-8107932D01*
X27921000Y-8249268D01*
X27948573Y-8387887D01*
X28002659Y-8518464D01*
X28081181Y-8635980D01*
X28181120Y-8735919D01*
X28298636Y-8814441D01*
X28429213Y-8868527D01*
X28549860Y-8892525D01*
X28555631Y-8898297D01*
X28526528Y-8927400D01*
X20671390Y-8927400D01*
X20712212Y-8877659D01*
X20751908Y-8803393D01*
X20776353Y-8722809D01*
X20778237Y-8703679D01*
X20875592Y-8768730D01*
X21006169Y-8822816D01*
X21144788Y-8850389D01*
X21286124Y-8850389D01*
X21424743Y-8822816D01*
X21555320Y-8768730D01*
X21672836Y-8690208D01*
X21772775Y-8590269D01*
X21781298Y-8577514D01*
X21882943Y-8619616D01*
X22021562Y-8647189D01*
X22162898Y-8647189D01*
X22301517Y-8619616D01*
X22432094Y-8565530D01*
X22549610Y-8487008D01*
X22649549Y-8387069D01*
X22728071Y-8269553D01*
X22782157Y-8138976D01*
X22809730Y-8000357D01*
X22809730Y-7859021D01*
X22782157Y-7720402D01*
X22728071Y-7589825D01*
X22649549Y-7472309D01*
X22549610Y-7372370D01*
X22432094Y-7293848D01*
X22301517Y-7239762D01*
X22162898Y-7212189D01*
X22021562Y-7212189D01*
X21986317Y-7219200D01*
X20005851Y-5238734D01*
X20010336Y-5193200D01*
X20010336Y-5187132D01*
X25723900Y-5187132D01*
X25723900Y-5328468D01*
X25751473Y-5467087D01*
X25805559Y-5597664D01*
X25884081Y-5715180D01*
X25984020Y-5815119D01*
X26101536Y-5893641D01*
X26232113Y-5947727D01*
X26370732Y-5975300D01*
X26512068Y-5975300D01*
X26547313Y-5968289D01*
X27432367Y-6853343D01*
X27445750Y-6869650D01*
X27462057Y-6883033D01*
X27462059Y-6883035D01*
X27488214Y-6904500D01*
X27510845Y-6923073D01*
X27585111Y-6962769D01*
X27665695Y-6987214D01*
X27728503Y-6993400D01*
X27728511Y-6993400D01*
X27731192Y-6993664D01*
X27750981Y-7023280D01*
X27850920Y-7123219D01*
X27968436Y-7201741D01*
X28099013Y-7255827D01*
X28237632Y-7283400D01*
X28378968Y-7283400D01*
X28517587Y-7255827D01*
X28648164Y-7201741D01*
X28765680Y-7123219D01*
X28865619Y-7023280D01*
X28944141Y-6905764D01*
X28998227Y-6775187D01*
X29025800Y-6636568D01*
X29025800Y-6495232D01*
X28998227Y-6356613D01*
X28944141Y-6226036D01*
X28865619Y-6108520D01*
X28765680Y-6008581D01*
X28648164Y-5930059D01*
X28517587Y-5875973D01*
X28378968Y-5848400D01*
X28237632Y-5848400D01*
X28099013Y-5875973D01*
X27968436Y-5930059D01*
X27850920Y-6008581D01*
X27823839Y-6035663D01*
X27744750Y-5956574D01*
X27835364Y-5919041D01*
X27952880Y-5840519D01*
X27993799Y-5799600D01*
X28823216Y-5799600D01*
X28843181Y-5829480D01*
X28943120Y-5929419D01*
X29060636Y-6007941D01*
X29191213Y-6062027D01*
X29329832Y-6089600D01*
X29471168Y-6089600D01*
X29609787Y-6062027D01*
X29740364Y-6007941D01*
X29857880Y-5929419D01*
X29957819Y-5829480D01*
X30036341Y-5711964D01*
X30090427Y-5581387D01*
X30118000Y-5442768D01*
X30118000Y-5301432D01*
X30090427Y-5162813D01*
X30036341Y-5032236D01*
X29957819Y-4914720D01*
X29857880Y-4814781D01*
X29740364Y-4736259D01*
X29609787Y-4682173D01*
X29471168Y-4654600D01*
X29329832Y-4654600D01*
X29191213Y-4682173D01*
X29060636Y-4736259D01*
X28943120Y-4814781D01*
X28843181Y-4914720D01*
X28823216Y-4944600D01*
X28131865Y-4944600D01*
X28131341Y-4943336D01*
X28052819Y-4825820D01*
X27952880Y-4725881D01*
X27835364Y-4647359D01*
X27704787Y-4593273D01*
X27566168Y-4565700D01*
X27424832Y-4565700D01*
X27286213Y-4593273D01*
X27155636Y-4647359D01*
X27038120Y-4725881D01*
X26981150Y-4782851D01*
X26898780Y-4700481D01*
X26781264Y-4621959D01*
X26650687Y-4567873D01*
X26512068Y-4540300D01*
X26370732Y-4540300D01*
X26232113Y-4567873D01*
X26101536Y-4621959D01*
X25984020Y-4700481D01*
X25884081Y-4800420D01*
X25805559Y-4917936D01*
X25751473Y-5048513D01*
X25723900Y-5187132D01*
X20010336Y-5187132D01*
X20010336Y-5068000D01*
X22182364Y-5068000D01*
X22234802Y-5073165D01*
X22287240Y-5068000D01*
X22287243Y-5068000D01*
X22444069Y-5052554D01*
X22645293Y-4991513D01*
X22830743Y-4892388D01*
X22993291Y-4758989D01*
X23026726Y-4718248D01*
X24536353Y-3208622D01*
X24577089Y-3175191D01*
X24710488Y-3012643D01*
X24809613Y-2827193D01*
X24822747Y-2783897D01*
X24867769Y-2892591D01*
X24972704Y-3049638D01*
X25106262Y-3183196D01*
X25263309Y-3288131D01*
X25437811Y-3360412D01*
X25623060Y-3397260D01*
X25811940Y-3397260D01*
X25997189Y-3360412D01*
X26171691Y-3288131D01*
X26328738Y-3183196D01*
X26462296Y-3049638D01*
X26567231Y-2892591D01*
X26639512Y-2718089D01*
X26676360Y-2532840D01*
X26676360Y-2343960D01*
X26639512Y-2158711D01*
X26567231Y-1984209D01*
X26462296Y-1827162D01*
X26328738Y-1693604D01*
X26171691Y-1588669D01*
X25997189Y-1516388D01*
X25811940Y-1479540D01*
X25623060Y-1479540D01*
X25437811Y-1516388D01*
X25263309Y-1588669D01*
X25106262Y-1693604D01*
X24972704Y-1827162D01*
X24886100Y-1956775D01*
X24886100Y-1484260D01*
X24870654Y-1327433D01*
X24809613Y-1126209D01*
X24710488Y-940759D01*
X24577089Y-778211D01*
X24414541Y-644812D01*
X24229091Y-545687D01*
X24027867Y-484646D01*
X23818600Y-464035D01*
X23609334Y-484646D01*
X23408110Y-545687D01*
X23222660Y-644812D01*
X23060112Y-778211D01*
X22926713Y-940759D01*
X22827588Y-1126209D01*
X22812636Y-1175498D01*
X22812636Y-861700D01*
X22806506Y-799459D01*
X22788351Y-739610D01*
X22758869Y-684453D01*
X22719193Y-636107D01*
X22670847Y-596431D01*
X22615690Y-566949D01*
X22555841Y-548794D01*
X22493600Y-542664D01*
X21143600Y-542664D01*
X21081359Y-548794D01*
X21021510Y-566949D01*
X20966353Y-596431D01*
X20918007Y-636107D01*
X20878331Y-684453D01*
X20848849Y-739610D01*
X20830694Y-799459D01*
X20824564Y-861700D01*
X20824564Y-2211700D01*
X20830694Y-2273941D01*
X20848849Y-2333790D01*
X20878331Y-2388947D01*
X20918007Y-2437293D01*
X20966353Y-2476969D01*
X21021510Y-2506451D01*
X21081359Y-2524606D01*
X21143600Y-2530736D01*
X22194894Y-2530736D01*
X21792630Y-2933000D01*
X19586441Y-2933000D01*
X19534000Y-2927835D01*
X19481559Y-2933000D01*
X19324733Y-2948446D01*
X19239953Y-2974164D01*
X18991818Y-2974164D01*
X18983191Y-2953337D01*
X18904669Y-2835821D01*
X18804730Y-2735882D01*
X18687214Y-2657360D01*
X18556637Y-2603274D01*
X18418018Y-2575701D01*
X18276682Y-2575701D01*
X18138063Y-2603274D01*
X18007486Y-2657360D01*
X17889970Y-2735882D01*
X17790031Y-2835821D01*
X17711509Y-2953337D01*
X17657423Y-3083914D01*
X17629850Y-3222533D01*
X17629850Y-3363869D01*
X17636628Y-3397946D01*
X17630219Y-3405756D01*
X17630216Y-3405759D01*
X17628611Y-3407715D01*
X17590178Y-3454546D01*
X17550482Y-3528812D01*
X17526037Y-3609396D01*
X17519851Y-3672204D01*
X17519851Y-3672211D01*
X17517784Y-3693200D01*
X17519851Y-3714190D01*
X17519851Y-4047740D01*
X17277193Y-3805082D01*
X17336577Y-3716208D01*
X17390663Y-3585631D01*
X17418236Y-3447012D01*
X17418236Y-3305676D01*
X17390663Y-3167057D01*
X17336577Y-3036480D01*
X17258055Y-2918964D01*
X17158116Y-2819025D01*
X17040600Y-2740503D01*
X16910023Y-2686417D01*
X16771404Y-2658844D01*
X16630068Y-2658844D01*
X16491449Y-2686417D01*
X16360872Y-2740503D01*
X16243356Y-2819025D01*
X16143417Y-2918964D01*
X16107469Y-2972764D01*
X16039436Y-2972764D01*
X15650924Y-2584252D01*
X15617489Y-2543511D01*
X15469103Y-2421734D01*
X15474393Y-2417393D01*
X15514069Y-2369047D01*
X15543551Y-2313890D01*
X15561706Y-2254041D01*
X15567836Y-2191800D01*
X15567836Y-1424667D01*
X15694164Y-1372341D01*
X15811680Y-1293819D01*
X15911619Y-1193880D01*
X15990141Y-1076364D01*
X16044227Y-945787D01*
X16071800Y-807168D01*
X16071800Y-665832D01*
X16044227Y-527213D01*
X15990141Y-396636D01*
X15970673Y-367500D01*
X17622264Y-367500D01*
X17622264Y-438249D01*
G37*
G04 #@! TD.AperFunction*
M02*
