G04 #@! TF.GenerationSoftware,KiCad,Pcbnew,(5.1.8)-1*
G04 #@! TF.CreationDate,2020-11-28T11:44:15-05:00*
G04 #@! TF.ProjectId,STM32_SMD_Quadcopter,53544d33-325f-4534-9d44-5f5175616463,rev?*
G04 #@! TF.SameCoordinates,PX2daf690PY1aab7d8*
G04 #@! TF.FileFunction,Soldermask,Top*
G04 #@! TF.FilePolarity,Negative*
%FSLAX46Y46*%
G04 Gerber Fmt 4.6, Leading zero omitted, Abs format (unit mm)*
G04 Created by KiCad (PCBNEW (5.1.8)-1) date 2020-11-28 11:44:15*
%MOMM*%
%LPD*%
G01*
G04 APERTURE LIST*
%ADD10R,1.000000X0.250000*%
%ADD11R,0.250000X1.000000*%
%ADD12R,0.350000X0.800000*%
%ADD13R,0.800000X0.350000*%
%ADD14R,2.500000X2.500000*%
%ADD15R,1.700000X1.700000*%
%ADD16O,1.700000X1.700000*%
%ADD17R,1.900000X1.175000*%
%ADD18R,1.900000X2.375000*%
%ADD19R,2.100000X1.475000*%
%ADD20R,1.380000X0.450000*%
%ADD21R,1.350000X1.350000*%
%ADD22O,1.350000X1.350000*%
%ADD23R,0.900000X1.700000*%
%ADD24R,2.100000X0.750000*%
%ADD25R,1.200000X1.400000*%
G04 APERTURE END LIST*
G36*
G01*
X33424400Y-23274200D02*
X33424400Y-23614200D01*
G75*
G02*
X33284400Y-23754200I-140000J0D01*
G01*
X33004400Y-23754200D01*
G75*
G02*
X32864400Y-23614200I0J140000D01*
G01*
X32864400Y-23274200D01*
G75*
G02*
X33004400Y-23134200I140000J0D01*
G01*
X33284400Y-23134200D01*
G75*
G02*
X33424400Y-23274200I0J-140000D01*
G01*
G37*
G36*
G01*
X32464400Y-23274200D02*
X32464400Y-23614200D01*
G75*
G02*
X32324400Y-23754200I-140000J0D01*
G01*
X32044400Y-23754200D01*
G75*
G02*
X31904400Y-23614200I0J140000D01*
G01*
X31904400Y-23274200D01*
G75*
G02*
X32044400Y-23134200I140000J0D01*
G01*
X32324400Y-23134200D01*
G75*
G02*
X32464400Y-23274200I0J-140000D01*
G01*
G37*
G36*
G01*
X30283600Y-19153700D02*
X30283600Y-19003700D01*
G75*
G02*
X30358600Y-18928700I75000J0D01*
G01*
X31058600Y-18928700D01*
G75*
G02*
X31133600Y-19003700I0J-75000D01*
G01*
X31133600Y-19153700D01*
G75*
G02*
X31058600Y-19228700I-75000J0D01*
G01*
X30358600Y-19228700D01*
G75*
G02*
X30283600Y-19153700I0J75000D01*
G01*
G37*
G36*
G01*
X30283600Y-19653700D02*
X30283600Y-19503700D01*
G75*
G02*
X30358600Y-19428700I75000J0D01*
G01*
X31058600Y-19428700D01*
G75*
G02*
X31133600Y-19503700I0J-75000D01*
G01*
X31133600Y-19653700D01*
G75*
G02*
X31058600Y-19728700I-75000J0D01*
G01*
X30358600Y-19728700D01*
G75*
G02*
X30283600Y-19653700I0J75000D01*
G01*
G37*
G36*
G01*
X30283600Y-20153700D02*
X30283600Y-20003700D01*
G75*
G02*
X30358600Y-19928700I75000J0D01*
G01*
X31058600Y-19928700D01*
G75*
G02*
X31133600Y-20003700I0J-75000D01*
G01*
X31133600Y-20153700D01*
G75*
G02*
X31058600Y-20228700I-75000J0D01*
G01*
X30358600Y-20228700D01*
G75*
G02*
X30283600Y-20153700I0J75000D01*
G01*
G37*
G36*
G01*
X30283600Y-20653700D02*
X30283600Y-20503700D01*
G75*
G02*
X30358600Y-20428700I75000J0D01*
G01*
X31058600Y-20428700D01*
G75*
G02*
X31133600Y-20503700I0J-75000D01*
G01*
X31133600Y-20653700D01*
G75*
G02*
X31058600Y-20728700I-75000J0D01*
G01*
X30358600Y-20728700D01*
G75*
G02*
X30283600Y-20653700I0J75000D01*
G01*
G37*
G36*
G01*
X30283600Y-21153700D02*
X30283600Y-21003700D01*
G75*
G02*
X30358600Y-20928700I75000J0D01*
G01*
X31058600Y-20928700D01*
G75*
G02*
X31133600Y-21003700I0J-75000D01*
G01*
X31133600Y-21153700D01*
G75*
G02*
X31058600Y-21228700I-75000J0D01*
G01*
X30358600Y-21228700D01*
G75*
G02*
X30283600Y-21153700I0J75000D01*
G01*
G37*
G36*
G01*
X30283600Y-21653700D02*
X30283600Y-21503700D01*
G75*
G02*
X30358600Y-21428700I75000J0D01*
G01*
X31058600Y-21428700D01*
G75*
G02*
X31133600Y-21503700I0J-75000D01*
G01*
X31133600Y-21653700D01*
G75*
G02*
X31058600Y-21728700I-75000J0D01*
G01*
X30358600Y-21728700D01*
G75*
G02*
X30283600Y-21653700I0J75000D01*
G01*
G37*
G36*
G01*
X31483600Y-22703700D02*
X31333600Y-22703700D01*
G75*
G02*
X31258600Y-22628700I0J75000D01*
G01*
X31258600Y-21928700D01*
G75*
G02*
X31333600Y-21853700I75000J0D01*
G01*
X31483600Y-21853700D01*
G75*
G02*
X31558600Y-21928700I0J-75000D01*
G01*
X31558600Y-22628700D01*
G75*
G02*
X31483600Y-22703700I-75000J0D01*
G01*
G37*
G36*
G01*
X31983600Y-22703700D02*
X31833600Y-22703700D01*
G75*
G02*
X31758600Y-22628700I0J75000D01*
G01*
X31758600Y-21928700D01*
G75*
G02*
X31833600Y-21853700I75000J0D01*
G01*
X31983600Y-21853700D01*
G75*
G02*
X32058600Y-21928700I0J-75000D01*
G01*
X32058600Y-22628700D01*
G75*
G02*
X31983600Y-22703700I-75000J0D01*
G01*
G37*
G36*
G01*
X32483600Y-22703700D02*
X32333600Y-22703700D01*
G75*
G02*
X32258600Y-22628700I0J75000D01*
G01*
X32258600Y-21928700D01*
G75*
G02*
X32333600Y-21853700I75000J0D01*
G01*
X32483600Y-21853700D01*
G75*
G02*
X32558600Y-21928700I0J-75000D01*
G01*
X32558600Y-22628700D01*
G75*
G02*
X32483600Y-22703700I-75000J0D01*
G01*
G37*
G36*
G01*
X32983600Y-22703700D02*
X32833600Y-22703700D01*
G75*
G02*
X32758600Y-22628700I0J75000D01*
G01*
X32758600Y-21928700D01*
G75*
G02*
X32833600Y-21853700I75000J0D01*
G01*
X32983600Y-21853700D01*
G75*
G02*
X33058600Y-21928700I0J-75000D01*
G01*
X33058600Y-22628700D01*
G75*
G02*
X32983600Y-22703700I-75000J0D01*
G01*
G37*
G36*
G01*
X33483600Y-22703700D02*
X33333600Y-22703700D01*
G75*
G02*
X33258600Y-22628700I0J75000D01*
G01*
X33258600Y-21928700D01*
G75*
G02*
X33333600Y-21853700I75000J0D01*
G01*
X33483600Y-21853700D01*
G75*
G02*
X33558600Y-21928700I0J-75000D01*
G01*
X33558600Y-22628700D01*
G75*
G02*
X33483600Y-22703700I-75000J0D01*
G01*
G37*
G36*
G01*
X33983600Y-22703700D02*
X33833600Y-22703700D01*
G75*
G02*
X33758600Y-22628700I0J75000D01*
G01*
X33758600Y-21928700D01*
G75*
G02*
X33833600Y-21853700I75000J0D01*
G01*
X33983600Y-21853700D01*
G75*
G02*
X34058600Y-21928700I0J-75000D01*
G01*
X34058600Y-22628700D01*
G75*
G02*
X33983600Y-22703700I-75000J0D01*
G01*
G37*
G36*
G01*
X34183600Y-21653700D02*
X34183600Y-21503700D01*
G75*
G02*
X34258600Y-21428700I75000J0D01*
G01*
X34958600Y-21428700D01*
G75*
G02*
X35033600Y-21503700I0J-75000D01*
G01*
X35033600Y-21653700D01*
G75*
G02*
X34958600Y-21728700I-75000J0D01*
G01*
X34258600Y-21728700D01*
G75*
G02*
X34183600Y-21653700I0J75000D01*
G01*
G37*
G36*
G01*
X34183600Y-21153700D02*
X34183600Y-21003700D01*
G75*
G02*
X34258600Y-20928700I75000J0D01*
G01*
X34958600Y-20928700D01*
G75*
G02*
X35033600Y-21003700I0J-75000D01*
G01*
X35033600Y-21153700D01*
G75*
G02*
X34958600Y-21228700I-75000J0D01*
G01*
X34258600Y-21228700D01*
G75*
G02*
X34183600Y-21153700I0J75000D01*
G01*
G37*
G36*
G01*
X34183600Y-20653700D02*
X34183600Y-20503700D01*
G75*
G02*
X34258600Y-20428700I75000J0D01*
G01*
X34958600Y-20428700D01*
G75*
G02*
X35033600Y-20503700I0J-75000D01*
G01*
X35033600Y-20653700D01*
G75*
G02*
X34958600Y-20728700I-75000J0D01*
G01*
X34258600Y-20728700D01*
G75*
G02*
X34183600Y-20653700I0J75000D01*
G01*
G37*
G36*
G01*
X34183600Y-20153700D02*
X34183600Y-20003700D01*
G75*
G02*
X34258600Y-19928700I75000J0D01*
G01*
X34958600Y-19928700D01*
G75*
G02*
X35033600Y-20003700I0J-75000D01*
G01*
X35033600Y-20153700D01*
G75*
G02*
X34958600Y-20228700I-75000J0D01*
G01*
X34258600Y-20228700D01*
G75*
G02*
X34183600Y-20153700I0J75000D01*
G01*
G37*
G36*
G01*
X34183600Y-19653700D02*
X34183600Y-19503700D01*
G75*
G02*
X34258600Y-19428700I75000J0D01*
G01*
X34958600Y-19428700D01*
G75*
G02*
X35033600Y-19503700I0J-75000D01*
G01*
X35033600Y-19653700D01*
G75*
G02*
X34958600Y-19728700I-75000J0D01*
G01*
X34258600Y-19728700D01*
G75*
G02*
X34183600Y-19653700I0J75000D01*
G01*
G37*
G36*
G01*
X34183600Y-19153700D02*
X34183600Y-19003700D01*
G75*
G02*
X34258600Y-18928700I75000J0D01*
G01*
X34958600Y-18928700D01*
G75*
G02*
X35033600Y-19003700I0J-75000D01*
G01*
X35033600Y-19153700D01*
G75*
G02*
X34958600Y-19228700I-75000J0D01*
G01*
X34258600Y-19228700D01*
G75*
G02*
X34183600Y-19153700I0J75000D01*
G01*
G37*
G36*
G01*
X33983600Y-18803700D02*
X33833600Y-18803700D01*
G75*
G02*
X33758600Y-18728700I0J75000D01*
G01*
X33758600Y-18028700D01*
G75*
G02*
X33833600Y-17953700I75000J0D01*
G01*
X33983600Y-17953700D01*
G75*
G02*
X34058600Y-18028700I0J-75000D01*
G01*
X34058600Y-18728700D01*
G75*
G02*
X33983600Y-18803700I-75000J0D01*
G01*
G37*
G36*
G01*
X33483600Y-18803700D02*
X33333600Y-18803700D01*
G75*
G02*
X33258600Y-18728700I0J75000D01*
G01*
X33258600Y-18028700D01*
G75*
G02*
X33333600Y-17953700I75000J0D01*
G01*
X33483600Y-17953700D01*
G75*
G02*
X33558600Y-18028700I0J-75000D01*
G01*
X33558600Y-18728700D01*
G75*
G02*
X33483600Y-18803700I-75000J0D01*
G01*
G37*
G36*
G01*
X32983600Y-18803700D02*
X32833600Y-18803700D01*
G75*
G02*
X32758600Y-18728700I0J75000D01*
G01*
X32758600Y-18028700D01*
G75*
G02*
X32833600Y-17953700I75000J0D01*
G01*
X32983600Y-17953700D01*
G75*
G02*
X33058600Y-18028700I0J-75000D01*
G01*
X33058600Y-18728700D01*
G75*
G02*
X32983600Y-18803700I-75000J0D01*
G01*
G37*
G36*
G01*
X32483600Y-18803700D02*
X32333600Y-18803700D01*
G75*
G02*
X32258600Y-18728700I0J75000D01*
G01*
X32258600Y-18028700D01*
G75*
G02*
X32333600Y-17953700I75000J0D01*
G01*
X32483600Y-17953700D01*
G75*
G02*
X32558600Y-18028700I0J-75000D01*
G01*
X32558600Y-18728700D01*
G75*
G02*
X32483600Y-18803700I-75000J0D01*
G01*
G37*
G36*
G01*
X31983600Y-18803700D02*
X31833600Y-18803700D01*
G75*
G02*
X31758600Y-18728700I0J75000D01*
G01*
X31758600Y-18028700D01*
G75*
G02*
X31833600Y-17953700I75000J0D01*
G01*
X31983600Y-17953700D01*
G75*
G02*
X32058600Y-18028700I0J-75000D01*
G01*
X32058600Y-18728700D01*
G75*
G02*
X31983600Y-18803700I-75000J0D01*
G01*
G37*
G36*
G01*
X31483600Y-18803700D02*
X31333600Y-18803700D01*
G75*
G02*
X31258600Y-18728700I0J75000D01*
G01*
X31258600Y-18028700D01*
G75*
G02*
X31333600Y-17953700I75000J0D01*
G01*
X31483600Y-17953700D01*
G75*
G02*
X31558600Y-18028700I0J-75000D01*
G01*
X31558600Y-18728700D01*
G75*
G02*
X31483600Y-18803700I-75000J0D01*
G01*
G37*
G36*
G01*
X5179350Y-7664900D02*
X5691850Y-7664900D01*
G75*
G02*
X5910600Y-7883650I0J-218750D01*
G01*
X5910600Y-8321150D01*
G75*
G02*
X5691850Y-8539900I-218750J0D01*
G01*
X5179350Y-8539900D01*
G75*
G02*
X4960600Y-8321150I0J218750D01*
G01*
X4960600Y-7883650D01*
G75*
G02*
X5179350Y-7664900I218750J0D01*
G01*
G37*
G36*
G01*
X5179350Y-9239900D02*
X5691850Y-9239900D01*
G75*
G02*
X5910600Y-9458650I0J-218750D01*
G01*
X5910600Y-9896150D01*
G75*
G02*
X5691850Y-10114900I-218750J0D01*
G01*
X5179350Y-10114900D01*
G75*
G02*
X4960600Y-9896150I0J218750D01*
G01*
X4960600Y-9458650D01*
G75*
G02*
X5179350Y-9239900I218750J0D01*
G01*
G37*
D10*
X15204200Y-8823000D03*
X15204200Y-9323000D03*
X15204200Y-9823000D03*
X15204200Y-10323000D03*
X15204200Y-10823000D03*
X15204200Y-11323000D03*
X15204200Y-11823000D03*
X15204200Y-12323000D03*
X15204200Y-12823000D03*
X15204200Y-13323000D03*
X15204200Y-13823000D03*
X15204200Y-14323000D03*
X15204200Y-14823000D03*
X15204200Y-15323000D03*
X15204200Y-15823000D03*
X15204200Y-16323000D03*
D11*
X17154200Y-18273000D03*
X17654200Y-18273000D03*
X18154200Y-18273000D03*
X18654200Y-18273000D03*
X19154200Y-18273000D03*
X19654200Y-18273000D03*
X20154200Y-18273000D03*
X20654200Y-18273000D03*
X21154200Y-18273000D03*
X21654200Y-18273000D03*
X22154200Y-18273000D03*
X22654200Y-18273000D03*
X23154200Y-18273000D03*
X23654200Y-18273000D03*
X24154200Y-18273000D03*
X24654200Y-18273000D03*
D10*
X26604200Y-16323000D03*
X26604200Y-15823000D03*
X26604200Y-15323000D03*
X26604200Y-14823000D03*
X26604200Y-14323000D03*
X26604200Y-13823000D03*
X26604200Y-13323000D03*
X26604200Y-12823000D03*
X26604200Y-12323000D03*
X26604200Y-11823000D03*
X26604200Y-11323000D03*
X26604200Y-10823000D03*
X26604200Y-10323000D03*
X26604200Y-9823000D03*
X26604200Y-9323000D03*
X26604200Y-8823000D03*
D11*
X24654200Y-6873000D03*
X24154200Y-6873000D03*
X23654200Y-6873000D03*
X23154200Y-6873000D03*
X22654200Y-6873000D03*
X22154200Y-6873000D03*
X21654200Y-6873000D03*
X21154200Y-6873000D03*
X20654200Y-6873000D03*
X20154200Y-6873000D03*
X19654200Y-6873000D03*
X19154200Y-6873000D03*
X18654200Y-6873000D03*
X18154200Y-6873000D03*
X17654200Y-6873000D03*
X17154200Y-6873000D03*
D12*
X9153800Y-11055600D03*
X8503800Y-11055600D03*
X7853800Y-11055600D03*
X7203800Y-11055600D03*
D13*
X6178800Y-12080600D03*
X6178800Y-12730600D03*
X6178800Y-13380600D03*
X6178800Y-14030600D03*
D12*
X7203800Y-15055600D03*
X7853800Y-15055600D03*
X8503800Y-15055600D03*
X9153800Y-15055600D03*
D13*
X10178800Y-14030600D03*
X10178800Y-13380600D03*
X10178800Y-12730600D03*
X10178800Y-12080600D03*
D14*
X8178800Y-13055600D03*
G36*
G01*
X27048750Y-553100D02*
X27561250Y-553100D01*
G75*
G02*
X27780000Y-771850I0J-218750D01*
G01*
X27780000Y-1209350D01*
G75*
G02*
X27561250Y-1428100I-218750J0D01*
G01*
X27048750Y-1428100D01*
G75*
G02*
X26830000Y-1209350I0J218750D01*
G01*
X26830000Y-771850D01*
G75*
G02*
X27048750Y-553100I218750J0D01*
G01*
G37*
G36*
G01*
X27048750Y-2128100D02*
X27561250Y-2128100D01*
G75*
G02*
X27780000Y-2346850I0J-218750D01*
G01*
X27780000Y-2784350D01*
G75*
G02*
X27561250Y-3003100I-218750J0D01*
G01*
X27048750Y-3003100D01*
G75*
G02*
X26830000Y-2784350I0J218750D01*
G01*
X26830000Y-2346850D01*
G75*
G02*
X27048750Y-2128100I218750J0D01*
G01*
G37*
G36*
G01*
X12999300Y-8689050D02*
X12999300Y-8176550D01*
G75*
G02*
X13218050Y-7957800I218750J0D01*
G01*
X13655550Y-7957800D01*
G75*
G02*
X13874300Y-8176550I0J-218750D01*
G01*
X13874300Y-8689050D01*
G75*
G02*
X13655550Y-8907800I-218750J0D01*
G01*
X13218050Y-8907800D01*
G75*
G02*
X12999300Y-8689050I0J218750D01*
G01*
G37*
G36*
G01*
X11424300Y-8689050D02*
X11424300Y-8176550D01*
G75*
G02*
X11643050Y-7957800I218750J0D01*
G01*
X12080550Y-7957800D01*
G75*
G02*
X12299300Y-8176550I0J-218750D01*
G01*
X12299300Y-8689050D01*
G75*
G02*
X12080550Y-8907800I-218750J0D01*
G01*
X11643050Y-8907800D01*
G75*
G02*
X11424300Y-8689050I0J218750D01*
G01*
G37*
G36*
G01*
X17071050Y-2748900D02*
X16558550Y-2748900D01*
G75*
G02*
X16339800Y-2530150I0J218750D01*
G01*
X16339800Y-2092650D01*
G75*
G02*
X16558550Y-1873900I218750J0D01*
G01*
X17071050Y-1873900D01*
G75*
G02*
X17289800Y-2092650I0J-218750D01*
G01*
X17289800Y-2530150D01*
G75*
G02*
X17071050Y-2748900I-218750J0D01*
G01*
G37*
G36*
G01*
X17071050Y-1173900D02*
X16558550Y-1173900D01*
G75*
G02*
X16339800Y-955150I0J218750D01*
G01*
X16339800Y-517650D01*
G75*
G02*
X16558550Y-298900I218750J0D01*
G01*
X17071050Y-298900D01*
G75*
G02*
X17289800Y-517650I0J-218750D01*
G01*
X17289800Y-955150D01*
G75*
G02*
X17071050Y-1173900I-218750J0D01*
G01*
G37*
D15*
X1346200Y-1346200D03*
D16*
X1346200Y-3886200D03*
D17*
X1454300Y-13540000D03*
X1454300Y-11860000D03*
D18*
X1454300Y-15610000D03*
X1454300Y-9790000D03*
D19*
X3754300Y-15162500D03*
X3754300Y-10237500D03*
D20*
X4114300Y-14000000D03*
X4114300Y-13350000D03*
X4114300Y-12700000D03*
X4114300Y-12050000D03*
X4114300Y-11400000D03*
G36*
G01*
X12273100Y-20828950D02*
X12273100Y-21741450D01*
G75*
G02*
X12029350Y-21985200I-243750J0D01*
G01*
X11541850Y-21985200D01*
G75*
G02*
X11298100Y-21741450I0J243750D01*
G01*
X11298100Y-20828950D01*
G75*
G02*
X11541850Y-20585200I243750J0D01*
G01*
X12029350Y-20585200D01*
G75*
G02*
X12273100Y-20828950I0J-243750D01*
G01*
G37*
G36*
G01*
X14148100Y-20828950D02*
X14148100Y-21741450D01*
G75*
G02*
X13904350Y-21985200I-243750J0D01*
G01*
X13416850Y-21985200D01*
G75*
G02*
X13173100Y-21741450I0J243750D01*
G01*
X13173100Y-20828950D01*
G75*
G02*
X13416850Y-20585200I243750J0D01*
G01*
X13904350Y-20585200D01*
G75*
G02*
X14148100Y-20828950I0J-243750D01*
G01*
G37*
G36*
G01*
X20660300Y-4050350D02*
X20660300Y-3137850D01*
G75*
G02*
X20904050Y-2894100I243750J0D01*
G01*
X21391550Y-2894100D01*
G75*
G02*
X21635300Y-3137850I0J-243750D01*
G01*
X21635300Y-4050350D01*
G75*
G02*
X21391550Y-4294100I-243750J0D01*
G01*
X20904050Y-4294100D01*
G75*
G02*
X20660300Y-4050350I0J243750D01*
G01*
G37*
G36*
G01*
X22535300Y-4050350D02*
X22535300Y-3137850D01*
G75*
G02*
X22779050Y-2894100I243750J0D01*
G01*
X23266550Y-2894100D01*
G75*
G02*
X23510300Y-3137850I0J-243750D01*
G01*
X23510300Y-4050350D01*
G75*
G02*
X23266550Y-4294100I-243750J0D01*
G01*
X22779050Y-4294100D01*
G75*
G02*
X22535300Y-4050350I0J243750D01*
G01*
G37*
G36*
G01*
X28374050Y-17201300D02*
X27861550Y-17201300D01*
G75*
G02*
X27642800Y-16982550I0J218750D01*
G01*
X27642800Y-16545050D01*
G75*
G02*
X27861550Y-16326300I218750J0D01*
G01*
X28374050Y-16326300D01*
G75*
G02*
X28592800Y-16545050I0J-218750D01*
G01*
X28592800Y-16982550D01*
G75*
G02*
X28374050Y-17201300I-218750J0D01*
G01*
G37*
G36*
G01*
X28374050Y-18776300D02*
X27861550Y-18776300D01*
G75*
G02*
X27642800Y-18557550I0J218750D01*
G01*
X27642800Y-18120050D01*
G75*
G02*
X27861550Y-17901300I218750J0D01*
G01*
X28374050Y-17901300D01*
G75*
G02*
X28592800Y-18120050I0J-218750D01*
G01*
X28592800Y-18557550D01*
G75*
G02*
X28374050Y-18776300I-218750J0D01*
G01*
G37*
G36*
G01*
X22422300Y-20309550D02*
X22422300Y-19797050D01*
G75*
G02*
X22641050Y-19578300I218750J0D01*
G01*
X23078550Y-19578300D01*
G75*
G02*
X23297300Y-19797050I0J-218750D01*
G01*
X23297300Y-20309550D01*
G75*
G02*
X23078550Y-20528300I-218750J0D01*
G01*
X22641050Y-20528300D01*
G75*
G02*
X22422300Y-20309550I0J218750D01*
G01*
G37*
G36*
G01*
X23997300Y-20309550D02*
X23997300Y-19797050D01*
G75*
G02*
X24216050Y-19578300I218750J0D01*
G01*
X24653550Y-19578300D01*
G75*
G02*
X24872300Y-19797050I0J-218750D01*
G01*
X24872300Y-20309550D01*
G75*
G02*
X24653550Y-20528300I-218750J0D01*
G01*
X24216050Y-20528300D01*
G75*
G02*
X23997300Y-20309550I0J218750D01*
G01*
G37*
G36*
G01*
X13378600Y-4164650D02*
X13378600Y-3252150D01*
G75*
G02*
X13622350Y-3008400I243750J0D01*
G01*
X14109850Y-3008400D01*
G75*
G02*
X14353600Y-3252150I0J-243750D01*
G01*
X14353600Y-4164650D01*
G75*
G02*
X14109850Y-4408400I-243750J0D01*
G01*
X13622350Y-4408400D01*
G75*
G02*
X13378600Y-4164650I0J243750D01*
G01*
G37*
G36*
G01*
X11503600Y-4164650D02*
X11503600Y-3252150D01*
G75*
G02*
X11747350Y-3008400I243750J0D01*
G01*
X12234850Y-3008400D01*
G75*
G02*
X12478600Y-3252150I0J-243750D01*
G01*
X12478600Y-4164650D01*
G75*
G02*
X12234850Y-4408400I-243750J0D01*
G01*
X11747350Y-4408400D01*
G75*
G02*
X11503600Y-4164650I0J243750D01*
G01*
G37*
G36*
G01*
X7749250Y-4298500D02*
X7236750Y-4298500D01*
G75*
G02*
X7018000Y-4079750I0J218750D01*
G01*
X7018000Y-3642250D01*
G75*
G02*
X7236750Y-3423500I218750J0D01*
G01*
X7749250Y-3423500D01*
G75*
G02*
X7968000Y-3642250I0J-218750D01*
G01*
X7968000Y-4079750D01*
G75*
G02*
X7749250Y-4298500I-218750J0D01*
G01*
G37*
G36*
G01*
X7749250Y-2723500D02*
X7236750Y-2723500D01*
G75*
G02*
X7018000Y-2504750I0J218750D01*
G01*
X7018000Y-2067250D01*
G75*
G02*
X7236750Y-1848500I218750J0D01*
G01*
X7749250Y-1848500D01*
G75*
G02*
X7968000Y-2067250I0J-218750D01*
G01*
X7968000Y-2504750D01*
G75*
G02*
X7749250Y-2723500I-218750J0D01*
G01*
G37*
G36*
G01*
X324300Y-6276050D02*
X324300Y-5763550D01*
G75*
G02*
X543050Y-5544800I218750J0D01*
G01*
X980550Y-5544800D01*
G75*
G02*
X1199300Y-5763550I0J-218750D01*
G01*
X1199300Y-6276050D01*
G75*
G02*
X980550Y-6494800I-218750J0D01*
G01*
X543050Y-6494800D01*
G75*
G02*
X324300Y-6276050I0J218750D01*
G01*
G37*
G36*
G01*
X1899300Y-6276050D02*
X1899300Y-5763550D01*
G75*
G02*
X2118050Y-5544800I218750J0D01*
G01*
X2555550Y-5544800D01*
G75*
G02*
X2774300Y-5763550I0J-218750D01*
G01*
X2774300Y-6276050D01*
G75*
G02*
X2555550Y-6494800I-218750J0D01*
G01*
X2118050Y-6494800D01*
G75*
G02*
X1899300Y-6276050I0J218750D01*
G01*
G37*
G36*
G01*
X12999100Y-7190450D02*
X12999100Y-6677950D01*
G75*
G02*
X13217850Y-6459200I218750J0D01*
G01*
X13655350Y-6459200D01*
G75*
G02*
X13874100Y-6677950I0J-218750D01*
G01*
X13874100Y-7190450D01*
G75*
G02*
X13655350Y-7409200I-218750J0D01*
G01*
X13217850Y-7409200D01*
G75*
G02*
X12999100Y-7190450I0J218750D01*
G01*
G37*
G36*
G01*
X11424100Y-7190450D02*
X11424100Y-6677950D01*
G75*
G02*
X11642850Y-6459200I218750J0D01*
G01*
X12080350Y-6459200D01*
G75*
G02*
X12299100Y-6677950I0J-218750D01*
G01*
X12299100Y-7190450D01*
G75*
G02*
X12080350Y-7409200I-218750J0D01*
G01*
X11642850Y-7409200D01*
G75*
G02*
X11424100Y-7190450I0J218750D01*
G01*
G37*
G36*
G01*
X1980900Y-21741450D02*
X1980900Y-20828950D01*
G75*
G02*
X2224650Y-20585200I243750J0D01*
G01*
X2712150Y-20585200D01*
G75*
G02*
X2955900Y-20828950I0J-243750D01*
G01*
X2955900Y-21741450D01*
G75*
G02*
X2712150Y-21985200I-243750J0D01*
G01*
X2224650Y-21985200D01*
G75*
G02*
X1980900Y-21741450I0J243750D01*
G01*
G37*
G36*
G01*
X3855900Y-21741450D02*
X3855900Y-20828950D01*
G75*
G02*
X4099650Y-20585200I243750J0D01*
G01*
X4587150Y-20585200D01*
G75*
G02*
X4830900Y-20828950I0J-243750D01*
G01*
X4830900Y-21741450D01*
G75*
G02*
X4587150Y-21985200I-243750J0D01*
G01*
X4099650Y-21985200D01*
G75*
G02*
X3855900Y-21741450I0J243750D01*
G01*
G37*
G36*
G01*
X12261000Y-16812550D02*
X12261000Y-17325050D01*
G75*
G02*
X12042250Y-17543800I-218750J0D01*
G01*
X11604750Y-17543800D01*
G75*
G02*
X11386000Y-17325050I0J218750D01*
G01*
X11386000Y-16812550D01*
G75*
G02*
X11604750Y-16593800I218750J0D01*
G01*
X12042250Y-16593800D01*
G75*
G02*
X12261000Y-16812550I0J-218750D01*
G01*
G37*
G36*
G01*
X13836000Y-16812550D02*
X13836000Y-17325050D01*
G75*
G02*
X13617250Y-17543800I-218750J0D01*
G01*
X13179750Y-17543800D01*
G75*
G02*
X12961000Y-17325050I0J218750D01*
G01*
X12961000Y-16812550D01*
G75*
G02*
X13179750Y-16593800I218750J0D01*
G01*
X13617250Y-16593800D01*
G75*
G02*
X13836000Y-16812550I0J-218750D01*
G01*
G37*
G36*
G01*
X7363750Y-7664900D02*
X7876250Y-7664900D01*
G75*
G02*
X8095000Y-7883650I0J-218750D01*
G01*
X8095000Y-8321150D01*
G75*
G02*
X7876250Y-8539900I-218750J0D01*
G01*
X7363750Y-8539900D01*
G75*
G02*
X7145000Y-8321150I0J218750D01*
G01*
X7145000Y-7883650D01*
G75*
G02*
X7363750Y-7664900I218750J0D01*
G01*
G37*
G36*
G01*
X7363750Y-9239900D02*
X7876250Y-9239900D01*
G75*
G02*
X8095000Y-9458650I0J-218750D01*
G01*
X8095000Y-9896150D01*
G75*
G02*
X7876250Y-10114900I-218750J0D01*
G01*
X7363750Y-10114900D01*
G75*
G02*
X7145000Y-9896150I0J218750D01*
G01*
X7145000Y-9458650D01*
G75*
G02*
X7363750Y-9239900I218750J0D01*
G01*
G37*
D21*
X1595489Y-23781302D03*
D22*
X3595489Y-23781302D03*
X12554200Y-23761700D03*
D21*
X14554200Y-23761700D03*
X21818600Y-1536700D03*
D22*
X23818600Y-1536700D03*
X13125200Y-1536700D03*
D21*
X11125200Y-1536700D03*
G36*
G01*
X5611150Y-22523900D02*
X6123650Y-22523900D01*
G75*
G02*
X6342400Y-22742650I0J-218750D01*
G01*
X6342400Y-23180150D01*
G75*
G02*
X6123650Y-23398900I-218750J0D01*
G01*
X5611150Y-23398900D01*
G75*
G02*
X5392400Y-23180150I0J218750D01*
G01*
X5392400Y-22742650D01*
G75*
G02*
X5611150Y-22523900I218750J0D01*
G01*
G37*
G36*
G01*
X5611150Y-24098900D02*
X6123650Y-24098900D01*
G75*
G02*
X6342400Y-24317650I0J-218750D01*
G01*
X6342400Y-24755150D01*
G75*
G02*
X6123650Y-24973900I-218750J0D01*
G01*
X5611150Y-24973900D01*
G75*
G02*
X5392400Y-24755150I0J218750D01*
G01*
X5392400Y-24317650D01*
G75*
G02*
X5611150Y-24098900I218750J0D01*
G01*
G37*
G36*
G01*
X7084350Y-24099100D02*
X7596850Y-24099100D01*
G75*
G02*
X7815600Y-24317850I0J-218750D01*
G01*
X7815600Y-24755350D01*
G75*
G02*
X7596850Y-24974100I-218750J0D01*
G01*
X7084350Y-24974100D01*
G75*
G02*
X6865600Y-24755350I0J218750D01*
G01*
X6865600Y-24317850D01*
G75*
G02*
X7084350Y-24099100I218750J0D01*
G01*
G37*
G36*
G01*
X7084350Y-22524100D02*
X7596850Y-22524100D01*
G75*
G02*
X7815600Y-22742850I0J-218750D01*
G01*
X7815600Y-23180350D01*
G75*
G02*
X7596850Y-23399100I-218750J0D01*
G01*
X7084350Y-23399100D01*
G75*
G02*
X6865600Y-23180350I0J218750D01*
G01*
X6865600Y-22742850D01*
G75*
G02*
X7084350Y-22524100I218750J0D01*
G01*
G37*
G36*
G01*
X1199300Y-7249450D02*
X1199300Y-7761950D01*
G75*
G02*
X980550Y-7980700I-218750J0D01*
G01*
X543050Y-7980700D01*
G75*
G02*
X324300Y-7761950I0J218750D01*
G01*
X324300Y-7249450D01*
G75*
G02*
X543050Y-7030700I218750J0D01*
G01*
X980550Y-7030700D01*
G75*
G02*
X1199300Y-7249450I0J-218750D01*
G01*
G37*
G36*
G01*
X2774300Y-7249450D02*
X2774300Y-7761950D01*
G75*
G02*
X2555550Y-7980700I-218750J0D01*
G01*
X2118050Y-7980700D01*
G75*
G02*
X1899300Y-7761950I0J218750D01*
G01*
X1899300Y-7249450D01*
G75*
G02*
X2118050Y-7030700I218750J0D01*
G01*
X2555550Y-7030700D01*
G75*
G02*
X2774300Y-7249450I0J-218750D01*
G01*
G37*
G36*
G01*
X10682950Y-8895700D02*
X10170450Y-8895700D01*
G75*
G02*
X9951700Y-8676950I0J218750D01*
G01*
X9951700Y-8239450D01*
G75*
G02*
X10170450Y-8020700I218750J0D01*
G01*
X10682950Y-8020700D01*
G75*
G02*
X10901700Y-8239450I0J-218750D01*
G01*
X10901700Y-8676950D01*
G75*
G02*
X10682950Y-8895700I-218750J0D01*
G01*
G37*
G36*
G01*
X10682950Y-7320700D02*
X10170450Y-7320700D01*
G75*
G02*
X9951700Y-7101950I0J218750D01*
G01*
X9951700Y-6664450D01*
G75*
G02*
X10170450Y-6445700I218750J0D01*
G01*
X10682950Y-6445700D01*
G75*
G02*
X10901700Y-6664450I0J-218750D01*
G01*
X10901700Y-7101950D01*
G75*
G02*
X10682950Y-7320700I-218750J0D01*
G01*
G37*
G36*
G01*
X10030750Y-22523900D02*
X10543250Y-22523900D01*
G75*
G02*
X10762000Y-22742650I0J-218750D01*
G01*
X10762000Y-23180150D01*
G75*
G02*
X10543250Y-23398900I-218750J0D01*
G01*
X10030750Y-23398900D01*
G75*
G02*
X9812000Y-23180150I0J218750D01*
G01*
X9812000Y-22742650D01*
G75*
G02*
X10030750Y-22523900I218750J0D01*
G01*
G37*
G36*
G01*
X10030750Y-24098900D02*
X10543250Y-24098900D01*
G75*
G02*
X10762000Y-24317650I0J-218750D01*
G01*
X10762000Y-24755150D01*
G75*
G02*
X10543250Y-24973900I-218750J0D01*
G01*
X10030750Y-24973900D01*
G75*
G02*
X9812000Y-24755150I0J218750D01*
G01*
X9812000Y-24317650D01*
G75*
G02*
X10030750Y-24098900I218750J0D01*
G01*
G37*
G36*
G01*
X8557550Y-24099000D02*
X9070050Y-24099000D01*
G75*
G02*
X9288800Y-24317750I0J-218750D01*
G01*
X9288800Y-24755250D01*
G75*
G02*
X9070050Y-24974000I-218750J0D01*
G01*
X8557550Y-24974000D01*
G75*
G02*
X8338800Y-24755250I0J218750D01*
G01*
X8338800Y-24317750D01*
G75*
G02*
X8557550Y-24099000I218750J0D01*
G01*
G37*
G36*
G01*
X8557550Y-22524000D02*
X9070050Y-22524000D01*
G75*
G02*
X9288800Y-22742750I0J-218750D01*
G01*
X9288800Y-23180250D01*
G75*
G02*
X9070050Y-23399000I-218750J0D01*
G01*
X8557550Y-23399000D01*
G75*
G02*
X8338800Y-23180250I0J218750D01*
G01*
X8338800Y-22742750D01*
G75*
G02*
X8557550Y-22524000I218750J0D01*
G01*
G37*
G36*
G01*
X19992050Y-1174000D02*
X19479550Y-1174000D01*
G75*
G02*
X19260800Y-955250I0J218750D01*
G01*
X19260800Y-517750D01*
G75*
G02*
X19479550Y-299000I218750J0D01*
G01*
X19992050Y-299000D01*
G75*
G02*
X20210800Y-517750I0J-218750D01*
G01*
X20210800Y-955250D01*
G75*
G02*
X19992050Y-1174000I-218750J0D01*
G01*
G37*
G36*
G01*
X19992050Y-2749000D02*
X19479550Y-2749000D01*
G75*
G02*
X19260800Y-2530250I0J218750D01*
G01*
X19260800Y-2092750D01*
G75*
G02*
X19479550Y-1874000I218750J0D01*
G01*
X19992050Y-1874000D01*
G75*
G02*
X20210800Y-2092750I0J-218750D01*
G01*
X20210800Y-2530250D01*
G75*
G02*
X19992050Y-2749000I-218750J0D01*
G01*
G37*
G36*
G01*
X18531550Y-2749100D02*
X18019050Y-2749100D01*
G75*
G02*
X17800300Y-2530350I0J218750D01*
G01*
X17800300Y-2092850D01*
G75*
G02*
X18019050Y-1874100I218750J0D01*
G01*
X18531550Y-1874100D01*
G75*
G02*
X18750300Y-2092850I0J-218750D01*
G01*
X18750300Y-2530350D01*
G75*
G02*
X18531550Y-2749100I-218750J0D01*
G01*
G37*
G36*
G01*
X18531550Y-1174100D02*
X18019050Y-1174100D01*
G75*
G02*
X17800300Y-955350I0J218750D01*
G01*
X17800300Y-517850D01*
G75*
G02*
X18019050Y-299100I218750J0D01*
G01*
X18531550Y-299100D01*
G75*
G02*
X18750300Y-517850I0J-218750D01*
G01*
X18750300Y-955350D01*
G75*
G02*
X18531550Y-1174100I-218750J0D01*
G01*
G37*
G36*
G01*
X15610550Y-1174000D02*
X15098050Y-1174000D01*
G75*
G02*
X14879300Y-955250I0J218750D01*
G01*
X14879300Y-517750D01*
G75*
G02*
X15098050Y-299000I218750J0D01*
G01*
X15610550Y-299000D01*
G75*
G02*
X15829300Y-517750I0J-218750D01*
G01*
X15829300Y-955250D01*
G75*
G02*
X15610550Y-1174000I-218750J0D01*
G01*
G37*
G36*
G01*
X15610550Y-2749000D02*
X15098050Y-2749000D01*
G75*
G02*
X14879300Y-2530250I0J218750D01*
G01*
X14879300Y-2092750D01*
G75*
G02*
X15098050Y-1874000I218750J0D01*
G01*
X15610550Y-1874000D01*
G75*
G02*
X15829300Y-2092750I0J-218750D01*
G01*
X15829300Y-2530250D01*
G75*
G02*
X15610550Y-2749000I-218750J0D01*
G01*
G37*
G36*
G01*
X12261100Y-15352050D02*
X12261100Y-15864550D01*
G75*
G02*
X12042350Y-16083300I-218750J0D01*
G01*
X11604850Y-16083300D01*
G75*
G02*
X11386100Y-15864550I0J218750D01*
G01*
X11386100Y-15352050D01*
G75*
G02*
X11604850Y-15133300I218750J0D01*
G01*
X12042350Y-15133300D01*
G75*
G02*
X12261100Y-15352050I0J-218750D01*
G01*
G37*
G36*
G01*
X13836100Y-15352050D02*
X13836100Y-15864550D01*
G75*
G02*
X13617350Y-16083300I-218750J0D01*
G01*
X13179850Y-16083300D01*
G75*
G02*
X12961100Y-15864550I0J218750D01*
G01*
X12961100Y-15352050D01*
G75*
G02*
X13179850Y-15133300I218750J0D01*
G01*
X13617350Y-15133300D01*
G75*
G02*
X13836100Y-15352050I0J-218750D01*
G01*
G37*
G36*
G01*
X35443450Y-10205000D02*
X35955950Y-10205000D01*
G75*
G02*
X36174700Y-10423750I0J-218750D01*
G01*
X36174700Y-10861250D01*
G75*
G02*
X35955950Y-11080000I-218750J0D01*
G01*
X35443450Y-11080000D01*
G75*
G02*
X35224700Y-10861250I0J218750D01*
G01*
X35224700Y-10423750D01*
G75*
G02*
X35443450Y-10205000I218750J0D01*
G01*
G37*
G36*
G01*
X35443450Y-11780000D02*
X35955950Y-11780000D01*
G75*
G02*
X36174700Y-11998750I0J-218750D01*
G01*
X36174700Y-12436250D01*
G75*
G02*
X35955950Y-12655000I-218750J0D01*
G01*
X35443450Y-12655000D01*
G75*
G02*
X35224700Y-12436250I0J218750D01*
G01*
X35224700Y-11998750D01*
G75*
G02*
X35443450Y-11780000I218750J0D01*
G01*
G37*
D23*
X31017000Y-12039600D03*
X34417000Y-12039600D03*
G36*
G01*
X5580000Y-5577600D02*
X4580000Y-5577600D01*
G75*
G02*
X4330000Y-5327600I0J250000D01*
G01*
X4330000Y-3477600D01*
G75*
G02*
X4580000Y-3227600I250000J0D01*
G01*
X5580000Y-3227600D01*
G75*
G02*
X5830000Y-3477600I0J-250000D01*
G01*
X5830000Y-5327600D01*
G75*
G02*
X5580000Y-5577600I-250000J0D01*
G01*
G37*
G36*
G01*
X5580000Y-2927600D02*
X4580000Y-2927600D01*
G75*
G02*
X4330000Y-2677600I0J250000D01*
G01*
X4330000Y-827600D01*
G75*
G02*
X4580000Y-577600I250000J0D01*
G01*
X5580000Y-577600D01*
G75*
G02*
X5830000Y-827600I0J-250000D01*
G01*
X5830000Y-2677600D01*
G75*
G02*
X5580000Y-2927600I-250000J0D01*
G01*
G37*
G36*
G01*
X28382250Y-9316100D02*
X28894750Y-9316100D01*
G75*
G02*
X29113500Y-9534850I0J-218750D01*
G01*
X29113500Y-9972350D01*
G75*
G02*
X28894750Y-10191100I-218750J0D01*
G01*
X28382250Y-10191100D01*
G75*
G02*
X28163500Y-9972350I0J218750D01*
G01*
X28163500Y-9534850D01*
G75*
G02*
X28382250Y-9316100I218750J0D01*
G01*
G37*
G36*
G01*
X28382250Y-7741100D02*
X28894750Y-7741100D01*
G75*
G02*
X29113500Y-7959850I0J-218750D01*
G01*
X29113500Y-8397350D01*
G75*
G02*
X28894750Y-8616100I-218750J0D01*
G01*
X28382250Y-8616100D01*
G75*
G02*
X28163500Y-8397350I0J218750D01*
G01*
X28163500Y-7959850D01*
G75*
G02*
X28382250Y-7741100I218750J0D01*
G01*
G37*
G36*
G01*
X13823500Y-13866150D02*
X13823500Y-14378650D01*
G75*
G02*
X13604750Y-14597400I-218750J0D01*
G01*
X13167250Y-14597400D01*
G75*
G02*
X12948500Y-14378650I0J218750D01*
G01*
X12948500Y-13866150D01*
G75*
G02*
X13167250Y-13647400I218750J0D01*
G01*
X13604750Y-13647400D01*
G75*
G02*
X13823500Y-13866150I0J-218750D01*
G01*
G37*
G36*
G01*
X12248500Y-13866150D02*
X12248500Y-14378650D01*
G75*
G02*
X12029750Y-14597400I-218750J0D01*
G01*
X11592250Y-14597400D01*
G75*
G02*
X11373500Y-14378650I0J218750D01*
G01*
X11373500Y-13866150D01*
G75*
G02*
X11592250Y-13647400I218750J0D01*
G01*
X12029750Y-13647400D01*
G75*
G02*
X12248500Y-13866150I0J-218750D01*
G01*
G37*
D15*
X29845000Y-1473200D03*
D16*
X32385000Y-1473200D03*
X34925000Y-1473200D03*
G36*
G01*
X17583800Y-24614850D02*
X17583800Y-24102350D01*
G75*
G02*
X17802550Y-23883600I218750J0D01*
G01*
X18240050Y-23883600D01*
G75*
G02*
X18458800Y-24102350I0J-218750D01*
G01*
X18458800Y-24614850D01*
G75*
G02*
X18240050Y-24833600I-218750J0D01*
G01*
X17802550Y-24833600D01*
G75*
G02*
X17583800Y-24614850I0J218750D01*
G01*
G37*
G36*
G01*
X16008800Y-24614850D02*
X16008800Y-24102350D01*
G75*
G02*
X16227550Y-23883600I218750J0D01*
G01*
X16665050Y-23883600D01*
G75*
G02*
X16883800Y-24102350I0J-218750D01*
G01*
X16883800Y-24614850D01*
G75*
G02*
X16665050Y-24833600I-218750J0D01*
G01*
X16227550Y-24833600D01*
G75*
G02*
X16008800Y-24614850I0J218750D01*
G01*
G37*
G36*
G01*
X18993400Y-24614850D02*
X18993400Y-24102350D01*
G75*
G02*
X19212150Y-23883600I218750J0D01*
G01*
X19649650Y-23883600D01*
G75*
G02*
X19868400Y-24102350I0J-218750D01*
G01*
X19868400Y-24614850D01*
G75*
G02*
X19649650Y-24833600I-218750J0D01*
G01*
X19212150Y-24833600D01*
G75*
G02*
X18993400Y-24614850I0J218750D01*
G01*
G37*
G36*
G01*
X20568400Y-24614850D02*
X20568400Y-24102350D01*
G75*
G02*
X20787150Y-23883600I218750J0D01*
G01*
X21224650Y-23883600D01*
G75*
G02*
X21443400Y-24102350I0J-218750D01*
G01*
X21443400Y-24614850D01*
G75*
G02*
X21224650Y-24833600I-218750J0D01*
G01*
X20787150Y-24833600D01*
G75*
G02*
X20568400Y-24614850I0J218750D01*
G01*
G37*
D24*
X34693000Y-4038600D03*
X31093000Y-4038600D03*
X34693000Y-5308600D03*
X31093000Y-5308600D03*
X34693000Y-6578600D03*
X31093000Y-6578600D03*
X34693000Y-7848600D03*
X31093000Y-7848600D03*
X34693000Y-9118600D03*
X31093000Y-9118600D03*
D25*
X11799200Y-10177600D03*
X11799200Y-12377600D03*
X13499200Y-12377600D03*
X13499200Y-10177600D03*
G36*
G01*
X6516400Y-16464700D02*
X6516400Y-16834700D01*
G75*
G02*
X6381400Y-16969700I-135000J0D01*
G01*
X6111400Y-16969700D01*
G75*
G02*
X5976400Y-16834700I0J135000D01*
G01*
X5976400Y-16464700D01*
G75*
G02*
X6111400Y-16329700I135000J0D01*
G01*
X6381400Y-16329700D01*
G75*
G02*
X6516400Y-16464700I0J-135000D01*
G01*
G37*
G36*
G01*
X7536400Y-16464700D02*
X7536400Y-16834700D01*
G75*
G02*
X7401400Y-16969700I-135000J0D01*
G01*
X7131400Y-16969700D01*
G75*
G02*
X6996400Y-16834700I0J135000D01*
G01*
X6996400Y-16464700D01*
G75*
G02*
X7131400Y-16329700I135000J0D01*
G01*
X7401400Y-16329700D01*
G75*
G02*
X7536400Y-16464700I0J-135000D01*
G01*
G37*
G36*
G01*
X5672000Y-20593600D02*
X6012000Y-20593600D01*
G75*
G02*
X6152000Y-20733600I0J-140000D01*
G01*
X6152000Y-21013600D01*
G75*
G02*
X6012000Y-21153600I-140000J0D01*
G01*
X5672000Y-21153600D01*
G75*
G02*
X5532000Y-21013600I0J140000D01*
G01*
X5532000Y-20733600D01*
G75*
G02*
X5672000Y-20593600I140000J0D01*
G01*
G37*
G36*
G01*
X5672000Y-19633600D02*
X6012000Y-19633600D01*
G75*
G02*
X6152000Y-19773600I0J-140000D01*
G01*
X6152000Y-20053600D01*
G75*
G02*
X6012000Y-20193600I-140000J0D01*
G01*
X5672000Y-20193600D01*
G75*
G02*
X5532000Y-20053600I0J140000D01*
G01*
X5532000Y-19773600D01*
G75*
G02*
X5672000Y-19633600I140000J0D01*
G01*
G37*
G36*
G01*
X9939200Y-19646300D02*
X10279200Y-19646300D01*
G75*
G02*
X10419200Y-19786300I0J-140000D01*
G01*
X10419200Y-20066300D01*
G75*
G02*
X10279200Y-20206300I-140000J0D01*
G01*
X9939200Y-20206300D01*
G75*
G02*
X9799200Y-20066300I0J140000D01*
G01*
X9799200Y-19786300D01*
G75*
G02*
X9939200Y-19646300I140000J0D01*
G01*
G37*
G36*
G01*
X9939200Y-20606300D02*
X10279200Y-20606300D01*
G75*
G02*
X10419200Y-20746300I0J-140000D01*
G01*
X10419200Y-21026300D01*
G75*
G02*
X10279200Y-21166300I-140000J0D01*
G01*
X9939200Y-21166300D01*
G75*
G02*
X9799200Y-21026300I0J140000D01*
G01*
X9799200Y-20746300D01*
G75*
G02*
X9939200Y-20606300I140000J0D01*
G01*
G37*
G36*
G01*
X35253200Y-23274200D02*
X35253200Y-23614200D01*
G75*
G02*
X35113200Y-23754200I-140000J0D01*
G01*
X34833200Y-23754200D01*
G75*
G02*
X34693200Y-23614200I0J140000D01*
G01*
X34693200Y-23274200D01*
G75*
G02*
X34833200Y-23134200I140000J0D01*
G01*
X35113200Y-23134200D01*
G75*
G02*
X35253200Y-23274200I0J-140000D01*
G01*
G37*
G36*
G01*
X34293200Y-23274200D02*
X34293200Y-23614200D01*
G75*
G02*
X34153200Y-23754200I-140000J0D01*
G01*
X33873200Y-23754200D01*
G75*
G02*
X33733200Y-23614200I0J140000D01*
G01*
X33733200Y-23274200D01*
G75*
G02*
X33873200Y-23134200I140000J0D01*
G01*
X34153200Y-23134200D01*
G75*
G02*
X34293200Y-23274200I0J-140000D01*
G01*
G37*
G36*
G01*
X24477800Y-3879300D02*
X24137800Y-3879300D01*
G75*
G02*
X23997800Y-3739300I0J140000D01*
G01*
X23997800Y-3459300D01*
G75*
G02*
X24137800Y-3319300I140000J0D01*
G01*
X24477800Y-3319300D01*
G75*
G02*
X24617800Y-3459300I0J-140000D01*
G01*
X24617800Y-3739300D01*
G75*
G02*
X24477800Y-3879300I-140000J0D01*
G01*
G37*
G36*
G01*
X24477800Y-4839300D02*
X24137800Y-4839300D01*
G75*
G02*
X23997800Y-4699300I0J140000D01*
G01*
X23997800Y-4419300D01*
G75*
G02*
X24137800Y-4279300I140000J0D01*
G01*
X24477800Y-4279300D01*
G75*
G02*
X24617800Y-4419300I0J-140000D01*
G01*
X24617800Y-4699300D01*
G75*
G02*
X24477800Y-4839300I-140000J0D01*
G01*
G37*
G36*
G01*
X17138100Y-20937400D02*
X17138100Y-21277400D01*
G75*
G02*
X16998100Y-21417400I-140000J0D01*
G01*
X16718100Y-21417400D01*
G75*
G02*
X16578100Y-21277400I0J140000D01*
G01*
X16578100Y-20937400D01*
G75*
G02*
X16718100Y-20797400I140000J0D01*
G01*
X16998100Y-20797400D01*
G75*
G02*
X17138100Y-20937400I0J-140000D01*
G01*
G37*
G36*
G01*
X18098100Y-20937400D02*
X18098100Y-21277400D01*
G75*
G02*
X17958100Y-21417400I-140000J0D01*
G01*
X17678100Y-21417400D01*
G75*
G02*
X17538100Y-21277400I0J140000D01*
G01*
X17538100Y-20937400D01*
G75*
G02*
X17678100Y-20797400I140000J0D01*
G01*
X17958100Y-20797400D01*
G75*
G02*
X18098100Y-20937400I0J-140000D01*
G01*
G37*
G36*
G01*
X8522300Y-16505100D02*
X8522300Y-16845100D01*
G75*
G02*
X8382300Y-16985100I-140000J0D01*
G01*
X8102300Y-16985100D01*
G75*
G02*
X7962300Y-16845100I0J140000D01*
G01*
X7962300Y-16505100D01*
G75*
G02*
X8102300Y-16365100I140000J0D01*
G01*
X8382300Y-16365100D01*
G75*
G02*
X8522300Y-16505100I0J-140000D01*
G01*
G37*
G36*
G01*
X9482300Y-16505100D02*
X9482300Y-16845100D01*
G75*
G02*
X9342300Y-16985100I-140000J0D01*
G01*
X9062300Y-16985100D01*
G75*
G02*
X8922300Y-16845100I0J140000D01*
G01*
X8922300Y-16505100D01*
G75*
G02*
X9062300Y-16365100I140000J0D01*
G01*
X9342300Y-16365100D01*
G75*
G02*
X9482300Y-16505100I0J-140000D01*
G01*
G37*
G36*
G01*
X15397300Y-4757900D02*
X15057300Y-4757900D01*
G75*
G02*
X14917300Y-4617900I0J140000D01*
G01*
X14917300Y-4337900D01*
G75*
G02*
X15057300Y-4197900I140000J0D01*
G01*
X15397300Y-4197900D01*
G75*
G02*
X15537300Y-4337900I0J-140000D01*
G01*
X15537300Y-4617900D01*
G75*
G02*
X15397300Y-4757900I-140000J0D01*
G01*
G37*
G36*
G01*
X15397300Y-3797900D02*
X15057300Y-3797900D01*
G75*
G02*
X14917300Y-3657900I0J140000D01*
G01*
X14917300Y-3377900D01*
G75*
G02*
X15057300Y-3237900I140000J0D01*
G01*
X15397300Y-3237900D01*
G75*
G02*
X15537300Y-3377900I0J-140000D01*
G01*
X15537300Y-3657900D01*
G75*
G02*
X15397300Y-3797900I-140000J0D01*
G01*
G37*
G36*
G01*
X31035600Y-23614200D02*
X31035600Y-23274200D01*
G75*
G02*
X31175600Y-23134200I140000J0D01*
G01*
X31455600Y-23134200D01*
G75*
G02*
X31595600Y-23274200I0J-140000D01*
G01*
X31595600Y-23614200D01*
G75*
G02*
X31455600Y-23754200I-140000J0D01*
G01*
X31175600Y-23754200D01*
G75*
G02*
X31035600Y-23614200I0J140000D01*
G01*
G37*
G36*
G01*
X30075600Y-23614200D02*
X30075600Y-23274200D01*
G75*
G02*
X30215600Y-23134200I140000J0D01*
G01*
X30495600Y-23134200D01*
G75*
G02*
X30635600Y-23274200I0J-140000D01*
G01*
X30635600Y-23614200D01*
G75*
G02*
X30495600Y-23754200I-140000J0D01*
G01*
X30215600Y-23754200D01*
G75*
G02*
X30075600Y-23614200I0J140000D01*
G01*
G37*
G36*
G01*
X32154200Y-17175500D02*
X32154200Y-16225500D01*
G75*
G02*
X32404200Y-15975500I250000J0D01*
G01*
X32904200Y-15975500D01*
G75*
G02*
X33154200Y-16225500I0J-250000D01*
G01*
X33154200Y-17175500D01*
G75*
G02*
X32904200Y-17425500I-250000J0D01*
G01*
X32404200Y-17425500D01*
G75*
G02*
X32154200Y-17175500I0J250000D01*
G01*
G37*
G36*
G01*
X34054200Y-17175500D02*
X34054200Y-16225500D01*
G75*
G02*
X34304200Y-15975500I250000J0D01*
G01*
X34804200Y-15975500D01*
G75*
G02*
X35054200Y-16225500I0J-250000D01*
G01*
X35054200Y-17175500D01*
G75*
G02*
X34804200Y-17425500I-250000J0D01*
G01*
X34304200Y-17425500D01*
G75*
G02*
X34054200Y-17175500I0J250000D01*
G01*
G37*
G36*
G01*
X29140700Y-15718200D02*
X29140700Y-15168200D01*
G75*
G02*
X29340700Y-14968200I200000J0D01*
G01*
X29740700Y-14968200D01*
G75*
G02*
X29940700Y-15168200I0J-200000D01*
G01*
X29940700Y-15718200D01*
G75*
G02*
X29740700Y-15918200I-200000J0D01*
G01*
X29340700Y-15918200D01*
G75*
G02*
X29140700Y-15718200I0J200000D01*
G01*
G37*
G36*
G01*
X30790700Y-15718200D02*
X30790700Y-15168200D01*
G75*
G02*
X30990700Y-14968200I200000J0D01*
G01*
X31390700Y-14968200D01*
G75*
G02*
X31590700Y-15168200I0J-200000D01*
G01*
X31590700Y-15718200D01*
G75*
G02*
X31390700Y-15918200I-200000J0D01*
G01*
X30990700Y-15918200D01*
G75*
G02*
X30790700Y-15718200I0J200000D01*
G01*
G37*
G36*
G01*
X30803400Y-17229500D02*
X30803400Y-16679500D01*
G75*
G02*
X31003400Y-16479500I200000J0D01*
G01*
X31403400Y-16479500D01*
G75*
G02*
X31603400Y-16679500I0J-200000D01*
G01*
X31603400Y-17229500D01*
G75*
G02*
X31403400Y-17429500I-200000J0D01*
G01*
X31003400Y-17429500D01*
G75*
G02*
X30803400Y-17229500I0J200000D01*
G01*
G37*
G36*
G01*
X29153400Y-17229500D02*
X29153400Y-16679500D01*
G75*
G02*
X29353400Y-16479500I200000J0D01*
G01*
X29753400Y-16479500D01*
G75*
G02*
X29953400Y-16679500I0J-200000D01*
G01*
X29953400Y-17229500D01*
G75*
G02*
X29753400Y-17429500I-200000J0D01*
G01*
X29353400Y-17429500D01*
G75*
G02*
X29153400Y-17229500I0J200000D01*
G01*
G37*
M02*
