G04 #@! TF.GenerationSoftware,KiCad,Pcbnew,(5.1.5)-3*
G04 #@! TF.CreationDate,2020-04-16T14:44:53-04:00*
G04 #@! TF.ProjectId,STM32_SMD_Quadcopter,53544d33-325f-4534-9d44-5f5175616463,rev?*
G04 #@! TF.SameCoordinates,PX2daf690PY1aab7d8*
G04 #@! TF.FileFunction,Legend,Top*
G04 #@! TF.FilePolarity,Positive*
%FSLAX46Y46*%
G04 Gerber Fmt 4.6, Leading zero omitted, Abs format (unit mm)*
G04 Created by KiCad (PCBNEW (5.1.5)-3) date 2020-04-16 14:44:53*
%MOMM*%
%LPD*%
G04 APERTURE LIST*
%ADD10C,0.120000*%
%ADD11C,0.150000*%
%ADD12C,0.050000*%
G04 APERTURE END LIST*
D10*
X41869579Y-24538400D02*
X41544021Y-24538400D01*
X41869579Y-23518400D02*
X41544021Y-23518400D01*
X13026800Y-14384000D02*
X13026800Y-7059000D01*
X13026800Y-7059000D02*
X9426800Y-7059000D01*
X9426800Y-7059000D02*
X9426800Y-14384000D01*
X16200Y-5216200D02*
X2676200Y-5216200D01*
X16200Y-2616200D02*
X16200Y-5216200D01*
X2676200Y-2616200D02*
X2676200Y-5216200D01*
X16200Y-2616200D02*
X2676200Y-2616200D01*
X16200Y-1346200D02*
X16200Y-16200D01*
X16200Y-16200D02*
X1346200Y-16200D01*
X54300Y-8890000D02*
X314300Y-8890000D01*
X2594300Y-8890000D02*
X4364300Y-8890000D01*
X4364300Y-8890000D02*
X4364300Y-9270000D01*
X4364300Y-16510000D02*
X2594300Y-16510000D01*
X314300Y-16510000D02*
X54300Y-16510000D01*
X4364300Y-16510000D02*
X4364300Y-16130000D01*
X35467000Y-19360000D02*
X32782000Y-19360000D01*
X35467000Y-21280000D02*
X35467000Y-19360000D01*
X32782000Y-21280000D02*
X35467000Y-21280000D01*
X27310000Y-23342000D02*
X28240000Y-23342000D01*
X30470000Y-23342000D02*
X29540000Y-23342000D01*
X30470000Y-23342000D02*
X30470000Y-20182000D01*
X27310000Y-23342000D02*
X27310000Y-21882000D01*
X33766979Y-5463000D02*
X33441421Y-5463000D01*
X33766979Y-4443000D02*
X33441421Y-4443000D01*
X32832800Y-4185800D02*
X35517800Y-4185800D01*
X35517800Y-4185800D02*
X35517800Y-2265800D01*
X35517800Y-2265800D02*
X32832800Y-2265800D01*
D11*
X5020000Y-23087000D02*
X5020000Y-22687000D01*
X5020000Y-23087000D02*
X5420000Y-23087000D01*
X8220000Y-23087000D02*
X8220000Y-22687000D01*
X8220000Y-23087000D02*
X7820000Y-23087000D01*
X8220000Y-19887000D02*
X8220000Y-20287000D01*
X8220000Y-19887000D02*
X7820000Y-19887000D01*
X5020000Y-19887000D02*
X5420000Y-19887000D01*
D10*
X41742479Y-19530600D02*
X41416921Y-19530600D01*
X41742479Y-20550600D02*
X41416921Y-20550600D01*
X38216521Y-21638800D02*
X38542079Y-21638800D01*
X38216521Y-22658800D02*
X38542079Y-22658800D01*
D11*
X15729200Y-7398000D02*
X15729200Y-8398000D01*
X26079200Y-7398000D02*
X26079200Y-8473000D01*
X26079200Y-17748000D02*
X26079200Y-16673000D01*
X15729200Y-17748000D02*
X15729200Y-16673000D01*
X15729200Y-7398000D02*
X16804200Y-7398000D01*
X15729200Y-17748000D02*
X16804200Y-17748000D01*
X26079200Y-17748000D02*
X25004200Y-17748000D01*
X26079200Y-7398000D02*
X25004200Y-7398000D01*
X15729200Y-8398000D02*
X14704200Y-8398000D01*
D10*
X11167400Y-5989200D02*
X13852400Y-5989200D01*
X11167400Y-4069200D02*
X11167400Y-5989200D01*
X13852400Y-4069200D02*
X11167400Y-4069200D01*
X6983000Y-3236279D02*
X6983000Y-2910721D01*
X8003000Y-3236279D02*
X8003000Y-2910721D01*
X1079600Y-8050200D02*
X3364600Y-8050200D01*
X3364600Y-8050200D02*
X3364600Y-6580200D01*
X3364600Y-6580200D02*
X1079600Y-6580200D01*
X8685200Y-10806800D02*
X8685200Y-8521800D01*
X7215200Y-10806800D02*
X8685200Y-10806800D01*
X7215200Y-8521800D02*
X7215200Y-10806800D01*
X14182600Y-21366600D02*
X11497600Y-21366600D01*
X11497600Y-21366600D02*
X11497600Y-23286600D01*
X11497600Y-23286600D02*
X14182600Y-23286600D01*
X9270000Y-13870000D02*
X6985000Y-13870000D01*
X9270000Y-15340000D02*
X9270000Y-13870000D01*
X6985000Y-15340000D02*
X9270000Y-15340000D01*
X6985000Y-16800500D02*
X9270000Y-16800500D01*
X9270000Y-16800500D02*
X9270000Y-15330500D01*
X9270000Y-15330500D02*
X6985000Y-15330500D01*
X15475889Y-25400102D02*
X15475889Y-23280102D01*
X13415889Y-25400102D02*
X15475889Y-25400102D01*
X13415889Y-23280102D02*
X15475889Y-23280102D01*
X13415889Y-25400102D02*
X13415889Y-23280102D01*
X12415889Y-25400102D02*
X11355889Y-25400102D01*
X11355889Y-25400102D02*
X11355889Y-24340102D01*
X35931603Y-23267684D02*
X35931603Y-24327684D01*
X34871603Y-23267684D02*
X35931603Y-23267684D01*
X33871603Y-23267684D02*
X33871603Y-25387684D01*
X33871603Y-25387684D02*
X31811603Y-25387684D01*
X33871603Y-23267684D02*
X31811603Y-23267684D01*
X31811603Y-23267684D02*
X31811603Y-25387684D01*
X31788800Y-6800D02*
X31788800Y-2126800D01*
X33848800Y-6800D02*
X31788800Y-6800D01*
X33848800Y-2126800D02*
X31788800Y-2126800D01*
X33848800Y-6800D02*
X33848800Y-2126800D01*
X34848800Y-6800D02*
X35908800Y-6800D01*
X35908800Y-6800D02*
X35908800Y-1066800D01*
X11386000Y-2126800D02*
X11386000Y-1066800D01*
X12446000Y-2126800D02*
X11386000Y-2126800D01*
X13446000Y-2126800D02*
X13446000Y-6800D01*
X13446000Y-6800D02*
X15506000Y-6800D01*
X13446000Y-2126800D02*
X15506000Y-2126800D01*
X15506000Y-2126800D02*
X15506000Y-6800D01*
X16113600Y-23443600D02*
X16113600Y-21983600D01*
X19273600Y-23443600D02*
X19273600Y-20283600D01*
X19273600Y-23443600D02*
X18343600Y-23443600D01*
X16113600Y-23443600D02*
X17043600Y-23443600D01*
X32034600Y-2289400D02*
X31104600Y-2289400D01*
X28874600Y-2289400D02*
X29804600Y-2289400D01*
X28874600Y-2289400D02*
X28874600Y-5449400D01*
X32034600Y-2289400D02*
X32034600Y-3749400D01*
X19268600Y-2032600D02*
X19268600Y-3492600D01*
X16108600Y-2032600D02*
X16108600Y-5192600D01*
X16108600Y-2032600D02*
X17038600Y-2032600D01*
X19268600Y-2032600D02*
X18338600Y-2032600D01*
X15953200Y-21325621D02*
X15953200Y-21651179D01*
X14933200Y-21325621D02*
X14933200Y-21651179D01*
X20880800Y-23251379D02*
X20880800Y-22925821D01*
X19860800Y-23251379D02*
X19860800Y-22925821D01*
X5217379Y-6500400D02*
X4891821Y-6500400D01*
X5217379Y-7520400D02*
X4891821Y-7520400D01*
X6987000Y-9184321D02*
X6987000Y-9509879D01*
X5967000Y-9184321D02*
X5967000Y-9509879D01*
X31752000Y-21071721D02*
X31752000Y-21397279D01*
X30732000Y-21071721D02*
X30732000Y-21397279D01*
X28767721Y-20068000D02*
X29093279Y-20068000D01*
X28767721Y-19048000D02*
X29093279Y-19048000D01*
X28475400Y-4455379D02*
X28475400Y-4129821D01*
X27455400Y-4455379D02*
X27455400Y-4129821D01*
X30566679Y-6961600D02*
X30241121Y-6961600D01*
X30566679Y-5941600D02*
X30241121Y-5941600D01*
X15775400Y-4226779D02*
X15775400Y-3901221D01*
X14755400Y-4226779D02*
X14755400Y-3901221D01*
X7947879Y-12634500D02*
X7622321Y-12634500D01*
X7947879Y-13654500D02*
X7622321Y-13654500D01*
X7947879Y-18036000D02*
X7622321Y-18036000D01*
X7947879Y-17016000D02*
X7622321Y-17016000D01*
X13231400Y-15682079D02*
X13231400Y-15356521D01*
X14251400Y-15682079D02*
X14251400Y-15356521D01*
X11302200Y-19210200D02*
X11302200Y-19510200D01*
X11302200Y-19510200D02*
X14602200Y-19510200D01*
X14602200Y-19510200D02*
X14602200Y-19210200D01*
X11302200Y-17010200D02*
X11302200Y-16710200D01*
X11302200Y-16710200D02*
X14602200Y-16710200D01*
X14602200Y-16710200D02*
X14602200Y-17010200D01*
X8292000Y-3145064D02*
X8292000Y-1940936D01*
X11012000Y-3145064D02*
X11012000Y-1940936D01*
X13146921Y-20241800D02*
X13472479Y-20241800D01*
X13146921Y-21261800D02*
X13472479Y-21261800D01*
X33944879Y-22785800D02*
X33619321Y-22785800D01*
X33944879Y-21765800D02*
X33619321Y-21765800D01*
X6840000Y-1317600D02*
X6090000Y-1317600D01*
X3320000Y-1317600D02*
X4070000Y-1317600D01*
X3320000Y-3948163D02*
X3320000Y-1317600D01*
X6840000Y-3948163D02*
X6840000Y-1317600D01*
X4070000Y-4698163D02*
X3320000Y-3948163D01*
X6090000Y-4698163D02*
X6840000Y-3948163D01*
X3778600Y-21665363D02*
X4528600Y-20915363D01*
X1758600Y-21665363D02*
X1008600Y-20915363D01*
X4528600Y-20915363D02*
X4528600Y-18284800D01*
X1008600Y-20915363D02*
X1008600Y-18284800D01*
X1008600Y-18284800D02*
X1758600Y-18284800D01*
X4528600Y-18284800D02*
X3778600Y-18284800D01*
X2042379Y-6428200D02*
X1716821Y-6428200D01*
X2042379Y-5408200D02*
X1716821Y-5408200D01*
X25465921Y-5666200D02*
X25791479Y-5666200D01*
X25465921Y-4646200D02*
X25791479Y-4646200D01*
X12842121Y-2792000D02*
X13167679Y-2792000D01*
X12842121Y-3812000D02*
X13167679Y-3812000D01*
X22667179Y-4519200D02*
X22341621Y-4519200D01*
X22667179Y-5539200D02*
X22341621Y-5539200D01*
X13256800Y-9590721D02*
X13256800Y-9916279D01*
X14276800Y-9590721D02*
X14276800Y-9916279D01*
X13256800Y-12862779D02*
X13256800Y-12537221D01*
X14276800Y-12862779D02*
X14276800Y-12537221D01*
X28711200Y-2650800D02*
X28711200Y9200D01*
X23571200Y-2650800D02*
X28711200Y-2650800D01*
X23571200Y9200D02*
X28711200Y9200D01*
X23571200Y-2650800D02*
X23571200Y9200D01*
X22301200Y-2650800D02*
X20971200Y-2650800D01*
X20971200Y-2650800D02*
X20971200Y-1320800D01*
X20703000Y-1488221D02*
X20703000Y-1813779D01*
X19683000Y-1488221D02*
X19683000Y-1813779D01*
X33740400Y-7373000D02*
X36480400Y-7373000D01*
X36480400Y-7373000D02*
X36480400Y-17773000D01*
X36480400Y-17773000D02*
X33740400Y-17773000D01*
X33740400Y-17773000D02*
X33740400Y-7373000D01*
X31630400Y-8323000D02*
X33740400Y-8323000D01*
X31630400Y-9203000D02*
X33740400Y-9203000D01*
X36480400Y-8323000D02*
X42480400Y-8323000D01*
X42480400Y-8323000D02*
X42480400Y-9203000D01*
X42480400Y-9203000D02*
X36480400Y-9203000D01*
X31630400Y-10863000D02*
X33740400Y-10863000D01*
X31630400Y-11743000D02*
X33740400Y-11743000D01*
X36480400Y-10863000D02*
X42480400Y-10863000D01*
X42480400Y-10863000D02*
X42480400Y-11743000D01*
X42480400Y-11743000D02*
X36480400Y-11743000D01*
X31630400Y-13403000D02*
X33740400Y-13403000D01*
X31630400Y-14283000D02*
X33740400Y-14283000D01*
X36480400Y-13403000D02*
X42480400Y-13403000D01*
X42480400Y-13403000D02*
X42480400Y-14283000D01*
X42480400Y-14283000D02*
X36480400Y-14283000D01*
X31630400Y-15943000D02*
X33740400Y-15943000D01*
X31630400Y-16823000D02*
X33740400Y-16823000D01*
X36480400Y-15943000D02*
X42480400Y-15943000D01*
X42480400Y-15943000D02*
X42480400Y-16823000D01*
X42480400Y-16823000D02*
X36480400Y-16823000D01*
X28490400Y-8763000D02*
X28490400Y-7943000D01*
X28490400Y-7943000D02*
X30060400Y-7943000D01*
D12*
X41673466Y-25529828D02*
X41663942Y-25539352D01*
X41635371Y-25548876D01*
X41616323Y-25548876D01*
X41587752Y-25539352D01*
X41568704Y-25520304D01*
X41559180Y-25501257D01*
X41549657Y-25463161D01*
X41549657Y-25434590D01*
X41559180Y-25396495D01*
X41568704Y-25377447D01*
X41587752Y-25358400D01*
X41616323Y-25348876D01*
X41635371Y-25348876D01*
X41663942Y-25358400D01*
X41673466Y-25367923D01*
X41768704Y-25548876D02*
X41806800Y-25548876D01*
X41825847Y-25539352D01*
X41835371Y-25529828D01*
X41854419Y-25501257D01*
X41863942Y-25463161D01*
X41863942Y-25386971D01*
X41854419Y-25367923D01*
X41844895Y-25358400D01*
X41825847Y-25348876D01*
X41787752Y-25348876D01*
X41768704Y-25358400D01*
X41759180Y-25367923D01*
X41749657Y-25386971D01*
X41749657Y-25434590D01*
X41759180Y-25453638D01*
X41768704Y-25463161D01*
X41787752Y-25472685D01*
X41825847Y-25472685D01*
X41844895Y-25463161D01*
X41854419Y-25453638D01*
X41863942Y-25434590D01*
D11*
X14002990Y-12160190D02*
X14479180Y-12160190D01*
X13479180Y-12493523D02*
X14002990Y-12160190D01*
X13479180Y-11826857D01*
X14479180Y-10969714D02*
X14479180Y-11541142D01*
X14479180Y-11255428D02*
X13479180Y-11255428D01*
X13622038Y-11350666D01*
X13717276Y-11445904D01*
X13764895Y-11541142D01*
D12*
X1279533Y1093324D02*
X1279533Y950467D01*
X1270009Y921896D01*
X1250961Y902848D01*
X1222390Y893324D01*
X1203342Y893324D01*
X1479533Y893324D02*
X1365247Y893324D01*
X1422390Y893324D02*
X1422390Y1093324D01*
X1403342Y1064753D01*
X1384295Y1045705D01*
X1365247Y1036181D01*
D11*
X5406680Y-13033333D02*
X6120966Y-13033333D01*
X6263823Y-13080952D01*
X6359061Y-13176190D01*
X6406680Y-13319047D01*
X6406680Y-13414285D01*
X5501919Y-12604761D02*
X5454300Y-12557142D01*
X5406680Y-12461904D01*
X5406680Y-12223809D01*
X5454300Y-12128571D01*
X5501919Y-12080952D01*
X5597157Y-12033333D01*
X5692395Y-12033333D01*
X5835252Y-12080952D01*
X6406680Y-12652380D01*
X6406680Y-12033333D01*
D12*
X33634380Y-22060476D02*
X33634380Y-21860476D01*
X33682000Y-21860476D01*
X33710571Y-21870000D01*
X33729619Y-21889047D01*
X33739142Y-21908095D01*
X33748666Y-21946190D01*
X33748666Y-21974761D01*
X33739142Y-22012857D01*
X33729619Y-22031904D01*
X33710571Y-22050952D01*
X33682000Y-22060476D01*
X33634380Y-22060476D01*
X33920095Y-21927142D02*
X33920095Y-22060476D01*
X33872476Y-21850952D02*
X33824857Y-21993809D01*
X33948666Y-21993809D01*
X31499523Y-22601047D02*
X31490000Y-22620095D01*
X31470952Y-22639142D01*
X31442380Y-22667714D01*
X31432857Y-22686761D01*
X31432857Y-22705809D01*
X31480476Y-22696285D02*
X31470952Y-22715333D01*
X31451904Y-22734380D01*
X31413809Y-22743904D01*
X31347142Y-22743904D01*
X31309047Y-22734380D01*
X31290000Y-22715333D01*
X31280476Y-22696285D01*
X31280476Y-22658190D01*
X31290000Y-22639142D01*
X31309047Y-22620095D01*
X31347142Y-22610571D01*
X31413809Y-22610571D01*
X31451904Y-22620095D01*
X31470952Y-22639142D01*
X31480476Y-22658190D01*
X31480476Y-22696285D01*
X31299523Y-22534380D02*
X31290000Y-22524857D01*
X31280476Y-22505809D01*
X31280476Y-22458190D01*
X31290000Y-22439142D01*
X31299523Y-22429619D01*
X31318571Y-22420095D01*
X31337619Y-22420095D01*
X31366190Y-22429619D01*
X31480476Y-22543904D01*
X31480476Y-22420095D01*
X33570866Y-6454428D02*
X33561342Y-6463952D01*
X33532771Y-6473476D01*
X33513723Y-6473476D01*
X33485152Y-6463952D01*
X33466104Y-6444904D01*
X33456580Y-6425857D01*
X33447057Y-6387761D01*
X33447057Y-6359190D01*
X33456580Y-6321095D01*
X33466104Y-6302047D01*
X33485152Y-6283000D01*
X33513723Y-6273476D01*
X33532771Y-6273476D01*
X33561342Y-6283000D01*
X33570866Y-6292523D01*
X33685152Y-6359190D02*
X33666104Y-6349666D01*
X33656580Y-6340142D01*
X33647057Y-6321095D01*
X33647057Y-6311571D01*
X33656580Y-6292523D01*
X33666104Y-6283000D01*
X33685152Y-6273476D01*
X33723247Y-6273476D01*
X33742295Y-6283000D01*
X33751819Y-6292523D01*
X33761342Y-6311571D01*
X33761342Y-6321095D01*
X33751819Y-6340142D01*
X33742295Y-6349666D01*
X33723247Y-6359190D01*
X33685152Y-6359190D01*
X33666104Y-6368714D01*
X33656580Y-6378238D01*
X33647057Y-6397285D01*
X33647057Y-6435380D01*
X33656580Y-6454428D01*
X33666104Y-6463952D01*
X33685152Y-6473476D01*
X33723247Y-6473476D01*
X33742295Y-6463952D01*
X33751819Y-6454428D01*
X33761342Y-6435380D01*
X33761342Y-6397285D01*
X33751819Y-6378238D01*
X33742295Y-6368714D01*
X33723247Y-6359190D01*
X33685180Y-4966276D02*
X33685180Y-4766276D01*
X33732800Y-4766276D01*
X33761371Y-4775800D01*
X33780419Y-4794847D01*
X33789942Y-4813895D01*
X33799466Y-4851990D01*
X33799466Y-4880561D01*
X33789942Y-4918657D01*
X33780419Y-4937704D01*
X33761371Y-4956752D01*
X33732800Y-4966276D01*
X33685180Y-4966276D01*
X33980419Y-4766276D02*
X33885180Y-4766276D01*
X33875657Y-4861514D01*
X33885180Y-4851990D01*
X33904228Y-4842466D01*
X33951847Y-4842466D01*
X33970895Y-4851990D01*
X33980419Y-4861514D01*
X33989942Y-4880561D01*
X33989942Y-4928180D01*
X33980419Y-4947228D01*
X33970895Y-4956752D01*
X33951847Y-4966276D01*
X33904228Y-4966276D01*
X33885180Y-4956752D01*
X33875657Y-4947228D01*
X6467619Y-18127476D02*
X6467619Y-18289380D01*
X6477142Y-18308428D01*
X6486666Y-18317952D01*
X6505714Y-18327476D01*
X6543809Y-18327476D01*
X6562857Y-18317952D01*
X6572380Y-18308428D01*
X6581904Y-18289380D01*
X6581904Y-18127476D01*
X6667619Y-18146523D02*
X6677142Y-18137000D01*
X6696190Y-18127476D01*
X6743809Y-18127476D01*
X6762857Y-18137000D01*
X6772380Y-18146523D01*
X6781904Y-18165571D01*
X6781904Y-18184619D01*
X6772380Y-18213190D01*
X6658095Y-18327476D01*
X6781904Y-18327476D01*
X41451128Y-21542028D02*
X41441604Y-21551552D01*
X41413033Y-21561076D01*
X41393985Y-21561076D01*
X41365414Y-21551552D01*
X41346366Y-21532504D01*
X41336842Y-21513457D01*
X41327319Y-21475361D01*
X41327319Y-21446790D01*
X41336842Y-21408695D01*
X41346366Y-21389647D01*
X41365414Y-21370600D01*
X41393985Y-21361076D01*
X41413033Y-21361076D01*
X41441604Y-21370600D01*
X41451128Y-21380123D01*
X41641604Y-21561076D02*
X41527319Y-21561076D01*
X41584461Y-21561076D02*
X41584461Y-21361076D01*
X41565414Y-21389647D01*
X41546366Y-21408695D01*
X41527319Y-21418219D01*
X41755890Y-21446790D02*
X41736842Y-21437266D01*
X41727319Y-21427742D01*
X41717795Y-21408695D01*
X41717795Y-21399171D01*
X41727319Y-21380123D01*
X41736842Y-21370600D01*
X41755890Y-21361076D01*
X41793985Y-21361076D01*
X41813033Y-21370600D01*
X41822557Y-21380123D01*
X41832080Y-21399171D01*
X41832080Y-21408695D01*
X41822557Y-21427742D01*
X41813033Y-21437266D01*
X41793985Y-21446790D01*
X41755890Y-21446790D01*
X41736842Y-21456314D01*
X41727319Y-21465838D01*
X41717795Y-21484885D01*
X41717795Y-21522980D01*
X41727319Y-21542028D01*
X41736842Y-21551552D01*
X41755890Y-21561076D01*
X41793985Y-21561076D01*
X41813033Y-21551552D01*
X41822557Y-21542028D01*
X41832080Y-21522980D01*
X41832080Y-21484885D01*
X41822557Y-21465838D01*
X41813033Y-21456314D01*
X41793985Y-21446790D01*
X38250728Y-20790228D02*
X38241204Y-20799752D01*
X38212633Y-20809276D01*
X38193585Y-20809276D01*
X38165014Y-20799752D01*
X38145966Y-20780704D01*
X38136442Y-20761657D01*
X38126919Y-20723561D01*
X38126919Y-20694990D01*
X38136442Y-20656895D01*
X38145966Y-20637847D01*
X38165014Y-20618800D01*
X38193585Y-20609276D01*
X38212633Y-20609276D01*
X38241204Y-20618800D01*
X38250728Y-20628323D01*
X38326919Y-20628323D02*
X38336442Y-20618800D01*
X38355490Y-20609276D01*
X38403109Y-20609276D01*
X38422157Y-20618800D01*
X38431680Y-20628323D01*
X38441204Y-20647371D01*
X38441204Y-20666419D01*
X38431680Y-20694990D01*
X38317395Y-20809276D01*
X38441204Y-20809276D01*
X38517395Y-20628323D02*
X38526919Y-20618800D01*
X38545966Y-20609276D01*
X38593585Y-20609276D01*
X38612633Y-20618800D01*
X38622157Y-20628323D01*
X38631680Y-20647371D01*
X38631680Y-20666419D01*
X38622157Y-20694990D01*
X38507871Y-20809276D01*
X38631680Y-20809276D01*
X20751819Y-5263476D02*
X20751819Y-5425380D01*
X20761342Y-5444428D01*
X20770866Y-5453952D01*
X20789914Y-5463476D01*
X20828009Y-5463476D01*
X20847057Y-5453952D01*
X20856580Y-5444428D01*
X20866104Y-5425380D01*
X20866104Y-5263476D01*
X21047057Y-5330142D02*
X21047057Y-5463476D01*
X20999438Y-5253952D02*
X20951819Y-5396809D01*
X21075628Y-5396809D01*
X12704780Y-3469676D02*
X12704780Y-3269676D01*
X12752400Y-3269676D01*
X12780971Y-3279200D01*
X12800019Y-3298247D01*
X12809542Y-3317295D01*
X12819066Y-3355390D01*
X12819066Y-3383961D01*
X12809542Y-3422057D01*
X12800019Y-3441104D01*
X12780971Y-3460152D01*
X12752400Y-3469676D01*
X12704780Y-3469676D01*
X12990495Y-3269676D02*
X12952400Y-3269676D01*
X12933352Y-3279200D01*
X12923828Y-3288723D01*
X12904780Y-3317295D01*
X12895257Y-3355390D01*
X12895257Y-3431580D01*
X12904780Y-3450628D01*
X12914304Y-3460152D01*
X12933352Y-3469676D01*
X12971447Y-3469676D01*
X12990495Y-3460152D01*
X13000019Y-3450628D01*
X13009542Y-3431580D01*
X13009542Y-3383961D01*
X13000019Y-3364914D01*
X12990495Y-3355390D01*
X12971447Y-3345866D01*
X12933352Y-3345866D01*
X12914304Y-3355390D01*
X12904780Y-3364914D01*
X12895257Y-3383961D01*
X6134428Y-3106833D02*
X6143952Y-3116357D01*
X6153476Y-3144928D01*
X6153476Y-3163976D01*
X6143952Y-3192547D01*
X6124904Y-3211595D01*
X6105857Y-3221119D01*
X6067761Y-3230642D01*
X6039190Y-3230642D01*
X6001095Y-3221119D01*
X5982047Y-3211595D01*
X5963000Y-3192547D01*
X5953476Y-3163976D01*
X5953476Y-3144928D01*
X5963000Y-3116357D01*
X5972523Y-3106833D01*
X5953476Y-2935404D02*
X5953476Y-2973500D01*
X5963000Y-2992547D01*
X5972523Y-3002071D01*
X6001095Y-3021119D01*
X6039190Y-3030642D01*
X6115380Y-3030642D01*
X6134428Y-3021119D01*
X6143952Y-3011595D01*
X6153476Y-2992547D01*
X6153476Y-2954452D01*
X6143952Y-2935404D01*
X6134428Y-2925880D01*
X6115380Y-2916357D01*
X6067761Y-2916357D01*
X6048714Y-2925880D01*
X6039190Y-2935404D01*
X6029666Y-2954452D01*
X6029666Y-2992547D01*
X6039190Y-3011595D01*
X6048714Y-3021119D01*
X6067761Y-3030642D01*
X1731980Y-8835676D02*
X1731980Y-8635676D01*
X1779600Y-8635676D01*
X1808171Y-8645200D01*
X1827219Y-8664247D01*
X1836742Y-8683295D01*
X1846266Y-8721390D01*
X1846266Y-8749961D01*
X1836742Y-8788057D01*
X1827219Y-8807104D01*
X1808171Y-8826152D01*
X1779600Y-8835676D01*
X1731980Y-8835676D01*
X2036742Y-8835676D02*
X1922457Y-8835676D01*
X1979600Y-8835676D02*
X1979600Y-8635676D01*
X1960552Y-8664247D01*
X1941504Y-8683295D01*
X1922457Y-8692819D01*
X6610676Y-9469419D02*
X6410676Y-9469419D01*
X6410676Y-9421800D01*
X6420200Y-9393228D01*
X6439247Y-9374180D01*
X6458295Y-9364657D01*
X6496390Y-9355133D01*
X6524961Y-9355133D01*
X6563057Y-9364657D01*
X6582104Y-9374180D01*
X6601152Y-9393228D01*
X6610676Y-9421800D01*
X6610676Y-9469419D01*
X6429723Y-9278942D02*
X6420200Y-9269419D01*
X6410676Y-9250371D01*
X6410676Y-9202752D01*
X6420200Y-9183704D01*
X6429723Y-9174180D01*
X6448771Y-9164657D01*
X6467819Y-9164657D01*
X6496390Y-9174180D01*
X6610676Y-9288466D01*
X6610676Y-9164657D01*
X13034980Y-20767076D02*
X13034980Y-20567076D01*
X13082600Y-20567076D01*
X13111171Y-20576600D01*
X13130219Y-20595647D01*
X13139742Y-20614695D01*
X13149266Y-20652790D01*
X13149266Y-20681361D01*
X13139742Y-20719457D01*
X13130219Y-20738504D01*
X13111171Y-20757552D01*
X13082600Y-20767076D01*
X13034980Y-20767076D01*
X13215933Y-20567076D02*
X13339742Y-20567076D01*
X13273076Y-20643266D01*
X13301647Y-20643266D01*
X13320695Y-20652790D01*
X13330219Y-20662314D01*
X13339742Y-20681361D01*
X13339742Y-20728980D01*
X13330219Y-20748028D01*
X13320695Y-20757552D01*
X13301647Y-20767076D01*
X13244504Y-20767076D01*
X13225457Y-20757552D01*
X13215933Y-20748028D01*
X7637380Y-16125476D02*
X7637380Y-15925476D01*
X7685000Y-15925476D01*
X7713571Y-15935000D01*
X7732619Y-15954047D01*
X7742142Y-15973095D01*
X7751666Y-16011190D01*
X7751666Y-16039761D01*
X7742142Y-16077857D01*
X7732619Y-16096904D01*
X7713571Y-16115952D01*
X7685000Y-16125476D01*
X7637380Y-16125476D01*
X7818333Y-15925476D02*
X7951666Y-15925476D01*
X7865952Y-16125476D01*
X7637380Y-17585976D02*
X7637380Y-17385976D01*
X7685000Y-17385976D01*
X7713571Y-17395500D01*
X7732619Y-17414547D01*
X7742142Y-17433595D01*
X7751666Y-17471690D01*
X7751666Y-17500261D01*
X7742142Y-17538357D01*
X7732619Y-17557404D01*
X7713571Y-17576452D01*
X7685000Y-17585976D01*
X7637380Y-17585976D01*
X7865952Y-17471690D02*
X7846904Y-17462166D01*
X7837380Y-17452642D01*
X7827857Y-17433595D01*
X7827857Y-17424071D01*
X7837380Y-17405023D01*
X7846904Y-17395500D01*
X7865952Y-17385976D01*
X7904047Y-17385976D01*
X7923095Y-17395500D01*
X7932619Y-17405023D01*
X7942142Y-17424071D01*
X7942142Y-17433595D01*
X7932619Y-17452642D01*
X7923095Y-17462166D01*
X7904047Y-17471690D01*
X7865952Y-17471690D01*
X7846904Y-17481214D01*
X7837380Y-17490738D01*
X7827857Y-17509785D01*
X7827857Y-17547880D01*
X7837380Y-17566928D01*
X7846904Y-17576452D01*
X7865952Y-17585976D01*
X7904047Y-17585976D01*
X7923095Y-17576452D01*
X7932619Y-17566928D01*
X7942142Y-17547880D01*
X7942142Y-17509785D01*
X7932619Y-17490738D01*
X7923095Y-17481214D01*
X7904047Y-17471690D01*
X10446365Y-24502006D02*
X10246365Y-24502006D01*
X10389222Y-24435340D01*
X10246365Y-24368673D01*
X10446365Y-24368673D01*
X10446365Y-24168673D02*
X10446365Y-24282959D01*
X10446365Y-24225816D02*
X10246365Y-24225816D01*
X10274936Y-24244863D01*
X10293984Y-24263911D01*
X10303508Y-24282959D01*
X37022079Y-24489588D02*
X36822079Y-24489588D01*
X36964936Y-24422922D01*
X36822079Y-24356255D01*
X37022079Y-24356255D01*
X36841126Y-24270541D02*
X36831603Y-24261017D01*
X36822079Y-24241969D01*
X36822079Y-24194350D01*
X36831603Y-24175303D01*
X36841126Y-24165779D01*
X36860174Y-24156255D01*
X36879222Y-24156255D01*
X36907793Y-24165779D01*
X37022079Y-24280064D01*
X37022079Y-24156255D01*
X36999276Y-1228704D02*
X36799276Y-1228704D01*
X36942133Y-1162038D01*
X36799276Y-1095371D01*
X36999276Y-1095371D01*
X36799276Y-1019180D02*
X36799276Y-895371D01*
X36875466Y-962038D01*
X36875466Y-933466D01*
X36884990Y-914419D01*
X36894514Y-904895D01*
X36913561Y-895371D01*
X36961180Y-895371D01*
X36980228Y-904895D01*
X36989752Y-914419D01*
X36999276Y-933466D01*
X36999276Y-990609D01*
X36989752Y-1009657D01*
X36980228Y-1019180D01*
X10476476Y-1228704D02*
X10276476Y-1228704D01*
X10419333Y-1162038D01*
X10276476Y-1095371D01*
X10476476Y-1095371D01*
X10343142Y-914419D02*
X10476476Y-914419D01*
X10266952Y-962038D02*
X10409809Y-1009657D01*
X10409809Y-885847D01*
X20303123Y-22702647D02*
X20293600Y-22721695D01*
X20274552Y-22740742D01*
X20245980Y-22769314D01*
X20236457Y-22788361D01*
X20236457Y-22807409D01*
X20284076Y-22797885D02*
X20274552Y-22816933D01*
X20255504Y-22835980D01*
X20217409Y-22845504D01*
X20150742Y-22845504D01*
X20112647Y-22835980D01*
X20093600Y-22816933D01*
X20084076Y-22797885D01*
X20084076Y-22759790D01*
X20093600Y-22740742D01*
X20112647Y-22721695D01*
X20150742Y-22712171D01*
X20217409Y-22712171D01*
X20255504Y-22721695D01*
X20274552Y-22740742D01*
X20284076Y-22759790D01*
X20284076Y-22797885D01*
X20284076Y-22521695D02*
X20284076Y-22635980D01*
X20284076Y-22578838D02*
X20084076Y-22578838D01*
X20112647Y-22597885D01*
X20131695Y-22616933D01*
X20141219Y-22635980D01*
X28064123Y-3068447D02*
X28054600Y-3087495D01*
X28035552Y-3106542D01*
X28006980Y-3135114D01*
X27997457Y-3154161D01*
X27997457Y-3173209D01*
X28045076Y-3163685D02*
X28035552Y-3182733D01*
X28016504Y-3201780D01*
X27978409Y-3211304D01*
X27911742Y-3211304D01*
X27873647Y-3201780D01*
X27854600Y-3182733D01*
X27845076Y-3163685D01*
X27845076Y-3125590D01*
X27854600Y-3106542D01*
X27873647Y-3087495D01*
X27911742Y-3077971D01*
X27978409Y-3077971D01*
X28016504Y-3087495D01*
X28035552Y-3106542D01*
X28045076Y-3125590D01*
X28045076Y-3163685D01*
X27845076Y-3011304D02*
X27845076Y-2887495D01*
X27921266Y-2954161D01*
X27921266Y-2925590D01*
X27930790Y-2906542D01*
X27940314Y-2897019D01*
X27959361Y-2887495D01*
X28006980Y-2887495D01*
X28026028Y-2897019D01*
X28035552Y-2906542D01*
X28045076Y-2925590D01*
X28045076Y-2982733D01*
X28035552Y-3001780D01*
X28026028Y-3011304D01*
X15298123Y-2811647D02*
X15288600Y-2830695D01*
X15269552Y-2849742D01*
X15240980Y-2878314D01*
X15231457Y-2897361D01*
X15231457Y-2916409D01*
X15279076Y-2906885D02*
X15269552Y-2925933D01*
X15250504Y-2944980D01*
X15212409Y-2954504D01*
X15145742Y-2954504D01*
X15107647Y-2944980D01*
X15088600Y-2925933D01*
X15079076Y-2906885D01*
X15079076Y-2868790D01*
X15088600Y-2849742D01*
X15107647Y-2830695D01*
X15145742Y-2821171D01*
X15212409Y-2821171D01*
X15250504Y-2830695D01*
X15269552Y-2849742D01*
X15279076Y-2868790D01*
X15279076Y-2906885D01*
X15145742Y-2649742D02*
X15279076Y-2649742D01*
X15069552Y-2697361D02*
X15212409Y-2744980D01*
X15212409Y-2621171D01*
X16963676Y-21521733D02*
X16868438Y-21588400D01*
X16963676Y-21636019D02*
X16763676Y-21636019D01*
X16763676Y-21559828D01*
X16773200Y-21540780D01*
X16782723Y-21531257D01*
X16801771Y-21521733D01*
X16830342Y-21521733D01*
X16849390Y-21531257D01*
X16858914Y-21540780D01*
X16868438Y-21559828D01*
X16868438Y-21636019D01*
X16963676Y-21331257D02*
X16963676Y-21445542D01*
X16963676Y-21388400D02*
X16763676Y-21388400D01*
X16792247Y-21407447D01*
X16811295Y-21426495D01*
X16820819Y-21445542D01*
X19031276Y-23121933D02*
X18936038Y-23188600D01*
X19031276Y-23236219D02*
X18831276Y-23236219D01*
X18831276Y-23160028D01*
X18840800Y-23140980D01*
X18850323Y-23131457D01*
X18869371Y-23121933D01*
X18897942Y-23121933D01*
X18916990Y-23131457D01*
X18926514Y-23140980D01*
X18936038Y-23160028D01*
X18936038Y-23236219D01*
X18831276Y-23055266D02*
X18831276Y-22931457D01*
X18907466Y-22998123D01*
X18907466Y-22969552D01*
X18916990Y-22950504D01*
X18926514Y-22940980D01*
X18945561Y-22931457D01*
X18993180Y-22931457D01*
X19012228Y-22940980D01*
X19021752Y-22950504D01*
X19031276Y-22969552D01*
X19031276Y-23026695D01*
X19021752Y-23045742D01*
X19012228Y-23055266D01*
X5021266Y-8530876D02*
X4954600Y-8435638D01*
X4906980Y-8530876D02*
X4906980Y-8330876D01*
X4983171Y-8330876D01*
X5002219Y-8340400D01*
X5011742Y-8349923D01*
X5021266Y-8368971D01*
X5021266Y-8397542D01*
X5011742Y-8416590D01*
X5002219Y-8426114D01*
X4983171Y-8435638D01*
X4906980Y-8435638D01*
X5087933Y-8330876D02*
X5221266Y-8330876D01*
X5135552Y-8530876D01*
X7997476Y-9380433D02*
X7902238Y-9447100D01*
X7997476Y-9494719D02*
X7797476Y-9494719D01*
X7797476Y-9418528D01*
X7807000Y-9399480D01*
X7816523Y-9389957D01*
X7835571Y-9380433D01*
X7864142Y-9380433D01*
X7883190Y-9389957D01*
X7892714Y-9399480D01*
X7902238Y-9418528D01*
X7902238Y-9494719D01*
X7883190Y-9266147D02*
X7873666Y-9285195D01*
X7864142Y-9294719D01*
X7845095Y-9304242D01*
X7835571Y-9304242D01*
X7816523Y-9294719D01*
X7807000Y-9285195D01*
X7797476Y-9266147D01*
X7797476Y-9228052D01*
X7807000Y-9209004D01*
X7816523Y-9199480D01*
X7835571Y-9189957D01*
X7845095Y-9189957D01*
X7864142Y-9199480D01*
X7873666Y-9209004D01*
X7883190Y-9228052D01*
X7883190Y-9266147D01*
X7892714Y-9285195D01*
X7902238Y-9294719D01*
X7921285Y-9304242D01*
X7959380Y-9304242D01*
X7978428Y-9294719D01*
X7987952Y-9285195D01*
X7997476Y-9266147D01*
X7997476Y-9228052D01*
X7987952Y-9209004D01*
X7978428Y-9199480D01*
X7959380Y-9189957D01*
X7921285Y-9189957D01*
X7902238Y-9199480D01*
X7892714Y-9209004D01*
X7883190Y-9228052D01*
X32762476Y-21267833D02*
X32667238Y-21334500D01*
X32762476Y-21382119D02*
X32562476Y-21382119D01*
X32562476Y-21305928D01*
X32572000Y-21286880D01*
X32581523Y-21277357D01*
X32600571Y-21267833D01*
X32629142Y-21267833D01*
X32648190Y-21277357D01*
X32657714Y-21286880D01*
X32667238Y-21305928D01*
X32667238Y-21382119D01*
X32762476Y-21172595D02*
X32762476Y-21134500D01*
X32752952Y-21115452D01*
X32743428Y-21105928D01*
X32714857Y-21086880D01*
X32676761Y-21077357D01*
X32600571Y-21077357D01*
X32581523Y-21086880D01*
X32572000Y-21096404D01*
X32562476Y-21115452D01*
X32562476Y-21153547D01*
X32572000Y-21172595D01*
X32581523Y-21182119D01*
X32600571Y-21191642D01*
X32648190Y-21191642D01*
X32667238Y-21182119D01*
X32676761Y-21172595D01*
X32686285Y-21153547D01*
X32686285Y-21115452D01*
X32676761Y-21096404D01*
X32667238Y-21086880D01*
X32648190Y-21077357D01*
X28801928Y-18218476D02*
X28735261Y-18123238D01*
X28687642Y-18218476D02*
X28687642Y-18018476D01*
X28763833Y-18018476D01*
X28782880Y-18028000D01*
X28792404Y-18037523D01*
X28801928Y-18056571D01*
X28801928Y-18085142D01*
X28792404Y-18104190D01*
X28782880Y-18113714D01*
X28763833Y-18123238D01*
X28687642Y-18123238D01*
X28992404Y-18218476D02*
X28878119Y-18218476D01*
X28935261Y-18218476D02*
X28935261Y-18018476D01*
X28916214Y-18047047D01*
X28897166Y-18066095D01*
X28878119Y-18075619D01*
X29116214Y-18018476D02*
X29135261Y-18018476D01*
X29154309Y-18028000D01*
X29163833Y-18037523D01*
X29173357Y-18056571D01*
X29182880Y-18094666D01*
X29182880Y-18142285D01*
X29173357Y-18180380D01*
X29163833Y-18199428D01*
X29154309Y-18208952D01*
X29135261Y-18218476D01*
X29116214Y-18218476D01*
X29097166Y-18208952D01*
X29087642Y-18199428D01*
X29078119Y-18180380D01*
X29068595Y-18142285D01*
X29068595Y-18094666D01*
X29078119Y-18056571D01*
X29087642Y-18037523D01*
X29097166Y-18028000D01*
X29116214Y-18018476D01*
X26625876Y-4421171D02*
X26530638Y-4487838D01*
X26625876Y-4535457D02*
X26425876Y-4535457D01*
X26425876Y-4459266D01*
X26435400Y-4440219D01*
X26444923Y-4430695D01*
X26463971Y-4421171D01*
X26492542Y-4421171D01*
X26511590Y-4430695D01*
X26521114Y-4440219D01*
X26530638Y-4459266D01*
X26530638Y-4535457D01*
X26625876Y-4230695D02*
X26625876Y-4344980D01*
X26625876Y-4287838D02*
X26425876Y-4287838D01*
X26454447Y-4306885D01*
X26473495Y-4325933D01*
X26483019Y-4344980D01*
X26625876Y-4040219D02*
X26625876Y-4154504D01*
X26625876Y-4097361D02*
X26425876Y-4097361D01*
X26454447Y-4116409D01*
X26473495Y-4135457D01*
X26483019Y-4154504D01*
X30275328Y-7972076D02*
X30208661Y-7876838D01*
X30161042Y-7972076D02*
X30161042Y-7772076D01*
X30237233Y-7772076D01*
X30256280Y-7781600D01*
X30265804Y-7791123D01*
X30275328Y-7810171D01*
X30275328Y-7838742D01*
X30265804Y-7857790D01*
X30256280Y-7867314D01*
X30237233Y-7876838D01*
X30161042Y-7876838D01*
X30465804Y-7972076D02*
X30351519Y-7972076D01*
X30408661Y-7972076D02*
X30408661Y-7772076D01*
X30389614Y-7800647D01*
X30370566Y-7819695D01*
X30351519Y-7829219D01*
X30541995Y-7791123D02*
X30551519Y-7781600D01*
X30570566Y-7772076D01*
X30618185Y-7772076D01*
X30637233Y-7781600D01*
X30646757Y-7791123D01*
X30656280Y-7810171D01*
X30656280Y-7829219D01*
X30646757Y-7857790D01*
X30532471Y-7972076D01*
X30656280Y-7972076D01*
X13925876Y-4192571D02*
X13830638Y-4259238D01*
X13925876Y-4306857D02*
X13725876Y-4306857D01*
X13725876Y-4230666D01*
X13735400Y-4211619D01*
X13744923Y-4202095D01*
X13763971Y-4192571D01*
X13792542Y-4192571D01*
X13811590Y-4202095D01*
X13821114Y-4211619D01*
X13830638Y-4230666D01*
X13830638Y-4306857D01*
X13925876Y-4002095D02*
X13925876Y-4116380D01*
X13925876Y-4059238D02*
X13725876Y-4059238D01*
X13754447Y-4078285D01*
X13773495Y-4097333D01*
X13783019Y-4116380D01*
X13725876Y-3935428D02*
X13725876Y-3811619D01*
X13802066Y-3878285D01*
X13802066Y-3849714D01*
X13811590Y-3830666D01*
X13821114Y-3821142D01*
X13840161Y-3811619D01*
X13887780Y-3811619D01*
X13906828Y-3821142D01*
X13916352Y-3830666D01*
X13925876Y-3849714D01*
X13925876Y-3906857D01*
X13916352Y-3925904D01*
X13906828Y-3935428D01*
X7656528Y-14664976D02*
X7589861Y-14569738D01*
X7542242Y-14664976D02*
X7542242Y-14464976D01*
X7618433Y-14464976D01*
X7637480Y-14474500D01*
X7647004Y-14484023D01*
X7656528Y-14503071D01*
X7656528Y-14531642D01*
X7647004Y-14550690D01*
X7637480Y-14560214D01*
X7618433Y-14569738D01*
X7542242Y-14569738D01*
X7847004Y-14664976D02*
X7732719Y-14664976D01*
X7789861Y-14664976D02*
X7789861Y-14464976D01*
X7770814Y-14493547D01*
X7751766Y-14512595D01*
X7732719Y-14522119D01*
X8027957Y-14464976D02*
X7932719Y-14464976D01*
X7923195Y-14560214D01*
X7932719Y-14550690D01*
X7951766Y-14541166D01*
X7999385Y-14541166D01*
X8018433Y-14550690D01*
X8027957Y-14560214D01*
X8037480Y-14579261D01*
X8037480Y-14626880D01*
X8027957Y-14645928D01*
X8018433Y-14655452D01*
X7999385Y-14664976D01*
X7951766Y-14664976D01*
X7932719Y-14655452D01*
X7923195Y-14645928D01*
X7656528Y-19046476D02*
X7589861Y-18951238D01*
X7542242Y-19046476D02*
X7542242Y-18846476D01*
X7618433Y-18846476D01*
X7637480Y-18856000D01*
X7647004Y-18865523D01*
X7656528Y-18884571D01*
X7656528Y-18913142D01*
X7647004Y-18932190D01*
X7637480Y-18941714D01*
X7618433Y-18951238D01*
X7542242Y-18951238D01*
X7847004Y-19046476D02*
X7732719Y-19046476D01*
X7789861Y-19046476D02*
X7789861Y-18846476D01*
X7770814Y-18875047D01*
X7751766Y-18894095D01*
X7732719Y-18903619D01*
X8018433Y-18846476D02*
X7980338Y-18846476D01*
X7961290Y-18856000D01*
X7951766Y-18865523D01*
X7932719Y-18894095D01*
X7923195Y-18932190D01*
X7923195Y-19008380D01*
X7932719Y-19027428D01*
X7942242Y-19036952D01*
X7961290Y-19046476D01*
X7999385Y-19046476D01*
X8018433Y-19036952D01*
X8027957Y-19027428D01*
X8037480Y-19008380D01*
X8037480Y-18960761D01*
X8027957Y-18941714D01*
X8018433Y-18932190D01*
X7999385Y-18922666D01*
X7961290Y-18922666D01*
X7942242Y-18932190D01*
X7932719Y-18941714D01*
X7923195Y-18960761D01*
X12401876Y-15647871D02*
X12306638Y-15714538D01*
X12401876Y-15762157D02*
X12201876Y-15762157D01*
X12201876Y-15685966D01*
X12211400Y-15666919D01*
X12220923Y-15657395D01*
X12239971Y-15647871D01*
X12268542Y-15647871D01*
X12287590Y-15657395D01*
X12297114Y-15666919D01*
X12306638Y-15685966D01*
X12306638Y-15762157D01*
X12401876Y-15457395D02*
X12401876Y-15571680D01*
X12401876Y-15514538D02*
X12201876Y-15514538D01*
X12230447Y-15533585D01*
X12249495Y-15552633D01*
X12259019Y-15571680D01*
X12201876Y-15390728D02*
X12201876Y-15257395D01*
X12401876Y-15343109D01*
X12685533Y-15691152D02*
X12714104Y-15700676D01*
X12761723Y-15700676D01*
X12780771Y-15691152D01*
X12790295Y-15681628D01*
X12799819Y-15662580D01*
X12799819Y-15643533D01*
X12790295Y-15624485D01*
X12780771Y-15614961D01*
X12761723Y-15605438D01*
X12723628Y-15595914D01*
X12704580Y-15586390D01*
X12695057Y-15576866D01*
X12685533Y-15557819D01*
X12685533Y-15538771D01*
X12695057Y-15519723D01*
X12704580Y-15510200D01*
X12723628Y-15500676D01*
X12771247Y-15500676D01*
X12799819Y-15510200D01*
X12866485Y-15500676D02*
X12914104Y-15700676D01*
X12952200Y-15557819D01*
X12990295Y-15700676D01*
X13037914Y-15500676D01*
X13218866Y-15700676D02*
X13104580Y-15700676D01*
X13161723Y-15700676D02*
X13161723Y-15500676D01*
X13142676Y-15529247D01*
X13123628Y-15548295D01*
X13104580Y-15557819D01*
X7443428Y-2671571D02*
X7452952Y-2681095D01*
X7462476Y-2709666D01*
X7462476Y-2728714D01*
X7452952Y-2757285D01*
X7433904Y-2776333D01*
X7414857Y-2785857D01*
X7376761Y-2795380D01*
X7348190Y-2795380D01*
X7310095Y-2785857D01*
X7291047Y-2776333D01*
X7272000Y-2757285D01*
X7262476Y-2728714D01*
X7262476Y-2709666D01*
X7272000Y-2681095D01*
X7281523Y-2671571D01*
X7462476Y-2481095D02*
X7462476Y-2595380D01*
X7462476Y-2538238D02*
X7262476Y-2538238D01*
X7291047Y-2557285D01*
X7310095Y-2576333D01*
X7319619Y-2595380D01*
X7262476Y-2414428D02*
X7262476Y-2290619D01*
X7338666Y-2357285D01*
X7338666Y-2328714D01*
X7348190Y-2309666D01*
X7357714Y-2300142D01*
X7376761Y-2290619D01*
X7424380Y-2290619D01*
X7443428Y-2300142D01*
X7452952Y-2309666D01*
X7462476Y-2328714D01*
X7462476Y-2385857D01*
X7452952Y-2404904D01*
X7443428Y-2414428D01*
X13276366Y-19393228D02*
X13266842Y-19402752D01*
X13238271Y-19412276D01*
X13219223Y-19412276D01*
X13190652Y-19402752D01*
X13171604Y-19383704D01*
X13162080Y-19364657D01*
X13152557Y-19326561D01*
X13152557Y-19297990D01*
X13162080Y-19259895D01*
X13171604Y-19240847D01*
X13190652Y-19221800D01*
X13219223Y-19212276D01*
X13238271Y-19212276D01*
X13266842Y-19221800D01*
X13276366Y-19231323D01*
X13466842Y-19412276D02*
X13352557Y-19412276D01*
X13409700Y-19412276D02*
X13409700Y-19212276D01*
X13390652Y-19240847D01*
X13371604Y-19259895D01*
X13352557Y-19269419D01*
X33748766Y-23777228D02*
X33739242Y-23786752D01*
X33710671Y-23796276D01*
X33691623Y-23796276D01*
X33663052Y-23786752D01*
X33644004Y-23767704D01*
X33634480Y-23748657D01*
X33624957Y-23710561D01*
X33624957Y-23681990D01*
X33634480Y-23643895D01*
X33644004Y-23624847D01*
X33663052Y-23605800D01*
X33691623Y-23596276D01*
X33710671Y-23596276D01*
X33739242Y-23605800D01*
X33748766Y-23615323D01*
X33824957Y-23615323D02*
X33834480Y-23605800D01*
X33853528Y-23596276D01*
X33901147Y-23596276D01*
X33920195Y-23605800D01*
X33929719Y-23615323D01*
X33939242Y-23634371D01*
X33939242Y-23653419D01*
X33929719Y-23681990D01*
X33815433Y-23796276D01*
X33939242Y-23796276D01*
X2451428Y-3110933D02*
X2460952Y-3120457D01*
X2470476Y-3149028D01*
X2470476Y-3168076D01*
X2460952Y-3196647D01*
X2441904Y-3215695D01*
X2422857Y-3225219D01*
X2384761Y-3234742D01*
X2356190Y-3234742D01*
X2318095Y-3225219D01*
X2299047Y-3215695D01*
X2280000Y-3196647D01*
X2270476Y-3168076D01*
X2270476Y-3149028D01*
X2280000Y-3120457D01*
X2289523Y-3110933D01*
X2270476Y-3044266D02*
X2270476Y-2920457D01*
X2346666Y-2987123D01*
X2346666Y-2958552D01*
X2356190Y-2939504D01*
X2365714Y-2929980D01*
X2384761Y-2920457D01*
X2432380Y-2920457D01*
X2451428Y-2929980D01*
X2460952Y-2939504D01*
X2470476Y-2958552D01*
X2470476Y-3015695D01*
X2460952Y-3034742D01*
X2451428Y-3044266D01*
X140028Y-20078133D02*
X149552Y-20087657D01*
X159076Y-20116228D01*
X159076Y-20135276D01*
X149552Y-20163847D01*
X130504Y-20182895D01*
X111457Y-20192419D01*
X73361Y-20201942D01*
X44790Y-20201942D01*
X6695Y-20192419D01*
X-12353Y-20182895D01*
X-31400Y-20163847D01*
X-40924Y-20135276D01*
X-40924Y-20116228D01*
X-31400Y-20087657D01*
X-21877Y-20078133D01*
X25742Y-19906704D02*
X159076Y-19906704D01*
X-50448Y-19954323D02*
X92409Y-20001942D01*
X92409Y-19878133D01*
X1751028Y-7419628D02*
X1741504Y-7429152D01*
X1712933Y-7438676D01*
X1693885Y-7438676D01*
X1665314Y-7429152D01*
X1646266Y-7410104D01*
X1636742Y-7391057D01*
X1627219Y-7352961D01*
X1627219Y-7324390D01*
X1636742Y-7286295D01*
X1646266Y-7267247D01*
X1665314Y-7248200D01*
X1693885Y-7238676D01*
X1712933Y-7238676D01*
X1741504Y-7248200D01*
X1751028Y-7257723D01*
X1941504Y-7438676D02*
X1827219Y-7438676D01*
X1884361Y-7438676D02*
X1884361Y-7238676D01*
X1865314Y-7267247D01*
X1846266Y-7286295D01*
X1827219Y-7295819D01*
X2065314Y-7238676D02*
X2084361Y-7238676D01*
X2103409Y-7248200D01*
X2112933Y-7257723D01*
X2122457Y-7276771D01*
X2131980Y-7314866D01*
X2131980Y-7362485D01*
X2122457Y-7400580D01*
X2112933Y-7419628D01*
X2103409Y-7429152D01*
X2084361Y-7438676D01*
X2065314Y-7438676D01*
X2046266Y-7429152D01*
X2036742Y-7419628D01*
X2027219Y-7400580D01*
X2017695Y-7362485D01*
X2017695Y-7314866D01*
X2027219Y-7276771D01*
X2036742Y-7257723D01*
X2046266Y-7248200D01*
X2065314Y-7238676D01*
X25500128Y-3797628D02*
X25490604Y-3807152D01*
X25462033Y-3816676D01*
X25442985Y-3816676D01*
X25414414Y-3807152D01*
X25395366Y-3788104D01*
X25385842Y-3769057D01*
X25376319Y-3730961D01*
X25376319Y-3702390D01*
X25385842Y-3664295D01*
X25395366Y-3645247D01*
X25414414Y-3626200D01*
X25442985Y-3616676D01*
X25462033Y-3616676D01*
X25490604Y-3626200D01*
X25500128Y-3635723D01*
X25690604Y-3816676D02*
X25576319Y-3816676D01*
X25633461Y-3816676D02*
X25633461Y-3616676D01*
X25614414Y-3645247D01*
X25595366Y-3664295D01*
X25576319Y-3673819D01*
X25881080Y-3816676D02*
X25766795Y-3816676D01*
X25823938Y-3816676D02*
X25823938Y-3616676D01*
X25804890Y-3645247D01*
X25785842Y-3664295D01*
X25766795Y-3673819D01*
X12876328Y-1943428D02*
X12866804Y-1952952D01*
X12838233Y-1962476D01*
X12819185Y-1962476D01*
X12790614Y-1952952D01*
X12771566Y-1933904D01*
X12762042Y-1914857D01*
X12752519Y-1876761D01*
X12752519Y-1848190D01*
X12762042Y-1810095D01*
X12771566Y-1791047D01*
X12790614Y-1772000D01*
X12819185Y-1762476D01*
X12838233Y-1762476D01*
X12866804Y-1772000D01*
X12876328Y-1781523D01*
X13066804Y-1962476D02*
X12952519Y-1962476D01*
X13009661Y-1962476D02*
X13009661Y-1762476D01*
X12990614Y-1791047D01*
X12971566Y-1810095D01*
X12952519Y-1819619D01*
X13133471Y-1762476D02*
X13266804Y-1762476D01*
X13181090Y-1962476D01*
X22375828Y-6530628D02*
X22366304Y-6540152D01*
X22337733Y-6549676D01*
X22318685Y-6549676D01*
X22290114Y-6540152D01*
X22271066Y-6521104D01*
X22261542Y-6502057D01*
X22252019Y-6463961D01*
X22252019Y-6435390D01*
X22261542Y-6397295D01*
X22271066Y-6378247D01*
X22290114Y-6359200D01*
X22318685Y-6349676D01*
X22337733Y-6349676D01*
X22366304Y-6359200D01*
X22375828Y-6368723D01*
X22566304Y-6549676D02*
X22452019Y-6549676D01*
X22509161Y-6549676D02*
X22509161Y-6349676D01*
X22490114Y-6378247D01*
X22471066Y-6397295D01*
X22452019Y-6406819D01*
X22661542Y-6549676D02*
X22699638Y-6549676D01*
X22718685Y-6540152D01*
X22728209Y-6530628D01*
X22747257Y-6502057D01*
X22756780Y-6463961D01*
X22756780Y-6387771D01*
X22747257Y-6368723D01*
X22737733Y-6359200D01*
X22718685Y-6349676D01*
X22680590Y-6349676D01*
X22661542Y-6359200D01*
X22652019Y-6368723D01*
X22642495Y-6387771D01*
X22642495Y-6435390D01*
X22652019Y-6454438D01*
X22661542Y-6463961D01*
X22680590Y-6473485D01*
X22718685Y-6473485D01*
X22737733Y-6463961D01*
X22747257Y-6454438D01*
X22756780Y-6435390D01*
X15268228Y-9882071D02*
X15277752Y-9891595D01*
X15287276Y-9920166D01*
X15287276Y-9939214D01*
X15277752Y-9967785D01*
X15258704Y-9986833D01*
X15239657Y-9996357D01*
X15201561Y-10005880D01*
X15172990Y-10005880D01*
X15134895Y-9996357D01*
X15115847Y-9986833D01*
X15096800Y-9967785D01*
X15087276Y-9939214D01*
X15087276Y-9920166D01*
X15096800Y-9891595D01*
X15106323Y-9882071D01*
X15106323Y-9805880D02*
X15096800Y-9796357D01*
X15087276Y-9777309D01*
X15087276Y-9729690D01*
X15096800Y-9710642D01*
X15106323Y-9701119D01*
X15125371Y-9691595D01*
X15144419Y-9691595D01*
X15172990Y-9701119D01*
X15287276Y-9815404D01*
X15287276Y-9691595D01*
X15087276Y-9567785D02*
X15087276Y-9548738D01*
X15096800Y-9529690D01*
X15106323Y-9520166D01*
X15125371Y-9510642D01*
X15163466Y-9501119D01*
X15211085Y-9501119D01*
X15249180Y-9510642D01*
X15268228Y-9520166D01*
X15277752Y-9529690D01*
X15287276Y-9548738D01*
X15287276Y-9567785D01*
X15277752Y-9586833D01*
X15268228Y-9596357D01*
X15249180Y-9605880D01*
X15211085Y-9615404D01*
X15163466Y-9615404D01*
X15125371Y-9605880D01*
X15106323Y-9596357D01*
X15096800Y-9586833D01*
X15087276Y-9567785D01*
X12408228Y-12828571D02*
X12417752Y-12838095D01*
X12427276Y-12866666D01*
X12427276Y-12885714D01*
X12417752Y-12914285D01*
X12398704Y-12933333D01*
X12379657Y-12942857D01*
X12341561Y-12952380D01*
X12312990Y-12952380D01*
X12274895Y-12942857D01*
X12255847Y-12933333D01*
X12236800Y-12914285D01*
X12227276Y-12885714D01*
X12227276Y-12866666D01*
X12236800Y-12838095D01*
X12246323Y-12828571D01*
X12246323Y-12752380D02*
X12236800Y-12742857D01*
X12227276Y-12723809D01*
X12227276Y-12676190D01*
X12236800Y-12657142D01*
X12246323Y-12647619D01*
X12265371Y-12638095D01*
X12284419Y-12638095D01*
X12312990Y-12647619D01*
X12427276Y-12761904D01*
X12427276Y-12638095D01*
X12427276Y-12447619D02*
X12427276Y-12561904D01*
X12427276Y-12504761D02*
X12227276Y-12504761D01*
X12255847Y-12523809D01*
X12274895Y-12542857D01*
X12284419Y-12561904D01*
D11*
X19423580Y-1654133D02*
X20137866Y-1654133D01*
X20280723Y-1701752D01*
X20375961Y-1796990D01*
X20423580Y-1939847D01*
X20423580Y-2035085D01*
X19423580Y-701752D02*
X19423580Y-1177942D01*
X19899771Y-1225561D01*
X19852152Y-1177942D01*
X19804533Y-1082704D01*
X19804533Y-844609D01*
X19852152Y-749371D01*
X19899771Y-701752D01*
X19995009Y-654133D01*
X20233104Y-654133D01*
X20328342Y-701752D01*
X20375961Y-749371D01*
X20423580Y-844609D01*
X20423580Y-1082704D01*
X20375961Y-1177942D01*
X20328342Y-1225561D01*
X22075380Y-1817666D02*
X21599190Y-2151000D01*
X22075380Y-2389095D02*
X21075380Y-2389095D01*
X21075380Y-2008142D01*
X21123000Y-1912904D01*
X21170619Y-1865285D01*
X21265857Y-1817666D01*
X21408714Y-1817666D01*
X21503952Y-1865285D01*
X21551571Y-1912904D01*
X21599190Y-2008142D01*
X21599190Y-2389095D01*
X21170619Y-1436714D02*
X21123000Y-1389095D01*
X21075380Y-1293857D01*
X21075380Y-1055761D01*
X21123000Y-960523D01*
X21170619Y-912904D01*
X21265857Y-865285D01*
X21361095Y-865285D01*
X21503952Y-912904D01*
X22075380Y-1484333D01*
X22075380Y-865285D01*
X34772066Y-5745380D02*
X34772066Y-6459666D01*
X34724447Y-6602523D01*
X34629209Y-6697761D01*
X34486352Y-6745380D01*
X34391114Y-6745380D01*
X35676828Y-6078714D02*
X35676828Y-6745380D01*
X35438733Y-5697761D02*
X35200638Y-6412047D01*
X35819685Y-6412047D01*
M02*
