G04 #@! TF.GenerationSoftware,KiCad,Pcbnew,(5.1.5)-3*
G04 #@! TF.CreationDate,2020-04-16T14:44:53-04:00*
G04 #@! TF.ProjectId,STM32_SMD_Quadcopter,53544d33-325f-4534-9d44-5f5175616463,rev?*
G04 #@! TF.SameCoordinates,PX2daf690PY1aab7d8*
G04 #@! TF.FileFunction,Legend,Bot*
G04 #@! TF.FilePolarity,Positive*
%FSLAX46Y46*%
G04 Gerber Fmt 4.6, Leading zero omitted, Abs format (unit mm)*
G04 Created by KiCad (PCBNEW (5.1.5)-3) date 2020-04-16 14:44:53*
%MOMM*%
%LPD*%
G04 APERTURE LIST*
%ADD10C,0.120000*%
%ADD11C,0.050000*%
%ADD12C,0.150000*%
G04 APERTURE END LIST*
D10*
X17942779Y-3960400D02*
X17617221Y-3960400D01*
X17942779Y-4980400D02*
X17617221Y-4980400D01*
X8968200Y-22311579D02*
X8968200Y-21986021D01*
X7948200Y-22311579D02*
X7948200Y-21986021D01*
X4731936Y-11901000D02*
X5936064Y-11901000D01*
X4731936Y-9181000D02*
X5936064Y-9181000D01*
X11204000Y-12926000D02*
X10554000Y-12926000D01*
X7084000Y-17046000D02*
X7734000Y-17046000D01*
X7084000Y-12926000D02*
X7734000Y-12926000D01*
X7084000Y-17046000D02*
X7084000Y-16396000D01*
X7084000Y-12926000D02*
X7084000Y-13576000D01*
X11204000Y-12926000D02*
X11204000Y-13576000D01*
X11204000Y-17046000D02*
X11204000Y-16396000D01*
X3194000Y-2687000D02*
X4454000Y-2687000D01*
X10014000Y-2687000D02*
X8754000Y-2687000D01*
X3194000Y-6447000D02*
X3194000Y-2687000D01*
X10014000Y-8697000D02*
X10014000Y-2687000D01*
X29131800Y-8468579D02*
X29131800Y-8143021D01*
X30151800Y-8468579D02*
X30151800Y-8143021D01*
X27658600Y-8143021D02*
X27658600Y-8468579D01*
X28678600Y-8143021D02*
X28678600Y-8468579D01*
X15663000Y-16695600D02*
X15663000Y-22995600D01*
X28533000Y-17395600D02*
X28533000Y-22995600D01*
X15663000Y-12985600D02*
X15663000Y-14795600D01*
X28533000Y-12985600D02*
X17273000Y-12985600D01*
X28533000Y-14145600D02*
X28533000Y-12985600D01*
X15773000Y-12985600D02*
X15663000Y-12985600D01*
D11*
X17908571Y-3130876D02*
X17975238Y-3035638D01*
X18022857Y-3130876D02*
X18022857Y-2930876D01*
X17946666Y-2930876D01*
X17927619Y-2940400D01*
X17918095Y-2949923D01*
X17908571Y-2968971D01*
X17908571Y-2997542D01*
X17918095Y-3016590D01*
X17927619Y-3026114D01*
X17946666Y-3035638D01*
X18022857Y-3035638D01*
X17718095Y-3130876D02*
X17832380Y-3130876D01*
X17775238Y-3130876D02*
X17775238Y-2930876D01*
X17794285Y-2959447D01*
X17813333Y-2978495D01*
X17832380Y-2988019D01*
X17546666Y-2997542D02*
X17546666Y-3130876D01*
X17594285Y-2921352D02*
X17641904Y-3064209D01*
X17518095Y-3064209D01*
X9959628Y-22115466D02*
X9969152Y-22105942D01*
X9978676Y-22077371D01*
X9978676Y-22058323D01*
X9969152Y-22029752D01*
X9950104Y-22010704D01*
X9931057Y-22001180D01*
X9892961Y-21991657D01*
X9864390Y-21991657D01*
X9826295Y-22001180D01*
X9807247Y-22010704D01*
X9788200Y-22029752D01*
X9778676Y-22058323D01*
X9778676Y-22077371D01*
X9788200Y-22105942D01*
X9797723Y-22115466D01*
X9778676Y-22182133D02*
X9778676Y-22315466D01*
X9978676Y-22229752D01*
X5367333Y-12892428D02*
X5376857Y-12901952D01*
X5405428Y-12911476D01*
X5424476Y-12911476D01*
X5453047Y-12901952D01*
X5472095Y-12882904D01*
X5481619Y-12863857D01*
X5491142Y-12825761D01*
X5491142Y-12797190D01*
X5481619Y-12759095D01*
X5472095Y-12740047D01*
X5453047Y-12721000D01*
X5424476Y-12711476D01*
X5405428Y-12711476D01*
X5376857Y-12721000D01*
X5367333Y-12730523D01*
X5186380Y-12711476D02*
X5281619Y-12711476D01*
X5291142Y-12806714D01*
X5281619Y-12797190D01*
X5262571Y-12787666D01*
X5214952Y-12787666D01*
X5195904Y-12797190D01*
X5186380Y-12806714D01*
X5176857Y-12825761D01*
X5176857Y-12873380D01*
X5186380Y-12892428D01*
X5195904Y-12901952D01*
X5214952Y-12911476D01*
X5262571Y-12911476D01*
X5281619Y-12901952D01*
X5291142Y-12892428D01*
X12434476Y-14833619D02*
X12596380Y-14833619D01*
X12615428Y-14843142D01*
X12624952Y-14852666D01*
X12634476Y-14871714D01*
X12634476Y-14909809D01*
X12624952Y-14928857D01*
X12615428Y-14938380D01*
X12596380Y-14947904D01*
X12434476Y-14947904D01*
X12434476Y-15024095D02*
X12434476Y-15147904D01*
X12510666Y-15081238D01*
X12510666Y-15109809D01*
X12520190Y-15128857D01*
X12529714Y-15138380D01*
X12548761Y-15147904D01*
X12596380Y-15147904D01*
X12615428Y-15138380D01*
X12624952Y-15128857D01*
X12634476Y-15109809D01*
X12634476Y-15052666D01*
X12624952Y-15033619D01*
X12615428Y-15024095D01*
X10994476Y-4444619D02*
X11156380Y-4444619D01*
X11175428Y-4454142D01*
X11184952Y-4463666D01*
X11194476Y-4482714D01*
X11194476Y-4520809D01*
X11184952Y-4539857D01*
X11175428Y-4549380D01*
X11156380Y-4558904D01*
X10994476Y-4558904D01*
X11194476Y-4758904D02*
X11194476Y-4644619D01*
X11194476Y-4701761D02*
X10994476Y-4701761D01*
X11023047Y-4682714D01*
X11042095Y-4663666D01*
X11051619Y-4644619D01*
D12*
X31524180Y-8139133D02*
X31047990Y-7805800D01*
X31524180Y-7567704D02*
X30524180Y-7567704D01*
X30524180Y-7948657D01*
X30571800Y-8043895D01*
X30619419Y-8091514D01*
X30714657Y-8139133D01*
X30857514Y-8139133D01*
X30952752Y-8091514D01*
X31000371Y-8043895D01*
X31047990Y-7948657D01*
X31047990Y-7567704D01*
X30857514Y-8996276D02*
X31524180Y-8996276D01*
X30476561Y-8758180D02*
X31190847Y-8520085D01*
X31190847Y-9139133D01*
X27190980Y-8139133D02*
X26714790Y-7805800D01*
X27190980Y-7567704D02*
X26190980Y-7567704D01*
X26190980Y-7948657D01*
X26238600Y-8043895D01*
X26286219Y-8091514D01*
X26381457Y-8139133D01*
X26524314Y-8139133D01*
X26619552Y-8091514D01*
X26667171Y-8043895D01*
X26714790Y-7948657D01*
X26714790Y-7567704D01*
X26190980Y-9043895D02*
X26190980Y-8567704D01*
X26667171Y-8520085D01*
X26619552Y-8567704D01*
X26571933Y-8662942D01*
X26571933Y-8901038D01*
X26619552Y-8996276D01*
X26667171Y-9043895D01*
X26762409Y-9091514D01*
X27000504Y-9091514D01*
X27095742Y-9043895D01*
X27143361Y-8996276D01*
X27190980Y-8901038D01*
X27190980Y-8662942D01*
X27143361Y-8567704D01*
X27095742Y-8520085D01*
X22456333Y-10597980D02*
X22456333Y-11312266D01*
X22503952Y-11455123D01*
X22599190Y-11550361D01*
X22742047Y-11597980D01*
X22837285Y-11597980D01*
X22075380Y-10597980D02*
X21456333Y-10597980D01*
X21789666Y-10978933D01*
X21646809Y-10978933D01*
X21551571Y-11026552D01*
X21503952Y-11074171D01*
X21456333Y-11169409D01*
X21456333Y-11407504D01*
X21503952Y-11502742D01*
X21551571Y-11550361D01*
X21646809Y-11597980D01*
X21932523Y-11597980D01*
X22027761Y-11550361D01*
X22075380Y-11502742D01*
M02*
